G04 PROTEUS GERBER X2 FILE*
%TF.GenerationSoftware,Labcenter,Proteus,8.15-SP0-Build33980*%
%TF.CreationDate,2023-03-15T16:04:22+00:00*%
%TF.FileFunction,Paste,Bot*%
%TF.FilePolarity,Positive*%
%TF.Part,Single*%
%TF.SameCoordinates,{4545a914-5e6f-4f91-a9de-dead5439e7db}*%
%FSLAX45Y45*%
%MOMM*%
G01*
%TA.AperFunction,Material*%
%ADD119R,0.558800X0.609600*%
%TA.AperFunction,Profile*%
%ADD47C,0.101600*%
%TD.AperFunction*%
D119*
X-3740000Y+4800000D03*
X-3640000Y+4800000D03*
X-3740000Y+5000000D03*
X-3640000Y+5000000D03*
X-3740000Y+5200000D03*
X-3640000Y+5200000D03*
X-3740000Y+4200000D03*
X-3640000Y+4200000D03*
X-3740000Y+4400000D03*
X-3640000Y+4400000D03*
X-3740000Y+4600000D03*
X-3640000Y+4600000D03*
X-3900000Y+1000000D03*
X-3800000Y+1000000D03*
X-3900000Y+766666D03*
X-3800000Y+766666D03*
X-3900000Y+533333D03*
X-3800000Y+533333D03*
X-3900000Y+300000D03*
X-3800000Y+300000D03*
D47*
X+5500000Y-6900000D02*
X+5498010Y-6920447D01*
X+5492285Y-6939355D01*
X+5471094Y-6971094D01*
X+5439356Y-6992285D01*
X+5420447Y-6998010D01*
X+5400000Y-7000000D01*
X-5500000Y-6900000D02*
X-5498010Y-6920447D01*
X-5492285Y-6939355D01*
X-5471094Y-6971094D01*
X-5439356Y-6992285D01*
X-5420447Y-6998010D01*
X-5400000Y-7000000D01*
X+5400000Y+8000000D02*
X+5420447Y+7998010D01*
X+5439356Y+7992285D01*
X+5471094Y+7971094D01*
X+5492285Y+7939355D01*
X+5498010Y+7920447D01*
X+5500000Y+7900000D01*
X-5400000Y+8000000D02*
X-5420447Y+7998010D01*
X-5439356Y+7992285D01*
X-5471094Y+7971094D01*
X-5492285Y+7939355D01*
X-5498010Y+7920447D01*
X-5500000Y+7900000D01*
X-5400000Y+8000000D02*
X+5400000Y+8000000D01*
X+5500000Y+7900000D02*
X+5500000Y-6900000D01*
X+5400000Y-7000000D02*
X-5400000Y-7000000D01*
X-5500000Y-6900000D02*
X-5500000Y+7900000D01*
M02*
