G04 PROTEUS GERBER X2 FILE*
%TF.GenerationSoftware,Labcenter,Proteus,8.15-SP0-Build33980*%
%TF.CreationDate,2023-03-15T16:04:22+00:00*%
%TF.FileFunction,Legend,Bot*%
%TF.FilePolarity,Positive*%
%TF.Part,Single*%
%TF.SameCoordinates,{4545a914-5e6f-4f91-a9de-dead5439e7db}*%
%FSLAX45Y45*%
%MOMM*%
G01*
%TA.AperFunction,Profile*%
%ADD47C,0.101600*%
%TA.AperFunction,Material*%
%ADD53C,0.508000*%
%ADD52C,0.101600*%
%TD.AperFunction*%
D47*
X+5500000Y-6900000D02*
X+5498010Y-6920447D01*
X+5492285Y-6939355D01*
X+5471094Y-6971094D01*
X+5439356Y-6992285D01*
X+5420447Y-6998010D01*
X+5400000Y-7000000D01*
X-5500000Y-6900000D02*
X-5498010Y-6920447D01*
X-5492285Y-6939355D01*
X-5471094Y-6971094D01*
X-5439356Y-6992285D01*
X-5420447Y-6998010D01*
X-5400000Y-7000000D01*
X+5400000Y+8000000D02*
X+5420447Y+7998010D01*
X+5439356Y+7992285D01*
X+5471094Y+7971094D01*
X+5492285Y+7939355D01*
X+5498010Y+7920447D01*
X+5500000Y+7900000D01*
X-5400000Y+8000000D02*
X-5420447Y+7998010D01*
X-5439356Y+7992285D01*
X-5471094Y+7971094D01*
X-5492285Y+7939355D01*
X-5498010Y+7920447D01*
X-5500000Y+7900000D01*
X-5400000Y+8000000D02*
X+5400000Y+8000000D01*
X+5500000Y+7900000D02*
X+5500000Y-6900000D01*
X+5400000Y-7000000D02*
X-5400000Y-7000000D01*
X-5500000Y-6900000D02*
X-5500000Y+7900000D01*
D53*
X+4093600Y+6762000D02*
X+4093469Y+6765158D01*
X+4092403Y+6771476D01*
X+4090172Y+6777794D01*
X+4086527Y+6784112D01*
X+4080952Y+6790351D01*
X+4074634Y+6794947D01*
X+4068316Y+6797880D01*
X+4061998Y+6799542D01*
X+4055680Y+6800100D01*
X+4055500Y+6800100D01*
X+4017400Y+6762000D02*
X+4017531Y+6765158D01*
X+4018597Y+6771476D01*
X+4020828Y+6777794D01*
X+4024473Y+6784112D01*
X+4030048Y+6790351D01*
X+4036366Y+6794947D01*
X+4042684Y+6797880D01*
X+4049002Y+6799542D01*
X+4055320Y+6800100D01*
X+4055500Y+6800100D01*
X+4017400Y+6762000D02*
X+4017531Y+6758842D01*
X+4018597Y+6752524D01*
X+4020828Y+6746206D01*
X+4024473Y+6739888D01*
X+4030048Y+6733649D01*
X+4036366Y+6729053D01*
X+4042684Y+6726120D01*
X+4049002Y+6724458D01*
X+4055320Y+6723900D01*
X+4055500Y+6723900D01*
X+4093600Y+6762000D02*
X+4093469Y+6758842D01*
X+4092403Y+6752524D01*
X+4090172Y+6746206D01*
X+4086527Y+6739888D01*
X+4080952Y+6733649D01*
X+4074634Y+6729053D01*
X+4068316Y+6726120D01*
X+4061998Y+6724458D01*
X+4055680Y+6723900D01*
X+4055500Y+6723900D01*
X+4093600Y+1162000D02*
X+4093469Y+1165158D01*
X+4092403Y+1171476D01*
X+4090172Y+1177794D01*
X+4086527Y+1184112D01*
X+4080952Y+1190351D01*
X+4074634Y+1194947D01*
X+4068316Y+1197880D01*
X+4061998Y+1199542D01*
X+4055680Y+1200100D01*
X+4055500Y+1200100D01*
X+4017400Y+1162000D02*
X+4017531Y+1165158D01*
X+4018597Y+1171476D01*
X+4020828Y+1177794D01*
X+4024473Y+1184112D01*
X+4030048Y+1190351D01*
X+4036366Y+1194947D01*
X+4042684Y+1197880D01*
X+4049002Y+1199542D01*
X+4055320Y+1200100D01*
X+4055500Y+1200100D01*
X+4017400Y+1162000D02*
X+4017531Y+1158842D01*
X+4018597Y+1152524D01*
X+4020828Y+1146206D01*
X+4024473Y+1139888D01*
X+4030048Y+1133649D01*
X+4036366Y+1129053D01*
X+4042684Y+1126120D01*
X+4049002Y+1124458D01*
X+4055320Y+1123900D01*
X+4055500Y+1123900D01*
X+4093600Y+1162000D02*
X+4093469Y+1158842D01*
X+4092403Y+1152524D01*
X+4090172Y+1146206D01*
X+4086527Y+1139888D01*
X+4080952Y+1133649D01*
X+4074634Y+1129053D01*
X+4068316Y+1126120D01*
X+4061998Y+1124458D01*
X+4055680Y+1123900D01*
X+4055500Y+1123900D01*
X+4093600Y-4438000D02*
X+4093469Y-4434842D01*
X+4092403Y-4428524D01*
X+4090172Y-4422206D01*
X+4086527Y-4415888D01*
X+4080952Y-4409649D01*
X+4074634Y-4405053D01*
X+4068316Y-4402120D01*
X+4061998Y-4400458D01*
X+4055680Y-4399900D01*
X+4055500Y-4399900D01*
X+4017400Y-4438000D02*
X+4017531Y-4434842D01*
X+4018597Y-4428524D01*
X+4020828Y-4422206D01*
X+4024473Y-4415888D01*
X+4030048Y-4409649D01*
X+4036366Y-4405053D01*
X+4042684Y-4402120D01*
X+4049002Y-4400458D01*
X+4055320Y-4399900D01*
X+4055500Y-4399900D01*
X+4017400Y-4438000D02*
X+4017531Y-4441158D01*
X+4018597Y-4447476D01*
X+4020828Y-4453794D01*
X+4024473Y-4460112D01*
X+4030048Y-4466351D01*
X+4036366Y-4470947D01*
X+4042684Y-4473880D01*
X+4049002Y-4475542D01*
X+4055320Y-4476100D01*
X+4055500Y-4476100D01*
X+4093600Y-4438000D02*
X+4093469Y-4441158D01*
X+4092403Y-4447476D01*
X+4090172Y-4453794D01*
X+4086527Y-4460112D01*
X+4080952Y-4466351D01*
X+4074634Y-4470947D01*
X+4068316Y-4473880D01*
X+4061998Y-4475542D01*
X+4055680Y-4476100D01*
X+4055500Y-4476100D01*
X+675100Y-5555500D02*
X+674969Y-5552342D01*
X+673903Y-5546024D01*
X+671672Y-5539706D01*
X+668027Y-5533388D01*
X+662452Y-5527149D01*
X+656134Y-5522553D01*
X+649816Y-5519620D01*
X+643498Y-5517958D01*
X+637180Y-5517400D01*
X+637000Y-5517400D01*
X+598900Y-5555500D02*
X+599031Y-5552342D01*
X+600097Y-5546024D01*
X+602328Y-5539706D01*
X+605973Y-5533388D01*
X+611548Y-5527149D01*
X+617866Y-5522553D01*
X+624184Y-5519620D01*
X+630502Y-5517958D01*
X+636820Y-5517400D01*
X+637000Y-5517400D01*
X+598900Y-5555500D02*
X+599031Y-5558658D01*
X+600097Y-5564976D01*
X+602328Y-5571294D01*
X+605973Y-5577612D01*
X+611548Y-5583851D01*
X+617866Y-5588447D01*
X+624184Y-5591380D01*
X+630502Y-5593042D01*
X+636820Y-5593600D01*
X+637000Y-5593600D01*
X+675100Y-5555500D02*
X+674969Y-5558658D01*
X+673903Y-5564976D01*
X+671672Y-5571294D01*
X+668027Y-5577612D01*
X+662452Y-5583851D01*
X+656134Y-5588447D01*
X+649816Y-5591380D01*
X+643498Y-5593042D01*
X+637180Y-5593600D01*
X+637000Y-5593600D01*
D52*
X+2142000Y+6001500D02*
X+2642000Y+6001500D01*
X+2642000Y+6601500D01*
X+2142000Y+6601500D01*
X+2142000Y+6001500D01*
X+2342000Y+6601500D02*
X+2343990Y+6581053D01*
X+2349715Y+6562145D01*
X+2370906Y+6530406D01*
X+2402644Y+6509215D01*
X+2421553Y+6503490D01*
X+2442000Y+6501500D01*
X+2542000Y+6601500D02*
X+2540010Y+6581053D01*
X+2534285Y+6562145D01*
X+2513094Y+6530406D01*
X+2481356Y+6509215D01*
X+2462447Y+6503490D01*
X+2442000Y+6501500D01*
X+2758680Y+6515860D02*
X+2682480Y+6515860D01*
X+2682480Y+6462520D01*
X+2707880Y+6435850D01*
X+2733280Y+6435850D01*
X+2758680Y+6462520D01*
X+2758680Y+6515860D01*
X+2745980Y+6409180D02*
X+2758680Y+6395845D01*
X+2758680Y+6342505D01*
X+2745980Y+6329170D01*
X+2733280Y+6329170D01*
X+2720580Y+6342505D01*
X+2720580Y+6395845D01*
X+2707880Y+6409180D01*
X+2695180Y+6409180D01*
X+2682480Y+6395845D01*
X+2682480Y+6342505D01*
X+2695180Y+6329170D01*
X+2682480Y+6302500D02*
X+2758680Y+6302500D01*
X+2720580Y+6262495D01*
X+2758680Y+6222490D01*
X+2682480Y+6222490D01*
X+2707880Y+6169150D02*
X+2682480Y+6142480D01*
X+2758680Y+6142480D01*
X-3529980Y+4698400D02*
X-3529980Y+4774600D01*
X-3596655Y+4774600D01*
X-3609990Y+4761900D01*
X-3609990Y+4749200D01*
X-3596655Y+4736500D01*
X-3529980Y+4736500D01*
X-3596655Y+4736500D02*
X-3609990Y+4723800D01*
X-3609990Y+4698400D01*
X-3649995Y+4761900D02*
X-3663330Y+4774600D01*
X-3703335Y+4774600D01*
X-3716670Y+4761900D01*
X-3716670Y+4749200D01*
X-3703335Y+4736500D01*
X-3663330Y+4736500D01*
X-3649995Y+4723800D01*
X-3649995Y+4698400D01*
X-3716670Y+4698400D01*
X-3756675Y+4774600D02*
X-3823350Y+4774600D01*
X-3823350Y+4761900D01*
X-3756675Y+4698400D01*
X-3529980Y+4898400D02*
X-3529980Y+4974600D01*
X-3596655Y+4974600D01*
X-3609990Y+4961900D01*
X-3609990Y+4949200D01*
X-3596655Y+4936500D01*
X-3529980Y+4936500D01*
X-3596655Y+4936500D02*
X-3609990Y+4923800D01*
X-3609990Y+4898400D01*
X-3649995Y+4961900D02*
X-3663330Y+4974600D01*
X-3703335Y+4974600D01*
X-3716670Y+4961900D01*
X-3716670Y+4949200D01*
X-3703335Y+4936500D01*
X-3663330Y+4936500D01*
X-3649995Y+4923800D01*
X-3649995Y+4898400D01*
X-3716670Y+4898400D01*
X-3770010Y+4936500D02*
X-3756675Y+4949200D01*
X-3756675Y+4961900D01*
X-3770010Y+4974600D01*
X-3810015Y+4974600D01*
X-3823350Y+4961900D01*
X-3823350Y+4949200D01*
X-3810015Y+4936500D01*
X-3770010Y+4936500D01*
X-3756675Y+4923800D01*
X-3756675Y+4911100D01*
X-3770010Y+4898400D01*
X-3810015Y+4898400D01*
X-3823350Y+4911100D01*
X-3823350Y+4923800D01*
X-3810015Y+4936500D01*
X-3529980Y+5098400D02*
X-3529980Y+5174600D01*
X-3596655Y+5174600D01*
X-3609990Y+5161900D01*
X-3609990Y+5149200D01*
X-3596655Y+5136500D01*
X-3529980Y+5136500D01*
X-3596655Y+5136500D02*
X-3609990Y+5123800D01*
X-3609990Y+5098400D01*
X-3649995Y+5161900D02*
X-3663330Y+5174600D01*
X-3703335Y+5174600D01*
X-3716670Y+5161900D01*
X-3716670Y+5149200D01*
X-3703335Y+5136500D01*
X-3663330Y+5136500D01*
X-3649995Y+5123800D01*
X-3649995Y+5098400D01*
X-3716670Y+5098400D01*
X-3823350Y+5149200D02*
X-3810015Y+5136500D01*
X-3770010Y+5136500D01*
X-3756675Y+5149200D01*
X-3756675Y+5161900D01*
X-3770010Y+5174600D01*
X-3810015Y+5174600D01*
X-3823350Y+5161900D01*
X-3823350Y+5111100D01*
X-3810015Y+5098400D01*
X-3770010Y+5098400D01*
X-3529980Y+4098400D02*
X-3529980Y+4174600D01*
X-3596655Y+4174600D01*
X-3609990Y+4161900D01*
X-3609990Y+4149200D01*
X-3596655Y+4136500D01*
X-3529980Y+4136500D01*
X-3596655Y+4136500D02*
X-3609990Y+4123800D01*
X-3609990Y+4098400D01*
X-3716670Y+4123800D02*
X-3636660Y+4123800D01*
X-3690000Y+4174600D01*
X-3690000Y+4098400D01*
X-3823350Y+4149200D02*
X-3810015Y+4136500D01*
X-3770010Y+4136500D01*
X-3756675Y+4149200D01*
X-3756675Y+4161900D01*
X-3770010Y+4174600D01*
X-3810015Y+4174600D01*
X-3823350Y+4161900D01*
X-3823350Y+4111100D01*
X-3810015Y+4098400D01*
X-3770010Y+4098400D01*
X-3529980Y+4298400D02*
X-3529980Y+4374600D01*
X-3596655Y+4374600D01*
X-3609990Y+4361900D01*
X-3609990Y+4349200D01*
X-3596655Y+4336500D01*
X-3529980Y+4336500D01*
X-3596655Y+4336500D02*
X-3609990Y+4323800D01*
X-3609990Y+4298400D01*
X-3716670Y+4374600D02*
X-3649995Y+4374600D01*
X-3649995Y+4349200D01*
X-3703335Y+4349200D01*
X-3716670Y+4336500D01*
X-3716670Y+4311100D01*
X-3703335Y+4298400D01*
X-3663330Y+4298400D01*
X-3649995Y+4311100D01*
X-3743340Y+4311100D02*
X-3743340Y+4361900D01*
X-3756675Y+4374600D01*
X-3810015Y+4374600D01*
X-3823350Y+4361900D01*
X-3823350Y+4311100D01*
X-3810015Y+4298400D01*
X-3756675Y+4298400D01*
X-3743340Y+4311100D01*
X-3743340Y+4298400D02*
X-3823350Y+4374600D01*
X-3529980Y+4498400D02*
X-3529980Y+4574600D01*
X-3596655Y+4574600D01*
X-3609990Y+4561900D01*
X-3609990Y+4549200D01*
X-3596655Y+4536500D01*
X-3529980Y+4536500D01*
X-3596655Y+4536500D02*
X-3609990Y+4523800D01*
X-3609990Y+4498400D01*
X-3716670Y+4574600D02*
X-3649995Y+4574600D01*
X-3649995Y+4549200D01*
X-3703335Y+4549200D01*
X-3716670Y+4536500D01*
X-3716670Y+4511100D01*
X-3703335Y+4498400D01*
X-3663330Y+4498400D01*
X-3649995Y+4511100D01*
X-3770010Y+4549200D02*
X-3796680Y+4574600D01*
X-3796680Y+4498400D01*
X-3689980Y+898400D02*
X-3689980Y+974600D01*
X-3756655Y+974600D01*
X-3769990Y+961900D01*
X-3769990Y+949200D01*
X-3756655Y+936500D01*
X-3689980Y+936500D01*
X-3756655Y+936500D02*
X-3769990Y+923800D01*
X-3769990Y+898400D01*
X-3823330Y+949200D02*
X-3850000Y+974600D01*
X-3850000Y+898400D01*
X-3916675Y+961900D02*
X-3930010Y+974600D01*
X-3970015Y+974600D01*
X-3983350Y+961900D01*
X-3983350Y+949200D01*
X-3970015Y+936500D01*
X-3930010Y+936500D01*
X-3916675Y+923800D01*
X-3916675Y+898400D01*
X-3983350Y+898400D01*
X-3689980Y+665066D02*
X-3689980Y+741266D01*
X-3756655Y+741266D01*
X-3769990Y+728566D01*
X-3769990Y+715866D01*
X-3756655Y+703166D01*
X-3689980Y+703166D01*
X-3756655Y+703166D02*
X-3769990Y+690466D01*
X-3769990Y+665066D01*
X-3823330Y+715866D02*
X-3850000Y+741266D01*
X-3850000Y+665066D01*
X-3916675Y+741266D02*
X-3983350Y+741266D01*
X-3983350Y+728566D01*
X-3916675Y+665066D01*
X-3689980Y+431733D02*
X-3689980Y+507933D01*
X-3756655Y+507933D01*
X-3769990Y+495233D01*
X-3769990Y+482533D01*
X-3756655Y+469833D01*
X-3689980Y+469833D01*
X-3756655Y+469833D02*
X-3769990Y+457133D01*
X-3769990Y+431733D01*
X-3823330Y+482533D02*
X-3850000Y+507933D01*
X-3850000Y+431733D01*
X-3930010Y+469833D02*
X-3916675Y+482533D01*
X-3916675Y+495233D01*
X-3930010Y+507933D01*
X-3970015Y+507933D01*
X-3983350Y+495233D01*
X-3983350Y+482533D01*
X-3970015Y+469833D01*
X-3930010Y+469833D01*
X-3916675Y+457133D01*
X-3916675Y+444433D01*
X-3930010Y+431733D01*
X-3970015Y+431733D01*
X-3983350Y+444433D01*
X-3983350Y+457133D01*
X-3970015Y+469833D01*
X-3689980Y+198400D02*
X-3689980Y+274600D01*
X-3756655Y+274600D01*
X-3769990Y+261900D01*
X-3769990Y+249200D01*
X-3756655Y+236500D01*
X-3689980Y+236500D01*
X-3756655Y+236500D02*
X-3769990Y+223800D01*
X-3769990Y+198400D01*
X-3823330Y+249200D02*
X-3850000Y+274600D01*
X-3850000Y+198400D01*
X-3983350Y+249200D02*
X-3970015Y+236500D01*
X-3930010Y+236500D01*
X-3916675Y+249200D01*
X-3916675Y+261900D01*
X-3930010Y+274600D01*
X-3970015Y+274600D01*
X-3983350Y+261900D01*
X-3983350Y+211100D01*
X-3970015Y+198400D01*
X-3930010Y+198400D01*
M02*
