G04 PROTEUS GERBER X2 FILE*
%TF.GenerationSoftware,Labcenter,Proteus,8.15-SP0-Build33980*%
%TF.CreationDate,2023-03-15T16:04:22+00:00*%
%TF.FileFunction,Soldermask,Bot*%
%TF.FilePolarity,Negative*%
%TF.Part,Single*%
%TF.SameCoordinates,{4545a914-5e6f-4f91-a9de-dead5439e7db}*%
%FSLAX45Y45*%
%MOMM*%
G01*
%TA.AperFunction,Material*%
%ADD57C,1.016000*%
%TA.AperFunction,Material*%
%ADD59C,0.635000*%
%AMPPAD054*
4,1,34,
1.000000,-0.000010,
0.990050,-0.102240,
0.961430,-0.196780,
0.915960,-0.281800,
0.855470,-0.355470,
0.781800,-0.415960,
0.696780,-0.461430,
0.602240,-0.490050,
0.500010,-0.500000,
-0.500010,-0.500000,
-0.602240,-0.490050,
-0.696780,-0.461430,
-0.781800,-0.415960,
-0.855470,-0.355470,
-0.915960,-0.281800,
-0.961430,-0.196780,
-0.990050,-0.102240,
-1.000000,0.000010,
-0.990050,0.102240,
-0.961430,0.196780,
-0.915960,0.281800,
-0.855470,0.355470,
-0.781800,0.415960,
-0.696780,0.461430,
-0.602240,0.490050,
-0.500010,0.500000,
0.500010,0.500000,
0.602240,0.490050,
0.696780,0.461430,
0.781800,0.415960,
0.855470,0.355470,
0.915960,0.281800,
0.961430,0.196780,
0.990050,0.102240,
1.000000,-0.000010,
0*%
%ADD60PPAD054*%
%AMPPAD055*
4,1,34,
0.900000,-0.000010,
0.891050,-0.092020,
0.865280,-0.177100,
0.824360,-0.253620,
0.769920,-0.319920,
0.703620,-0.374360,
0.627100,-0.415280,
0.542020,-0.441050,
0.450010,-0.450000,
-0.450010,-0.450000,
-0.542020,-0.441050,
-0.627100,-0.415280,
-0.703620,-0.374360,
-0.769920,-0.319920,
-0.824360,-0.253620,
-0.865280,-0.177100,
-0.891050,-0.092020,
-0.900000,0.000010,
-0.891050,0.092020,
-0.865280,0.177100,
-0.824360,0.253620,
-0.769920,0.319920,
-0.703620,0.374360,
-0.627100,0.415280,
-0.542020,0.441050,
-0.450010,0.450000,
0.450010,0.450000,
0.542020,0.441050,
0.627100,0.415280,
0.703620,0.374360,
0.769920,0.319920,
0.824360,0.253620,
0.865280,0.177100,
0.891050,0.092020,
0.900000,-0.000010,
0*%
%ADD61PPAD055*%
%AMPPAD056*
4,1,8,
-0.509800,1.397000,
0.509800,1.397000,
0.889000,1.017800,
0.889000,-1.017800,
0.509800,-1.397000,
-0.509800,-1.397000,
-0.889000,-1.017800,
-0.889000,1.017800,
-0.509800,1.397000,
0*%
%TA.AperFunction,Material*%
%ADD62PPAD056*%
%TA.AperFunction,Material*%
%ADD63C,2.032000*%
%AMPPAD058*
4,1,34,
-0.000010,-2.500000,
-0.255590,-2.475130,
-0.491950,-2.403560,
-0.704500,-2.289890,
-0.888670,-2.138670,
-1.039880,-1.954500,
-1.153560,-1.741950,
-1.225130,-1.505590,
-1.250000,-1.250010,
-1.250000,1.250010,
-1.225130,1.505590,
-1.153560,1.741950,
-1.039880,1.954500,
-0.888670,2.138670,
-0.704500,2.289890,
-0.491950,2.403560,
-0.255590,2.475130,
0.000010,2.500000,
0.255590,2.475130,
0.491950,2.403560,
0.704500,2.289890,
0.888670,2.138670,
1.039880,1.954500,
1.153560,1.741950,
1.225130,1.505590,
1.250000,1.250010,
1.250000,-1.250010,
1.225130,-1.505590,
1.153560,-1.741950,
1.039880,-1.954500,
0.888670,-2.138670,
0.704500,-2.289890,
0.491950,-2.403560,
0.255590,-2.475130,
-0.000010,-2.500000,
0*%
%TA.AperFunction,Material*%
%ADD64PPAD058*%
%AMPPAD059*
4,1,34,
-0.000010,-2.250000,
-0.230030,-2.227620,
-0.442750,-2.163210,
-0.634050,-2.060900,
-0.799800,-1.924800,
-0.935900,-1.759050,
-1.038210,-1.567750,
-1.102620,-1.355030,
-1.125000,-1.125010,
-1.125000,1.125010,
-1.102620,1.355030,
-1.038210,1.567750,
-0.935900,1.759050,
-0.799800,1.924800,
-0.634050,2.060900,
-0.442750,2.163210,
-0.230030,2.227620,
0.000010,2.250000,
0.230030,2.227620,
0.442750,2.163210,
0.634050,2.060900,
0.799800,1.924800,
0.935900,1.759050,
1.038210,1.567750,
1.102620,1.355030,
1.125000,1.125010,
1.125000,-1.125010,
1.102620,-1.355030,
1.038210,-1.567750,
0.935900,-1.759050,
0.799800,-1.924800,
0.634050,-2.060900,
0.442750,-2.163210,
0.230030,-2.227620,
-0.000010,-2.250000,
0*%
%ADD65PPAD059*%
%AMPPAD060*
4,1,34,
1.125010,-1.125000,
-1.125010,-1.125000,
-1.355030,-1.102620,
-1.567750,-1.038210,
-1.759050,-0.935900,
-1.924800,-0.799800,
-2.060900,-0.634050,
-2.163210,-0.442750,
-2.227620,-0.230030,
-2.250000,0.000010,
-2.227620,0.230030,
-2.163210,0.442750,
-2.060900,0.634050,
-1.924800,0.799800,
-1.759050,0.935900,
-1.567750,1.038210,
-1.355030,1.102620,
-1.125010,1.125000,
1.125010,1.125000,
1.355030,1.102620,
1.567750,1.038210,
1.759050,0.935900,
1.924800,0.799800,
2.060900,0.634050,
2.163210,0.442750,
2.227620,0.230030,
2.250000,-0.000010,
2.227620,-0.230030,
2.163210,-0.442750,
2.060900,-0.634050,
1.924800,-0.799800,
1.759050,-0.935900,
1.567750,-1.038210,
1.355030,-1.102620,
1.125010,-1.125000,
0*%
%ADD66PPAD060*%
%TA.AperFunction,Material*%
%ADD69C,1.410000*%
%AMPPAD064*
4,1,36,
1.143000,1.016000,
1.143000,-1.016000,
1.140470,-1.041970,
1.133200,-1.065980,
1.121650,-1.087580,
1.106290,-1.106290,
1.087570,-1.121650,
1.065980,-1.133200,
1.041970,-1.140470,
1.016000,-1.143000,
-1.016000,-1.143000,
-1.041970,-1.140470,
-1.065980,-1.133200,
-1.087570,-1.121650,
-1.106290,-1.106290,
-1.121650,-1.087580,
-1.133200,-1.065980,
-1.140470,-1.041970,
-1.143000,-1.016000,
-1.143000,1.016000,
-1.140470,1.041970,
-1.133200,1.065980,
-1.121650,1.087580,
-1.106290,1.106290,
-1.087570,1.121650,
-1.065980,1.133200,
-1.041970,1.140470,
-1.016000,1.143000,
1.016000,1.143000,
1.041970,1.140470,
1.065980,1.133200,
1.087570,1.121650,
1.106290,1.106290,
1.121650,1.087580,
1.133200,1.065980,
1.140470,1.041970,
1.143000,1.016000,
0*%
%ADD74PPAD064*%
%AMPPAD065*
4,1,36,
1.016000,-1.143000,
-1.016000,-1.143000,
-1.041970,-1.140470,
-1.065980,-1.133200,
-1.087580,-1.121650,
-1.106290,-1.106290,
-1.121650,-1.087570,
-1.133200,-1.065980,
-1.140470,-1.041970,
-1.143000,-1.016000,
-1.143000,1.016000,
-1.140470,1.041970,
-1.133200,1.065980,
-1.121650,1.087570,
-1.106290,1.106290,
-1.087580,1.121650,
-1.065980,1.133200,
-1.041970,1.140470,
-1.016000,1.143000,
1.016000,1.143000,
1.041970,1.140470,
1.065980,1.133200,
1.087580,1.121650,
1.106290,1.106290,
1.121650,1.087570,
1.133200,1.065980,
1.140470,1.041970,
1.143000,1.016000,
1.143000,-1.016000,
1.140470,-1.041970,
1.133200,-1.065980,
1.121650,-1.087570,
1.106290,-1.106290,
1.087580,-1.121650,
1.065980,-1.133200,
1.041970,-1.140470,
1.016000,-1.143000,
0*%
%ADD75PPAD065*%
%AMPPAD066*
4,1,36,
-0.952500,1.079500,
0.952500,1.079500,
0.978470,1.076970,
1.002480,1.069700,
1.024080,1.058150,
1.042790,1.042790,
1.058150,1.024070,
1.069700,1.002480,
1.076970,0.978470,
1.079500,0.952500,
1.079500,-0.952500,
1.076970,-0.978470,
1.069700,-1.002480,
1.058150,-1.024070,
1.042790,-1.042790,
1.024080,-1.058150,
1.002480,-1.069700,
0.978470,-1.076970,
0.952500,-1.079500,
-0.952500,-1.079500,
-0.978470,-1.076970,
-1.002480,-1.069700,
-1.024080,-1.058150,
-1.042790,-1.042790,
-1.058150,-1.024070,
-1.069700,-1.002480,
-1.076970,-0.978470,
-1.079500,-0.952500,
-1.079500,0.952500,
-1.076970,0.978470,
-1.069700,1.002480,
-1.058150,1.024070,
-1.042790,1.042790,
-1.024080,1.058150,
-1.002480,1.069700,
-0.978470,1.076970,
-0.952500,1.079500,
0*%
%TA.AperFunction,Material*%
%ADD76PPAD066*%
%TA.AperFunction,Material*%
%ADD78C,2.286000*%
%AMPPAD087*
4,1,4,
-0.279400,-0.304800,
0.279400,-0.304800,
0.279400,0.304800,
-0.279400,0.304800,
-0.279400,-0.304800,
0*%
%TA.AperFunction,Material*%
%ADD97PPAD087*%
%TA.AperFunction,Material*%
%ADD96C,5.080000*%
%TA.AperFunction,Profile*%
%ADD47C,0.101600*%
%TD.AperFunction*%
D57*
X+254000Y+635000D03*
X+254000Y+190500D03*
X-4318000Y+2286000D03*
X-4318000Y+1714500D03*
X-4000500Y+4635500D03*
X-4191000Y+4191000D03*
X-3873500Y+4953000D03*
X-3619500Y+4064000D03*
X-3873500Y+4191000D03*
X-3873500Y+4762500D03*
X-3937000Y+3492500D03*
X-4064000Y+2794000D03*
X-3492500Y+2540000D03*
X-3937000Y+3619500D03*
X-4318000Y+3175000D03*
X-3492500Y+2667000D03*
X-3746500Y+3365500D03*
X-3365500Y+3492500D03*
X+254000Y-3429000D03*
X+254000Y-3937000D03*
X+508000Y-4572000D03*
X-1524000Y-2476500D03*
X-1016000Y-3175000D03*
X-1016000Y-4254500D03*
X-1143000Y-1968500D03*
X-1143000Y-2921000D03*
X-1016000Y-2159000D03*
X-889000Y-2730500D03*
X+2032000Y-3492500D03*
X+635000Y-4762500D03*
X+635000Y-3238500D03*
X-254000Y-2349500D03*
X-4572000Y+4318000D03*
X-4572000Y-1968500D03*
X-254000Y-1524000D03*
X+254000Y-2984500D03*
X+1524000Y-4445000D03*
X+1524000Y-5016500D03*
X+0Y-5016500D03*
X+0Y-2476500D03*
X-2794000Y+1079500D03*
X-2540000Y+3619500D03*
X-1270000Y+5270500D03*
X-2857500Y+1270000D03*
X-3619500Y+825500D03*
X-3492500Y+825500D03*
X-3810000Y+190500D03*
X+4000500Y+5334000D03*
X-3937000Y-2413000D03*
X-3302000Y+0D03*
X-4762500Y+6032500D03*
X-3238500Y+3048000D03*
X-3238500Y+1587500D03*
X-2794000Y+2921000D03*
X+825500Y-5524500D03*
X+2984500Y-5588000D03*
X+825500Y-2794000D03*
X+825500Y-3556000D03*
X+3365500Y+508000D03*
X+4191000Y+3810000D03*
X-1968500Y+5016500D03*
X+4572000Y+7429500D03*
X-2794000Y+4064000D03*
X+4191000Y+2032000D03*
X-2794000Y+5778500D03*
X+4381500Y+3810000D03*
X-2095500Y-3365500D03*
X-2349500Y-1206500D03*
X-1841500Y-5778500D03*
X-1778000Y-381000D03*
X-1968500Y-889000D03*
X-2095500Y-2476500D03*
X-1651000Y-3048000D03*
X-1397000Y-4191000D03*
X-635000Y-1778000D03*
X-635000Y-3619500D03*
X-1206500Y-3746500D03*
X+2540000Y+5080000D03*
X+3746500Y+5080000D03*
X+3746500Y+1206500D03*
X-4318000Y+698500D03*
X-4953000Y+635000D03*
X-4699000Y-254000D03*
X-4318000Y-254000D03*
X+2730500Y-6223000D03*
X-2413000Y+508000D03*
X-762000Y+2921000D03*
X-3429000Y-1016000D03*
X-2540000Y-190500D03*
X-2413000Y+1841500D03*
X+1079500Y-762000D03*
X-762000Y+4127500D03*
X-2286000Y-3683000D03*
X-2857500Y-1016000D03*
X-2667000Y-2730500D03*
X-5080000Y-2032000D03*
X-3492500Y+4381500D03*
X+2286000Y+5080000D03*
X-2730500Y+2286000D03*
X-2730500Y+1460500D03*
X-762000Y+4889500D03*
X+317500Y-2794000D03*
X+254000Y-1460500D03*
X+1079500Y-1270000D03*
X-2667000Y-3746500D03*
X+1079500Y+508000D03*
X+762000Y-5143500D03*
X+762000Y-4127500D03*
X-2095500Y-4318000D03*
X-3365500Y+3365500D03*
X+3111500Y+6985000D03*
X+3238500Y+7112000D03*
X+3365500Y+4953000D03*
X+4699000Y+2159000D03*
X+5143500Y+4889500D03*
X+4699000Y+7239000D03*
X+3492500Y+6477000D03*
X+2921000Y+6223000D03*
X+2921000Y+7239000D03*
X+3619500Y+5905500D03*
X+3746500Y+5778500D03*
X+190500Y+6794500D03*
X+1587500Y+6032500D03*
X+1333500Y+3365500D03*
X+444500Y+7112000D03*
X+1333500Y+6286500D03*
X+698500Y+1905000D03*
X+698500Y+3492500D03*
X+952500Y+6985000D03*
X+952500Y+1651000D03*
X+952500Y+3365500D03*
X+2159000Y+1397000D03*
X+2159000Y+3111500D03*
X+4381500Y+3111500D03*
X+4699000Y+1524000D03*
X+1397000Y-2032000D03*
X+1397000Y-1524000D03*
X+1079500Y+7239000D03*
X+1333500Y+7239000D03*
X+1079500Y+2984500D03*
X+4508500Y+2984500D03*
X+4508500Y+1651000D03*
X+2857500Y-2921000D03*
X+4191000Y-2921000D03*
X+4191000Y-444500D03*
X+2032000Y-1587500D03*
X+2413000Y-3048000D03*
X+4318000Y-3048000D03*
X+4318000Y-317500D03*
X+1968500Y+3111500D03*
X+0Y+3111500D03*
X+0Y+762000D03*
X+2286000Y-2159000D03*
X+127000Y-2540000D03*
X+127000Y+2095500D03*
X-1016000Y+2095500D03*
X+2222500Y-1524000D03*
X+2159000Y-635000D03*
X+2159000Y+1143000D03*
X+1905000Y+1143000D03*
X+1841500Y+7429500D03*
X-1143000Y+6731000D03*
X-762000Y+6667500D03*
X-762000Y+5397500D03*
X+4572000Y+5207000D03*
X+4953000Y-1587500D03*
X+2032000Y+2603500D03*
X+254000Y+2603500D03*
X+2413000Y+2857500D03*
X-254000Y+2857500D03*
X+4064000Y-4000500D03*
X+3429000Y-4000500D03*
X+4064000Y-4953000D03*
X+3683000Y-4953000D03*
X+3683000Y-952500D03*
X-698500Y+7493000D03*
X-1143000Y+7493000D03*
X-444500Y+2730500D03*
X+2540000Y+2730500D03*
X+3937000Y-3746500D03*
X+3556000Y-3746500D03*
X+0Y+3810000D03*
X+2286000Y+3810000D03*
X+2857500Y-1270000D03*
X+2286000Y+7112000D03*
X+381000Y+5778500D03*
X+381000Y-889000D03*
X-952500Y-6159500D03*
X-508000Y-1397000D03*
X-3937000Y+6858000D03*
X-889000Y+6858000D03*
X-127000Y-6159500D03*
X-825500Y-6286500D03*
X-762000Y-1651000D03*
X+825500Y+7239000D03*
X-3429000Y+7239000D03*
X+825500Y-1651000D03*
X+1270000Y-1905000D03*
X+317500Y+7112000D03*
X-3175000Y+7112000D03*
X+1143000Y-5397500D03*
X+381000Y-5397500D03*
X+317500Y+6540500D03*
X+0Y-1778000D03*
X-2921000Y+6477000D03*
X-190500Y+5905500D03*
X+1587500Y-4254500D03*
X+1460500Y+5778500D03*
X+3111500Y-5270500D03*
X-381000Y-5270500D03*
X+1460500Y+3238500D03*
X+4826000Y+3238500D03*
X+4381500Y-3175000D03*
X+3111500Y-3175000D03*
X+1460500Y+7366000D03*
X-1651000Y+2413000D03*
X-1905000Y+2286000D03*
X-2286000Y+952500D03*
X-1651000Y+5905500D03*
X-2667000Y+2476500D03*
X-1079500Y-1016000D03*
X-1079500Y+254000D03*
X-2857500Y-3175000D03*
X-3238500Y-1714500D03*
X-3746500Y-1587500D03*
X-2857500Y-2222500D03*
X-4064000Y+2095500D03*
X-3810000Y-508000D03*
X-254000Y-4191000D03*
X-740000Y+5090000D03*
X-1143000Y+4953000D03*
D59*
X-4907000Y+959000D03*
X-4907000Y+381000D03*
D60*
X-4859000Y+1103000D03*
X-4859000Y+237000D03*
D61*
X-5277012Y+1103000D03*
X-5277012Y+237000D03*
D62*
X+2400000Y+7700000D03*
X+2654000Y+7700000D03*
X+2908000Y+7700000D03*
X+3162000Y+7700000D03*
X+3416000Y+7700000D03*
X+3670000Y+7700000D03*
X+3924000Y+7700000D03*
X+4178000Y+7700000D03*
X+200000Y+7700000D03*
X+454000Y+7700000D03*
X+708000Y+7700000D03*
X+962000Y+7700000D03*
X+1216000Y+7700000D03*
X+1470000Y+7700000D03*
X+1724000Y+7700000D03*
X+1978000Y+7700000D03*
X-2000000Y+7700000D03*
X-1746000Y+7700000D03*
X-1492000Y+7700000D03*
X-1238000Y+7700000D03*
X-984000Y+7700000D03*
X-730000Y+7700000D03*
X-476000Y+7700000D03*
X-222000Y+7700000D03*
X-4200000Y+7700000D03*
X-3946000Y+7700000D03*
X-3692000Y+7700000D03*
X-3438000Y+7700000D03*
X-3184000Y+7700000D03*
X-2930000Y+7700000D03*
X-2676000Y+7700000D03*
X-2422000Y+7700000D03*
D63*
X+4246000Y+6762000D03*
X+4500000Y+6762000D03*
X+4246000Y+6508000D03*
X+4500000Y+6508000D03*
X+4246000Y+6254000D03*
X+4500000Y+6254000D03*
X+4246000Y+6000000D03*
X+4500000Y+6000000D03*
X+4246000Y+5746000D03*
X+4500000Y+5746000D03*
X+4246000Y+5492000D03*
X+4500000Y+5492000D03*
D64*
X-4100000Y-4830000D03*
D65*
X-4700000Y-4830000D03*
D66*
X-4400000Y-5300000D03*
D63*
X+4246000Y+1162000D03*
X+4500000Y+1162000D03*
X+4246000Y+908000D03*
X+4500000Y+908000D03*
X+4246000Y+654000D03*
X+4500000Y+654000D03*
X+4246000Y+400000D03*
X+4500000Y+400000D03*
X+4246000Y+146000D03*
X+4500000Y+146000D03*
X+4246000Y-108000D03*
X+4500000Y-108000D03*
X+4246000Y-4438000D03*
X+4500000Y-4438000D03*
X+4246000Y-4692000D03*
X+4500000Y-4692000D03*
X+4246000Y-4946000D03*
X+4500000Y-4946000D03*
X+4246000Y-5200000D03*
X+4500000Y-5200000D03*
X+4246000Y-5454000D03*
X+4500000Y-5454000D03*
X+4246000Y-5708000D03*
X+4500000Y-5708000D03*
X+637000Y-5746000D03*
X+637000Y-6000000D03*
X+383000Y-5746000D03*
X+383000Y-6000000D03*
X+129000Y-5746000D03*
X+129000Y-6000000D03*
X-125000Y-5746000D03*
X-125000Y-6000000D03*
X-379000Y-5746000D03*
X-379000Y-6000000D03*
X-633000Y-5746000D03*
X-633000Y-6000000D03*
D69*
X-4900000Y-3080000D03*
D63*
X-4700000Y-3080000D03*
X-4500000Y-3080000D03*
D69*
X-4900000Y-3580000D03*
X-4700000Y-3580000D03*
X-4500000Y-3580000D03*
D74*
X-5200000Y+6662000D03*
X-5200000Y+6408000D03*
X-5200000Y+6154000D03*
X-5200000Y+5900000D03*
X-5200000Y+5646000D03*
X-5200000Y+5392000D03*
D75*
X+2630000Y-6700000D03*
X+2376000Y-6700000D03*
X+2122000Y-6700000D03*
X+2630000Y-6446000D03*
X+2376000Y-6446000D03*
X+2122000Y-6446000D03*
D63*
X+1600000Y+2411000D03*
X+1600000Y+2157000D03*
X+1600000Y+1903000D03*
X+1600000Y+1649000D03*
X+1600000Y+1395000D03*
X+1600000Y+1141000D03*
X+1600000Y+887000D03*
X+1600000Y+633000D03*
X+1600000Y+379000D03*
X+1600000Y+125000D03*
X+1600000Y-129000D03*
X+1600000Y-383000D03*
X+1600000Y-637000D03*
X+1600000Y-891000D03*
X+1600000Y-1145000D03*
X+1600000Y-1399000D03*
X+1600000Y-1653000D03*
X+1600000Y-1907000D03*
X+1600000Y-2161000D03*
X+1600000Y-2415000D03*
X+3124000Y-2415000D03*
X+3124000Y-2161000D03*
X+3124000Y-1907000D03*
X+3124000Y-1653000D03*
X+3124000Y-1399000D03*
X+3124000Y-1145000D03*
X+3124000Y-891000D03*
X+3124000Y-637000D03*
X+3124000Y-383000D03*
X+3124000Y-129000D03*
X+3124000Y+125000D03*
X+3124000Y+379000D03*
X+3124000Y+633000D03*
X+3124000Y+887000D03*
X+3124000Y+1141000D03*
X+3124000Y+1395000D03*
X+3124000Y+1649000D03*
X+3124000Y+1903000D03*
X+3124000Y+2157000D03*
X+3124000Y+2411000D03*
D76*
X-2200000Y+5600000D03*
D63*
X-2200000Y+5346000D03*
X-2200000Y+5092000D03*
X-2200000Y+4838000D03*
X-2200000Y+4584000D03*
X-2200000Y+4330000D03*
X-2200000Y+4076000D03*
X-2200000Y+3822000D03*
X-2200000Y+3568000D03*
X-2200000Y+3314000D03*
X-2200000Y+3060000D03*
X-2200000Y+2806000D03*
X-2200000Y+2552000D03*
X-2200000Y+2298000D03*
X-1438000Y+2298000D03*
X-1438000Y+2552000D03*
X-1438000Y+2806000D03*
X-1438000Y+3060000D03*
X-1438000Y+3314000D03*
X-1438000Y+3568000D03*
X-1438000Y+3822000D03*
X-1438000Y+4076000D03*
X-1438000Y+4330000D03*
X-1438000Y+4584000D03*
X-1438000Y+4838000D03*
X-1438000Y+5092000D03*
X-1438000Y+5346000D03*
X-1438000Y+5598000D03*
X+2510000Y+6673500D03*
X+2510000Y+5911500D03*
X+2256000Y+6673500D03*
X+2256000Y+5911500D03*
D78*
X+2624000Y+4056000D03*
X+2116000Y+4056000D03*
X+2370000Y+4310000D03*
D63*
X-1378000Y+892000D03*
X-1378000Y+638000D03*
X-1378000Y+384000D03*
X-1378000Y+130000D03*
X-616000Y+130000D03*
X-616000Y+384000D03*
X-616000Y+638000D03*
X-616000Y+892000D03*
D78*
X+2634000Y-4444000D03*
X+2126000Y-4444000D03*
X+2380000Y-4190000D03*
D97*
X-3740000Y+4800000D03*
X-3640000Y+4800000D03*
X-3740000Y+5000000D03*
X-3640000Y+5000000D03*
X-3740000Y+5200000D03*
X-3640000Y+5200000D03*
X-3740000Y+4200000D03*
X-3640000Y+4200000D03*
X-3740000Y+4400000D03*
X-3640000Y+4400000D03*
X-3740000Y+4600000D03*
X-3640000Y+4600000D03*
X-3900000Y+1000000D03*
X-3800000Y+1000000D03*
X-3900000Y+766666D03*
X-3800000Y+766666D03*
X-3900000Y+533333D03*
X-3800000Y+533333D03*
X-3900000Y+300000D03*
X-3800000Y+300000D03*
D96*
X-5000000Y+7500000D03*
X+5000000Y+7500000D03*
X-5000000Y-6500000D03*
X+5000000Y-6500000D03*
D47*
X+5500000Y-6900000D02*
X+5498010Y-6920447D01*
X+5492285Y-6939355D01*
X+5471094Y-6971094D01*
X+5439356Y-6992285D01*
X+5420447Y-6998010D01*
X+5400000Y-7000000D01*
X-5500000Y-6900000D02*
X-5498010Y-6920447D01*
X-5492285Y-6939355D01*
X-5471094Y-6971094D01*
X-5439356Y-6992285D01*
X-5420447Y-6998010D01*
X-5400000Y-7000000D01*
X+5400000Y+8000000D02*
X+5420447Y+7998010D01*
X+5439356Y+7992285D01*
X+5471094Y+7971094D01*
X+5492285Y+7939355D01*
X+5498010Y+7920447D01*
X+5500000Y+7900000D01*
X-5400000Y+8000000D02*
X-5420447Y+7998010D01*
X-5439356Y+7992285D01*
X-5471094Y+7971094D01*
X-5492285Y+7939355D01*
X-5498010Y+7920447D01*
X-5500000Y+7900000D01*
X-5400000Y+8000000D02*
X+5400000Y+8000000D01*
X+5500000Y+7900000D02*
X+5500000Y-6900000D01*
X+5400000Y-7000000D02*
X-5400000Y-7000000D01*
X-5500000Y-6900000D02*
X-5500000Y+7900000D01*
M02*
