G04 PROTEUS GERBER X2 FILE*
%TF.GenerationSoftware,Labcenter,Proteus,8.15-SP0-Build33980*%
%TF.CreationDate,2023-03-15T16:04:22+00:00*%
%TF.FileFunction,Paste,Top*%
%TF.FilePolarity,Positive*%
%TF.Part,Single*%
%TF.SameCoordinates,{4545a914-5e6f-4f91-a9de-dead5439e7db}*%
%FSLAX45Y45*%
%MOMM*%
G01*
%TA.AperFunction,Material*%
%ADD98R,1.140000X0.300000*%
%TA.AperFunction,Material*%
%ADD99R,1.300000X1.300000*%
%TA.AperFunction,Material*%
%ADD100R,2.000000X1.300000*%
%TA.AperFunction,Material*%
%ADD101R,0.889000X0.889000*%
%ADD102R,3.200000X1.500000*%
%ADD103R,2.032000X5.588000*%
%AMPPAD094*
4,1,36,
0.653610,0.409310,
0.649600,0.422550,
0.643230,0.434450,
0.634760,0.444760,
0.624450,0.453230,
0.612550,0.459600,
0.599310,0.463610,
0.585000,0.465000,
-0.585000,0.465000,
-0.599310,0.463610,
-0.612550,0.459600,
-0.624450,0.453230,
-0.634760,0.444760,
-0.643230,0.434450,
-0.649600,0.422550,
-0.653610,0.409310,
-0.655000,0.395000,
-0.655000,-0.395000,
-0.653610,-0.409310,
-0.649600,-0.422550,
-0.643230,-0.434450,
-0.634760,-0.444760,
-0.624450,-0.453230,
-0.612550,-0.459600,
-0.599310,-0.463610,
-0.585000,-0.465000,
0.585000,-0.465000,
0.599310,-0.463610,
0.612550,-0.459600,
0.624450,-0.453230,
0.634760,-0.444760,
0.643230,-0.434450,
0.649600,-0.422550,
0.653610,-0.409310,
0.655000,-0.395000,
0.655000,0.395000,
0.653610,0.409310,
0*%
%TA.AperFunction,Material*%
%ADD104PPAD094*%
%AMPPAD095*
4,1,36,
0.653010,1.540450,
0.647290,1.559360,
0.638190,1.576360,
0.626090,1.591090,
0.611360,1.603190,
0.594360,1.612280,
0.575450,1.618010,
0.555000,1.620000,
-0.555000,1.620000,
-0.575450,1.618010,
-0.594360,1.612280,
-0.611360,1.603190,
-0.626090,1.591090,
-0.638190,1.576360,
-0.647290,1.559360,
-0.653010,1.540450,
-0.655000,1.520000,
-0.655000,-1.520000,
-0.653010,-1.540450,
-0.647290,-1.559360,
-0.638190,-1.576360,
-0.626090,-1.591090,
-0.611360,-1.603190,
-0.594360,-1.612280,
-0.575450,-1.618010,
-0.555000,-1.620000,
0.555000,-1.620000,
0.575450,-1.618010,
0.594360,-1.612280,
0.611360,-1.603190,
0.626090,-1.591090,
0.638190,-1.576360,
0.647290,-1.559360,
0.653010,-1.540450,
0.655000,-1.520000,
0.655000,1.520000,
0.653010,1.540450,
0*%
%ADD105PPAD095*%
%TA.AperFunction,Material*%
%ADD106R,2.180000X1.600000*%
%TA.AperFunction,Material*%
%ADD107R,2.032000X0.635000*%
%TA.AperFunction,Material*%
%ADD108R,2.300000X2.150000*%
%ADD109R,3.400000X2.250000*%
%ADD110R,3.403600X1.244600*%
%ADD111R,0.939800X0.990600*%
%ADD112R,1.651000X1.651000*%
%ADD113R,0.990600X0.939800*%
%ADD114R,4.394200X1.803400*%
%ADD115R,4.140200X1.600200*%
%ADD116R,3.302000X1.651000*%
%TA.AperFunction,Material*%
%ADD117R,0.889000X0.660400*%
%ADD118R,0.660400X0.889000*%
%TA.AperFunction,Profile*%
%ADD47C,0.101600*%
%TD.AperFunction*%
D98*
X-4800000Y+1005000D03*
X-4800000Y+925000D03*
X-4800000Y+795000D03*
X-4800000Y+695000D03*
X-4800000Y+645000D03*
X-4800000Y+545000D03*
X-4800000Y+415000D03*
X-4800000Y+335000D03*
X-4800000Y+365000D03*
X-4800000Y+445000D03*
X-4800000Y+494994D03*
X-4800000Y+595000D03*
X-4800000Y+745000D03*
X-4800000Y+845006D03*
X-4800000Y+895000D03*
X-4800000Y+975000D03*
D99*
X-4925000Y+3330000D03*
X-4925000Y+3170000D03*
X-4925000Y+3010000D03*
X-4475000Y+3010000D03*
X-4475000Y+3170000D03*
X-4475000Y+3330000D03*
X-4925000Y+2330000D03*
X-4925000Y+2170000D03*
X-4925000Y+2010000D03*
X-4475000Y+2010000D03*
X-4475000Y+2170000D03*
X-4475000Y+2330000D03*
D100*
X-5000000Y-1780000D03*
X-4300000Y-1780000D03*
X-5000000Y-2230000D03*
X-4300000Y-2230000D03*
D101*
X-496666Y+6507500D03*
X-496666Y+6680220D03*
X-163333Y+6507500D03*
X-163333Y+6680220D03*
X+170000Y+6507500D03*
X+170000Y+6680220D03*
X+503334Y+6507500D03*
X+503334Y+6680220D03*
D102*
X-5000000Y-690000D03*
X-5000000Y-1110000D03*
D103*
X-500000Y+4500000D03*
X-500000Y+3534800D03*
D104*
X-2466000Y-3729000D03*
X-2466000Y-3500000D03*
X-2466000Y-3271000D03*
D105*
X-3134000Y-3500000D03*
D106*
X-4240006Y+4400000D03*
X-5159994Y+4400000D03*
D104*
X-2466000Y-2729000D03*
X-2466000Y-2500000D03*
X-2466000Y-2271000D03*
D105*
X-3134000Y-2500000D03*
D104*
X-2466000Y-4729000D03*
X-2466000Y-4500000D03*
X-2466000Y-4271000D03*
D105*
X-3134000Y-4500000D03*
D107*
X-3060350Y-609500D03*
X-3060350Y-736500D03*
X-3060350Y-863500D03*
X-3060350Y-990500D03*
X-2539650Y-990500D03*
X-2539650Y-863500D03*
X-2539650Y-736500D03*
X-2539650Y-609500D03*
D108*
X-3020000Y-1700000D03*
X-2580000Y-1700000D03*
X-4460000Y-5800000D03*
X-4900000Y-5800000D03*
D109*
X+500000Y+200000D03*
X+500000Y-170000D03*
D107*
X-1360350Y-1809500D03*
X-1360350Y-1936500D03*
X-1360350Y-2063500D03*
X-1360350Y-2190500D03*
X-839650Y-2190500D03*
X-839650Y-2063500D03*
X-839650Y-1936500D03*
X-839650Y-1809500D03*
D110*
X-1100000Y-3500000D03*
X-1100000Y-4110000D03*
D111*
X-3610000Y+3500000D03*
X-3770000Y+3500000D03*
X-3610000Y+3700000D03*
X-3770000Y+3700000D03*
X-3610000Y+3900000D03*
X-3770000Y+3900000D03*
X-3610000Y+2800000D03*
X-3770000Y+2800000D03*
X-3610000Y+3000000D03*
X-3770000Y+3000000D03*
X-3610000Y+3200000D03*
X-3770000Y+3200000D03*
X-3770000Y+2500000D03*
X-3610000Y+2500000D03*
X-3770000Y+2300000D03*
X-3610000Y+2300000D03*
X-3770000Y+2100000D03*
X-3610000Y+2100000D03*
X-3610000Y+1400000D03*
X-3770000Y+1400000D03*
X-3610000Y+1600000D03*
X-3770000Y+1600000D03*
X-3610000Y+1800000D03*
X-3770000Y+1800000D03*
X+400000Y-585000D03*
X+560000Y-585000D03*
X+400000Y+615000D03*
X+560000Y+615000D03*
X-1000000Y-4600000D03*
X-1160000Y-4600000D03*
X-1260000Y-3000000D03*
X-1420000Y-3000000D03*
D112*
X-2600000Y+500000D03*
X-2960680Y+500000D03*
X-2600000Y+800000D03*
X-2960680Y+800000D03*
D113*
X-4500000Y-830000D03*
X-4500000Y-670000D03*
D101*
X-4500000Y-997280D03*
X-4500000Y-1170000D03*
D114*
X-3600000Y-6000000D03*
X-2860000Y-6000000D03*
D115*
X-2000000Y-6000000D03*
X-1370000Y-6000000D03*
D116*
X-3760000Y+6000000D03*
X-3240000Y+6000000D03*
D117*
X-2870000Y+2105000D03*
X-2870000Y+2295000D03*
X-3100000Y+2200000D03*
X-2900000Y+3105000D03*
X-2900000Y+3295000D03*
X-3130000Y+3200000D03*
D111*
X-2900000Y+1800000D03*
X-3060000Y+1800000D03*
X-2900000Y+1600000D03*
X-3060000Y+1600000D03*
X-2900000Y+1400000D03*
X-3060000Y+1400000D03*
X-1000000Y-3000000D03*
X-840000Y-3000000D03*
D117*
X+130000Y-4095000D03*
X+130000Y-3905000D03*
X-100000Y-4000000D03*
D118*
X+600000Y-4900000D03*
X+410000Y-4900000D03*
X+505000Y-5130000D03*
D117*
X+100000Y-3095000D03*
X+100000Y-2905000D03*
X-130000Y-3000000D03*
X-1400000Y-1090000D03*
X-1400000Y-900000D03*
X-1630000Y-995000D03*
X-500000Y-1090000D03*
X-500000Y-900000D03*
X-730000Y-995000D03*
D111*
X-3100000Y+0D03*
X-2940000Y+0D03*
X-2480000Y+0D03*
X-2640000Y+0D03*
X-3600000Y-1400000D03*
X-3760000Y-1400000D03*
X-3600000Y-1200000D03*
X-3760000Y-1200000D03*
X-400000Y+5100000D03*
X-560000Y+5100000D03*
X-400000Y+2900000D03*
X-560000Y+2900000D03*
X-3620000Y+950000D03*
X-3780000Y+950000D03*
X-3620000Y+650000D03*
X-3780000Y+650000D03*
X-3620000Y+350000D03*
X-3780000Y+350000D03*
D113*
X-2000000Y-4700000D03*
X-2000000Y-4540000D03*
X-2000000Y-3540000D03*
X-2000000Y-3700000D03*
X+3700000Y+200000D03*
X+3700000Y+360000D03*
X+1000000Y-4100000D03*
X+1000000Y-3940000D03*
X+1000000Y-3100000D03*
X+1000000Y-2940000D03*
X+1000000Y-3440000D03*
X+1000000Y-3600000D03*
X+0Y-2200000D03*
X+0Y-2360000D03*
D111*
X-1200000Y-2800000D03*
X-1040000Y-2800000D03*
D113*
X-496666Y+6240000D03*
X-496666Y+6080000D03*
X-163333Y+6240000D03*
X-163333Y+6080000D03*
X+170000Y+6240000D03*
X+170000Y+6080000D03*
X+503334Y+6240000D03*
X+503334Y+6080000D03*
D111*
X+2300000Y+4930000D03*
X+2460000Y+4930000D03*
D47*
X+5500000Y-6900000D02*
X+5498010Y-6920447D01*
X+5492285Y-6939355D01*
X+5471094Y-6971094D01*
X+5439356Y-6992285D01*
X+5420447Y-6998010D01*
X+5400000Y-7000000D01*
X-5500000Y-6900000D02*
X-5498010Y-6920447D01*
X-5492285Y-6939355D01*
X-5471094Y-6971094D01*
X-5439356Y-6992285D01*
X-5420447Y-6998010D01*
X-5400000Y-7000000D01*
X+5400000Y+8000000D02*
X+5420447Y+7998010D01*
X+5439356Y+7992285D01*
X+5471094Y+7971094D01*
X+5492285Y+7939355D01*
X+5498010Y+7920447D01*
X+5500000Y+7900000D01*
X-5400000Y+8000000D02*
X-5420447Y+7998010D01*
X-5439356Y+7992285D01*
X-5471094Y+7971094D01*
X-5492285Y+7939355D01*
X-5498010Y+7920447D01*
X-5500000Y+7900000D01*
X-5400000Y+8000000D02*
X+5400000Y+8000000D01*
X+5500000Y+7900000D02*
X+5500000Y-6900000D01*
X+5400000Y-7000000D02*
X-5400000Y-7000000D01*
X-5500000Y-6900000D02*
X-5500000Y+7900000D01*
M02*
