G04 PROTEUS GERBER X2 FILE*
%TF.GenerationSoftware,Labcenter,Proteus,8.15-SP0-Build33980*%
%TF.CreationDate,2023-03-15T16:04:22+00:00*%
%TF.FileFunction,Copper,L2,Bot*%
%TF.FilePolarity,Positive*%
%TF.Part,Single*%
%TF.SameCoordinates,{4545a914-5e6f-4f91-a9de-dead5439e7db}*%
%FSLAX45Y45*%
%MOMM*%
G01*
%TA.AperFunction,Conductor*%
%ADD10C,0.304800*%
%ADD11C,1.016000*%
%ADD13C,0.635000*%
%ADD14C,0.254000*%
%ADD12C,0.762000*%
%ADD48C,0.508000*%
%TA.AperFunction,ViaPad*%
%ADD15C,0.762000*%
%TA.AperFunction,ComponentPad*%
%ADD17C,0.635000*%
%AMPPAD008*
4,1,34,
1.000000,-0.000010,
0.990050,-0.102240,
0.961430,-0.196780,
0.915960,-0.281800,
0.855470,-0.355470,
0.781800,-0.415960,
0.696780,-0.461430,
0.602240,-0.490050,
0.500010,-0.500000,
-0.500010,-0.500000,
-0.602240,-0.490050,
-0.696780,-0.461430,
-0.781800,-0.415960,
-0.855470,-0.355470,
-0.915960,-0.281800,
-0.961430,-0.196780,
-0.990050,-0.102240,
-1.000000,0.000010,
-0.990050,0.102240,
-0.961430,0.196780,
-0.915960,0.281800,
-0.855470,0.355470,
-0.781800,0.415960,
-0.696780,0.461430,
-0.602240,0.490050,
-0.500010,0.500000,
0.500010,0.500000,
0.602240,0.490050,
0.696780,0.461430,
0.781800,0.415960,
0.855470,0.355470,
0.915960,0.281800,
0.961430,0.196780,
0.990050,0.102240,
1.000000,-0.000010,
0*%
%ADD18PPAD008*%
%AMPPAD009*
4,1,34,
0.900000,-0.000010,
0.891050,-0.092020,
0.865280,-0.177100,
0.824360,-0.253620,
0.769920,-0.319920,
0.703620,-0.374360,
0.627100,-0.415280,
0.542020,-0.441050,
0.450010,-0.450000,
-0.450010,-0.450000,
-0.542020,-0.441050,
-0.627100,-0.415280,
-0.703620,-0.374360,
-0.769920,-0.319920,
-0.824360,-0.253620,
-0.865280,-0.177100,
-0.891050,-0.092020,
-0.900000,0.000010,
-0.891050,0.092020,
-0.865280,0.177100,
-0.824360,0.253620,
-0.769920,0.319920,
-0.703620,0.374360,
-0.627100,0.415280,
-0.542020,0.441050,
-0.450010,0.450000,
0.450010,0.450000,
0.542020,0.441050,
0.627100,0.415280,
0.703620,0.374360,
0.769920,0.319920,
0.824360,0.253620,
0.865280,0.177100,
0.891050,0.092020,
0.900000,-0.000010,
0*%
%ADD19PPAD009*%
%AMDIL010*
4,1,8,
-0.762000,0.965200,-0.457200,1.270000,0.457200,1.270000,0.762000,0.965200,0.762000,-0.965200,
0.457200,-1.270000,-0.457200,-1.270000,-0.762000,-0.965200,-0.762000,0.965200,
0*%
%TA.AperFunction,ComponentPad*%
%ADD70DIL010*%
%TA.AperFunction,WasherPad*%
%ADD71C,1.778000*%
%AMPPAD012*
4,1,34,
-0.000010,-2.500000,
-0.255590,-2.475130,
-0.491950,-2.403560,
-0.704500,-2.289890,
-0.888670,-2.138670,
-1.039880,-1.954500,
-1.153560,-1.741950,
-1.225130,-1.505590,
-1.250000,-1.250010,
-1.250000,1.250010,
-1.225130,1.505590,
-1.153560,1.741950,
-1.039880,1.954500,
-0.888670,2.138670,
-0.704500,2.289890,
-0.491950,2.403560,
-0.255590,2.475130,
0.000010,2.500000,
0.255590,2.475130,
0.491950,2.403560,
0.704500,2.289890,
0.888670,2.138670,
1.039880,1.954500,
1.153560,1.741950,
1.225130,1.505590,
1.250000,1.250010,
1.250000,-1.250010,
1.225130,-1.505590,
1.153560,-1.741950,
1.039880,-1.954500,
0.888670,-2.138670,
0.704500,-2.289890,
0.491950,-2.403560,
0.255590,-2.475130,
-0.000010,-2.500000,
0*%
%TA.AperFunction,ComponentPad*%
%ADD20PPAD012*%
%AMPPAD013*
4,1,34,
-0.000010,-2.250000,
-0.230030,-2.227620,
-0.442750,-2.163210,
-0.634050,-2.060900,
-0.799800,-1.924800,
-0.935900,-1.759050,
-1.038210,-1.567750,
-1.102620,-1.355030,
-1.125000,-1.125010,
-1.125000,1.125010,
-1.102620,1.355030,
-1.038210,1.567750,
-0.935900,1.759050,
-0.799800,1.924800,
-0.634050,2.060900,
-0.442750,2.163210,
-0.230030,2.227620,
0.000010,2.250000,
0.230030,2.227620,
0.442750,2.163210,
0.634050,2.060900,
0.799800,1.924800,
0.935900,1.759050,
1.038210,1.567750,
1.102620,1.355030,
1.125000,1.125010,
1.125000,-1.125010,
1.102620,-1.355030,
1.038210,-1.567750,
0.935900,-1.759050,
0.799800,-1.924800,
0.634050,-2.060900,
0.442750,-2.163210,
0.230030,-2.227620,
-0.000010,-2.250000,
0*%
%ADD21PPAD013*%
%AMPPAD014*
4,1,34,
1.125010,-1.125000,
-1.125010,-1.125000,
-1.355030,-1.102620,
-1.567750,-1.038210,
-1.759050,-0.935900,
-1.924800,-0.799800,
-2.060900,-0.634050,
-2.163210,-0.442750,
-2.227620,-0.230030,
-2.250000,0.000010,
-2.227620,0.230030,
-2.163210,0.442750,
-2.060900,0.634050,
-1.924800,0.799800,
-1.759050,0.935900,
-1.567750,1.038210,
-1.355030,1.102620,
-1.125010,1.125000,
1.125010,1.125000,
1.355030,1.102620,
1.567750,1.038210,
1.759050,0.935900,
1.924800,0.799800,
2.060900,0.634050,
2.163210,0.442750,
2.227620,0.230030,
2.250000,-0.000010,
2.227620,-0.230030,
2.163210,-0.442750,
2.060900,-0.634050,
1.924800,-0.799800,
1.759050,-0.935900,
1.567750,-1.038210,
1.355030,-1.102620,
1.125010,-1.125000,
0*%
%ADD22PPAD014*%
%TA.AperFunction,ComponentPad*%
%ADD25C,1.308100*%
%ADD26C,1.778000*%
%ADD27R,2.032000X2.032000*%
%TA.AperFunction,ComponentPad*%
%ADD28R,1.905000X1.905000*%
%TA.AperFunction,ComponentPad*%
%ADD72C,2.032000*%
%TA.AperFunction,SMDPad,CuDef*%
%ADD49R,0.558800X0.609600*%
%TA.AperFunction,OtherPad,Unknown*%
%ADD46C,4.572000*%
%TA.AperFunction,Profile*%
%ADD47C,0.101600*%
%TD.AperFunction*%
%TA.AperFunction,Conductor*%
G36*
X+2908000Y+7700000D02*
X+2847040Y+7700000D01*
X+2908000Y+7585700D01*
X+2968960Y+7700000D01*
X+2908000Y+7700000D01*
G37*
%TD.AperFunction*%
%TA.AperFunction,Conductor*%
G36*
X+3162000Y+7700000D02*
X+3222960Y+7700000D01*
X+3162000Y+7814300D01*
X+3101040Y+7700000D01*
X+3162000Y+7700000D01*
G37*
%TD.AperFunction*%
%TA.AperFunction,Conductor*%
G36*
X+3416000Y+7700000D02*
X+3355040Y+7700000D01*
X+3416000Y+7585700D01*
X+3476960Y+7700000D01*
X+3416000Y+7700000D01*
G37*
%TD.AperFunction*%
%TA.AperFunction,Conductor*%
G36*
X+3924000Y+7700000D02*
X+3863040Y+7700000D01*
X+3924000Y+7585700D01*
X+3984960Y+7700000D01*
X+3924000Y+7700000D01*
G37*
%TD.AperFunction*%
%TA.AperFunction,Conductor*%
G36*
X+4178000Y+7700000D02*
X+4117040Y+7700000D01*
X+4178000Y+7585700D01*
X+4238960Y+7700000D01*
X+4178000Y+7700000D01*
G37*
%TD.AperFunction*%
%TA.AperFunction,Conductor*%
G36*
X+200000Y+7700000D02*
X+139040Y+7700000D01*
X+200000Y+7585700D01*
X+260960Y+7700000D01*
X+200000Y+7700000D01*
G37*
%TD.AperFunction*%
%TA.AperFunction,Conductor*%
G36*
X+454000Y+7700000D02*
X+393040Y+7700000D01*
X+454000Y+7585700D01*
X+514960Y+7700000D01*
X+454000Y+7700000D01*
G37*
%TD.AperFunction*%
%TA.AperFunction,Conductor*%
G36*
X+708000Y+7700000D02*
X+647251Y+7705066D01*
X+698500Y+7586096D01*
X+768749Y+7694934D01*
X+708000Y+7700000D01*
G37*
%TD.AperFunction*%
%TA.AperFunction,Conductor*%
G36*
X+962000Y+7700000D02*
X+901251Y+7705066D01*
X+952500Y+7586096D01*
X+1022749Y+7694934D01*
X+962000Y+7700000D01*
G37*
%TD.AperFunction*%
%TA.AperFunction,Conductor*%
G36*
X+1216000Y+7700000D02*
X+1155040Y+7700000D01*
X+1216000Y+7585700D01*
X+1276960Y+7700000D01*
X+1216000Y+7700000D01*
G37*
%TD.AperFunction*%
%TA.AperFunction,Conductor*%
G36*
X+1470000Y+7700000D02*
X+1409040Y+7700000D01*
X+1470000Y+7585700D01*
X+1530960Y+7700000D01*
X+1470000Y+7700000D01*
G37*
%TD.AperFunction*%
%TA.AperFunction,Conductor*%
G36*
X+1724000Y+7700000D02*
X+1663040Y+7700000D01*
X+1724000Y+7585700D01*
X+1784960Y+7700000D01*
X+1724000Y+7700000D01*
G37*
%TD.AperFunction*%
%TA.AperFunction,Conductor*%
G36*
X+1978000Y+7700000D02*
X+1917040Y+7700000D01*
X+1978000Y+7585700D01*
X+2038960Y+7700000D01*
X+1978000Y+7700000D01*
G37*
%TD.AperFunction*%
%TA.AperFunction,Conductor*%
G36*
X-2000000Y+7700000D02*
X-2060960Y+7700000D01*
X-2000000Y+7585700D01*
X-1939040Y+7700000D01*
X-2000000Y+7700000D01*
G37*
%TD.AperFunction*%
%TA.AperFunction,Conductor*%
G36*
X-1492000Y+7700000D02*
X-1552960Y+7700000D01*
X-1492000Y+7585700D01*
X-1431040Y+7700000D01*
X-1492000Y+7700000D01*
G37*
%TD.AperFunction*%
%TA.AperFunction,Conductor*%
G36*
X-1238000Y+7700000D02*
X-1177040Y+7700000D01*
X-1238000Y+7814300D01*
X-1298960Y+7700000D01*
X-1238000Y+7700000D01*
G37*
%TD.AperFunction*%
%TA.AperFunction,Conductor*%
G36*
X-984000Y+7700000D02*
X-1044960Y+7700000D01*
X-984000Y+7585700D01*
X-923040Y+7700000D01*
X-984000Y+7700000D01*
G37*
%TD.AperFunction*%
%TA.AperFunction,Conductor*%
G36*
X-730000Y+7700000D02*
X-790960Y+7700000D01*
X-730000Y+7585700D01*
X-669040Y+7700000D01*
X-730000Y+7700000D01*
G37*
%TD.AperFunction*%
%TA.AperFunction,Conductor*%
G36*
X-476000Y+7700000D02*
X-536960Y+7700000D01*
X-476000Y+7585700D01*
X-415040Y+7700000D01*
X-476000Y+7700000D01*
G37*
%TD.AperFunction*%
%TA.AperFunction,Conductor*%
G36*
X-3946000Y+7700000D02*
X-4006960Y+7700000D01*
X-3946000Y+7585700D01*
X-3885040Y+7700000D01*
X-3946000Y+7700000D01*
G37*
%TD.AperFunction*%
%TA.AperFunction,Conductor*%
G36*
X-3692000Y+7700000D02*
X-3752960Y+7700000D01*
X-3692000Y+7585700D01*
X-3631040Y+7700000D01*
X-3692000Y+7700000D01*
G37*
%TD.AperFunction*%
%TA.AperFunction,Conductor*%
G36*
X-3438000Y+7700000D02*
X-3498960Y+7700000D01*
X-3438000Y+7585700D01*
X-3377040Y+7700000D01*
X-3438000Y+7700000D01*
G37*
%TD.AperFunction*%
%TA.AperFunction,Conductor*%
G36*
X-3184000Y+7700000D02*
X-3244960Y+7700000D01*
X-3184000Y+7585700D01*
X-3123040Y+7700000D01*
X-3184000Y+7700000D01*
G37*
%TD.AperFunction*%
%TA.AperFunction,Conductor*%
G36*
X-2930000Y+7700000D02*
X-2990960Y+7700000D01*
X-2930000Y+7585700D01*
X-2869040Y+7700000D01*
X-2930000Y+7700000D01*
G37*
%TD.AperFunction*%
%TA.AperFunction,Conductor*%
G36*
X-2676000Y+7700000D02*
X-2736960Y+7700000D01*
X-2676000Y+7585700D01*
X-2615040Y+7700000D01*
X-2676000Y+7700000D01*
G37*
%TD.AperFunction*%
%TA.AperFunction,Conductor*%
G36*
X+4246000Y+6762000D02*
X+4246000Y+6800100D01*
X+4112650Y+6762000D01*
X+4246000Y+6723900D01*
X+4246000Y+6762000D01*
G37*
%TD.AperFunction*%
%TA.AperFunction,Conductor*%
G36*
X+4500000Y+6762000D02*
X+4538100Y+6762000D01*
X+4500000Y+6895350D01*
X+4461900Y+6762000D01*
X+4500000Y+6762000D01*
G37*
%TD.AperFunction*%
%TA.AperFunction,Conductor*%
G36*
X+4500000Y+5746000D02*
X+4552085Y+5693915D01*
X+4594293Y+5840293D01*
X+4447915Y+5798085D01*
X+4500000Y+5746000D01*
G37*
%TD.AperFunction*%
%TA.AperFunction,Conductor*%
G36*
X+4500000Y+5492000D02*
X+4500000Y+5453900D01*
X+4633350Y+5492000D01*
X+4500000Y+5530100D01*
X+4500000Y+5492000D01*
G37*
%TD.AperFunction*%
%TA.AperFunction,Conductor*%
G36*
X+4246000Y+1162000D02*
X+4246000Y+1200100D01*
X+4112650Y+1162000D01*
X+4246000Y+1123900D01*
X+4246000Y+1162000D01*
G37*
%TD.AperFunction*%
%TA.AperFunction,Conductor*%
G36*
X+4500000Y+1162000D02*
X+4538100Y+1162000D01*
X+4500000Y+1295350D01*
X+4461900Y+1162000D01*
X+4500000Y+1162000D01*
G37*
%TD.AperFunction*%
%TA.AperFunction,Conductor*%
G36*
X+4246000Y-108000D02*
X+4246000Y-146100D01*
X+4379350Y-108000D01*
X+4246000Y-69900D01*
X+4246000Y-108000D01*
G37*
%TD.AperFunction*%
%TA.AperFunction,Conductor*%
G36*
X+4500000Y-108000D02*
X+4500000Y-69900D01*
X+4366650Y-108000D01*
X+4500000Y-146100D01*
X+4500000Y-108000D01*
G37*
%TD.AperFunction*%
%TA.AperFunction,Conductor*%
G36*
X+4246000Y-4438000D02*
X+4284100Y-4438000D01*
X+4246000Y-4304650D01*
X+4207900Y-4438000D01*
X+4246000Y-4438000D01*
G37*
%TD.AperFunction*%
%TA.AperFunction,Conductor*%
G36*
X+4246000Y-4692000D02*
X+4298085Y-4639915D01*
X+4151707Y-4597707D01*
X+4193915Y-4744085D01*
X+4246000Y-4692000D01*
G37*
%TD.AperFunction*%
%TA.AperFunction,Conductor*%
G36*
X+4246000Y-4946000D02*
X+4246000Y-4872340D01*
X+4112650Y-4946000D01*
X+4246000Y-5019660D01*
X+4246000Y-4946000D01*
G37*
%TD.AperFunction*%
%TA.AperFunction,Conductor*%
G36*
X+4246000Y-5200000D02*
X+4246000Y-5126340D01*
X+4112650Y-5200000D01*
X+4246000Y-5273660D01*
X+4246000Y-5200000D01*
G37*
%TD.AperFunction*%
%TA.AperFunction,Conductor*%
G36*
X+4500000Y-5200000D02*
X+4552085Y-5252085D01*
X+4594293Y-5105707D01*
X+4447915Y-5147915D01*
X+4500000Y-5200000D01*
G37*
%TD.AperFunction*%
%TA.AperFunction,Conductor*%
G36*
X+4246000Y-5454000D02*
X+4246000Y-5380340D01*
X+4112650Y-5454000D01*
X+4246000Y-5527660D01*
X+4246000Y-5454000D01*
G37*
%TD.AperFunction*%
%TA.AperFunction,Conductor*%
G36*
X+4500000Y-5454000D02*
X+4500000Y-5527660D01*
X+4633350Y-5454000D01*
X+4500000Y-5380340D01*
X+4500000Y-5454000D01*
G37*
%TD.AperFunction*%
%TA.AperFunction,Conductor*%
G36*
X+4246000Y-5708000D02*
X+4246000Y-5746100D01*
X+4379350Y-5708000D01*
X+4246000Y-5669900D01*
X+4246000Y-5708000D01*
G37*
%TD.AperFunction*%
%TA.AperFunction,Conductor*%
G36*
X+4500000Y-5708000D02*
X+4500000Y-5669900D01*
X+4366650Y-5708000D01*
X+4500000Y-5746100D01*
X+4500000Y-5708000D01*
G37*
%TD.AperFunction*%
%TA.AperFunction,Conductor*%
G36*
X+637000Y-6000000D02*
X+637000Y-6038100D01*
X+742680Y-6000000D01*
X+637000Y-5961900D01*
X+637000Y-6000000D01*
G37*
%TD.AperFunction*%
%TA.AperFunction,Conductor*%
G36*
X+383000Y-5746000D02*
X+456660Y-5746000D01*
X+383000Y-5612650D01*
X+309340Y-5746000D01*
X+383000Y-5746000D01*
G37*
%TD.AperFunction*%
%TA.AperFunction,Conductor*%
G36*
X+383000Y-6000000D02*
X+330915Y-6052085D01*
X+477293Y-6094293D01*
X+435085Y-5947915D01*
X+383000Y-6000000D01*
G37*
%TD.AperFunction*%
%TA.AperFunction,Conductor*%
G36*
X+129000Y-5746000D02*
X+202660Y-5746000D01*
X+129000Y-5612650D01*
X+55340Y-5746000D01*
X+129000Y-5746000D01*
G37*
%TD.AperFunction*%
%TA.AperFunction,Conductor*%
G36*
X-125000Y-5746000D02*
X-51340Y-5746000D01*
X-125000Y-5612650D01*
X-198660Y-5746000D01*
X-125000Y-5746000D01*
G37*
%TD.AperFunction*%
%TA.AperFunction,Conductor*%
G36*
X-125000Y-6000000D02*
X-198660Y-6000000D01*
X-125000Y-6133350D01*
X-51340Y-6000000D01*
X-125000Y-6000000D01*
G37*
%TD.AperFunction*%
%TA.AperFunction,Conductor*%
G36*
X-379000Y-5746000D02*
X-305340Y-5746000D01*
X-379000Y-5612650D01*
X-452660Y-5746000D01*
X-379000Y-5746000D01*
G37*
%TD.AperFunction*%
%TA.AperFunction,Conductor*%
G36*
X-379000Y-6000000D02*
X-452660Y-6000000D01*
X-379000Y-6133350D01*
X-305340Y-6000000D01*
X-379000Y-6000000D01*
G37*
%TD.AperFunction*%
%TA.AperFunction,Conductor*%
G36*
X-633000Y-5746000D02*
X-671100Y-5746000D01*
X-633000Y-5879350D01*
X-594900Y-5746000D01*
X-633000Y-5746000D01*
G37*
%TD.AperFunction*%
%TA.AperFunction,Conductor*%
G36*
X-633000Y-6000000D02*
X-594900Y-6000000D01*
X-633000Y-5866650D01*
X-671100Y-6000000D01*
X-633000Y-6000000D01*
G37*
%TD.AperFunction*%
%TA.AperFunction,Conductor*%
G36*
X+1600000Y+2411000D02*
X+1673660Y+2411000D01*
X+1600000Y+2544350D01*
X+1526340Y+2411000D01*
X+1600000Y+2411000D01*
G37*
%TD.AperFunction*%
%TA.AperFunction,Conductor*%
G36*
X+1600000Y+2157000D02*
X+1652085Y+2209085D01*
X+1505707Y+2251293D01*
X+1547915Y+2104915D01*
X+1600000Y+2157000D01*
G37*
%TD.AperFunction*%
%TA.AperFunction,Conductor*%
G36*
X+1600000Y+1395000D02*
X+1652085Y+1447085D01*
X+1505707Y+1489293D01*
X+1547915Y+1342915D01*
X+1600000Y+1395000D01*
G37*
%TD.AperFunction*%
%TA.AperFunction,Conductor*%
G36*
X+1600000Y+1141000D02*
X+1600000Y+1214660D01*
X+1466650Y+1141000D01*
X+1600000Y+1067340D01*
X+1600000Y+1141000D01*
G37*
%TD.AperFunction*%
%TA.AperFunction,Conductor*%
G36*
X+1600000Y+887000D02*
X+1652085Y+834915D01*
X+1694293Y+981293D01*
X+1547915Y+939085D01*
X+1600000Y+887000D01*
G37*
%TD.AperFunction*%
%TA.AperFunction,Conductor*%
G36*
X+1600000Y+633000D02*
X+1547915Y+580915D01*
X+1694293Y+538707D01*
X+1652085Y+685085D01*
X+1600000Y+633000D01*
G37*
%TD.AperFunction*%
%TA.AperFunction,Conductor*%
G36*
X+1600000Y+379000D02*
X+1547915Y+326915D01*
X+1694293Y+284707D01*
X+1652085Y+431085D01*
X+1600000Y+379000D01*
G37*
%TD.AperFunction*%
%TA.AperFunction,Conductor*%
G36*
X+1600000Y-129000D02*
X+1600000Y-90900D01*
X+1466650Y-129000D01*
X+1600000Y-167100D01*
X+1600000Y-129000D01*
G37*
%TD.AperFunction*%
%TA.AperFunction,Conductor*%
G36*
X+1600000Y-1653000D02*
X+1600000Y-1579340D01*
X+1466650Y-1653000D01*
X+1600000Y-1726660D01*
X+1600000Y-1653000D01*
G37*
%TD.AperFunction*%
%TA.AperFunction,Conductor*%
G36*
X+1600000Y-1907000D02*
X+1600000Y-1833340D01*
X+1466650Y-1907000D01*
X+1600000Y-1980660D01*
X+1600000Y-1907000D01*
G37*
%TD.AperFunction*%
%TA.AperFunction,Conductor*%
G36*
X+1600000Y-2415000D02*
X+1526340Y-2415000D01*
X+1600000Y-2548350D01*
X+1673660Y-2415000D01*
X+1600000Y-2415000D01*
G37*
%TD.AperFunction*%
%TA.AperFunction,Conductor*%
G36*
X+3124000Y-2415000D02*
X+3050340Y-2415000D01*
X+3124000Y-2548350D01*
X+3197660Y-2415000D01*
X+3124000Y-2415000D01*
G37*
%TD.AperFunction*%
%TA.AperFunction,Conductor*%
G36*
X+3124000Y-2161000D02*
X+3124000Y-2087340D01*
X+2990650Y-2161000D01*
X+3124000Y-2234660D01*
X+3124000Y-2161000D01*
G37*
%TD.AperFunction*%
%TA.AperFunction,Conductor*%
G36*
X+3124000Y-1907000D02*
X+3124000Y-1833340D01*
X+2990650Y-1907000D01*
X+3124000Y-1980660D01*
X+3124000Y-1907000D01*
G37*
%TD.AperFunction*%
%TA.AperFunction,Conductor*%
G36*
X+3124000Y-1399000D02*
X+3071915Y-1451085D01*
X+3204480Y-1479480D01*
X+3176085Y-1346915D01*
X+3124000Y-1399000D01*
G37*
%TD.AperFunction*%
%TA.AperFunction,Conductor*%
G36*
X+3124000Y-1399000D02*
X+3124000Y-1325340D01*
X+2990650Y-1399000D01*
X+3124000Y-1472660D01*
X+3124000Y-1399000D01*
G37*
%TD.AperFunction*%
%TA.AperFunction,Conductor*%
G36*
X+3124000Y-1145000D02*
X+3124000Y-1071340D01*
X+2990650Y-1145000D01*
X+3124000Y-1218660D01*
X+3124000Y-1145000D01*
G37*
%TD.AperFunction*%
%TA.AperFunction,Conductor*%
G36*
X+3124000Y-1145000D02*
X+3071915Y-1197085D01*
X+3218293Y-1239293D01*
X+3176085Y-1092915D01*
X+3124000Y-1145000D01*
G37*
%TD.AperFunction*%
%TA.AperFunction,Conductor*%
G36*
X+3124000Y-891000D02*
X+3176085Y-838915D01*
X+3029707Y-796707D01*
X+3071915Y-943085D01*
X+3124000Y-891000D01*
G37*
%TD.AperFunction*%
%TA.AperFunction,Conductor*%
G36*
X+3124000Y-637000D02*
X+3071915Y-689085D01*
X+3218293Y-731293D01*
X+3176085Y-584915D01*
X+3124000Y-637000D01*
G37*
%TD.AperFunction*%
%TA.AperFunction,Conductor*%
G36*
X+3124000Y-383000D02*
X+3124000Y-456660D01*
X+3257350Y-383000D01*
X+3124000Y-309340D01*
X+3124000Y-383000D01*
G37*
%TD.AperFunction*%
%TA.AperFunction,Conductor*%
G36*
X+3124000Y-383000D02*
X+3176085Y-330915D01*
X+3029707Y-288707D01*
X+3071915Y-435085D01*
X+3124000Y-383000D01*
G37*
%TD.AperFunction*%
%TA.AperFunction,Conductor*%
G36*
X+3124000Y-129000D02*
X+3124000Y-167100D01*
X+3257350Y-129000D01*
X+3124000Y-90900D01*
X+3124000Y-129000D01*
G37*
%TD.AperFunction*%
%TA.AperFunction,Conductor*%
G36*
X+3124000Y+633000D02*
X+3124000Y+559340D01*
X+3257350Y+633000D01*
X+3124000Y+706660D01*
X+3124000Y+633000D01*
G37*
%TD.AperFunction*%
%TA.AperFunction,Conductor*%
G36*
X+3124000Y+887000D02*
X+3176085Y+834915D01*
X+3218293Y+981293D01*
X+3071915Y+939085D01*
X+3124000Y+887000D01*
G37*
%TD.AperFunction*%
%TA.AperFunction,Conductor*%
G36*
X+3124000Y+1141000D02*
X+3176085Y+1193085D01*
X+3029707Y+1235293D01*
X+3071915Y+1088915D01*
X+3124000Y+1141000D01*
G37*
%TD.AperFunction*%
%TA.AperFunction,Conductor*%
G36*
X+3124000Y+1395000D02*
X+3176085Y+1342915D01*
X+3218293Y+1489293D01*
X+3071915Y+1447085D01*
X+3124000Y+1395000D01*
G37*
%TD.AperFunction*%
%TA.AperFunction,Conductor*%
G36*
X+3124000Y+1903000D02*
X+3176085Y+1850915D01*
X+3218293Y+1997293D01*
X+3071915Y+1955085D01*
X+3124000Y+1903000D01*
G37*
%TD.AperFunction*%
%TA.AperFunction,Conductor*%
G36*
X+3124000Y+2157000D02*
X+3176085Y+2104915D01*
X+3218293Y+2251293D01*
X+3071915Y+2209085D01*
X+3124000Y+2157000D01*
G37*
%TD.AperFunction*%
%TA.AperFunction,Conductor*%
G36*
X+3124000Y+2411000D02*
X+3197660Y+2411000D01*
X+3124000Y+2544350D01*
X+3050340Y+2411000D01*
X+3124000Y+2411000D01*
G37*
%TD.AperFunction*%
%TA.AperFunction,Conductor*%
G36*
X-2200000Y+5600000D02*
X-2256575Y+5656575D01*
X-2301028Y+5498972D01*
X-2143425Y+5543425D01*
X-2200000Y+5600000D01*
G37*
%TD.AperFunction*%
%TA.AperFunction,Conductor*%
G36*
X-2200000Y+4838000D02*
X-2252085Y+4785915D01*
X-2105707Y+4743707D01*
X-2147915Y+4890085D01*
X-2200000Y+4838000D01*
G37*
%TD.AperFunction*%
%TA.AperFunction,Conductor*%
G36*
X-2200000Y+2298000D02*
X-2273660Y+2298000D01*
X-2200000Y+2164650D01*
X-2126340Y+2298000D01*
X-2200000Y+2298000D01*
G37*
%TD.AperFunction*%
%TA.AperFunction,Conductor*%
G36*
X-1438000Y+2552000D02*
X-1438000Y+2625660D01*
X-1571350Y+2552000D01*
X-1438000Y+2478340D01*
X-1438000Y+2552000D01*
G37*
%TD.AperFunction*%
%TA.AperFunction,Conductor*%
G36*
X-1438000Y+3060000D02*
X-1490085Y+3007915D01*
X-1343707Y+2965707D01*
X-1385915Y+3112085D01*
X-1438000Y+3060000D01*
G37*
%TD.AperFunction*%
%TA.AperFunction,Conductor*%
G36*
X-1438000Y+3314000D02*
X-1490085Y+3261915D01*
X-1343707Y+3219707D01*
X-1385915Y+3366085D01*
X-1438000Y+3314000D01*
G37*
%TD.AperFunction*%
%TA.AperFunction,Conductor*%
G36*
X-1438000Y+3568000D02*
X-1438000Y+3606100D01*
X-1571350Y+3568000D01*
X-1438000Y+3529900D01*
X-1438000Y+3568000D01*
G37*
%TD.AperFunction*%
%TA.AperFunction,Conductor*%
G36*
X+2510000Y+6673500D02*
X+2457915Y+6621415D01*
X+2604293Y+6579207D01*
X+2562085Y+6725585D01*
X+2510000Y+6673500D01*
G37*
%TD.AperFunction*%
%TA.AperFunction,Conductor*%
G36*
X+2510000Y+5911500D02*
X+2436340Y+5911500D01*
X+2510000Y+5778150D01*
X+2583660Y+5911500D01*
X+2510000Y+5911500D01*
G37*
%TD.AperFunction*%
%TA.AperFunction,Conductor*%
G36*
X+2256000Y+6673500D02*
X+2229060Y+6700440D01*
X+2161707Y+6579207D01*
X+2282940Y+6646560D01*
X+2256000Y+6673500D01*
G37*
%TD.AperFunction*%
%TA.AperFunction,Conductor*%
G36*
X-1378000Y+892000D02*
X-1304340Y+892000D01*
X-1378000Y+1025350D01*
X-1451660Y+892000D01*
X-1378000Y+892000D01*
G37*
%TD.AperFunction*%
%TA.AperFunction,Conductor*%
G36*
X-1378000Y+638000D02*
X-1325915Y+690085D01*
X-1472293Y+732293D01*
X-1430085Y+585915D01*
X-1378000Y+638000D01*
G37*
%TD.AperFunction*%
%TA.AperFunction,Conductor*%
G36*
X-1378000Y+384000D02*
X-1325915Y+331915D01*
X-1283707Y+478293D01*
X-1430085Y+436085D01*
X-1378000Y+384000D01*
G37*
%TD.AperFunction*%
%TA.AperFunction,Conductor*%
G36*
X-1378000Y+130000D02*
X-1325915Y+182085D01*
X-1472293Y+224293D01*
X-1430085Y+77915D01*
X-1378000Y+130000D01*
G37*
%TD.AperFunction*%
%TA.AperFunction,Conductor*%
G36*
X+254000Y+635000D02*
X+231140Y+635000D01*
X+254000Y+577850D01*
X+276860Y+635000D01*
X+254000Y+635000D01*
G37*
%TD.AperFunction*%
%TA.AperFunction,Conductor*%
G36*
X+254000Y+190500D02*
X+276860Y+190500D01*
X+254000Y+247650D01*
X+231140Y+190500D01*
X+254000Y+190500D01*
G37*
%TD.AperFunction*%
%TA.AperFunction,Conductor*%
G36*
X-4318000Y+2286000D02*
X-4340860Y+2286000D01*
X-4318000Y+2228850D01*
X-4295140Y+2286000D01*
X-4318000Y+2286000D01*
G37*
%TD.AperFunction*%
%TA.AperFunction,Conductor*%
G36*
X-4318000Y+1714500D02*
X-4295140Y+1714500D01*
X-4318000Y+1771650D01*
X-4340860Y+1714500D01*
X-4318000Y+1714500D01*
G37*
%TD.AperFunction*%
%TA.AperFunction,Conductor*%
G36*
X-4000500Y+4635500D02*
X-3977640Y+4635500D01*
X-4000500Y+4692650D01*
X-4023360Y+4635500D01*
X-4000500Y+4635500D01*
G37*
%TD.AperFunction*%
%TA.AperFunction,Conductor*%
G36*
X-4000500Y+4635500D02*
X-4016664Y+4619336D01*
X-3965000Y+4600000D01*
X-3984336Y+4651664D01*
X-4000500Y+4635500D01*
G37*
%TD.AperFunction*%
%TA.AperFunction,Conductor*%
G36*
X-4191000Y+4191000D02*
X-4174836Y+4174836D01*
X-4150589Y+4231411D01*
X-4207164Y+4207164D01*
X-4191000Y+4191000D01*
G37*
%TD.AperFunction*%
%TA.AperFunction,Conductor*%
G36*
X-4191000Y+4191000D02*
X-4213860Y+4191000D01*
X-4191000Y+4133850D01*
X-4168140Y+4191000D01*
X-4191000Y+4191000D01*
G37*
%TD.AperFunction*%
%TA.AperFunction,Conductor*%
G36*
X-3873500Y+4953000D02*
X-3855654Y+4938714D01*
X-3837785Y+4997615D01*
X-3891346Y+4967286D01*
X-3873500Y+4953000D01*
G37*
%TD.AperFunction*%
%TA.AperFunction,Conductor*%
G36*
X-3619500Y+4064000D02*
X-3635664Y+4080164D01*
X-3659911Y+4023589D01*
X-3603336Y+4047836D01*
X-3619500Y+4064000D01*
G37*
%TD.AperFunction*%
%TA.AperFunction,Conductor*%
G36*
X-3873500Y+4191000D02*
X-3869900Y+4168426D01*
X-3817064Y+4200000D01*
X-3877100Y+4213574D01*
X-3873500Y+4191000D01*
G37*
%TD.AperFunction*%
%TA.AperFunction,Conductor*%
G36*
X-3873500Y+4762500D02*
X-3857336Y+4746336D01*
X-3836000Y+4800000D01*
X-3889664Y+4778664D01*
X-3873500Y+4762500D01*
G37*
%TD.AperFunction*%
%TA.AperFunction,Conductor*%
G36*
X-3937000Y+3492500D02*
X-3959860Y+3492500D01*
X-3937000Y+3435350D01*
X-3914140Y+3492500D01*
X-3937000Y+3492500D01*
G37*
%TD.AperFunction*%
%TA.AperFunction,Conductor*%
G36*
X-4064000Y+2794000D02*
X-4047836Y+2777836D01*
X-4023589Y+2834411D01*
X-4080164Y+2810164D01*
X-4064000Y+2794000D01*
G37*
%TD.AperFunction*%
%TA.AperFunction,Conductor*%
G36*
X-3492500Y+2540000D02*
X-3492500Y+2562860D01*
X-3549650Y+2540000D01*
X-3492500Y+2517140D01*
X-3492500Y+2540000D01*
G37*
%TD.AperFunction*%
%TA.AperFunction,Conductor*%
G36*
X-3937000Y+3619500D02*
X-3937000Y+3642360D01*
X-3994150Y+3619500D01*
X-3937000Y+3596640D01*
X-3937000Y+3619500D01*
G37*
%TD.AperFunction*%
%TA.AperFunction,Conductor*%
G36*
X-4318000Y+3175000D02*
X-4295140Y+3175000D01*
X-4318000Y+3232150D01*
X-4340860Y+3175000D01*
X-4318000Y+3175000D01*
G37*
%TD.AperFunction*%
%TA.AperFunction,Conductor*%
G36*
X-4318000Y+3175000D02*
X-4340860Y+3175000D01*
X-4318000Y+3117850D01*
X-4295140Y+3175000D01*
X-4318000Y+3175000D01*
G37*
%TD.AperFunction*%
%TA.AperFunction,Conductor*%
G36*
X-3492500Y+2667000D02*
X-3476336Y+2683164D01*
X-3532911Y+2707411D01*
X-3508664Y+2650836D01*
X-3492500Y+2667000D01*
G37*
%TD.AperFunction*%
%TA.AperFunction,Conductor*%
G36*
X-3746500Y+3365500D02*
X-3769360Y+3365500D01*
X-3746500Y+3308350D01*
X-3723640Y+3365500D01*
X-3746500Y+3365500D01*
G37*
%TD.AperFunction*%
%TA.AperFunction,Conductor*%
G36*
X-3365500Y+3492500D02*
X-3342640Y+3492500D01*
X-3365500Y+3549650D01*
X-3388360Y+3492500D01*
X-3365500Y+3492500D01*
G37*
%TD.AperFunction*%
%TA.AperFunction,Conductor*%
G36*
X+254000Y-3429000D02*
X+231140Y-3429000D01*
X+254000Y-3486150D01*
X+276860Y-3429000D01*
X+254000Y-3429000D01*
G37*
%TD.AperFunction*%
%TA.AperFunction,Conductor*%
G36*
X+254000Y-3937000D02*
X+276860Y-3937000D01*
X+254000Y-3879850D01*
X+231140Y-3937000D01*
X+254000Y-3937000D01*
G37*
%TD.AperFunction*%
%TA.AperFunction,Conductor*%
G36*
X+254000Y-3937000D02*
X+254000Y-3959860D01*
X+311150Y-3937000D01*
X+254000Y-3914140D01*
X+254000Y-3937000D01*
G37*
%TD.AperFunction*%
%TA.AperFunction,Conductor*%
G36*
X+508000Y-4572000D02*
X+530860Y-4572000D01*
X+508000Y-4514850D01*
X+485140Y-4572000D01*
X+508000Y-4572000D01*
G37*
%TD.AperFunction*%
%TA.AperFunction,Conductor*%
G36*
X-1524000Y-2476500D02*
X-1546860Y-2476500D01*
X-1524000Y-2533650D01*
X-1501140Y-2476500D01*
X-1524000Y-2476500D01*
G37*
%TD.AperFunction*%
%TA.AperFunction,Conductor*%
G36*
X-1016000Y-3175000D02*
X-1016000Y-3152140D01*
X-1073150Y-3175000D01*
X-1016000Y-3197860D01*
X-1016000Y-3175000D01*
G37*
%TD.AperFunction*%
%TA.AperFunction,Conductor*%
G36*
X-1016000Y-3175000D02*
X-1038860Y-3175000D01*
X-1016000Y-3232150D01*
X-993140Y-3175000D01*
X-1016000Y-3175000D01*
G37*
%TD.AperFunction*%
%TA.AperFunction,Conductor*%
G36*
X-1016000Y-4254500D02*
X-993140Y-4254500D01*
X-1016000Y-4197350D01*
X-1038860Y-4254500D01*
X-1016000Y-4254500D01*
G37*
%TD.AperFunction*%
%TA.AperFunction,Conductor*%
G36*
X-1143000Y-1968500D02*
X-1165860Y-1968500D01*
X-1143000Y-2025650D01*
X-1120140Y-1968500D01*
X-1143000Y-1968500D01*
G37*
%TD.AperFunction*%
%TA.AperFunction,Conductor*%
G36*
X-1143000Y-2921000D02*
X-1120140Y-2921000D01*
X-1143000Y-2863850D01*
X-1165860Y-2921000D01*
X-1143000Y-2921000D01*
G37*
%TD.AperFunction*%
%TA.AperFunction,Conductor*%
G36*
X-1016000Y-2159000D02*
X-1032164Y-2175164D01*
X-975589Y-2199411D01*
X-999836Y-2142836D01*
X-1016000Y-2159000D01*
G37*
%TD.AperFunction*%
%TA.AperFunction,Conductor*%
G36*
X-889000Y-2730500D02*
X-866140Y-2730500D01*
X-889000Y-2673350D01*
X-911860Y-2730500D01*
X-889000Y-2730500D01*
G37*
%TD.AperFunction*%
%TA.AperFunction,Conductor*%
G36*
X+2032000Y-3492500D02*
X+2015836Y-3508664D01*
X+2072411Y-3532911D01*
X+2048164Y-3476336D01*
X+2032000Y-3492500D01*
G37*
%TD.AperFunction*%
%TA.AperFunction,Conductor*%
G36*
X+635000Y-4762500D02*
X+657860Y-4762500D01*
X+635000Y-4705350D01*
X+612140Y-4762500D01*
X+635000Y-4762500D01*
G37*
%TD.AperFunction*%
%TA.AperFunction,Conductor*%
G36*
X+635000Y-3238500D02*
X+612140Y-3238500D01*
X+635000Y-3295650D01*
X+657860Y-3238500D01*
X+635000Y-3238500D01*
G37*
%TD.AperFunction*%
%TA.AperFunction,Conductor*%
G36*
X-254000Y-2349500D02*
X-231140Y-2349500D01*
X-254000Y-2292350D01*
X-276860Y-2349500D01*
X-254000Y-2349500D01*
G37*
%TD.AperFunction*%
%TA.AperFunction,Conductor*%
G36*
X-254000Y-2349500D02*
X-276860Y-2349500D01*
X-254000Y-2406650D01*
X-231140Y-2349500D01*
X-254000Y-2349500D01*
G37*
%TD.AperFunction*%
%TA.AperFunction,Conductor*%
G36*
X-4572000Y+4318000D02*
X-4594860Y+4318000D01*
X-4572000Y+4260850D01*
X-4549140Y+4318000D01*
X-4572000Y+4318000D01*
G37*
%TD.AperFunction*%
%TA.AperFunction,Conductor*%
G36*
X-4572000Y-1968500D02*
X-4549140Y-1968500D01*
X-4572000Y-1911350D01*
X-4594860Y-1968500D01*
X-4572000Y-1968500D01*
G37*
%TD.AperFunction*%
%TA.AperFunction,Conductor*%
G36*
X-254000Y-1524000D02*
X-276860Y-1524000D01*
X-254000Y-1581150D01*
X-231140Y-1524000D01*
X-254000Y-1524000D01*
G37*
%TD.AperFunction*%
%TA.AperFunction,Conductor*%
G36*
X+254000Y-2984500D02*
X+270164Y-2968336D01*
X+213589Y-2944089D01*
X+237836Y-3000664D01*
X+254000Y-2984500D01*
G37*
%TD.AperFunction*%
%TA.AperFunction,Conductor*%
G36*
X+1524000Y-4445000D02*
X+1501140Y-4445000D01*
X+1524000Y-4502150D01*
X+1546860Y-4445000D01*
X+1524000Y-4445000D01*
G37*
%TD.AperFunction*%
%TA.AperFunction,Conductor*%
G36*
X+1524000Y-5016500D02*
X+1546860Y-5016500D01*
X+1524000Y-4959350D01*
X+1501140Y-5016500D01*
X+1524000Y-5016500D01*
G37*
%TD.AperFunction*%
%TA.AperFunction,Conductor*%
G36*
X+0Y-5016500D02*
X+22860Y-5016500D01*
X+0Y-4959350D01*
X-22860Y-5016500D01*
X+0Y-5016500D01*
G37*
%TD.AperFunction*%
%TA.AperFunction,Conductor*%
G36*
X+0Y-2476500D02*
X-22860Y-2476500D01*
X+0Y-2533650D01*
X+22860Y-2476500D01*
X+0Y-2476500D01*
G37*
%TD.AperFunction*%
%TA.AperFunction,Conductor*%
G36*
X-2794000Y+1079500D02*
X-2794000Y+1056640D01*
X-2736850Y+1079500D01*
X-2794000Y+1102360D01*
X-2794000Y+1079500D01*
G37*
%TD.AperFunction*%
%TA.AperFunction,Conductor*%
G36*
X-2540000Y+3619500D02*
X-2517140Y+3619500D01*
X-2540000Y+3676650D01*
X-2562860Y+3619500D01*
X-2540000Y+3619500D01*
G37*
%TD.AperFunction*%
%TA.AperFunction,Conductor*%
G36*
X-1270000Y+5270500D02*
X-1247140Y+5270500D01*
X-1270000Y+5327650D01*
X-1292860Y+5270500D01*
X-1270000Y+5270500D01*
G37*
%TD.AperFunction*%
%TA.AperFunction,Conductor*%
G36*
X-2857500Y+1270000D02*
X-2857500Y+1247140D01*
X-2800350Y+1270000D01*
X-2857500Y+1292860D01*
X-2857500Y+1270000D01*
G37*
%TD.AperFunction*%
%TA.AperFunction,Conductor*%
G36*
X-3619500Y+825500D02*
X-3642360Y+825500D01*
X-3619500Y+768350D01*
X-3596640Y+825500D01*
X-3619500Y+825500D01*
G37*
%TD.AperFunction*%
%TA.AperFunction,Conductor*%
G36*
X-3492500Y+825500D02*
X-3469640Y+825500D01*
X-3492500Y+882650D01*
X-3515360Y+825500D01*
X-3492500Y+825500D01*
G37*
%TD.AperFunction*%
%TA.AperFunction,Conductor*%
G36*
X-3492500Y+825500D02*
X-3515360Y+825500D01*
X-3492500Y+768350D01*
X-3469640Y+825500D01*
X-3492500Y+825500D01*
G37*
%TD.AperFunction*%
%TA.AperFunction,Conductor*%
G36*
X-3810000Y+190500D02*
X-3787493Y+186500D01*
X-3800000Y+246768D01*
X-3832507Y+194500D01*
X-3810000Y+190500D01*
G37*
%TD.AperFunction*%
%TA.AperFunction,Conductor*%
G36*
X-3937000Y-2413000D02*
X-3914140Y-2413000D01*
X-3937000Y-2355850D01*
X-3959860Y-2413000D01*
X-3937000Y-2413000D01*
G37*
%TD.AperFunction*%
%TA.AperFunction,Conductor*%
G36*
X-3302000Y+0D02*
X-3285836Y-16164D01*
X-3261589Y+40411D01*
X-3318164Y+16164D01*
X-3302000Y+0D01*
G37*
%TD.AperFunction*%
%TA.AperFunction,Conductor*%
G36*
X-3302000Y+0D02*
X-3302000Y+22860D01*
X-3359150Y+0D01*
X-3302000Y-22860D01*
X-3302000Y+0D01*
G37*
%TD.AperFunction*%
%TA.AperFunction,Conductor*%
G36*
X-635000Y-1778000D02*
X-641350Y-1778000D01*
X-635000Y-1835150D01*
X-628650Y-1778000D01*
X-635000Y-1778000D01*
G37*
%TD.AperFunction*%
%TA.AperFunction,Conductor*%
G36*
X+2540000Y+5080000D02*
X+2556164Y+5096164D01*
X+2510000Y+5110000D01*
X+2523836Y+5063836D01*
X+2540000Y+5080000D01*
G37*
%TD.AperFunction*%
%TA.AperFunction,Conductor*%
G36*
X+3746500Y+5080000D02*
X+3730336Y+5096164D01*
X+3723239Y+5056739D01*
X+3762664Y+5063836D01*
X+3746500Y+5080000D01*
G37*
%TD.AperFunction*%
%TA.AperFunction,Conductor*%
G36*
X+3746500Y+1206500D02*
X+3762664Y+1222664D01*
X+3723239Y+1229761D01*
X+3730336Y+1190336D01*
X+3746500Y+1206500D01*
G37*
%TD.AperFunction*%
%TA.AperFunction,Conductor*%
G36*
X-4318000Y+698500D02*
X-4318000Y+673100D01*
X-4260850Y+698500D01*
X-4318000Y+723900D01*
X-4318000Y+698500D01*
G37*
%TD.AperFunction*%
%TA.AperFunction,Conductor*%
G36*
X-4953000Y+635000D02*
X-4969164Y+618836D01*
X-4912589Y+594589D01*
X-4936836Y+651164D01*
X-4953000Y+635000D01*
G37*
%TD.AperFunction*%
%TA.AperFunction,Conductor*%
G36*
X-4699000Y-254000D02*
X-4676140Y-254000D01*
X-4699000Y-196850D01*
X-4721860Y-254000D01*
X-4699000Y-254000D01*
G37*
%TD.AperFunction*%
%TA.AperFunction,Conductor*%
G36*
X-4318000Y-254000D02*
X-4295140Y-254000D01*
X-4318000Y-196850D01*
X-4340860Y-254000D01*
X-4318000Y-254000D01*
G37*
%TD.AperFunction*%
%TA.AperFunction,Conductor*%
G36*
X-3492500Y+4381500D02*
X-3483520Y+4390480D01*
X-3511000Y+4400000D01*
X-3501480Y+4372520D01*
X-3492500Y+4381500D01*
G37*
%TD.AperFunction*%
%TA.AperFunction,Conductor*%
G36*
X+762000Y-5143500D02*
X+784860Y-5143500D01*
X+762000Y-5086350D01*
X+739140Y-5143500D01*
X+762000Y-5143500D01*
G37*
%TD.AperFunction*%
%TA.AperFunction,Conductor*%
G36*
X+762000Y-4127500D02*
X+739140Y-4127500D01*
X+762000Y-4184650D01*
X+784860Y-4127500D01*
X+762000Y-4127500D01*
G37*
%TD.AperFunction*%
%TA.AperFunction,Conductor*%
G36*
X-2095500Y-4318000D02*
X-2095500Y-4295140D01*
X-2152650Y-4318000D01*
X-2095500Y-4340860D01*
X-2095500Y-4318000D01*
G37*
%TD.AperFunction*%
%TA.AperFunction,Conductor*%
G36*
X-3365500Y+3365500D02*
X-3388360Y+3365500D01*
X-3365500Y+3308350D01*
X-3342640Y+3365500D01*
X-3365500Y+3365500D01*
G37*
%TD.AperFunction*%
%TA.AperFunction,Conductor*%
G36*
X+3111500Y+6985000D02*
X+3089194Y+6980000D01*
X+3124000Y+6929234D01*
X+3133806Y+6990000D01*
X+3111500Y+6985000D01*
G37*
%TD.AperFunction*%
%TA.AperFunction,Conductor*%
G36*
X+3238500Y+7112000D02*
X+3215640Y+7112000D01*
X+3238500Y+7054850D01*
X+3261360Y+7112000D01*
X+3238500Y+7112000D01*
G37*
%TD.AperFunction*%
%TA.AperFunction,Conductor*%
G36*
X+3365500Y+4953000D02*
X+3388360Y+4953000D01*
X+3365500Y+5010150D01*
X+3342640Y+4953000D01*
X+3365500Y+4953000D01*
G37*
%TD.AperFunction*%
%TA.AperFunction,Conductor*%
G36*
X+3365500Y+4953000D02*
X+3342640Y+4953000D01*
X+3365500Y+4895850D01*
X+3388360Y+4953000D01*
X+3365500Y+4953000D01*
G37*
%TD.AperFunction*%
%TA.AperFunction,Conductor*%
G36*
X+4699000Y+2159000D02*
X+4721860Y+2159000D01*
X+4699000Y+2216150D01*
X+4676140Y+2159000D01*
X+4699000Y+2159000D01*
G37*
%TD.AperFunction*%
%TA.AperFunction,Conductor*%
G36*
X+5143500Y+4889500D02*
X+5127336Y+4905664D01*
X+5103089Y+4849089D01*
X+5159664Y+4873336D01*
X+5143500Y+4889500D01*
G37*
%TD.AperFunction*%
%TA.AperFunction,Conductor*%
G36*
X+4699000Y+7239000D02*
X+4676140Y+7239000D01*
X+4699000Y+7181850D01*
X+4721860Y+7239000D01*
X+4699000Y+7239000D01*
G37*
%TD.AperFunction*%
%TA.AperFunction,Conductor*%
G36*
X+4699000Y+7239000D02*
X+4721860Y+7239000D01*
X+4699000Y+7296150D01*
X+4676140Y+7239000D01*
X+4699000Y+7239000D01*
G37*
%TD.AperFunction*%
%TA.AperFunction,Conductor*%
G36*
X+3492500Y+6477000D02*
X+3469640Y+6477000D01*
X+3492500Y+6419850D01*
X+3515360Y+6477000D01*
X+3492500Y+6477000D01*
G37*
%TD.AperFunction*%
%TA.AperFunction,Conductor*%
G36*
X+3492500Y+6477000D02*
X+3515360Y+6477000D01*
X+3492500Y+6534150D01*
X+3469640Y+6477000D01*
X+3492500Y+6477000D01*
G37*
%TD.AperFunction*%
%TA.AperFunction,Conductor*%
G36*
X+2921000Y+6223000D02*
X+2898140Y+6223000D01*
X+2921000Y+6165850D01*
X+2943860Y+6223000D01*
X+2921000Y+6223000D01*
G37*
%TD.AperFunction*%
%TA.AperFunction,Conductor*%
G36*
X+2921000Y+6223000D02*
X+2943860Y+6223000D01*
X+2921000Y+6280150D01*
X+2898140Y+6223000D01*
X+2921000Y+6223000D01*
G37*
%TD.AperFunction*%
%TA.AperFunction,Conductor*%
G36*
X+2921000Y+7239000D02*
X+2898140Y+7239000D01*
X+2921000Y+7181850D01*
X+2943860Y+7239000D01*
X+2921000Y+7239000D01*
G37*
%TD.AperFunction*%
%TA.AperFunction,Conductor*%
G36*
X+3619500Y+5905500D02*
X+3596640Y+5905500D01*
X+3619500Y+5848350D01*
X+3642360Y+5905500D01*
X+3619500Y+5905500D01*
G37*
%TD.AperFunction*%
%TA.AperFunction,Conductor*%
G36*
X+3619500Y+5905500D02*
X+3642360Y+5905500D01*
X+3619500Y+5962650D01*
X+3596640Y+5905500D01*
X+3619500Y+5905500D01*
G37*
%TD.AperFunction*%
%TA.AperFunction,Conductor*%
G36*
X+3746500Y+5778500D02*
X+3730336Y+5762336D01*
X+3786911Y+5738089D01*
X+3762664Y+5794664D01*
X+3746500Y+5778500D01*
G37*
%TD.AperFunction*%
%TA.AperFunction,Conductor*%
G36*
X+3746500Y+5778500D02*
X+3769360Y+5778500D01*
X+3746500Y+5835650D01*
X+3723640Y+5778500D01*
X+3746500Y+5778500D01*
G37*
%TD.AperFunction*%
%TA.AperFunction,Conductor*%
G36*
X+190500Y+6794500D02*
X+213041Y+6790700D01*
X+200000Y+6850854D01*
X+167959Y+6798300D01*
X+190500Y+6794500D01*
G37*
%TD.AperFunction*%
%TA.AperFunction,Conductor*%
G36*
X+1587500Y+6032500D02*
X+1564640Y+6032500D01*
X+1587500Y+5975350D01*
X+1610360Y+6032500D01*
X+1587500Y+6032500D01*
G37*
%TD.AperFunction*%
%TA.AperFunction,Conductor*%
G36*
X+1333500Y+3365500D02*
X+1310640Y+3365500D01*
X+1333500Y+3308350D01*
X+1356360Y+3365500D01*
X+1333500Y+3365500D01*
G37*
%TD.AperFunction*%
%TA.AperFunction,Conductor*%
G36*
X+1333500Y+3365500D02*
X+1356360Y+3365500D01*
X+1333500Y+3422650D01*
X+1310640Y+3365500D01*
X+1333500Y+3365500D01*
G37*
%TD.AperFunction*%
%TA.AperFunction,Conductor*%
G36*
X+444500Y+7112000D02*
X+467041Y+7108200D01*
X+454000Y+7168354D01*
X+421959Y+7115800D01*
X+444500Y+7112000D01*
G37*
%TD.AperFunction*%
%TA.AperFunction,Conductor*%
G36*
X+1333500Y+6286500D02*
X+1310640Y+6286500D01*
X+1333500Y+6229350D01*
X+1356360Y+6286500D01*
X+1333500Y+6286500D01*
G37*
%TD.AperFunction*%
%TA.AperFunction,Conductor*%
G36*
X+698500Y+1905000D02*
X+721360Y+1905000D01*
X+698500Y+1962150D01*
X+675640Y+1905000D01*
X+698500Y+1905000D01*
G37*
%TD.AperFunction*%
%TA.AperFunction,Conductor*%
G36*
X+698500Y+3492500D02*
X+721360Y+3492500D01*
X+698500Y+3549650D01*
X+675640Y+3492500D01*
X+698500Y+3492500D01*
G37*
%TD.AperFunction*%
%TA.AperFunction,Conductor*%
G36*
X+698500Y+3492500D02*
X+675640Y+3492500D01*
X+698500Y+3435350D01*
X+721360Y+3492500D01*
X+698500Y+3492500D01*
G37*
%TD.AperFunction*%
%TA.AperFunction,Conductor*%
G36*
X+952500Y+6985000D02*
X+975360Y+6985000D01*
X+952500Y+7042150D01*
X+929640Y+6985000D01*
X+952500Y+6985000D01*
G37*
%TD.AperFunction*%
%TA.AperFunction,Conductor*%
G36*
X+952500Y+6985000D02*
X+929640Y+6985000D01*
X+952500Y+6927850D01*
X+975360Y+6985000D01*
X+952500Y+6985000D01*
G37*
%TD.AperFunction*%
%TA.AperFunction,Conductor*%
G36*
X+952500Y+1651000D02*
X+975360Y+1651000D01*
X+952500Y+1708150D01*
X+929640Y+1651000D01*
X+952500Y+1651000D01*
G37*
%TD.AperFunction*%
%TA.AperFunction,Conductor*%
G36*
X+952500Y+3365500D02*
X+929640Y+3365500D01*
X+952500Y+3308350D01*
X+975360Y+3365500D01*
X+952500Y+3365500D01*
G37*
%TD.AperFunction*%
%TA.AperFunction,Conductor*%
G36*
X+952500Y+3365500D02*
X+975360Y+3365500D01*
X+952500Y+3422650D01*
X+929640Y+3365500D01*
X+952500Y+3365500D01*
G37*
%TD.AperFunction*%
%TA.AperFunction,Conductor*%
G36*
X+2159000Y+1397000D02*
X+2181860Y+1397000D01*
X+2159000Y+1454150D01*
X+2136140Y+1397000D01*
X+2159000Y+1397000D01*
G37*
%TD.AperFunction*%
%TA.AperFunction,Conductor*%
G36*
X+2159000Y+3111500D02*
X+2136140Y+3111500D01*
X+2159000Y+3054350D01*
X+2181860Y+3111500D01*
X+2159000Y+3111500D01*
G37*
%TD.AperFunction*%
%TA.AperFunction,Conductor*%
G36*
X+4381500Y+3111500D02*
X+4358640Y+3111500D01*
X+4381500Y+3054350D01*
X+4404360Y+3111500D01*
X+4381500Y+3111500D01*
G37*
%TD.AperFunction*%
%TA.AperFunction,Conductor*%
G36*
X+4699000Y+1524000D02*
X+4699000Y+1546860D01*
X+4641850Y+1524000D01*
X+4699000Y+1501140D01*
X+4699000Y+1524000D01*
G37*
%TD.AperFunction*%
%TA.AperFunction,Conductor*%
G36*
X+1397000Y-2032000D02*
X+1374140Y-2032000D01*
X+1397000Y-2089150D01*
X+1419860Y-2032000D01*
X+1397000Y-2032000D01*
G37*
%TD.AperFunction*%
%TA.AperFunction,Conductor*%
G36*
X+1397000Y-1524000D02*
X+1397000Y-1501140D01*
X+1339850Y-1524000D01*
X+1397000Y-1546860D01*
X+1397000Y-1524000D01*
G37*
%TD.AperFunction*%
%TA.AperFunction,Conductor*%
G36*
X+1079500Y+7239000D02*
X+1056640Y+7239000D01*
X+1079500Y+7181850D01*
X+1102360Y+7239000D01*
X+1079500Y+7239000D01*
G37*
%TD.AperFunction*%
%TA.AperFunction,Conductor*%
G36*
X+1333500Y+7239000D02*
X+1356360Y+7239000D01*
X+1333500Y+7296150D01*
X+1310640Y+7239000D01*
X+1333500Y+7239000D01*
G37*
%TD.AperFunction*%
%TA.AperFunction,Conductor*%
G36*
X+1079500Y+2984500D02*
X+1102360Y+2984500D01*
X+1079500Y+3041650D01*
X+1056640Y+2984500D01*
X+1079500Y+2984500D01*
G37*
%TD.AperFunction*%
%TA.AperFunction,Conductor*%
G36*
X+1079500Y+2984500D02*
X+1056640Y+2984500D01*
X+1079500Y+2927350D01*
X+1102360Y+2984500D01*
X+1079500Y+2984500D01*
G37*
%TD.AperFunction*%
%TA.AperFunction,Conductor*%
G36*
X+4508500Y+2984500D02*
X+4485640Y+2984500D01*
X+4508500Y+2927350D01*
X+4531360Y+2984500D01*
X+4508500Y+2984500D01*
G37*
%TD.AperFunction*%
%TA.AperFunction,Conductor*%
G36*
X+4508500Y+1651000D02*
X+4531360Y+1651000D01*
X+4508500Y+1708150D01*
X+4485640Y+1651000D01*
X+4508500Y+1651000D01*
G37*
%TD.AperFunction*%
%TA.AperFunction,Conductor*%
G36*
X+2857500Y-2921000D02*
X+2834640Y-2921000D01*
X+2857500Y-2978150D01*
X+2880360Y-2921000D01*
X+2857500Y-2921000D01*
G37*
%TD.AperFunction*%
%TA.AperFunction,Conductor*%
G36*
X+2857500Y-2921000D02*
X+2873664Y-2904836D01*
X+2817089Y-2880589D01*
X+2841336Y-2937164D01*
X+2857500Y-2921000D01*
G37*
%TD.AperFunction*%
%TA.AperFunction,Conductor*%
G36*
X+4191000Y-2921000D02*
X+4213860Y-2921000D01*
X+4191000Y-2863850D01*
X+4168140Y-2921000D01*
X+4191000Y-2921000D01*
G37*
%TD.AperFunction*%
%TA.AperFunction,Conductor*%
G36*
X+4191000Y-444500D02*
X+4168140Y-444500D01*
X+4191000Y-501650D01*
X+4213860Y-444500D01*
X+4191000Y-444500D01*
G37*
%TD.AperFunction*%
%TA.AperFunction,Conductor*%
G36*
X+2032000Y-1587500D02*
X+2009140Y-1587500D01*
X+2032000Y-1644650D01*
X+2054860Y-1587500D01*
X+2032000Y-1587500D01*
G37*
%TD.AperFunction*%
%TA.AperFunction,Conductor*%
G36*
X+2413000Y-3048000D02*
X+2413000Y-3025140D01*
X+2355850Y-3048000D01*
X+2413000Y-3070860D01*
X+2413000Y-3048000D01*
G37*
%TD.AperFunction*%
%TA.AperFunction,Conductor*%
G36*
X+4318000Y-3048000D02*
X+4340860Y-3048000D01*
X+4318000Y-2990850D01*
X+4295140Y-3048000D01*
X+4318000Y-3048000D01*
G37*
%TD.AperFunction*%
%TA.AperFunction,Conductor*%
G36*
X+4318000Y-317500D02*
X+4295140Y-317500D01*
X+4318000Y-374650D01*
X+4340860Y-317500D01*
X+4318000Y-317500D01*
G37*
%TD.AperFunction*%
%TA.AperFunction,Conductor*%
G36*
X+1968500Y+3111500D02*
X+1991360Y+3111500D01*
X+1968500Y+3168650D01*
X+1945640Y+3111500D01*
X+1968500Y+3111500D01*
G37*
%TD.AperFunction*%
%TA.AperFunction,Conductor*%
G36*
X+0Y+3111500D02*
X-22860Y+3111500D01*
X+0Y+3054350D01*
X+22860Y+3111500D01*
X+0Y+3111500D01*
G37*
%TD.AperFunction*%
%TA.AperFunction,Conductor*%
G36*
X+0Y+762000D02*
X+22860Y+762000D01*
X+0Y+819150D01*
X-22860Y+762000D01*
X+0Y+762000D01*
G37*
%TD.AperFunction*%
%TA.AperFunction,Conductor*%
G36*
X+2286000Y-2159000D02*
X+2285200Y-2181845D01*
X+2343114Y-2161000D01*
X+2286800Y-2136155D01*
X+2286000Y-2159000D01*
G37*
%TD.AperFunction*%
%TA.AperFunction,Conductor*%
G36*
X+127000Y-2540000D02*
X+149860Y-2540000D01*
X+127000Y-2482850D01*
X+104140Y-2540000D01*
X+127000Y-2540000D01*
G37*
%TD.AperFunction*%
%TA.AperFunction,Conductor*%
G36*
X+127000Y+2095500D02*
X+104140Y+2095500D01*
X+127000Y+2038350D01*
X+149860Y+2095500D01*
X+127000Y+2095500D01*
G37*
%TD.AperFunction*%
%TA.AperFunction,Conductor*%
G36*
X-1016000Y+2095500D02*
X-993140Y+2095500D01*
X-1016000Y+2152650D01*
X-1038860Y+2095500D01*
X-1016000Y+2095500D01*
G37*
%TD.AperFunction*%
%TA.AperFunction,Conductor*%
G36*
X+2222500Y-1524000D02*
X+2206336Y-1540164D01*
X+2262911Y-1564411D01*
X+2238664Y-1507836D01*
X+2222500Y-1524000D01*
G37*
%TD.AperFunction*%
%TA.AperFunction,Conductor*%
G36*
X+2159000Y-635000D02*
X+2181860Y-635000D01*
X+2159000Y-577850D01*
X+2136140Y-635000D01*
X+2159000Y-635000D01*
G37*
%TD.AperFunction*%
%TA.AperFunction,Conductor*%
G36*
X+2159000Y+1143000D02*
X+2136140Y+1143000D01*
X+2159000Y+1085850D01*
X+2181860Y+1143000D01*
X+2159000Y+1143000D01*
G37*
%TD.AperFunction*%
%TA.AperFunction,Conductor*%
G36*
X+1905000Y+1143000D02*
X+1921164Y+1159164D01*
X+1864589Y+1183411D01*
X+1888836Y+1126836D01*
X+1905000Y+1143000D01*
G37*
%TD.AperFunction*%
%TA.AperFunction,Conductor*%
G36*
X+1841500Y+7429500D02*
X+1818640Y+7429500D01*
X+1841500Y+7372350D01*
X+1864360Y+7429500D01*
X+1841500Y+7429500D01*
G37*
%TD.AperFunction*%
%TA.AperFunction,Conductor*%
G36*
X-1143000Y+6731000D02*
X-1126836Y+6747164D01*
X-1183411Y+6771411D01*
X-1159164Y+6714836D01*
X-1143000Y+6731000D01*
G37*
%TD.AperFunction*%
%TA.AperFunction,Conductor*%
G36*
X-762000Y+6667500D02*
X-784860Y+6667500D01*
X-762000Y+6610350D01*
X-739140Y+6667500D01*
X-762000Y+6667500D01*
G37*
%TD.AperFunction*%
%TA.AperFunction,Conductor*%
G36*
X-762000Y+5397500D02*
X-739140Y+5397500D01*
X-762000Y+5454650D01*
X-784860Y+5397500D01*
X-762000Y+5397500D01*
G37*
%TD.AperFunction*%
%TA.AperFunction,Conductor*%
G36*
X+4572000Y+5207000D02*
X+4572000Y+5184140D01*
X+4629150Y+5207000D01*
X+4572000Y+5229860D01*
X+4572000Y+5207000D01*
G37*
%TD.AperFunction*%
%TA.AperFunction,Conductor*%
G36*
X+4953000Y-1587500D02*
X+4930140Y-1587500D01*
X+4953000Y-1644650D01*
X+4975860Y-1587500D01*
X+4953000Y-1587500D01*
G37*
%TD.AperFunction*%
%TA.AperFunction,Conductor*%
G36*
X+4953000Y-1587500D02*
X+4969164Y-1603664D01*
X+4993411Y-1547089D01*
X+4936836Y-1571336D01*
X+4953000Y-1587500D01*
G37*
%TD.AperFunction*%
%TA.AperFunction,Conductor*%
G36*
X+2032000Y+2603500D02*
X+2009140Y+2603500D01*
X+2032000Y+2546350D01*
X+2054860Y+2603500D01*
X+2032000Y+2603500D01*
G37*
%TD.AperFunction*%
%TA.AperFunction,Conductor*%
G36*
X+254000Y+2603500D02*
X+276860Y+2603500D01*
X+254000Y+2660650D01*
X+231140Y+2603500D01*
X+254000Y+2603500D01*
G37*
%TD.AperFunction*%
%TA.AperFunction,Conductor*%
G36*
X+2413000Y+2857500D02*
X+2390140Y+2857500D01*
X+2413000Y+2800350D01*
X+2435860Y+2857500D01*
X+2413000Y+2857500D01*
G37*
%TD.AperFunction*%
%TA.AperFunction,Conductor*%
G36*
X-254000Y+2857500D02*
X-231140Y+2857500D01*
X-254000Y+2914650D01*
X-276860Y+2857500D01*
X-254000Y+2857500D01*
G37*
%TD.AperFunction*%
%TA.AperFunction,Conductor*%
G36*
X+4064000Y-4000500D02*
X+4041140Y-4000500D01*
X+4064000Y-4057650D01*
X+4086860Y-4000500D01*
X+4064000Y-4000500D01*
G37*
%TD.AperFunction*%
%TA.AperFunction,Conductor*%
G36*
X+3429000Y-4000500D02*
X+3451860Y-4000500D01*
X+3429000Y-3943350D01*
X+3406140Y-4000500D01*
X+3429000Y-4000500D01*
G37*
%TD.AperFunction*%
%TA.AperFunction,Conductor*%
G36*
X+4064000Y-4953000D02*
X+4066800Y-4975687D01*
X+4120719Y-4946000D01*
X+4061200Y-4930313D01*
X+4064000Y-4953000D01*
G37*
%TD.AperFunction*%
%TA.AperFunction,Conductor*%
G36*
X+3683000Y-4953000D02*
X+3705860Y-4953000D01*
X+3683000Y-4895850D01*
X+3660140Y-4953000D01*
X+3683000Y-4953000D01*
G37*
%TD.AperFunction*%
%TA.AperFunction,Conductor*%
G36*
X+3683000Y-952500D02*
X+3660140Y-952500D01*
X+3683000Y-1009650D01*
X+3705860Y-952500D01*
X+3683000Y-952500D01*
G37*
%TD.AperFunction*%
%TA.AperFunction,Conductor*%
G36*
X-698500Y+7493000D02*
X-680882Y+7507566D01*
X-730000Y+7531100D01*
X-716118Y+7478434D01*
X-698500Y+7493000D01*
G37*
%TD.AperFunction*%
%TA.AperFunction,Conductor*%
G36*
X-1143000Y+7493000D02*
X-1165860Y+7493000D01*
X-1143000Y+7435850D01*
X-1120140Y+7493000D01*
X-1143000Y+7493000D01*
G37*
%TD.AperFunction*%
%TA.AperFunction,Conductor*%
G36*
X-444500Y+2730500D02*
X-421640Y+2730500D01*
X-444500Y+2787650D01*
X-467360Y+2730500D01*
X-444500Y+2730500D01*
G37*
%TD.AperFunction*%
%TA.AperFunction,Conductor*%
G36*
X+2540000Y+2730500D02*
X+2517140Y+2730500D01*
X+2540000Y+2673350D01*
X+2562860Y+2730500D01*
X+2540000Y+2730500D01*
G37*
%TD.AperFunction*%
%TA.AperFunction,Conductor*%
G36*
X+3937000Y-3746500D02*
X+3914140Y-3746500D01*
X+3937000Y-3803650D01*
X+3959860Y-3746500D01*
X+3937000Y-3746500D01*
G37*
%TD.AperFunction*%
%TA.AperFunction,Conductor*%
G36*
X+3556000Y-3746500D02*
X+3578860Y-3746500D01*
X+3556000Y-3689350D01*
X+3533140Y-3746500D01*
X+3556000Y-3746500D01*
G37*
%TD.AperFunction*%
%TA.AperFunction,Conductor*%
G36*
X+0Y+3810000D02*
X+22860Y+3810000D01*
X+0Y+3867150D01*
X-22860Y+3810000D01*
X+0Y+3810000D01*
G37*
%TD.AperFunction*%
%TA.AperFunction,Conductor*%
G36*
X+2286000Y+3810000D02*
X+2263140Y+3810000D01*
X+2286000Y+3752850D01*
X+2308860Y+3810000D01*
X+2286000Y+3810000D01*
G37*
%TD.AperFunction*%
%TA.AperFunction,Conductor*%
G36*
X+2857500Y-1270000D02*
X+2873664Y-1253836D01*
X+2817089Y-1229589D01*
X+2841336Y-1286164D01*
X+2857500Y-1270000D01*
G37*
%TD.AperFunction*%
%TA.AperFunction,Conductor*%
G36*
X+2286000Y+7112000D02*
X+2286000Y+7089140D01*
X+2343150Y+7112000D01*
X+2286000Y+7134860D01*
X+2286000Y+7112000D01*
G37*
%TD.AperFunction*%
%TA.AperFunction,Conductor*%
G36*
X+381000Y+5778500D02*
X+358140Y+5778500D01*
X+381000Y+5721350D01*
X+403860Y+5778500D01*
X+381000Y+5778500D01*
G37*
%TD.AperFunction*%
%TA.AperFunction,Conductor*%
G36*
X+381000Y-889000D02*
X+403860Y-889000D01*
X+381000Y-831850D01*
X+358140Y-889000D01*
X+381000Y-889000D01*
G37*
%TD.AperFunction*%
%TA.AperFunction,Conductor*%
G36*
X+381000Y-889000D02*
X+358140Y-889000D01*
X+381000Y-946150D01*
X+403860Y-889000D01*
X+381000Y-889000D01*
G37*
%TD.AperFunction*%
%TA.AperFunction,Conductor*%
G36*
X-952500Y-6159500D02*
X-929640Y-6159500D01*
X-952500Y-6102350D01*
X-975360Y-6159500D01*
X-952500Y-6159500D01*
G37*
%TD.AperFunction*%
%TA.AperFunction,Conductor*%
G36*
X-508000Y-1397000D02*
X-530860Y-1397000D01*
X-508000Y-1454150D01*
X-485140Y-1397000D01*
X-508000Y-1397000D01*
G37*
%TD.AperFunction*%
%TA.AperFunction,Conductor*%
G36*
X-508000Y-1397000D02*
X-485140Y-1397000D01*
X-508000Y-1339850D01*
X-530860Y-1397000D01*
X-508000Y-1397000D01*
G37*
%TD.AperFunction*%
%TA.AperFunction,Conductor*%
G36*
X-3937000Y+6858000D02*
X-3914426Y+6861600D01*
X-3946000Y+6914436D01*
X-3959574Y+6854400D01*
X-3937000Y+6858000D01*
G37*
%TD.AperFunction*%
%TA.AperFunction,Conductor*%
G36*
X-889000Y+6858000D02*
X-911860Y+6858000D01*
X-889000Y+6800850D01*
X-866140Y+6858000D01*
X-889000Y+6858000D01*
G37*
%TD.AperFunction*%
%TA.AperFunction,Conductor*%
G36*
X-127000Y-6159500D02*
X-104155Y-6160300D01*
X-125000Y-6102386D01*
X-149845Y-6158700D01*
X-127000Y-6159500D01*
G37*
%TD.AperFunction*%
%TA.AperFunction,Conductor*%
G36*
X-825500Y-6286500D02*
X-825500Y-6263640D01*
X-882650Y-6286500D01*
X-825500Y-6309360D01*
X-825500Y-6286500D01*
G37*
%TD.AperFunction*%
%TA.AperFunction,Conductor*%
G36*
X-762000Y-1651000D02*
X-762000Y-1628140D01*
X-819150Y-1651000D01*
X-762000Y-1673860D01*
X-762000Y-1651000D01*
G37*
%TD.AperFunction*%
%TA.AperFunction,Conductor*%
G36*
X-762000Y-1651000D02*
X-784860Y-1651000D01*
X-762000Y-1708150D01*
X-739140Y-1651000D01*
X-762000Y-1651000D01*
G37*
%TD.AperFunction*%
%TA.AperFunction,Conductor*%
G36*
X+825500Y+7239000D02*
X+802640Y+7239000D01*
X+825500Y+7181850D01*
X+848360Y+7239000D01*
X+825500Y+7239000D01*
G37*
%TD.AperFunction*%
%TA.AperFunction,Conductor*%
G36*
X-3429000Y+7239000D02*
X-3406426Y+7242600D01*
X-3438000Y+7295436D01*
X-3451574Y+7235400D01*
X-3429000Y+7239000D01*
G37*
%TD.AperFunction*%
%TA.AperFunction,Conductor*%
G36*
X+825500Y-1651000D02*
X+824700Y-1673845D01*
X+882614Y-1653000D01*
X+826300Y-1628155D01*
X+825500Y-1651000D01*
G37*
%TD.AperFunction*%
%TA.AperFunction,Conductor*%
G36*
X+825500Y-1651000D02*
X+848360Y-1651000D01*
X+825500Y-1593850D01*
X+802640Y-1651000D01*
X+825500Y-1651000D01*
G37*
%TD.AperFunction*%
%TA.AperFunction,Conductor*%
G36*
X+1270000Y-1905000D02*
X+1247140Y-1905000D01*
X+1270000Y-1962150D01*
X+1292860Y-1905000D01*
X+1270000Y-1905000D01*
G37*
%TD.AperFunction*%
%TA.AperFunction,Conductor*%
G36*
X+317500Y+7112000D02*
X+294640Y+7112000D01*
X+317500Y+7054850D01*
X+340360Y+7112000D01*
X+317500Y+7112000D01*
G37*
%TD.AperFunction*%
%TA.AperFunction,Conductor*%
G36*
X-3175000Y+7112000D02*
X-3152426Y+7115600D01*
X-3184000Y+7168436D01*
X-3197574Y+7108400D01*
X-3175000Y+7112000D01*
G37*
%TD.AperFunction*%
%TA.AperFunction,Conductor*%
G36*
X+1143000Y-5397500D02*
X+1165860Y-5397500D01*
X+1143000Y-5340350D01*
X+1120140Y-5397500D01*
X+1143000Y-5397500D01*
G37*
%TD.AperFunction*%
%TA.AperFunction,Conductor*%
G36*
X+381000Y-5397500D02*
X+358155Y-5398300D01*
X+383000Y-5454614D01*
X+403845Y-5396700D01*
X+381000Y-5397500D01*
G37*
%TD.AperFunction*%
%TA.AperFunction,Conductor*%
G36*
X+317500Y+6540500D02*
X+340360Y+6540500D01*
X+317500Y+6597650D01*
X+294640Y+6540500D01*
X+317500Y+6540500D01*
G37*
%TD.AperFunction*%
%TA.AperFunction,Conductor*%
G36*
X+317500Y+6540500D02*
X+301336Y+6524336D01*
X+357911Y+6500089D01*
X+333664Y+6556664D01*
X+317500Y+6540500D01*
G37*
%TD.AperFunction*%
%TA.AperFunction,Conductor*%
G36*
X+0Y-1778000D02*
X-22860Y-1778000D01*
X+0Y-1835150D01*
X+22860Y-1778000D01*
X+0Y-1778000D01*
G37*
%TD.AperFunction*%
%TA.AperFunction,Conductor*%
G36*
X+0Y-1778000D02*
X+0Y-1755140D01*
X-57150Y-1778000D01*
X+0Y-1800860D01*
X+0Y-1778000D01*
G37*
%TD.AperFunction*%
%TA.AperFunction,Conductor*%
G36*
X-2921000Y+6477000D02*
X-2898426Y+6480600D01*
X-2930000Y+6533436D01*
X-2943574Y+6473400D01*
X-2921000Y+6477000D01*
G37*
%TD.AperFunction*%
%TA.AperFunction,Conductor*%
G36*
X-190500Y+5905500D02*
X-213360Y+5905500D01*
X-190500Y+5848350D01*
X-167640Y+5905500D01*
X-190500Y+5905500D01*
G37*
%TD.AperFunction*%
%TA.AperFunction,Conductor*%
G36*
X+1587500Y-4254500D02*
X+1609806Y-4259500D01*
X+1600000Y-4198734D01*
X+1565194Y-4249500D01*
X+1587500Y-4254500D01*
G37*
%TD.AperFunction*%
%TA.AperFunction,Conductor*%
G36*
X+1460500Y+5778500D02*
X+1437640Y+5778500D01*
X+1460500Y+5721350D01*
X+1483360Y+5778500D01*
X+1460500Y+5778500D01*
G37*
%TD.AperFunction*%
%TA.AperFunction,Conductor*%
G36*
X+1460500Y+5778500D02*
X+1483360Y+5778500D01*
X+1460500Y+5835650D01*
X+1437640Y+5778500D01*
X+1460500Y+5778500D01*
G37*
%TD.AperFunction*%
%TA.AperFunction,Conductor*%
G36*
X+3111500Y-5270500D02*
X+3134360Y-5270500D01*
X+3111500Y-5213350D01*
X+3088640Y-5270500D01*
X+3111500Y-5270500D01*
G37*
%TD.AperFunction*%
%TA.AperFunction,Conductor*%
G36*
X-381000Y-5270500D02*
X-403845Y-5271300D01*
X-379000Y-5327614D01*
X-358155Y-5269700D01*
X-381000Y-5270500D01*
G37*
%TD.AperFunction*%
%TA.AperFunction,Conductor*%
G36*
X+1460500Y+3238500D02*
X+1483360Y+3238500D01*
X+1460500Y+3295650D01*
X+1437640Y+3238500D01*
X+1460500Y+3238500D01*
G37*
%TD.AperFunction*%
%TA.AperFunction,Conductor*%
G36*
X+4826000Y+3238500D02*
X+4803140Y+3238500D01*
X+4826000Y+3181350D01*
X+4848860Y+3238500D01*
X+4826000Y+3238500D01*
G37*
%TD.AperFunction*%
%TA.AperFunction,Conductor*%
G36*
X+4381500Y-3175000D02*
X+4397664Y-3191164D01*
X+4421911Y-3134589D01*
X+4365336Y-3158836D01*
X+4381500Y-3175000D01*
G37*
%TD.AperFunction*%
%TA.AperFunction,Conductor*%
G36*
X+3111500Y-3175000D02*
X+3133806Y-3180000D01*
X+3124000Y-3119234D01*
X+3089194Y-3170000D01*
X+3111500Y-3175000D01*
G37*
%TD.AperFunction*%
%TA.AperFunction,Conductor*%
G36*
X+3111500Y-3175000D02*
X+3088640Y-3175000D01*
X+3111500Y-3232150D01*
X+3134360Y-3175000D01*
X+3111500Y-3175000D01*
G37*
%TD.AperFunction*%
%TA.AperFunction,Conductor*%
G36*
X+1460500Y+7366000D02*
X+1437640Y+7366000D01*
X+1460500Y+7308850D01*
X+1483360Y+7366000D01*
X+1460500Y+7366000D01*
G37*
%TD.AperFunction*%
%TA.AperFunction,Conductor*%
G36*
X-1651000Y+2413000D02*
X-1673860Y+2413000D01*
X-1651000Y+2355850D01*
X-1628140Y+2413000D01*
X-1651000Y+2413000D01*
G37*
%TD.AperFunction*%
%TA.AperFunction,Conductor*%
G36*
X-1905000Y+2286000D02*
X-1888836Y+2302164D01*
X-1945411Y+2326411D01*
X-1921164Y+2269836D01*
X-1905000Y+2286000D01*
G37*
%TD.AperFunction*%
%TA.AperFunction,Conductor*%
G36*
X-1905000Y+2286000D02*
X-1927860Y+2286000D01*
X-1905000Y+2228850D01*
X-1882140Y+2286000D01*
X-1905000Y+2286000D01*
G37*
%TD.AperFunction*%
%TA.AperFunction,Conductor*%
G36*
X-2286000Y+952500D02*
X-2286000Y+929640D01*
X-2228850Y+952500D01*
X-2286000Y+975360D01*
X-2286000Y+952500D01*
G37*
%TD.AperFunction*%
%TA.AperFunction,Conductor*%
G36*
X-1651000Y+5905500D02*
X-1651000Y+5928360D01*
X-1708150Y+5905500D01*
X-1651000Y+5882640D01*
X-1651000Y+5905500D01*
G37*
%TD.AperFunction*%
%TA.AperFunction,Conductor*%
G36*
X-2667000Y+2476500D02*
X-2644140Y+2476500D01*
X-2667000Y+2533650D01*
X-2689860Y+2476500D01*
X-2667000Y+2476500D01*
G37*
%TD.AperFunction*%
%TA.AperFunction,Conductor*%
G36*
X-1079500Y-1016000D02*
X-1056640Y-1016000D01*
X-1079500Y-958850D01*
X-1102360Y-1016000D01*
X-1079500Y-1016000D01*
G37*
%TD.AperFunction*%
%TA.AperFunction,Conductor*%
G36*
X-1079500Y+254000D02*
X-1102360Y+254000D01*
X-1079500Y+196850D01*
X-1056640Y+254000D01*
X-1079500Y+254000D01*
G37*
%TD.AperFunction*%
%TA.AperFunction,Conductor*%
G36*
X-4064000Y+2095500D02*
X-4086860Y+2095500D01*
X-4064000Y+2038350D01*
X-4041140Y+2095500D01*
X-4064000Y+2095500D01*
G37*
%TD.AperFunction*%
%TA.AperFunction,Conductor*%
G36*
X-3810000Y-508000D02*
X-3810000Y-485140D01*
X-3867150Y-508000D01*
X-3810000Y-530860D01*
X-3810000Y-508000D01*
G37*
%TD.AperFunction*%
%TA.AperFunction,Conductor*%
G36*
X-254000Y-4191000D02*
X-254000Y-4168140D01*
X-311150Y-4191000D01*
X-254000Y-4213860D01*
X-254000Y-4191000D01*
G37*
%TD.AperFunction*%
%TA.AperFunction,Conductor*%
G36*
X-254000Y-4191000D02*
X-270164Y-4207164D01*
X-213589Y-4231411D01*
X-237836Y-4174836D01*
X-254000Y-4191000D01*
G37*
%TD.AperFunction*%
%TA.AperFunction,Conductor*%
G36*
X-740000Y+5090000D02*
X-756164Y+5073836D01*
X-699589Y+5049589D01*
X-723836Y+5106164D01*
X-740000Y+5090000D01*
G37*
%TD.AperFunction*%
%TA.AperFunction,Conductor*%
G36*
X-1143000Y+4953000D02*
X-1120140Y+4953000D01*
X-1143000Y+5010150D01*
X-1165860Y+4953000D01*
X-1143000Y+4953000D01*
G37*
%TD.AperFunction*%
%TA.AperFunction,Conductor*%
G36*
X+5393320Y-6893320D02*
X+2832399Y-6893320D01*
X+2832399Y-6851599D01*
X+3047293Y-6851599D01*
X+3326599Y-6572293D01*
X+3326599Y-5967201D01*
X+3380937Y-6021539D01*
X+4620063Y-6021539D01*
X+4815038Y-5826564D01*
X+4815038Y-5405935D01*
X+4747064Y-5337961D01*
X+4663265Y-5337961D01*
X+4642038Y-5326237D01*
X+4689699Y-5278576D01*
X+4689699Y-5193657D01*
X+4697500Y-5166602D01*
X+5069039Y-4795063D01*
X+5069039Y-1667894D01*
X+5091899Y-1645034D01*
X+5091899Y-1612703D01*
X+5386539Y-1318063D01*
X+5386539Y+5128063D01*
X+5191563Y+5323039D01*
X+4652394Y+5323039D01*
X+4629534Y+5345899D01*
X+4622174Y+5345899D01*
X+4689699Y+5413424D01*
X+4689699Y+5570576D01*
X+4641274Y+5618999D01*
X+4689699Y+5667424D01*
X+4689699Y+5752343D01*
X+4697500Y+5779398D01*
X+4815039Y+5896937D01*
X+4815039Y+7158606D01*
X+4837899Y+7181466D01*
X+4837899Y+7196260D01*
X+4863558Y+7170601D01*
X+5136442Y+7170601D01*
X+5329399Y+7363558D01*
X+5329399Y+7636442D01*
X+5136442Y+7829399D01*
X+4863558Y+7829399D01*
X+4815039Y+7780880D01*
X+4815039Y+7831623D01*
X+4753342Y+7893320D01*
X+5393320Y+7893320D01*
X+5393320Y-6893320D01*
G37*
%TD.AperFunction*%
%LPC*%
G36*
X+4670601Y-6636442D02*
X+4670601Y-6363558D01*
X+4863558Y-6170601D01*
X+5136442Y-6170601D01*
X+5329399Y-6363558D01*
X+5329399Y-6636442D01*
X+5136442Y-6829399D01*
X+4863558Y-6829399D01*
X+4670601Y-6636442D01*
G37*
%LPD*%
%TA.AperFunction,Conductor*%
G36*
X-4561038Y+7635436D02*
X-4561038Y+6873436D01*
X-3227539Y+5539937D01*
X-3227539Y+3550972D01*
X-3249461Y+3572893D01*
X-3249461Y+5248063D01*
X-3317437Y+5316039D01*
X-3511261Y+5316039D01*
X-3511261Y+5331279D01*
X-3868739Y+5331279D01*
X-3868739Y+5316039D01*
X-3921563Y+5316039D01*
X-4116539Y+5121063D01*
X-4116539Y+4715894D01*
X-4139399Y+4693034D01*
X-4139399Y+4577966D01*
X-4058034Y+4496601D01*
X-4049501Y+4496601D01*
X-4216203Y+4329899D01*
X-4248534Y+4329899D01*
X-4329899Y+4248534D01*
X-4329899Y+4133466D01*
X-4307039Y+4110606D01*
X-4307039Y+4015937D01*
X-4112063Y+3820961D01*
X-3698437Y+3820961D01*
X-3594297Y+3925101D01*
X-3561966Y+3925101D01*
X-3481539Y+4005528D01*
X-3481539Y+3572894D01*
X-3504399Y+3550034D01*
X-3504399Y+3434966D01*
X-3498433Y+3429000D01*
X-3504399Y+3423034D01*
X-3504399Y+3307966D01*
X-3481539Y+3285106D01*
X-3481539Y+2820141D01*
X-3630461Y+2969063D01*
X-3630461Y+3285106D01*
X-3607601Y+3307966D01*
X-3607601Y+3423034D01*
X-3688966Y+3504399D01*
X-3798101Y+3504399D01*
X-3798101Y+3550034D01*
X-3804067Y+3556000D01*
X-3798101Y+3561966D01*
X-3798101Y+3677034D01*
X-3879466Y+3758399D01*
X-3994534Y+3758399D01*
X-4017394Y+3735539D01*
X-4239063Y+3735539D01*
X-4434039Y+3540563D01*
X-4434039Y+3255394D01*
X-4455961Y+3233472D01*
X-4455961Y+4237606D01*
X-4433101Y+4260466D01*
X-4433101Y+4375534D01*
X-4514466Y+4456899D01*
X-4629534Y+4456899D01*
X-4710899Y+4375534D01*
X-4710899Y+4260466D01*
X-4688039Y+4237606D01*
X-4688039Y+1253799D01*
X-5059799Y+1253799D01*
X-5059799Y+952201D01*
X-5039549Y+952201D01*
X-5039549Y+904096D01*
X-4961904Y+826451D01*
X-4852096Y+826451D01*
X-4774451Y+904096D01*
X-4774451Y+952201D01*
X-4688039Y+952201D01*
X-4688039Y+534140D01*
X-4814101Y+660202D01*
X-4814101Y+692534D01*
X-4895466Y+773899D01*
X-5010534Y+773899D01*
X-5091899Y+692534D01*
X-5091899Y+577466D01*
X-5010534Y+496101D01*
X-4979352Y+496101D01*
X-5039549Y+435904D01*
X-5039549Y+387799D01*
X-5059799Y+387799D01*
X-5059799Y+86201D01*
X-4815039Y+86201D01*
X-4815039Y-173606D01*
X-4837899Y-196466D01*
X-4837899Y-311534D01*
X-4756534Y-392899D01*
X-4688039Y-392899D01*
X-4688039Y-1888106D01*
X-4710899Y-1910966D01*
X-4710899Y-2026034D01*
X-4629534Y-2107399D01*
X-4514466Y-2107399D01*
X-4433101Y-2026034D01*
X-4433101Y-1910966D01*
X-4455961Y-1888106D01*
X-4455961Y-534141D01*
X-4366063Y-624039D01*
X-3890394Y-624039D01*
X-3867534Y-646899D01*
X-3859001Y-646899D01*
X-4180039Y-967937D01*
X-4180039Y-4239063D01*
X-3985063Y-4434039D01*
X-2175894Y-4434039D01*
X-2153034Y-4456899D01*
X-2037966Y-4456899D01*
X-1993099Y-4412032D01*
X-1993099Y-5841294D01*
X-1904294Y-5930099D01*
X-1778706Y-5930099D01*
X-1689901Y-5841294D01*
X-1689901Y-3921991D01*
X-1523293Y-4088599D01*
X-1508991Y-4088599D01*
X-1548598Y-4128206D01*
X-1548598Y-4253794D01*
X-1459794Y-4342598D01*
X-1334206Y-4342598D01*
X-1132039Y-4140431D01*
X-1132039Y-4174106D01*
X-1154899Y-4196966D01*
X-1154899Y-4312034D01*
X-1073534Y-4393399D01*
X-958466Y-4393399D01*
X-878039Y-4312972D01*
X-878039Y-4460437D01*
X-1195539Y-4777937D01*
X-1195539Y-6334563D01*
X-1127563Y-6402539D01*
X-905894Y-6402539D01*
X-883034Y-6425399D01*
X-767966Y-6425399D01*
X-686601Y-6344034D01*
X-686601Y-6228966D01*
X-767966Y-6147601D01*
X-813601Y-6147601D01*
X-813601Y-6101966D01*
X-836461Y-6079106D01*
X-836461Y-5382063D01*
X-391961Y-4937563D01*
X-391961Y-4307039D01*
X-334394Y-4307039D01*
X-311534Y-4329899D01*
X-279204Y-4329899D01*
X-241039Y-4368064D01*
X-241039Y-5582735D01*
X-252000Y-5602578D01*
X-262961Y-5582735D01*
X-262961Y-5348894D01*
X-242101Y-5328034D01*
X-242101Y-5212966D01*
X-323466Y-5131601D01*
X-438534Y-5131601D01*
X-519899Y-5212966D01*
X-519899Y-5328034D01*
X-495039Y-5352894D01*
X-495039Y-5582735D01*
X-506764Y-5603962D01*
X-554424Y-5556301D01*
X-711576Y-5556301D01*
X-822699Y-5667424D01*
X-822699Y-5824576D01*
X-774275Y-5873000D01*
X-822699Y-5921424D01*
X-822699Y-6078576D01*
X-711576Y-6189699D01*
X-554424Y-6189699D01*
X-506765Y-6142040D01*
X-495039Y-6163266D01*
X-495039Y-6209563D01*
X-238563Y-6466039D01*
X+1191063Y-6466039D01*
X+1280961Y-6376141D01*
X+1280961Y-6842563D01*
X+1331718Y-6893320D01*
X-5393320Y-6893320D01*
X-5393320Y+91201D01*
X-5086213Y+91201D01*
X-5086213Y+382799D01*
X-5393320Y+382799D01*
X-5393320Y+957201D01*
X-5086213Y+957201D01*
X-5086213Y+1248799D01*
X-5393320Y+1248799D01*
X-5393320Y+5189601D01*
X-4997601Y+5189601D01*
X-4997601Y+6238209D01*
X-4914099Y+6154707D01*
X-4914099Y+5969706D01*
X-4825294Y+5880901D01*
X-4699706Y+5880901D01*
X-4610901Y+5969706D01*
X-4610901Y+6280293D01*
X-4890207Y+6559599D01*
X-4997601Y+6559599D01*
X-4997601Y+6864399D01*
X-5083961Y+6864399D01*
X-5083961Y+6899063D01*
X-5217961Y+7033063D01*
X-5217961Y+7252120D01*
X-5136442Y+7170601D01*
X-4863558Y+7170601D01*
X-4670601Y+7363558D01*
X-4670601Y+7636442D01*
X-4728620Y+7694461D01*
X-4620063Y+7694461D01*
X-4561038Y+7635436D01*
G37*
%TD.AperFunction*%
%LPC*%
G36*
X-3874201Y-5180799D02*
X-4074201Y-5180799D01*
X-4074201Y-5513299D01*
X-4725799Y-5513299D01*
X-4725799Y-5155799D01*
X-4913299Y-5155799D01*
X-4913299Y-4504201D01*
X-4486701Y-4504201D01*
X-4486701Y-5086701D01*
X-4325799Y-5086701D01*
X-4325799Y-4479201D01*
X-3874201Y-4479201D01*
X-3874201Y-5180799D01*
G37*
G36*
X-4310301Y-3001424D02*
X-4310301Y-3158576D01*
X-4421424Y-3269699D01*
X-4578576Y-3269699D01*
X-4600000Y-3248275D01*
X-4621424Y-3269699D01*
X-4778576Y-3269699D01*
X-4816614Y-3231662D01*
X-4831156Y-3246204D01*
X-4968844Y-3246204D01*
X-5066204Y-3148844D01*
X-5066204Y-3011156D01*
X-4968844Y-2913796D01*
X-4831156Y-2913796D01*
X-4816614Y-2928339D01*
X-4778576Y-2890301D01*
X-4621424Y-2890301D01*
X-4600000Y-2911725D01*
X-4578576Y-2890301D01*
X-4421424Y-2890301D01*
X-4310301Y-3001424D01*
G37*
G36*
X-4333796Y-3511156D02*
X-4333796Y-3648844D01*
X-4431156Y-3746204D01*
X-4568844Y-3746204D01*
X-4600000Y-3715048D01*
X-4631156Y-3746204D01*
X-4768844Y-3746204D01*
X-4800000Y-3715048D01*
X-4831156Y-3746204D01*
X-4968844Y-3746204D01*
X-5066204Y-3648844D01*
X-5066204Y-3511156D01*
X-4968844Y-3413796D01*
X-4831156Y-3413796D01*
X-4800000Y-3444952D01*
X-4768844Y-3413796D01*
X-4631156Y-3413796D01*
X-4600000Y-3444952D01*
X-4568844Y-3413796D01*
X-4431156Y-3413796D01*
X-4333796Y-3511156D01*
G37*
G36*
X-5329399Y-6636442D02*
X-5329399Y-6363558D01*
X-5136442Y-6170601D01*
X-4863558Y-6170601D01*
X-4670601Y-6363558D01*
X-4670601Y-6636442D01*
X-4863558Y-6829399D01*
X-5136442Y-6829399D01*
X-5329399Y-6636442D01*
G37*
G36*
X-5149850Y-2060933D02*
X-5149850Y-2003067D01*
X-5108933Y-1962150D01*
X-5051067Y-1962150D01*
X-5010150Y-2003067D01*
X-5010150Y-2060933D01*
X-5051067Y-2101850D01*
X-5108933Y-2101850D01*
X-5149850Y-2060933D01*
G37*
%LPD*%
%TA.AperFunction,Conductor*%
G36*
X+2223001Y+7472201D02*
X+2791961Y+7472201D01*
X+2791961Y+7444937D01*
X+2861232Y+7375665D01*
X+2782101Y+7296534D01*
X+2782101Y+7181466D01*
X+2804961Y+7158606D01*
X+2804961Y+7138141D01*
X+2715064Y+7228038D01*
X+2366395Y+7228038D01*
X+2343534Y+7250899D01*
X+2228466Y+7250899D01*
X+2147101Y+7169534D01*
X+2147101Y+7054466D01*
X+2228466Y+6973101D01*
X+2343534Y+6973101D01*
X+2366394Y+6995961D01*
X+2618936Y+6995961D01*
X+2677961Y+6936936D01*
X+2677961Y+6773814D01*
X+2588576Y+6863199D01*
X+2431424Y+6863199D01*
X+2382999Y+6814774D01*
X+2334576Y+6863199D01*
X+2177424Y+6863199D01*
X+2066301Y+6752076D01*
X+2066301Y+6594924D01*
X+2177424Y+6483801D01*
X+2334576Y+6483801D01*
X+2383000Y+6532225D01*
X+2431424Y+6483801D01*
X+2516341Y+6483801D01*
X+2543398Y+6475999D01*
X+2550961Y+6468437D01*
X+2550961Y+6101199D01*
X+2431424Y+6101199D01*
X+2382999Y+6052774D01*
X+2334576Y+6101199D01*
X+2177424Y+6101199D01*
X+2066301Y+5990076D01*
X+2066301Y+5832924D01*
X+2177424Y+5721801D01*
X+2334576Y+5721801D01*
X+2382235Y+5769460D01*
X+2393961Y+5748234D01*
X+2393961Y+5061937D01*
X+2401101Y+5054796D01*
X+2401101Y+5022466D01*
X+2482466Y+4941101D01*
X+2550961Y+4941101D01*
X+2550961Y+4655063D01*
X+2408297Y+4512399D01*
X+2286164Y+4512399D01*
X+2167601Y+4393836D01*
X+2167601Y+4258399D01*
X+2049448Y+4258399D01*
X+2049448Y+7127437D01*
X+2094039Y+7172028D01*
X+2094039Y+7472201D01*
X+2154999Y+7472201D01*
X+2154999Y+7893320D01*
X+2223001Y+7893320D01*
X+2223001Y+7472201D01*
G37*
%TD.AperFunction*%
%LPC*%
G36*
X+2216150Y+5051067D02*
X+2216150Y+5108933D01*
X+2257067Y+5149850D01*
X+2314933Y+5149850D01*
X+2355850Y+5108933D01*
X+2355850Y+5051067D01*
X+2314933Y+5010150D01*
X+2257067Y+5010150D01*
X+2216150Y+5051067D01*
G37*
%LPD*%
%TA.AperFunction,Conductor*%
G36*
X+4421424Y+5302301D02*
X+4470868Y+5302301D01*
X+4433101Y+5264534D01*
X+4433101Y+5149466D01*
X+4514466Y+5068101D01*
X+4629534Y+5068101D01*
X+4652394Y+5090961D01*
X+5095437Y+5090961D01*
X+5154461Y+5031937D01*
X+5154461Y+5028399D01*
X+5085966Y+5028399D01*
X+5004601Y+4947034D01*
X+5004601Y+4914703D01*
X+4582961Y+4493063D01*
X+4582961Y+3106472D01*
X+4566034Y+3123399D01*
X+4520399Y+3123399D01*
X+4520399Y+3169034D01*
X+4439034Y+3250399D01*
X+4342599Y+3250399D01*
X+4342599Y+3658401D01*
X+4444294Y+3658401D01*
X+4533099Y+3747206D01*
X+4533099Y+3872794D01*
X+4444294Y+3961599D01*
X+4152099Y+3961599D01*
X+4152099Y+5317626D01*
X+4167424Y+5302301D01*
X+4324576Y+5302301D01*
X+4373000Y+5350725D01*
X+4421424Y+5302301D01*
G37*
%TD.AperFunction*%
%TA.AperFunction,Conductor*%
G36*
X-3481539Y+4451350D02*
X-3511261Y+4451350D01*
X-3511261Y+5083961D01*
X-3481539Y+5083961D01*
X-3481539Y+4451350D01*
G37*
%TD.AperFunction*%
%TA.AperFunction,Conductor*%
G36*
X-751039Y+4197350D02*
X-772961Y+4197350D01*
X-772961Y+4819650D01*
X-751039Y+4819650D01*
X-751039Y+4197350D01*
G37*
%TD.AperFunction*%
%TA.AperFunction,Conductor*%
G36*
X-3481539Y+4122472D02*
X-3511261Y+4152194D01*
X-3511261Y+4311650D01*
X-3481539Y+4311650D01*
X-3481539Y+4122472D01*
G37*
%TD.AperFunction*%
%TA.AperFunction,Conductor*%
G36*
X+2147101Y+3752466D02*
X+2169961Y+3729605D01*
X+2169961Y+3250399D01*
X+2101466Y+3250399D01*
X+2084539Y+3233472D01*
X+2084539Y+3731063D01*
X+2049448Y+3766154D01*
X+2049448Y+3853601D01*
X+2147101Y+3853601D01*
X+2147101Y+3752466D01*
G37*
%TD.AperFunction*%
%TA.AperFunction,Conductor*%
G36*
X-1200534Y+4814101D02*
X-1132039Y+4814101D01*
X-1132039Y+3172141D01*
X-1240501Y+3280602D01*
X-1248301Y+3307656D01*
X-1248301Y+3392576D01*
X-1296725Y+3441000D01*
X-1248301Y+3489424D01*
X-1248301Y+3646576D01*
X-1296725Y+3695000D01*
X-1248301Y+3743424D01*
X-1248301Y+3900576D01*
X-1296725Y+3949000D01*
X-1248301Y+3997424D01*
X-1248301Y+4154576D01*
X-1296725Y+4203000D01*
X-1248301Y+4251424D01*
X-1248301Y+4408576D01*
X-1296725Y+4457000D01*
X-1248301Y+4505424D01*
X-1248301Y+4662576D01*
X-1296725Y+4711000D01*
X-1248301Y+4759424D01*
X-1248301Y+4861868D01*
X-1200534Y+4814101D01*
G37*
%TD.AperFunction*%
%TA.AperFunction,Conductor*%
G36*
X-751039Y+2990850D02*
X-772961Y+2990850D01*
X-772961Y+4057650D01*
X-751039Y+4057650D01*
X-751039Y+2990850D01*
G37*
%TD.AperFunction*%
%TA.AperFunction,Conductor*%
G36*
X+2421601Y+3972164D02*
X+2540164Y+3853601D01*
X+2677961Y+3853601D01*
X+2677961Y+2788972D01*
X+2597534Y+2869399D01*
X+2551899Y+2869399D01*
X+2551899Y+2915034D01*
X+2470534Y+2996399D01*
X+2402038Y+2996399D01*
X+2402038Y+3729605D01*
X+2424899Y+3752466D01*
X+2424899Y+3867534D01*
X+2343534Y+3948899D01*
X+2295134Y+3948899D01*
X+2318399Y+3972164D01*
X+2318399Y+4107601D01*
X+2421601Y+4107601D01*
X+2421601Y+3972164D01*
G37*
%TD.AperFunction*%
%TA.AperFunction,Conductor*%
G36*
X-2856794Y+2769401D02*
X-2783039Y+2769401D01*
X-2783039Y+2556894D01*
X-2805899Y+2534034D01*
X-2805899Y+2418966D01*
X-2742783Y+2355850D01*
X-2759433Y+2355850D01*
X-2800350Y+2314933D01*
X-2800350Y+2257067D01*
X-2759433Y+2216150D01*
X-2701567Y+2216150D01*
X-2660650Y+2257067D01*
X-2660650Y+2314933D01*
X-2683318Y+2337601D01*
X-2609466Y+2337601D01*
X-2529039Y+2418028D01*
X-2529039Y+1983937D01*
X-2449193Y+1904090D01*
X-2482850Y+1870433D01*
X-2482850Y+1812567D01*
X-2441933Y+1771650D01*
X-2402039Y+1771650D01*
X-2402039Y+1445063D01*
X-2461063Y+1386039D01*
X-2777106Y+1386039D01*
X-2799966Y+1408899D01*
X-2868462Y+1408899D01*
X-2868462Y+2781069D01*
X-2856794Y+2769401D01*
G37*
%TD.AperFunction*%
%LPC*%
G36*
X-2800350Y+1431567D02*
X-2800350Y+1489433D01*
X-2759433Y+1530350D01*
X-2701567Y+1530350D01*
X-2660650Y+1489433D01*
X-2660650Y+1431567D01*
X-2701567Y+1390650D01*
X-2759433Y+1390650D01*
X-2800350Y+1431567D01*
G37*
%LPD*%
%TA.AperFunction,Conductor*%
G36*
X-751039Y+2603500D02*
X-751039Y+2555437D01*
X-497039Y+2301437D01*
X-497039Y+1041314D01*
X-537424Y+1081699D01*
X-694576Y+1081699D01*
X-772961Y+1003314D01*
X-772961Y+2851150D01*
X-751039Y+2851150D01*
X-751039Y+2603500D01*
G37*
%TD.AperFunction*%
%TA.AperFunction,Conductor*%
G36*
X+2926499Y+1174398D02*
X+2934301Y+1147343D01*
X+2934301Y+1062424D01*
X+2982724Y+1013999D01*
X+2934301Y+965576D01*
X+2934301Y+808424D01*
X+2982725Y+760000D01*
X+2934301Y+711576D01*
X+2934301Y+554424D01*
X+2982725Y+506000D01*
X+2934301Y+457576D01*
X+2934301Y+300424D01*
X+2982725Y+252000D01*
X+2934301Y+203576D01*
X+2934301Y+46424D01*
X+2982725Y-2000D01*
X+2944913Y-39812D01*
X+2910039Y-4938D01*
X+2910039Y+1190859D01*
X+2926499Y+1174398D01*
G37*
%TD.AperFunction*%
%TA.AperFunction,Conductor*%
G36*
X+264961Y-969394D02*
X+264961Y-1390650D01*
X+243039Y-1390650D01*
X+243039Y-947472D01*
X+264961Y-969394D01*
G37*
%TD.AperFunction*%
%TA.AperFunction,Conductor*%
G36*
X+1126449Y+1058949D02*
X+1160437Y+1024961D01*
X+1436734Y+1024961D01*
X+1457960Y+1013235D01*
X+1410301Y+965576D01*
X+1410301Y+808424D01*
X+1458725Y+760000D01*
X+1410301Y+711576D01*
X+1410301Y+554424D01*
X+1458725Y+506000D01*
X+1410301Y+457576D01*
X+1410301Y+300424D01*
X+1458725Y+252000D01*
X+1410301Y+203576D01*
X+1410301Y+46424D01*
X+1458725Y-2000D01*
X+1410301Y-50424D01*
X+1410301Y-207576D01*
X+1458725Y-256000D01*
X+1410301Y-304424D01*
X+1410301Y-461576D01*
X+1458725Y-510000D01*
X+1410301Y-558424D01*
X+1410301Y-715576D01*
X+1458725Y-764000D01*
X+1410301Y-812424D01*
X+1410301Y-969576D01*
X+1458725Y-1018000D01*
X+1410301Y-1066424D01*
X+1410301Y-1223576D01*
X+1458725Y-1272000D01*
X+1410301Y-1320424D01*
X+1410301Y-1385101D01*
X+1339466Y-1385101D01*
X+1316606Y-1407961D01*
X+1127563Y-1407961D01*
X+1068539Y-1348937D01*
X+1068539Y-1339850D01*
X+1108433Y-1339850D01*
X+1149350Y-1298933D01*
X+1149350Y-1241067D01*
X+1108433Y-1200150D01*
X+1068539Y-1200150D01*
X+1068539Y-831850D01*
X+1108433Y-831850D01*
X+1149350Y-790933D01*
X+1149350Y-733067D01*
X+1108433Y-692150D01*
X+1068539Y-692150D01*
X+1068539Y+438150D01*
X+1108433Y+438150D01*
X+1149350Y+479067D01*
X+1149350Y+536933D01*
X+1108433Y+577850D01*
X+1068539Y+577850D01*
X+1068539Y+1094937D01*
X+1079500Y+1105898D01*
X+1126449Y+1058949D01*
G37*
%TD.AperFunction*%
%TA.AperFunction,Conductor*%
G36*
X-2939551Y+552949D02*
X-2905563Y+518961D01*
X-2482850Y+518961D01*
X-2482850Y+479067D01*
X-2441933Y+438150D01*
X-2384067Y+438150D01*
X-2350410Y+471807D01*
X-2338539Y+459937D01*
X-2338539Y-1054901D01*
X-2412294Y-1054901D01*
X-2501099Y-1143706D01*
X-2501099Y-2539293D01*
X-2247099Y-2793293D01*
X-2247099Y-3623118D01*
X-2257067Y-3613150D01*
X-2314933Y-3613150D01*
X-2355850Y-3654067D01*
X-2355850Y-3711933D01*
X-2314933Y-3752850D01*
X-2257067Y-3752850D01*
X-2247099Y-3742882D01*
X-2247099Y-3745794D01*
X-2158294Y-3834599D01*
X-1993099Y-3834599D01*
X-1993099Y-4223968D01*
X-2037966Y-4179101D01*
X-2153034Y-4179101D01*
X-2175894Y-4201961D01*
X-3888937Y-4201961D01*
X-3947961Y-4142937D01*
X-3947961Y-2551899D01*
X-3879466Y-2551899D01*
X-3798101Y-2470534D01*
X-3798101Y-2355466D01*
X-3820962Y-2332605D01*
X-3820962Y-1709471D01*
X-3804034Y-1726399D01*
X-3688966Y-1726399D01*
X-3625466Y-1662899D01*
X-3390099Y-1662899D01*
X-3390099Y-2285293D01*
X-3110793Y-2564599D01*
X-3009099Y-2564599D01*
X-3009099Y-3237794D01*
X-2920294Y-3326599D01*
X-2794706Y-3326599D01*
X-2705901Y-3237794D01*
X-2705901Y-2790382D01*
X-2695933Y-2800350D01*
X-2638067Y-2800350D01*
X-2597150Y-2759433D01*
X-2597150Y-2701567D01*
X-2638067Y-2660650D01*
X-2695933Y-2660650D01*
X-2705901Y-2670618D01*
X-2705901Y-2159706D01*
X-2794706Y-2070901D01*
X-2920294Y-2070901D01*
X-3009099Y-2159706D01*
X-3009099Y-2237509D01*
X-3086901Y-2159707D01*
X-3086901Y-1853399D01*
X-2990467Y-1853399D01*
X-2909101Y-1772033D01*
X-2909101Y-1466467D01*
X-2990467Y-1385101D01*
X-3740533Y-1385101D01*
X-3820962Y-1465529D01*
X-3820962Y-1254564D01*
X-3312961Y-746563D01*
X-3312961Y-138899D01*
X-3244466Y-138899D01*
X-3163101Y-57534D01*
X-3163101Y-25203D01*
X-2995461Y+142437D01*
X-2995461Y+608859D01*
X-2939551Y+552949D01*
G37*
%TD.AperFunction*%
%LPC*%
G36*
X-3498850Y-1044933D02*
X-3498850Y-987067D01*
X-3457933Y-946150D01*
X-3400067Y-946150D01*
X-3359150Y-987067D01*
X-3359150Y-1044933D01*
X-3400067Y-1085850D01*
X-3457933Y-1085850D01*
X-3498850Y-1044933D01*
G37*
G36*
X-2609850Y-219433D02*
X-2609850Y-161567D01*
X-2568933Y-120650D01*
X-2511067Y-120650D01*
X-2470150Y-161567D01*
X-2470150Y-219433D01*
X-2511067Y-260350D01*
X-2568933Y-260350D01*
X-2609850Y-219433D01*
G37*
G36*
X-2927350Y-1044933D02*
X-2927350Y-987067D01*
X-2886433Y-946150D01*
X-2828567Y-946150D01*
X-2787650Y-987067D01*
X-2787650Y-1044933D01*
X-2828567Y-1085850D01*
X-2886433Y-1085850D01*
X-2927350Y-1044933D01*
G37*
G36*
X-2736850Y-3775433D02*
X-2736850Y-3717567D01*
X-2695933Y-3676650D01*
X-2638067Y-3676650D01*
X-2597150Y-3717567D01*
X-2597150Y-3775433D01*
X-2638067Y-3816350D01*
X-2695933Y-3816350D01*
X-2736850Y-3775433D01*
G37*
%LPD*%
%TA.AperFunction,Conductor*%
G36*
X+4641466Y+1385101D02*
X+4709961Y+1385101D01*
X+4709961Y-2682437D01*
X+4434038Y-2958360D01*
X+4434038Y-397895D01*
X+4456899Y-375034D01*
X+4456899Y-297699D01*
X+4578576Y-297699D01*
X+4689699Y-186576D01*
X+4689699Y-29424D01*
X+4641275Y+19000D01*
X+4689699Y+67424D01*
X+4689699Y+224576D01*
X+4641275Y+273000D01*
X+4689699Y+321424D01*
X+4689699Y+478576D01*
X+4641275Y+527000D01*
X+4689699Y+575424D01*
X+4689699Y+732576D01*
X+4641275Y+781000D01*
X+4689699Y+829424D01*
X+4689699Y+986576D01*
X+4641275Y+1035000D01*
X+4689699Y+1083424D01*
X+4689699Y+1240576D01*
X+4666761Y+1263513D01*
X+4651599Y+1316581D01*
X+4651599Y+1370893D01*
X+4614531Y+1407961D01*
X+4618606Y+1407961D01*
X+4641466Y+1385101D01*
G37*
%TD.AperFunction*%
%TA.AperFunction,Conductor*%
G36*
X+264961Y-1905000D02*
X+264961Y-1953063D01*
X+836461Y-2524563D01*
X+836461Y-2642401D01*
X+762706Y-2642401D01*
X+673901Y-2731206D01*
X+673901Y-3099601D01*
X+577466Y-3099601D01*
X+496101Y-3180966D01*
X+496101Y-3296034D01*
X+518961Y-3318894D01*
X+518961Y-3820961D01*
X+370039Y-3820961D01*
X+370039Y-3509394D01*
X+392899Y-3486534D01*
X+392899Y-3371466D01*
X+311534Y-3290101D01*
X+196466Y-3290101D01*
X+174334Y-3312233D01*
X-10961Y-3126937D01*
X-10961Y-2883642D01*
X+115101Y-3009704D01*
X+115101Y-3042034D01*
X+196466Y-3123399D01*
X+311534Y-3123399D01*
X+392899Y-3042034D01*
X+392899Y-2926966D01*
X+329783Y-2863850D01*
X+346433Y-2863850D01*
X+387350Y-2822933D01*
X+387350Y-2765067D01*
X+346433Y-2724150D01*
X+288567Y-2724150D01*
X+247650Y-2765067D01*
X+247650Y-2814049D01*
X+116039Y-2682438D01*
X+116039Y-2678899D01*
X+184534Y-2678899D01*
X+265899Y-2597534D01*
X+265899Y-2482466D01*
X+243039Y-2459606D01*
X+243039Y-1530350D01*
X+264961Y-1530350D01*
X+264961Y-1905000D01*
G37*
%TD.AperFunction*%
%TA.AperFunction,Conductor*%
G36*
X+2263961Y-3888563D02*
X+2263961Y-4019804D01*
X+2177601Y-4106164D01*
X+2177601Y-4241601D01*
X+2042164Y-4241601D01*
X+2021039Y-4262726D01*
X+2021039Y-3645641D01*
X+2263961Y-3888563D01*
G37*
%TD.AperFunction*%
%TA.AperFunction,Conductor*%
G36*
X+2431601Y-4527836D02*
X+2550164Y-4646399D01*
X+2717836Y-4646399D01*
X+2741461Y-4622774D01*
X+2741461Y-6153150D01*
X+2701567Y-6153150D01*
X+2660650Y-6194067D01*
X+2660650Y-6243601D01*
X+2492039Y-6243601D01*
X+2492039Y-5756937D01*
X+2021039Y-5285937D01*
X+2021039Y-4625274D01*
X+2042164Y-4646399D01*
X+2209836Y-4646399D01*
X+2328399Y-4527836D01*
X+2328399Y-4392399D01*
X+2431601Y-4392399D01*
X+2431601Y-4527836D01*
G37*
%TD.AperFunction*%
%TA.AperFunction,Conductor*%
G36*
X+3566961Y-4872606D02*
X+3544101Y-4895466D01*
X+3544101Y-5010534D01*
X+3625466Y-5091899D01*
X+3693961Y-5091899D01*
X+3693961Y-5375063D01*
X+3888937Y-5570039D01*
X+4082734Y-5570039D01*
X+4103960Y-5581765D01*
X+4056301Y-5629424D01*
X+4056301Y-5786576D01*
X+4059186Y-5789461D01*
X+3477063Y-5789461D01*
X+3410318Y-5722716D01*
X+3410318Y-4139399D01*
X+3486534Y-4139399D01*
X+3566961Y-4058972D01*
X+3566961Y-4872606D01*
G37*
%TD.AperFunction*%
%TA.AperFunction,Conductor*%
G36*
X+1661961Y-6150063D02*
X+1919601Y-6407703D01*
X+1919601Y-6805461D01*
X+1572063Y-6805461D01*
X+1513039Y-6746437D01*
X+1513039Y-5155399D01*
X+1581534Y-5155399D01*
X+1661961Y-5074972D01*
X+1661961Y-6150063D01*
G37*
%TD.AperFunction*%
D10*
X+254000Y+190500D02*
X+254000Y+635000D01*
X+2370000Y+4310000D02*
X+2667000Y+4607000D01*
X+2667000Y+6516500D01*
X+2510000Y+6673500D01*
X-4318000Y+1714500D02*
X-4318000Y+2286000D01*
X-4000500Y+4635500D02*
X-4000500Y+5073000D01*
X-3873500Y+5200000D01*
X-3740000Y+5200000D01*
X-4191000Y+4191000D02*
X-3982000Y+4400000D01*
X-3740000Y+4400000D01*
X-3619500Y+4064000D02*
X-3746500Y+3937000D01*
X-4064000Y+3937000D01*
X-4191000Y+4064000D01*
X-4191000Y+4191000D01*
X-3873500Y+4953000D02*
X-3873500Y+4961900D01*
X-3835400Y+5000000D01*
X-3740000Y+5000000D01*
X-3873500Y+4191000D02*
X-3864500Y+4200000D01*
X-3740000Y+4200000D01*
X-3873500Y+4762500D02*
X-3836000Y+4800000D01*
X-3740000Y+4800000D01*
X-4064000Y+2794000D02*
X-3937000Y+2921000D01*
X-3937000Y+3492500D01*
X-4318000Y+3175000D02*
X-4318000Y+2667000D01*
X-4191000Y+2540000D01*
X-3492500Y+2540000D01*
X-4318000Y+3175000D02*
X-4318000Y+3492500D01*
X-4191000Y+3619500D01*
X-3937000Y+3619500D01*
X-3746500Y+3365500D02*
X-3746500Y+2921000D01*
X-3492500Y+2667000D01*
X-3640000Y+5000000D02*
X-3640000Y+4800000D01*
X-3640000Y+5000000D02*
X-3640000Y+5200000D01*
X-3365500Y+5200000D01*
X-3365500Y+3492500D01*
X+254000Y-3937000D02*
X+254000Y-3429000D01*
X+381000Y-3937000D02*
X+254000Y-3937000D01*
X+508000Y-4572000D02*
X+508000Y-3937000D01*
X+381000Y-3937000D02*
X+508000Y-3937000D01*
X-1016000Y-3175000D02*
X-1397000Y-3175000D01*
X-1524000Y-3048000D01*
X-1524000Y-2476500D01*
X-1016000Y-3365500D02*
X-1016000Y-3175000D01*
X-1016000Y-4254500D02*
X-1016000Y-3365500D01*
X-1143000Y-2921000D02*
X-1143000Y-1968500D01*
X-889000Y-2730500D02*
X-889000Y-2286000D01*
X-1016000Y-2159000D01*
X+2032000Y-3492500D02*
X+2380000Y-3840500D01*
X+2380000Y-4190000D01*
X+635000Y-3238500D02*
X+635000Y-4762500D01*
X-254000Y-2476500D02*
X-254000Y-2349500D01*
X-254000Y-2286000D02*
X-254000Y-2159000D01*
X-4572000Y-1968500D02*
X-4572000Y+4318000D01*
X-254000Y-1524000D02*
X-254000Y-2159000D01*
X-254000Y-2286000D02*
X-254000Y-2349500D01*
X+0Y-5016500D02*
X+0Y-4064000D01*
X-254000Y-3810000D01*
X-254000Y-2476500D01*
X+1524000Y-5016500D02*
X+1524000Y-4445000D01*
X+0Y-2476500D02*
X+0Y-2730500D01*
X+254000Y-2984500D01*
X-2794000Y+1079500D02*
X-2349500Y+1079500D01*
X-2200000Y+1229000D01*
X-2200000Y+2298000D01*
X-1270000Y+5270500D02*
X-1270000Y+5651500D01*
X-1397000Y+5778500D01*
X-2413000Y+5778500D01*
X-2540000Y+5651500D01*
X-2540000Y+3619500D01*
X-2857500Y+1270000D02*
X-2413000Y+1270000D01*
X-2286000Y+1397000D01*
X-2286000Y+1905000D01*
X-2413000Y+2032000D01*
X-2413000Y+5387000D01*
X-2200000Y+5600000D01*
X-3800000Y+533333D02*
X-3619500Y+533333D01*
X-3619500Y+825500D01*
X-3800000Y+533333D02*
X-3800000Y+766666D01*
X-3800000Y+300000D02*
X-3637000Y+300000D01*
X-3492500Y+444500D01*
X-3492500Y+825500D01*
X-3492500Y+1000000D01*
X-3800000Y+1000000D01*
X-3800000Y+300000D02*
X-3800000Y+200500D01*
X-3810000Y+190500D01*
D11*
X+4246000Y-4438000D02*
X+4246000Y-3683000D01*
X+4000500Y-3437500D01*
X+4000500Y+1162000D01*
X+4000500Y+5334000D02*
X+4000500Y+1162000D01*
X+4246000Y+1162000D01*
X+4000500Y+5524500D02*
X+4000500Y+5334000D01*
X+4000500Y+5524500D02*
X+4000500Y+6762000D01*
X+4246000Y+6762000D01*
D10*
X-3302000Y+0D02*
X-3111500Y+190500D01*
X-3111500Y+5588000D01*
X-4445000Y+6921500D01*
X-4445000Y+7683500D01*
X-4572000Y+7810500D01*
X-5207000Y+7810500D01*
X-5334000Y+7683500D01*
X-5334000Y+6985000D01*
X-5200000Y+6851000D01*
X-5200000Y+6662000D01*
X+1600000Y+379000D02*
X+1778000Y+201000D01*
X+1778000Y-6102000D01*
X+2122000Y-6446000D01*
X-3937000Y-2413000D02*
X-3937000Y-1206500D01*
X-3429000Y-698500D01*
X-3429000Y+0D01*
X-3302000Y+0D02*
X-3429000Y+0D01*
D11*
X+4191000Y+2032000D02*
X+4191000Y+3810000D01*
X+2984500Y-5588000D02*
X+2984500Y-5461000D01*
X+3022600Y-5422900D01*
X+3175000Y-5422900D01*
X+3175000Y-6509500D01*
X+2984500Y-6700000D01*
X+2630000Y-6700000D01*
X+4191000Y+1841500D02*
X+4191000Y+1397000D01*
X+4411100Y+1397000D01*
X+4500000Y+1308100D01*
X+4500000Y+1162000D01*
X-4762500Y+6032500D02*
X-4762500Y+6217500D01*
X-4953000Y+6408000D01*
X-5200000Y+6408000D01*
X+4191000Y+2032000D02*
X+4191000Y+1841500D01*
X-3238500Y+1587500D02*
X-3238500Y+3048000D01*
X-2794000Y+4064000D02*
X-2794000Y+2921000D01*
X+825500Y-5524500D02*
X+831580Y-5530580D01*
X+831580Y-5911100D01*
X+742680Y-6000000D01*
X+637000Y-6000000D01*
X+2984500Y-5588000D02*
X+2984500Y-5778500D01*
X+825500Y-3556000D02*
X+825500Y-2794000D01*
X+3124000Y-129000D02*
X+3365500Y-129000D01*
X+3365500Y+508000D01*
X+4381500Y+3810000D02*
X+4191000Y+3810000D01*
X-1438000Y+3568000D02*
X-1778000Y+3568000D01*
X-1778000Y+4826000D01*
X-1968500Y+5016500D01*
X+4572000Y+7429500D02*
X+4500000Y+7357500D01*
X+4500000Y+6762000D01*
X-2794000Y+5778500D02*
X-2794000Y+4445000D01*
X-2794000Y+4064000D02*
X-2794000Y+4254500D01*
X-2794000Y+4445000D02*
X-2794000Y+4254500D01*
X-2095500Y-3175000D02*
X-2095500Y-2667000D01*
X-2349500Y-1206500D02*
X-2349500Y-2476500D01*
X-2159000Y-2667000D01*
X-2095500Y-2667000D01*
X-2095500Y-2476500D02*
X-2095500Y-2667000D01*
X-2095500Y-3556000D02*
X-2095500Y-3365500D01*
X-2095500Y-3175000D02*
X-2095500Y-3365500D01*
X-2095500Y-3683000D02*
X-2095500Y-3556000D01*
X-1841500Y-3683000D02*
X-2095500Y-3683000D01*
X-1841500Y-3683000D02*
X-1841500Y-5778500D01*
X-1968500Y-889000D02*
X-1778000Y-698500D01*
X-1778000Y-381000D01*
X-1206500Y-3937000D02*
X-1460500Y-3937000D01*
X-1651000Y-3746500D01*
X-1651000Y-3048000D01*
X-1206500Y-3937000D02*
X-1206500Y-4000500D01*
X-1397000Y-4191000D01*
X-1206500Y-3746500D02*
X-1206500Y-3937000D01*
D13*
X-635000Y-1778000D02*
X-635000Y-3302000D01*
D11*
X-635000Y-3429000D01*
X-635000Y-3492500D01*
X-635000Y-3619500D02*
X-635000Y-3492500D01*
D10*
X+2540000Y+5080000D02*
X+2510000Y+5110000D01*
X+2510000Y+5911500D01*
X+3746500Y+1206500D02*
X+3723239Y+1229761D01*
X+3723239Y+5056739D01*
X+3746500Y+5080000D01*
D14*
X-3900000Y+766666D02*
X-4127500Y+766666D01*
X-4195666Y+698500D01*
X-4318000Y+698500D01*
D10*
X-3900000Y+766666D02*
X-3900000Y+1000000D01*
X-3900000Y+533333D02*
X-3900000Y+300000D01*
X-4699000Y-254000D02*
X-4699000Y+101120D01*
X-4673120Y+127000D01*
X-4673120Y+355120D01*
X-4953000Y+635000D01*
X-3900000Y+533333D02*
X-4191000Y+533333D01*
X-4318000Y+406333D01*
X-4318000Y-254000D01*
D11*
X-4700000Y-4830000D02*
X-4574200Y-4830000D01*
X-4574200Y-5300000D01*
X-4725800Y-5300000D02*
X-4574200Y-5300000D01*
X-2857500Y-1016000D02*
X-2508250Y-1365250D01*
X-2508250Y-2921000D01*
X-2667000Y-2921000D01*
X+4500000Y+5492000D02*
X+4777000Y+5492000D01*
X+5000000Y+5715000D01*
X+5000000Y+7500000D01*
X+2730500Y-6223000D02*
X+2730500Y-5524500D01*
X+2126000Y-4920000D01*
X+2126000Y-4444000D01*
X-4953000Y+1270000D02*
X-5080000Y+1397000D01*
X-5080000Y+1651000D01*
X-4826000Y+1905000D01*
X-4826000Y+5651500D01*
X-4700000Y-4830000D02*
X-4700000Y-4191000D01*
X-5143500Y-3747500D01*
X-5143500Y-2730500D01*
X-4889500Y-2476500D01*
X-4889500Y-2222500D01*
X-5080000Y-2032000D01*
X-2667000Y-2730500D02*
X-2667000Y-2921000D01*
X-5000000Y-6500000D02*
X-5000000Y-5574200D01*
X-4725800Y-5300000D01*
X+2256000Y+6673500D02*
X+2057874Y+6475374D01*
X+2057874Y+4990626D01*
X+2286000Y+4762500D01*
X-2857500Y-1016000D02*
X-2857500Y-508000D01*
X-2540000Y-190500D01*
X-4826000Y+5651500D02*
X-4572000Y+5905500D01*
X-4572000Y+7072000D01*
X-5000000Y+7500000D01*
X-2730500Y+2286000D02*
X-2730500Y+1841500D01*
X-2413000Y+1841500D01*
X+1206500Y-190500D02*
X+1079500Y-317500D01*
X+1079500Y-762000D01*
X-4953000Y+63500D02*
X-5277012Y+63500D01*
X-5277012Y+237000D01*
X-5200000Y+5900000D02*
X-4953000Y+5900000D01*
X-4953000Y+5778500D01*
X-4826000Y+5651500D01*
X-4859000Y+1103000D02*
X-4859000Y+1270000D01*
X-4953000Y+1270000D01*
X-5080000Y+1270000D01*
X-5080000Y+1103000D01*
X-5277012Y+1103000D01*
X+1206500Y-190500D02*
X+1333500Y-190500D01*
X+1395000Y-129000D01*
X+1600000Y-129000D01*
X+2286000Y+4762500D02*
X+2095500Y+4572000D01*
X+2095500Y+4381500D01*
X+2116000Y+4361000D01*
X+2116000Y+4056000D01*
X-4574200Y-5300000D02*
X-4400000Y-5300000D01*
X-4859000Y+237000D02*
X-4889500Y+237000D01*
X-4889500Y+63500D01*
X-4953000Y+63500D01*
X-2540000Y-190500D02*
X-2540000Y+381000D01*
X-2413000Y+508000D01*
X-5080000Y-2032000D02*
X-4889500Y-1841500D01*
X-4889500Y+0D01*
X-4953000Y+63500D01*
X-762000Y+4127500D02*
X-762000Y+2921000D01*
X-2857500Y-1016000D02*
X-3429000Y-1016000D01*
X+4246000Y-5708000D02*
X+4500000Y-5708000D01*
X-633000Y-6000000D02*
X-633000Y-5746000D01*
X+4500000Y-108000D02*
X+4246000Y-108000D01*
X-5200000Y+5900000D02*
X-5200000Y+5646000D01*
D12*
X-2667000Y-3746500D02*
X-2667000Y-3556000D01*
X-2324100Y-3556000D01*
X-2286000Y-3594100D01*
X-2286000Y-3683000D01*
D11*
X-2667000Y-3556000D02*
X-2667000Y-2921000D01*
X-2730500Y+1460500D02*
X-2413000Y+1460500D01*
X-2413000Y+1841500D01*
D12*
X+2286000Y+4762500D02*
X+2286000Y+5080000D01*
D11*
X+1079500Y-1270000D02*
X+1079500Y-762000D01*
X-762000Y+4127500D02*
X-762000Y+4889500D01*
X+254000Y-1460500D02*
X+254000Y-2349500D01*
X+317500Y-2413000D01*
X+317500Y-2794000D01*
X+1079500Y+508000D02*
X+1079500Y-63500D01*
X+1206500Y-190500D01*
D10*
X+762000Y-4127500D02*
X+762000Y-5143500D01*
X-3365500Y+3365500D02*
X-3365500Y+254000D01*
X-3683000Y-63500D01*
X-3683000Y-635000D01*
X-4064000Y-1016000D01*
X-4064000Y-4191000D01*
X-3937000Y-4318000D01*
X-2095500Y-4318000D01*
X+3111500Y+6985000D02*
X+3124000Y+6972500D01*
X+3124000Y+2411000D01*
X+3238500Y+7112000D02*
X+3238500Y+2921000D01*
X+3302000Y+2857500D01*
X+3302000Y+2335000D01*
X+3124000Y+2157000D01*
X+3365500Y+4953000D02*
X+3365500Y+7239000D01*
X+3238500Y+7366000D01*
X+3035000Y+7366000D01*
X+2908000Y+7493000D01*
X+2908000Y+7700000D01*
X+3365500Y+4953000D02*
X+3365500Y+3429000D01*
X+3397250Y+3397250D01*
X+3397250Y+2176250D01*
X+3124000Y+1903000D01*
X+4699000Y+7239000D02*
X+4699000Y+7783560D01*
X+4572000Y+7910560D01*
X+3162000Y+7910560D01*
X+3162000Y+7700000D01*
X+4699000Y+7239000D02*
X+4699000Y+5945000D01*
X+4500000Y+5746000D01*
X+5143500Y+4889500D02*
X+4699000Y+4445000D01*
X+4699000Y+2159000D01*
X+3492500Y+6477000D02*
X+3492500Y+1763500D01*
X+3124000Y+1395000D01*
X+3492500Y+6477000D02*
X+3492500Y+7429500D01*
X+3416000Y+7506000D01*
X+3416000Y+7700000D01*
X+2921000Y+6223000D02*
X+2921000Y+1344000D01*
X+3124000Y+1141000D01*
X+2921000Y+7239000D02*
X+2921000Y+6223000D01*
X+3619500Y+5905500D02*
X+3619500Y+1382500D01*
X+3124000Y+887000D01*
X+3619500Y+5905500D02*
X+3619500Y+6985000D01*
X+3924000Y+7289500D01*
X+3924000Y+7700000D01*
X+3746500Y+5778500D02*
X+3873500Y+5651500D01*
X+3873500Y+760000D01*
X+3746500Y+633000D01*
X+3124000Y+633000D01*
X+3746500Y+5778500D02*
X+3746500Y+6921500D01*
X+4178000Y+7353000D01*
X+4178000Y+7700000D01*
X+190500Y+6794500D02*
X+200000Y+6804000D01*
X+200000Y+7700000D01*
X+1600000Y+2411000D02*
X+1600000Y+2794000D01*
X+1587500Y+2806500D01*
X+1587500Y+6032500D01*
X+1333500Y+3365500D02*
X+1333500Y+2423500D01*
X+1600000Y+2157000D01*
X+444500Y+7112000D02*
X+454000Y+7121500D01*
X+454000Y+7700000D01*
X+1333500Y+6286500D02*
X+1333500Y+3365500D01*
X+698500Y+3492500D02*
X+698500Y+7700000D01*
X+708000Y+7700000D01*
X+698500Y+1905000D02*
X+698500Y+3365500D01*
X+698500Y+3492500D02*
X+698500Y+3365500D01*
X+952500Y+6985000D02*
X+952500Y+7700000D01*
X+962000Y+7700000D01*
X+952500Y+3365500D02*
X+952500Y+6985000D01*
X+952500Y+1651000D02*
X+952500Y+3238500D01*
X+952500Y+3365500D02*
X+952500Y+3238500D01*
X+1600000Y+1395000D02*
X+1216000Y+1779000D01*
X+1216000Y+7700000D01*
X+2159000Y+3111500D02*
X+2159000Y+1397000D01*
X+4699000Y+1524000D02*
X+4381500Y+1524000D01*
X+4381500Y+3111500D01*
X+1600000Y+1141000D02*
X+1208500Y+1141000D01*
X+1079500Y+1270000D01*
X+1079500Y+2984500D02*
X+1079500Y+1270000D01*
X+1397000Y-2032000D02*
X+1397000Y-6794500D01*
X+1524000Y-6921500D01*
X+2376000Y-6921500D01*
X+2376000Y-6700000D01*
X+1079500Y+1270000D02*
X+952500Y+1143000D01*
X+952500Y-1397000D01*
X+1079500Y-1524000D01*
X+1397000Y-1524000D01*
X+1079500Y+2984500D02*
X+1079500Y+7239000D01*
X+1333500Y+7239000D02*
X+1333500Y+7493000D01*
X+1470000Y+7493000D01*
X+1470000Y+7700000D01*
X+4508500Y+1651000D02*
X+4508500Y+2984500D01*
X+1600000Y+887000D02*
X+1757580Y+1044580D01*
X+1757580Y+7239000D01*
X+1724000Y+7272580D01*
X+1724000Y+7700000D01*
X+2857500Y-2921000D02*
X+2857500Y-6446000D01*
X+2630000Y-6446000D01*
X+4191000Y-444500D02*
X+4191000Y-2921000D01*
X+2032000Y-1587500D02*
X+2032000Y-2095500D01*
X+2857500Y-2921000D01*
X+2032000Y-3175000D02*
X+1905000Y-3302000D01*
X+1905000Y-5334000D01*
X+2376000Y-5805000D01*
X+2376000Y-6446000D01*
X+1600000Y+633000D02*
X+1905000Y+328000D01*
X+1905000Y-3048000D01*
X+2032000Y-3175000D01*
X+2032000Y-3048000D02*
X+2032000Y-3175000D01*
X+2413000Y-3048000D02*
X+2032000Y-3048000D01*
X+4318000Y-317500D02*
X+4318000Y-3048000D01*
X+1968500Y+3111500D02*
X+1968500Y+3683000D01*
X+1933409Y+3718091D01*
X+1933409Y+7175500D01*
X+1978000Y+7220091D01*
X+1978000Y+7700000D01*
X+0Y+762000D02*
X+0Y+3111500D01*
X+3124000Y-2161000D02*
X+2288000Y-2161000D01*
X+2286000Y-2159000D01*
X+127000Y+2095500D02*
X+127000Y-2540000D01*
X-1016000Y+2095500D02*
X-1016000Y+6413500D01*
X-1169199Y+6566699D01*
X-1841500Y+6566699D01*
X-2000000Y+6725199D01*
X-2000000Y+7700000D01*
X+3124000Y-1907000D02*
X+2605500Y-1907000D01*
X+2222500Y-1524000D01*
X+2159000Y+1143000D02*
X+2159000Y-635000D01*
X+1841500Y+7429500D02*
X+1841500Y+1206500D01*
X+1905000Y+1143000D01*
X+4953000Y-1587500D02*
X+4953000Y-4747000D01*
X+4500000Y-5200000D01*
X-1143000Y+6731000D02*
X-1492000Y+7080000D01*
X-1492000Y+7700000D01*
X-762000Y+5397500D02*
X-762000Y+6667500D01*
X+4953000Y-1587500D02*
X+5270500Y-1270000D01*
X+5270500Y+5080000D01*
X+5143500Y+5207000D01*
X+4572000Y+5207000D01*
X+3124000Y-1399000D02*
X+3204480Y-1479480D01*
X+3294280Y-1479480D01*
X+3294280Y-5770780D01*
X+3429000Y-5905500D01*
X+4572000Y-5905500D01*
X+4699000Y-5778500D01*
X+4699000Y-5454000D01*
X+4500000Y-5454000D01*
X+3124000Y-1399000D02*
X+2159000Y-1399000D01*
X+2032000Y-1272000D01*
X+2032000Y+2603500D01*
X+254000Y+2603500D02*
X+254000Y+5969000D01*
X-63500Y+6286500D01*
X-63500Y+7910560D01*
X-1079500Y+7910560D01*
X-1116060Y+7874000D01*
X-1238000Y+7874000D01*
X-1238000Y+7700000D01*
X+3124000Y-1145000D02*
X+2921000Y-1145000D01*
X+2921000Y-1016000D01*
X+2413000Y-508000D01*
X+2413000Y+2857500D01*
X-254000Y+2857500D02*
X-254000Y+5588000D01*
X-508000Y+5842000D01*
X-508000Y+7112000D01*
X-635000Y+7239000D01*
X-762000Y+7239000D01*
X-984000Y+7461000D01*
X-984000Y+7700000D01*
X+4064000Y-4000500D02*
X+4064000Y-4510000D01*
X+4246000Y-4692000D01*
X+3124000Y-1145000D02*
X+3429000Y-1450000D01*
X+3429000Y-4000500D01*
X+4064000Y-4953000D02*
X+4071000Y-4946000D01*
X+4246000Y-4946000D01*
X+3683000Y-952500D02*
X+3683000Y-4953000D01*
X-698500Y+7493000D02*
X-698500Y+7499600D01*
X-730000Y+7531100D01*
X-730000Y+7700000D01*
X-444500Y+2730500D02*
X-444500Y+5397500D01*
X-635000Y+5588000D01*
X-635000Y+7016750D01*
X-762000Y+7143750D01*
X-984250Y+7143750D01*
X-1143000Y+7302500D01*
X-1143000Y+7493000D01*
X+3124000Y-891000D02*
X+2540000Y-307000D01*
X+2540000Y+2730500D01*
X+3937000Y-3746500D02*
X+3937000Y-5073000D01*
X+4064000Y-5200000D01*
X+4246000Y-5200000D01*
X+3124000Y-637000D02*
X+3556000Y-1069000D01*
X+3556000Y-3746500D01*
X+0Y+3810000D02*
X+0Y+6032500D01*
X-254000Y+6286500D01*
X-254000Y+7271000D01*
X-476000Y+7493000D01*
X-476000Y+7700000D01*
X+2857500Y-1270000D02*
X+2286000Y-698500D01*
X+2286000Y+3810000D01*
X+3124000Y-383000D02*
X+3621500Y-383000D01*
X+3810000Y-571500D01*
X+3810000Y-5327000D01*
X+3937000Y-5454000D01*
X+4246000Y-5454000D01*
X+3124000Y-383000D02*
X+2794000Y-53000D01*
X+2794000Y+6985000D01*
X+2667000Y+7112000D01*
X+2286000Y+7112000D01*
X+381000Y-1016000D02*
X+381000Y-1905000D01*
X+952500Y-2476500D01*
X+952500Y-6096000D01*
X+825500Y-6223000D01*
X+606000Y-6223000D01*
X+383000Y-6000000D01*
X+381000Y-889000D02*
X+381000Y-1016000D01*
X+381000Y-889000D02*
X+381000Y+5778500D01*
X-508000Y-1397000D02*
X-508000Y-4889500D01*
X-952500Y-5334000D01*
X-952500Y-6159500D01*
X-889000Y+6858000D02*
X-889000Y-444500D01*
X-3937000Y+6858000D02*
X-3946000Y+6867000D01*
X-3946000Y+7700000D01*
X-889000Y-571500D02*
X-889000Y-444500D01*
X-508000Y-1333500D02*
X-508000Y-952500D01*
X-889000Y-571500D01*
X-508000Y-1333500D02*
X-508000Y-1397000D01*
X-762000Y-1651000D02*
X-2095500Y-1651000D01*
X-2222500Y-1524000D01*
X-2222500Y+508000D01*
X-2349500Y+635000D01*
X-2857500Y+635000D01*
X-2984500Y+762000D01*
X-2984500Y+5588000D01*
X-3692000Y+6295500D01*
X-3692000Y+7700000D01*
X-127000Y-6159500D02*
X-125000Y-6157500D01*
X-125000Y-6000000D01*
X-762000Y-1651000D02*
X-762000Y-4508500D01*
X-1079500Y-4826000D01*
X-1079500Y-6286500D01*
X-825500Y-6286500D01*
X+825500Y-1651000D02*
X+827500Y-1653000D01*
X+1600000Y-1653000D01*
X+825500Y-1651000D02*
X+825500Y+7239000D01*
X-3429000Y+7239000D02*
X-3438000Y+7248000D01*
X-3438000Y+7700000D01*
X+1270000Y-1905000D02*
X+1270000Y-6223000D01*
X+1143000Y-6350000D01*
X-190500Y-6350000D01*
X-379000Y-6161500D01*
X-379000Y-6000000D01*
X+317500Y+6540500D02*
X+317500Y+7112000D01*
X-3175000Y+7112000D02*
X-3184000Y+7121000D01*
X-3184000Y+7700000D01*
X+1016000Y-2095500D02*
X+1143000Y-2222500D01*
X+1143000Y-5397500D01*
X+317500Y+6540500D02*
X+508000Y+6350000D01*
X+508000Y-1587500D01*
X+1016000Y-2095500D01*
X+1016000Y-1905000D01*
X+1143000Y-1778000D01*
X+1397000Y-1778000D01*
X+1397000Y-1907000D01*
X+1600000Y-1907000D01*
X+381000Y-5397500D02*
X+383000Y-5399500D01*
X+383000Y-5746000D01*
X+0Y-1778000D02*
X+0Y-1968500D01*
X-127000Y-2095500D01*
X-127000Y-3175000D01*
X+129000Y-3431000D01*
X+129000Y-5746000D01*
X-127000Y-1778000D02*
X+0Y-1778000D01*
X-190500Y+5905500D02*
X-190500Y+5798820D01*
X-127000Y+5735320D01*
X-127000Y-1778000D01*
X-2921000Y+6477000D02*
X-2930000Y+6486000D01*
X-2930000Y+7700000D01*
X-254000Y-4191000D02*
X-125000Y-4320000D01*
X-125000Y-5746000D01*
X+1587500Y-4254500D02*
X+1600000Y-4242000D01*
X+1600000Y-2415000D01*
X+3111500Y-3175000D02*
X+3124000Y-3162500D01*
X+3124000Y-2415000D01*
X+3111500Y-3175000D02*
X+3111500Y-5270500D01*
X-381000Y-5270500D02*
X-379000Y-5272500D01*
X-379000Y-5746000D01*
X+1460500Y+3238500D02*
X+1460500Y+5651500D01*
X+4381500Y-3175000D02*
X+4826000Y-2730500D01*
X+4826000Y+3238500D01*
X+1460500Y+5778500D02*
X+1460500Y+5651500D01*
X+1460500Y+7366000D02*
X+1460500Y+5778500D01*
X-1378000Y+892000D02*
X-1378000Y+1352500D01*
X-1270000Y+1460500D01*
X-1270000Y+2892000D01*
X-1438000Y+3060000D01*
X-1651000Y+2413000D02*
X-1651000Y+911000D01*
X-1378000Y+638000D01*
X-1905000Y+2286000D02*
X-2032000Y+2413000D01*
X-2032000Y+4670000D01*
X-2200000Y+4838000D01*
X-2286000Y+952500D02*
X-2032000Y+952500D01*
X-1905000Y+1079500D01*
X-1905000Y+2286000D01*
X-1378000Y+384000D02*
X-1143000Y+619000D01*
X-1143000Y+3019000D01*
X-1438000Y+3314000D01*
X-1378000Y+130000D02*
X-1778000Y+530000D01*
X-1778000Y+2552000D01*
X-1438000Y+2552000D01*
X-2667000Y+2476500D02*
X-2667000Y+5778500D01*
X-2540000Y+5905500D01*
X-1651000Y+5905500D01*
X-1079500Y+254000D02*
X-1079500Y-1016000D01*
D11*
X-3238500Y-1714500D02*
X-3238500Y-2222500D01*
X-3048000Y-2413000D01*
X-2857500Y-2413000D01*
X-2857500Y-3175000D02*
X-2857500Y-2413000D01*
X-2857500Y-2222500D02*
X-2857500Y-2413000D01*
D12*
X-3746500Y-1587500D02*
X-3683000Y-1524000D01*
X-3048000Y-1524000D01*
X-3048000Y-1714500D01*
X-3238500Y-1714500D01*
D10*
X-3810000Y-508000D02*
X-4318000Y-508000D01*
X-4445000Y-381000D01*
X-4445000Y+952500D01*
X-4064000Y+1333500D01*
X-4064000Y+2095500D01*
X-254000Y-4191000D02*
X-381000Y-4191000D01*
X-381000Y+2349500D01*
X-635000Y+2603500D01*
X-635000Y+4985000D01*
X-740000Y+5090000D01*
X-1143000Y+4953000D02*
X-1143000Y+6032500D01*
X-1270000Y+6159500D01*
X-2549000Y+6159500D01*
X-2676000Y+6286500D01*
X-2676000Y+7700000D01*
X-3740000Y+4600000D02*
X-3965000Y+4600000D01*
X-4000500Y+4635500D01*
X-3640000Y+4600000D02*
X-3567210Y+4600000D01*
X-3492715Y+4525505D01*
X-3492715Y+4418285D01*
X-3511000Y+4400000D01*
D48*
X-3492500Y+4381500D02*
X-3511000Y+4400000D01*
D10*
X-3640000Y+4200000D02*
X-3538080Y+4200000D01*
X-3493875Y+4244205D01*
X-3493875Y+4381500D01*
X-3640000Y+4400000D02*
X-3621500Y+4381500D01*
X-3493875Y+4381500D01*
X-3492500Y+4381500D01*
X+2908000Y+7700000D02*
X+2847040Y+7700000D01*
X+2908000Y+7585700D01*
X+2968960Y+7700000D01*
X+2908000Y+7700000D01*
X+3162000Y+7700000D02*
X+3222960Y+7700000D01*
X+3162000Y+7814300D01*
X+3101040Y+7700000D01*
X+3162000Y+7700000D01*
X+3416000Y+7700000D02*
X+3355040Y+7700000D01*
X+3416000Y+7585700D01*
X+3476960Y+7700000D01*
X+3416000Y+7700000D01*
X+3924000Y+7700000D02*
X+3863040Y+7700000D01*
X+3924000Y+7585700D01*
X+3984960Y+7700000D01*
X+3924000Y+7700000D01*
X+4178000Y+7700000D02*
X+4117040Y+7700000D01*
X+4178000Y+7585700D01*
X+4238960Y+7700000D01*
X+4178000Y+7700000D01*
X+200000Y+7700000D02*
X+139040Y+7700000D01*
X+200000Y+7585700D01*
X+260960Y+7700000D01*
X+200000Y+7700000D01*
X+454000Y+7700000D02*
X+393040Y+7700000D01*
X+454000Y+7585700D01*
X+514960Y+7700000D01*
X+454000Y+7700000D01*
X+708000Y+7700000D02*
X+647251Y+7705066D01*
X+698500Y+7586096D01*
X+768749Y+7694934D01*
X+708000Y+7700000D01*
X+962000Y+7700000D02*
X+901251Y+7705066D01*
X+952500Y+7586096D01*
X+1022749Y+7694934D01*
X+962000Y+7700000D01*
X+1216000Y+7700000D02*
X+1155040Y+7700000D01*
X+1216000Y+7585700D01*
X+1276960Y+7700000D01*
X+1216000Y+7700000D01*
X+1470000Y+7700000D02*
X+1409040Y+7700000D01*
X+1470000Y+7585700D01*
X+1530960Y+7700000D01*
X+1470000Y+7700000D01*
X+1724000Y+7700000D02*
X+1663040Y+7700000D01*
X+1724000Y+7585700D01*
X+1784960Y+7700000D01*
X+1724000Y+7700000D01*
X+1978000Y+7700000D02*
X+1917040Y+7700000D01*
X+1978000Y+7585700D01*
X+2038960Y+7700000D01*
X+1978000Y+7700000D01*
X-2000000Y+7700000D02*
X-2060960Y+7700000D01*
X-2000000Y+7585700D01*
X-1939040Y+7700000D01*
X-2000000Y+7700000D01*
X-1492000Y+7700000D02*
X-1552960Y+7700000D01*
X-1492000Y+7585700D01*
X-1431040Y+7700000D01*
X-1492000Y+7700000D01*
X-1238000Y+7700000D02*
X-1177040Y+7700000D01*
X-1238000Y+7814300D01*
X-1298960Y+7700000D01*
X-1238000Y+7700000D01*
X-984000Y+7700000D02*
X-1044960Y+7700000D01*
X-984000Y+7585700D01*
X-923040Y+7700000D01*
X-984000Y+7700000D01*
X-730000Y+7700000D02*
X-790960Y+7700000D01*
X-730000Y+7585700D01*
X-669040Y+7700000D01*
X-730000Y+7700000D01*
X-476000Y+7700000D02*
X-536960Y+7700000D01*
X-476000Y+7585700D01*
X-415040Y+7700000D01*
X-476000Y+7700000D01*
X-3946000Y+7700000D02*
X-4006960Y+7700000D01*
X-3946000Y+7585700D01*
X-3885040Y+7700000D01*
X-3946000Y+7700000D01*
X-3692000Y+7700000D02*
X-3752960Y+7700000D01*
X-3692000Y+7585700D01*
X-3631040Y+7700000D01*
X-3692000Y+7700000D01*
X-3438000Y+7700000D02*
X-3498960Y+7700000D01*
X-3438000Y+7585700D01*
X-3377040Y+7700000D01*
X-3438000Y+7700000D01*
X-3184000Y+7700000D02*
X-3244960Y+7700000D01*
X-3184000Y+7585700D01*
X-3123040Y+7700000D01*
X-3184000Y+7700000D01*
X-2930000Y+7700000D02*
X-2990960Y+7700000D01*
X-2930000Y+7585700D01*
X-2869040Y+7700000D01*
X-2930000Y+7700000D01*
X-2676000Y+7700000D02*
X-2736960Y+7700000D01*
X-2676000Y+7585700D01*
X-2615040Y+7700000D01*
X-2676000Y+7700000D01*
D11*
X+4246000Y+6762000D02*
X+4246000Y+6800100D01*
X+4112650Y+6762000D01*
X+4246000Y+6723900D01*
X+4246000Y+6762000D01*
X+4500000Y+6762000D02*
X+4538100Y+6762000D01*
X+4500000Y+6895350D01*
X+4461900Y+6762000D01*
X+4500000Y+6762000D01*
D10*
X+4500000Y+5746000D02*
X+4552085Y+5693915D01*
X+4594293Y+5840293D01*
X+4447915Y+5798085D01*
X+4500000Y+5746000D01*
D11*
X+4500000Y+5492000D02*
X+4500000Y+5453900D01*
X+4633350Y+5492000D01*
X+4500000Y+5530100D01*
X+4500000Y+5492000D01*
X+4246000Y+1162000D02*
X+4246000Y+1200100D01*
X+4112650Y+1162000D01*
X+4246000Y+1123900D01*
X+4246000Y+1162000D01*
X+4500000Y+1162000D02*
X+4538100Y+1162000D01*
X+4500000Y+1295350D01*
X+4461900Y+1162000D01*
X+4500000Y+1162000D01*
X+4246000Y-108000D02*
X+4246000Y-146100D01*
X+4379350Y-108000D01*
X+4246000Y-69900D01*
X+4246000Y-108000D01*
X+4500000Y-108000D02*
X+4500000Y-69900D01*
X+4366650Y-108000D01*
X+4500000Y-146100D01*
X+4500000Y-108000D01*
X+4246000Y-4438000D02*
X+4284100Y-4438000D01*
X+4246000Y-4304650D01*
X+4207900Y-4438000D01*
X+4246000Y-4438000D01*
D10*
X+4246000Y-4692000D02*
X+4298085Y-4639915D01*
X+4151707Y-4597707D01*
X+4193915Y-4744085D01*
X+4246000Y-4692000D01*
X+4246000Y-4946000D02*
X+4246000Y-4872340D01*
X+4112650Y-4946000D01*
X+4246000Y-5019660D01*
X+4246000Y-4946000D01*
X+4246000Y-5200000D02*
X+4246000Y-5126340D01*
X+4112650Y-5200000D01*
X+4246000Y-5273660D01*
X+4246000Y-5200000D01*
X+4500000Y-5200000D02*
X+4552085Y-5252085D01*
X+4594293Y-5105707D01*
X+4447915Y-5147915D01*
X+4500000Y-5200000D01*
X+4246000Y-5454000D02*
X+4246000Y-5380340D01*
X+4112650Y-5454000D01*
X+4246000Y-5527660D01*
X+4246000Y-5454000D01*
X+4500000Y-5454000D02*
X+4500000Y-5527660D01*
X+4633350Y-5454000D01*
X+4500000Y-5380340D01*
X+4500000Y-5454000D01*
D11*
X+4246000Y-5708000D02*
X+4246000Y-5746100D01*
X+4379350Y-5708000D01*
X+4246000Y-5669900D01*
X+4246000Y-5708000D01*
X+4500000Y-5708000D02*
X+4500000Y-5669900D01*
X+4366650Y-5708000D01*
X+4500000Y-5746100D01*
X+4500000Y-5708000D01*
X+637000Y-6000000D02*
X+637000Y-6038100D01*
X+742680Y-6000000D01*
X+637000Y-5961900D01*
X+637000Y-6000000D01*
D10*
X+383000Y-5746000D02*
X+456660Y-5746000D01*
X+383000Y-5612650D01*
X+309340Y-5746000D01*
X+383000Y-5746000D01*
X+383000Y-6000000D02*
X+330915Y-6052085D01*
X+477293Y-6094293D01*
X+435085Y-5947915D01*
X+383000Y-6000000D01*
X+129000Y-5746000D02*
X+202660Y-5746000D01*
X+129000Y-5612650D01*
X+55340Y-5746000D01*
X+129000Y-5746000D01*
X-125000Y-5746000D02*
X-51340Y-5746000D01*
X-125000Y-5612650D01*
X-198660Y-5746000D01*
X-125000Y-5746000D01*
X-125000Y-6000000D02*
X-198660Y-6000000D01*
X-125000Y-6133350D01*
X-51340Y-6000000D01*
X-125000Y-6000000D01*
X-379000Y-5746000D02*
X-305340Y-5746000D01*
X-379000Y-5612650D01*
X-452660Y-5746000D01*
X-379000Y-5746000D01*
X-379000Y-6000000D02*
X-452660Y-6000000D01*
X-379000Y-6133350D01*
X-305340Y-6000000D01*
X-379000Y-6000000D01*
D11*
X-633000Y-5746000D02*
X-671100Y-5746000D01*
X-633000Y-5879350D01*
X-594900Y-5746000D01*
X-633000Y-5746000D01*
X-633000Y-6000000D02*
X-594900Y-6000000D01*
X-633000Y-5866650D01*
X-671100Y-6000000D01*
X-633000Y-6000000D01*
D10*
X+1600000Y+2411000D02*
X+1673660Y+2411000D01*
X+1600000Y+2544350D01*
X+1526340Y+2411000D01*
X+1600000Y+2411000D01*
X+1600000Y+2157000D02*
X+1652085Y+2209085D01*
X+1505707Y+2251293D01*
X+1547915Y+2104915D01*
X+1600000Y+2157000D01*
X+1600000Y+1395000D02*
X+1652085Y+1447085D01*
X+1505707Y+1489293D01*
X+1547915Y+1342915D01*
X+1600000Y+1395000D01*
X+1600000Y+1141000D02*
X+1600000Y+1214660D01*
X+1466650Y+1141000D01*
X+1600000Y+1067340D01*
X+1600000Y+1141000D01*
X+1600000Y+887000D02*
X+1652085Y+834915D01*
X+1694293Y+981293D01*
X+1547915Y+939085D01*
X+1600000Y+887000D01*
X+1600000Y+633000D02*
X+1547915Y+580915D01*
X+1694293Y+538707D01*
X+1652085Y+685085D01*
X+1600000Y+633000D01*
X+1600000Y+379000D02*
X+1547915Y+326915D01*
X+1694293Y+284707D01*
X+1652085Y+431085D01*
X+1600000Y+379000D01*
D11*
X+1600000Y-129000D02*
X+1600000Y-90900D01*
X+1466650Y-129000D01*
X+1600000Y-167100D01*
X+1600000Y-129000D01*
D10*
X+1600000Y-1653000D02*
X+1600000Y-1579340D01*
X+1466650Y-1653000D01*
X+1600000Y-1726660D01*
X+1600000Y-1653000D01*
X+1600000Y-1907000D02*
X+1600000Y-1833340D01*
X+1466650Y-1907000D01*
X+1600000Y-1980660D01*
X+1600000Y-1907000D01*
X+1600000Y-2415000D02*
X+1526340Y-2415000D01*
X+1600000Y-2548350D01*
X+1673660Y-2415000D01*
X+1600000Y-2415000D01*
X+3124000Y-2415000D02*
X+3050340Y-2415000D01*
X+3124000Y-2548350D01*
X+3197660Y-2415000D01*
X+3124000Y-2415000D01*
X+3124000Y-2161000D02*
X+3124000Y-2087340D01*
X+2990650Y-2161000D01*
X+3124000Y-2234660D01*
X+3124000Y-2161000D01*
X+3124000Y-1907000D02*
X+3124000Y-1833340D01*
X+2990650Y-1907000D01*
X+3124000Y-1980660D01*
X+3124000Y-1907000D01*
X+3124000Y-1399000D02*
X+3071915Y-1451085D01*
X+3204480Y-1479480D01*
X+3176085Y-1346915D01*
X+3124000Y-1399000D01*
X+3124000Y-1325340D01*
X+2990650Y-1399000D01*
X+3124000Y-1472660D01*
X+3124000Y-1399000D01*
X+3124000Y-1145000D02*
X+3124000Y-1071340D01*
X+2990650Y-1145000D01*
X+3124000Y-1218660D01*
X+3124000Y-1145000D01*
X+3071915Y-1197085D01*
X+3218293Y-1239293D01*
X+3176085Y-1092915D01*
X+3124000Y-1145000D01*
X+3124000Y-891000D02*
X+3176085Y-838915D01*
X+3029707Y-796707D01*
X+3071915Y-943085D01*
X+3124000Y-891000D01*
X+3124000Y-637000D02*
X+3071915Y-689085D01*
X+3218293Y-731293D01*
X+3176085Y-584915D01*
X+3124000Y-637000D01*
X+3124000Y-383000D02*
X+3124000Y-456660D01*
X+3257350Y-383000D01*
X+3124000Y-309340D01*
X+3124000Y-383000D01*
X+3176085Y-330915D01*
X+3029707Y-288707D01*
X+3071915Y-435085D01*
X+3124000Y-383000D01*
D11*
X+3124000Y-129000D02*
X+3124000Y-167100D01*
X+3257350Y-129000D01*
X+3124000Y-90900D01*
X+3124000Y-129000D01*
D10*
X+3124000Y+633000D02*
X+3124000Y+559340D01*
X+3257350Y+633000D01*
X+3124000Y+706660D01*
X+3124000Y+633000D01*
X+3124000Y+887000D02*
X+3176085Y+834915D01*
X+3218293Y+981293D01*
X+3071915Y+939085D01*
X+3124000Y+887000D01*
X+3124000Y+1141000D02*
X+3176085Y+1193085D01*
X+3029707Y+1235293D01*
X+3071915Y+1088915D01*
X+3124000Y+1141000D01*
X+3124000Y+1395000D02*
X+3176085Y+1342915D01*
X+3218293Y+1489293D01*
X+3071915Y+1447085D01*
X+3124000Y+1395000D01*
X+3124000Y+1903000D02*
X+3176085Y+1850915D01*
X+3218293Y+1997293D01*
X+3071915Y+1955085D01*
X+3124000Y+1903000D01*
X+3124000Y+2157000D02*
X+3176085Y+2104915D01*
X+3218293Y+2251293D01*
X+3071915Y+2209085D01*
X+3124000Y+2157000D01*
X+3124000Y+2411000D02*
X+3197660Y+2411000D01*
X+3124000Y+2544350D01*
X+3050340Y+2411000D01*
X+3124000Y+2411000D01*
X-2200000Y+5600000D02*
X-2256575Y+5656575D01*
X-2301028Y+5498972D01*
X-2143425Y+5543425D01*
X-2200000Y+5600000D01*
X-2200000Y+4838000D02*
X-2252085Y+4785915D01*
X-2105707Y+4743707D01*
X-2147915Y+4890085D01*
X-2200000Y+4838000D01*
X-2200000Y+2298000D02*
X-2273660Y+2298000D01*
X-2200000Y+2164650D01*
X-2126340Y+2298000D01*
X-2200000Y+2298000D01*
X-1438000Y+2552000D02*
X-1438000Y+2625660D01*
X-1571350Y+2552000D01*
X-1438000Y+2478340D01*
X-1438000Y+2552000D01*
X-1438000Y+3060000D02*
X-1490085Y+3007915D01*
X-1343707Y+2965707D01*
X-1385915Y+3112085D01*
X-1438000Y+3060000D01*
X-1438000Y+3314000D02*
X-1490085Y+3261915D01*
X-1343707Y+3219707D01*
X-1385915Y+3366085D01*
X-1438000Y+3314000D01*
D11*
X-1438000Y+3568000D02*
X-1438000Y+3606100D01*
X-1571350Y+3568000D01*
X-1438000Y+3529900D01*
X-1438000Y+3568000D01*
D10*
X+2510000Y+6673500D02*
X+2457915Y+6621415D01*
X+2604293Y+6579207D01*
X+2562085Y+6725585D01*
X+2510000Y+6673500D01*
X+2510000Y+5911500D02*
X+2436340Y+5911500D01*
X+2510000Y+5778150D01*
X+2583660Y+5911500D01*
X+2510000Y+5911500D01*
D11*
X+2256000Y+6673500D02*
X+2229060Y+6700440D01*
X+2161707Y+6579207D01*
X+2282940Y+6646560D01*
X+2256000Y+6673500D01*
D10*
X-1378000Y+892000D02*
X-1304340Y+892000D01*
X-1378000Y+1025350D01*
X-1451660Y+892000D01*
X-1378000Y+892000D01*
X-1378000Y+638000D02*
X-1325915Y+690085D01*
X-1472293Y+732293D01*
X-1430085Y+585915D01*
X-1378000Y+638000D01*
X-1378000Y+384000D02*
X-1325915Y+331915D01*
X-1283707Y+478293D01*
X-1430085Y+436085D01*
X-1378000Y+384000D01*
X-1378000Y+130000D02*
X-1325915Y+182085D01*
X-1472293Y+224293D01*
X-1430085Y+77915D01*
X-1378000Y+130000D01*
X+254000Y+635000D02*
X+231140Y+635000D01*
X+254000Y+577850D01*
X+276860Y+635000D01*
X+254000Y+635000D01*
X+254000Y+190500D02*
X+276860Y+190500D01*
X+254000Y+247650D01*
X+231140Y+190500D01*
X+254000Y+190500D01*
X-4318000Y+2286000D02*
X-4340860Y+2286000D01*
X-4318000Y+2228850D01*
X-4295140Y+2286000D01*
X-4318000Y+2286000D01*
X-4318000Y+1714500D02*
X-4295140Y+1714500D01*
X-4318000Y+1771650D01*
X-4340860Y+1714500D01*
X-4318000Y+1714500D01*
X-4000500Y+4635500D02*
X-3977640Y+4635500D01*
X-4000500Y+4692650D01*
X-4023360Y+4635500D01*
X-4000500Y+4635500D01*
X-4016664Y+4619336D01*
X-3965000Y+4600000D01*
X-3984336Y+4651664D01*
X-4000500Y+4635500D01*
X-4191000Y+4191000D02*
X-4174836Y+4174836D01*
X-4150589Y+4231411D01*
X-4207164Y+4207164D01*
X-4191000Y+4191000D01*
X-4213860Y+4191000D01*
X-4191000Y+4133850D01*
X-4168140Y+4191000D01*
X-4191000Y+4191000D01*
X-3873500Y+4953000D02*
X-3855654Y+4938714D01*
X-3837785Y+4997615D01*
X-3891346Y+4967286D01*
X-3873500Y+4953000D01*
X-3619500Y+4064000D02*
X-3635664Y+4080164D01*
X-3659911Y+4023589D01*
X-3603336Y+4047836D01*
X-3619500Y+4064000D01*
X-3873500Y+4191000D02*
X-3869900Y+4168426D01*
X-3817064Y+4200000D01*
X-3877100Y+4213574D01*
X-3873500Y+4191000D01*
X-3873500Y+4762500D02*
X-3857336Y+4746336D01*
X-3836000Y+4800000D01*
X-3889664Y+4778664D01*
X-3873500Y+4762500D01*
X-3937000Y+3492500D02*
X-3959860Y+3492500D01*
X-3937000Y+3435350D01*
X-3914140Y+3492500D01*
X-3937000Y+3492500D01*
X-4064000Y+2794000D02*
X-4047836Y+2777836D01*
X-4023589Y+2834411D01*
X-4080164Y+2810164D01*
X-4064000Y+2794000D01*
X-3492500Y+2540000D02*
X-3492500Y+2562860D01*
X-3549650Y+2540000D01*
X-3492500Y+2517140D01*
X-3492500Y+2540000D01*
X-3937000Y+3619500D02*
X-3937000Y+3642360D01*
X-3994150Y+3619500D01*
X-3937000Y+3596640D01*
X-3937000Y+3619500D01*
X-4318000Y+3175000D02*
X-4295140Y+3175000D01*
X-4318000Y+3232150D01*
X-4340860Y+3175000D01*
X-4318000Y+3175000D01*
X-4340860Y+3175000D01*
X-4318000Y+3117850D01*
X-4295140Y+3175000D01*
X-4318000Y+3175000D01*
X-3492500Y+2667000D02*
X-3476336Y+2683164D01*
X-3532911Y+2707411D01*
X-3508664Y+2650836D01*
X-3492500Y+2667000D01*
X-3746500Y+3365500D02*
X-3769360Y+3365500D01*
X-3746500Y+3308350D01*
X-3723640Y+3365500D01*
X-3746500Y+3365500D01*
X-3365500Y+3492500D02*
X-3342640Y+3492500D01*
X-3365500Y+3549650D01*
X-3388360Y+3492500D01*
X-3365500Y+3492500D01*
X+254000Y-3429000D02*
X+231140Y-3429000D01*
X+254000Y-3486150D01*
X+276860Y-3429000D01*
X+254000Y-3429000D01*
X+254000Y-3937000D02*
X+276860Y-3937000D01*
X+254000Y-3879850D01*
X+231140Y-3937000D01*
X+254000Y-3937000D01*
X+254000Y-3959860D01*
X+311150Y-3937000D01*
X+254000Y-3914140D01*
X+254000Y-3937000D01*
X+508000Y-4572000D02*
X+530860Y-4572000D01*
X+508000Y-4514850D01*
X+485140Y-4572000D01*
X+508000Y-4572000D01*
X-1524000Y-2476500D02*
X-1546860Y-2476500D01*
X-1524000Y-2533650D01*
X-1501140Y-2476500D01*
X-1524000Y-2476500D01*
X-1016000Y-3175000D02*
X-1016000Y-3152140D01*
X-1073150Y-3175000D01*
X-1016000Y-3197860D01*
X-1016000Y-3175000D01*
X-1038860Y-3175000D01*
X-1016000Y-3232150D01*
X-993140Y-3175000D01*
X-1016000Y-3175000D01*
X-1016000Y-4254500D02*
X-993140Y-4254500D01*
X-1016000Y-4197350D01*
X-1038860Y-4254500D01*
X-1016000Y-4254500D01*
X-1143000Y-1968500D02*
X-1165860Y-1968500D01*
X-1143000Y-2025650D01*
X-1120140Y-1968500D01*
X-1143000Y-1968500D01*
X-1143000Y-2921000D02*
X-1120140Y-2921000D01*
X-1143000Y-2863850D01*
X-1165860Y-2921000D01*
X-1143000Y-2921000D01*
X-1016000Y-2159000D02*
X-1032164Y-2175164D01*
X-975589Y-2199411D01*
X-999836Y-2142836D01*
X-1016000Y-2159000D01*
X-889000Y-2730500D02*
X-866140Y-2730500D01*
X-889000Y-2673350D01*
X-911860Y-2730500D01*
X-889000Y-2730500D01*
X+2032000Y-3492500D02*
X+2015836Y-3508664D01*
X+2072411Y-3532911D01*
X+2048164Y-3476336D01*
X+2032000Y-3492500D01*
X+635000Y-4762500D02*
X+657860Y-4762500D01*
X+635000Y-4705350D01*
X+612140Y-4762500D01*
X+635000Y-4762500D01*
X+635000Y-3238500D02*
X+612140Y-3238500D01*
X+635000Y-3295650D01*
X+657860Y-3238500D01*
X+635000Y-3238500D01*
X-254000Y-2349500D02*
X-231140Y-2349500D01*
X-254000Y-2292350D01*
X-276860Y-2349500D01*
X-254000Y-2349500D01*
X-276860Y-2349500D01*
X-254000Y-2406650D01*
X-231140Y-2349500D01*
X-254000Y-2349500D01*
X-4572000Y+4318000D02*
X-4594860Y+4318000D01*
X-4572000Y+4260850D01*
X-4549140Y+4318000D01*
X-4572000Y+4318000D01*
X-4572000Y-1968500D02*
X-4549140Y-1968500D01*
X-4572000Y-1911350D01*
X-4594860Y-1968500D01*
X-4572000Y-1968500D01*
X-254000Y-1524000D02*
X-276860Y-1524000D01*
X-254000Y-1581150D01*
X-231140Y-1524000D01*
X-254000Y-1524000D01*
X+254000Y-2984500D02*
X+270164Y-2968336D01*
X+213589Y-2944089D01*
X+237836Y-3000664D01*
X+254000Y-2984500D01*
X+1524000Y-4445000D02*
X+1501140Y-4445000D01*
X+1524000Y-4502150D01*
X+1546860Y-4445000D01*
X+1524000Y-4445000D01*
X+1524000Y-5016500D02*
X+1546860Y-5016500D01*
X+1524000Y-4959350D01*
X+1501140Y-5016500D01*
X+1524000Y-5016500D01*
X+0Y-5016500D02*
X+22860Y-5016500D01*
X+0Y-4959350D01*
X-22860Y-5016500D01*
X+0Y-5016500D01*
X+0Y-2476500D02*
X-22860Y-2476500D01*
X+0Y-2533650D01*
X+22860Y-2476500D01*
X+0Y-2476500D01*
X-2794000Y+1079500D02*
X-2794000Y+1056640D01*
X-2736850Y+1079500D01*
X-2794000Y+1102360D01*
X-2794000Y+1079500D01*
X-2540000Y+3619500D02*
X-2517140Y+3619500D01*
X-2540000Y+3676650D01*
X-2562860Y+3619500D01*
X-2540000Y+3619500D01*
X-1270000Y+5270500D02*
X-1247140Y+5270500D01*
X-1270000Y+5327650D01*
X-1292860Y+5270500D01*
X-1270000Y+5270500D01*
X-2857500Y+1270000D02*
X-2857500Y+1247140D01*
X-2800350Y+1270000D01*
X-2857500Y+1292860D01*
X-2857500Y+1270000D01*
X-3619500Y+825500D02*
X-3642360Y+825500D01*
X-3619500Y+768350D01*
X-3596640Y+825500D01*
X-3619500Y+825500D01*
X-3492500Y+825500D02*
X-3469640Y+825500D01*
X-3492500Y+882650D01*
X-3515360Y+825500D01*
X-3492500Y+825500D01*
X-3515360Y+825500D01*
X-3492500Y+768350D01*
X-3469640Y+825500D01*
X-3492500Y+825500D01*
X-3810000Y+190500D02*
X-3787493Y+186500D01*
X-3800000Y+246768D01*
X-3832507Y+194500D01*
X-3810000Y+190500D01*
X-3937000Y-2413000D02*
X-3914140Y-2413000D01*
X-3937000Y-2355850D01*
X-3959860Y-2413000D01*
X-3937000Y-2413000D01*
X-3302000Y+0D02*
X-3285836Y-16164D01*
X-3261589Y+40411D01*
X-3318164Y+16164D01*
X-3302000Y+0D01*
X-3302000Y+22860D01*
X-3359150Y+0D01*
X-3302000Y-22860D01*
X-3302000Y+0D01*
D13*
X-635000Y-1778000D02*
X-641350Y-1778000D01*
X-635000Y-1835150D01*
X-628650Y-1778000D01*
X-635000Y-1778000D01*
D10*
X+2540000Y+5080000D02*
X+2556164Y+5096164D01*
X+2510000Y+5110000D01*
X+2523836Y+5063836D01*
X+2540000Y+5080000D01*
X+3746500Y+5080000D02*
X+3730336Y+5096164D01*
X+3723239Y+5056739D01*
X+3762664Y+5063836D01*
X+3746500Y+5080000D01*
X+3746500Y+1206500D02*
X+3762664Y+1222664D01*
X+3723239Y+1229761D01*
X+3730336Y+1190336D01*
X+3746500Y+1206500D01*
D14*
X-4318000Y+698500D02*
X-4318000Y+673100D01*
X-4260850Y+698500D01*
X-4318000Y+723900D01*
X-4318000Y+698500D01*
D10*
X-4953000Y+635000D02*
X-4969164Y+618836D01*
X-4912589Y+594589D01*
X-4936836Y+651164D01*
X-4953000Y+635000D01*
X-4699000Y-254000D02*
X-4676140Y-254000D01*
X-4699000Y-196850D01*
X-4721860Y-254000D01*
X-4699000Y-254000D01*
X-4318000Y-254000D02*
X-4295140Y-254000D01*
X-4318000Y-196850D01*
X-4340860Y-254000D01*
X-4318000Y-254000D01*
D48*
X-3492500Y+4381500D02*
X-3483520Y+4390480D01*
X-3511000Y+4400000D01*
X-3501480Y+4372520D01*
X-3492500Y+4381500D01*
D10*
X+762000Y-5143500D02*
X+784860Y-5143500D01*
X+762000Y-5086350D01*
X+739140Y-5143500D01*
X+762000Y-5143500D01*
X+762000Y-4127500D02*
X+739140Y-4127500D01*
X+762000Y-4184650D01*
X+784860Y-4127500D01*
X+762000Y-4127500D01*
X-2095500Y-4318000D02*
X-2095500Y-4295140D01*
X-2152650Y-4318000D01*
X-2095500Y-4340860D01*
X-2095500Y-4318000D01*
X-3365500Y+3365500D02*
X-3388360Y+3365500D01*
X-3365500Y+3308350D01*
X-3342640Y+3365500D01*
X-3365500Y+3365500D01*
X+3111500Y+6985000D02*
X+3089194Y+6980000D01*
X+3124000Y+6929234D01*
X+3133806Y+6990000D01*
X+3111500Y+6985000D01*
X+3238500Y+7112000D02*
X+3215640Y+7112000D01*
X+3238500Y+7054850D01*
X+3261360Y+7112000D01*
X+3238500Y+7112000D01*
X+3365500Y+4953000D02*
X+3388360Y+4953000D01*
X+3365500Y+5010150D01*
X+3342640Y+4953000D01*
X+3365500Y+4953000D01*
X+3342640Y+4953000D01*
X+3365500Y+4895850D01*
X+3388360Y+4953000D01*
X+3365500Y+4953000D01*
X+4699000Y+2159000D02*
X+4721860Y+2159000D01*
X+4699000Y+2216150D01*
X+4676140Y+2159000D01*
X+4699000Y+2159000D01*
X+5143500Y+4889500D02*
X+5127336Y+4905664D01*
X+5103089Y+4849089D01*
X+5159664Y+4873336D01*
X+5143500Y+4889500D01*
X+4699000Y+7239000D02*
X+4676140Y+7239000D01*
X+4699000Y+7181850D01*
X+4721860Y+7239000D01*
X+4699000Y+7239000D01*
X+4721860Y+7239000D01*
X+4699000Y+7296150D01*
X+4676140Y+7239000D01*
X+4699000Y+7239000D01*
X+3492500Y+6477000D02*
X+3469640Y+6477000D01*
X+3492500Y+6419850D01*
X+3515360Y+6477000D01*
X+3492500Y+6477000D01*
X+3515360Y+6477000D01*
X+3492500Y+6534150D01*
X+3469640Y+6477000D01*
X+3492500Y+6477000D01*
X+2921000Y+6223000D02*
X+2898140Y+6223000D01*
X+2921000Y+6165850D01*
X+2943860Y+6223000D01*
X+2921000Y+6223000D01*
X+2943860Y+6223000D01*
X+2921000Y+6280150D01*
X+2898140Y+6223000D01*
X+2921000Y+6223000D01*
X+2921000Y+7239000D02*
X+2898140Y+7239000D01*
X+2921000Y+7181850D01*
X+2943860Y+7239000D01*
X+2921000Y+7239000D01*
X+3619500Y+5905500D02*
X+3596640Y+5905500D01*
X+3619500Y+5848350D01*
X+3642360Y+5905500D01*
X+3619500Y+5905500D01*
X+3642360Y+5905500D01*
X+3619500Y+5962650D01*
X+3596640Y+5905500D01*
X+3619500Y+5905500D01*
X+3746500Y+5778500D02*
X+3730336Y+5762336D01*
X+3786911Y+5738089D01*
X+3762664Y+5794664D01*
X+3746500Y+5778500D01*
X+3769360Y+5778500D01*
X+3746500Y+5835650D01*
X+3723640Y+5778500D01*
X+3746500Y+5778500D01*
X+190500Y+6794500D02*
X+213041Y+6790700D01*
X+200000Y+6850854D01*
X+167959Y+6798300D01*
X+190500Y+6794500D01*
X+1587500Y+6032500D02*
X+1564640Y+6032500D01*
X+1587500Y+5975350D01*
X+1610360Y+6032500D01*
X+1587500Y+6032500D01*
X+1333500Y+3365500D02*
X+1310640Y+3365500D01*
X+1333500Y+3308350D01*
X+1356360Y+3365500D01*
X+1333500Y+3365500D01*
X+1356360Y+3365500D01*
X+1333500Y+3422650D01*
X+1310640Y+3365500D01*
X+1333500Y+3365500D01*
X+444500Y+7112000D02*
X+467041Y+7108200D01*
X+454000Y+7168354D01*
X+421959Y+7115800D01*
X+444500Y+7112000D01*
X+1333500Y+6286500D02*
X+1310640Y+6286500D01*
X+1333500Y+6229350D01*
X+1356360Y+6286500D01*
X+1333500Y+6286500D01*
X+698500Y+1905000D02*
X+721360Y+1905000D01*
X+698500Y+1962150D01*
X+675640Y+1905000D01*
X+698500Y+1905000D01*
X+698500Y+3492500D02*
X+721360Y+3492500D01*
X+698500Y+3549650D01*
X+675640Y+3492500D01*
X+698500Y+3492500D01*
X+675640Y+3492500D01*
X+698500Y+3435350D01*
X+721360Y+3492500D01*
X+698500Y+3492500D01*
X+952500Y+6985000D02*
X+975360Y+6985000D01*
X+952500Y+7042150D01*
X+929640Y+6985000D01*
X+952500Y+6985000D01*
X+929640Y+6985000D01*
X+952500Y+6927850D01*
X+975360Y+6985000D01*
X+952500Y+6985000D01*
X+952500Y+1651000D02*
X+975360Y+1651000D01*
X+952500Y+1708150D01*
X+929640Y+1651000D01*
X+952500Y+1651000D01*
X+952500Y+3365500D02*
X+929640Y+3365500D01*
X+952500Y+3308350D01*
X+975360Y+3365500D01*
X+952500Y+3365500D01*
X+975360Y+3365500D01*
X+952500Y+3422650D01*
X+929640Y+3365500D01*
X+952500Y+3365500D01*
X+2159000Y+1397000D02*
X+2181860Y+1397000D01*
X+2159000Y+1454150D01*
X+2136140Y+1397000D01*
X+2159000Y+1397000D01*
X+2159000Y+3111500D02*
X+2136140Y+3111500D01*
X+2159000Y+3054350D01*
X+2181860Y+3111500D01*
X+2159000Y+3111500D01*
X+4381500Y+3111500D02*
X+4358640Y+3111500D01*
X+4381500Y+3054350D01*
X+4404360Y+3111500D01*
X+4381500Y+3111500D01*
X+4699000Y+1524000D02*
X+4699000Y+1546860D01*
X+4641850Y+1524000D01*
X+4699000Y+1501140D01*
X+4699000Y+1524000D01*
X+1397000Y-2032000D02*
X+1374140Y-2032000D01*
X+1397000Y-2089150D01*
X+1419860Y-2032000D01*
X+1397000Y-2032000D01*
X+1397000Y-1524000D02*
X+1397000Y-1501140D01*
X+1339850Y-1524000D01*
X+1397000Y-1546860D01*
X+1397000Y-1524000D01*
X+1079500Y+7239000D02*
X+1056640Y+7239000D01*
X+1079500Y+7181850D01*
X+1102360Y+7239000D01*
X+1079500Y+7239000D01*
X+1333500Y+7239000D02*
X+1356360Y+7239000D01*
X+1333500Y+7296150D01*
X+1310640Y+7239000D01*
X+1333500Y+7239000D01*
X+1079500Y+2984500D02*
X+1102360Y+2984500D01*
X+1079500Y+3041650D01*
X+1056640Y+2984500D01*
X+1079500Y+2984500D01*
X+1056640Y+2984500D01*
X+1079500Y+2927350D01*
X+1102360Y+2984500D01*
X+1079500Y+2984500D01*
X+4508500Y+2984500D02*
X+4485640Y+2984500D01*
X+4508500Y+2927350D01*
X+4531360Y+2984500D01*
X+4508500Y+2984500D01*
X+4508500Y+1651000D02*
X+4531360Y+1651000D01*
X+4508500Y+1708150D01*
X+4485640Y+1651000D01*
X+4508500Y+1651000D01*
X+2857500Y-2921000D02*
X+2834640Y-2921000D01*
X+2857500Y-2978150D01*
X+2880360Y-2921000D01*
X+2857500Y-2921000D01*
X+2873664Y-2904836D01*
X+2817089Y-2880589D01*
X+2841336Y-2937164D01*
X+2857500Y-2921000D01*
X+4191000Y-2921000D02*
X+4213860Y-2921000D01*
X+4191000Y-2863850D01*
X+4168140Y-2921000D01*
X+4191000Y-2921000D01*
X+4191000Y-444500D02*
X+4168140Y-444500D01*
X+4191000Y-501650D01*
X+4213860Y-444500D01*
X+4191000Y-444500D01*
X+2032000Y-1587500D02*
X+2009140Y-1587500D01*
X+2032000Y-1644650D01*
X+2054860Y-1587500D01*
X+2032000Y-1587500D01*
X+2413000Y-3048000D02*
X+2413000Y-3025140D01*
X+2355850Y-3048000D01*
X+2413000Y-3070860D01*
X+2413000Y-3048000D01*
X+4318000Y-3048000D02*
X+4340860Y-3048000D01*
X+4318000Y-2990850D01*
X+4295140Y-3048000D01*
X+4318000Y-3048000D01*
X+4318000Y-317500D02*
X+4295140Y-317500D01*
X+4318000Y-374650D01*
X+4340860Y-317500D01*
X+4318000Y-317500D01*
X+1968500Y+3111500D02*
X+1991360Y+3111500D01*
X+1968500Y+3168650D01*
X+1945640Y+3111500D01*
X+1968500Y+3111500D01*
X+0Y+3111500D02*
X-22860Y+3111500D01*
X+0Y+3054350D01*
X+22860Y+3111500D01*
X+0Y+3111500D01*
X+0Y+762000D02*
X+22860Y+762000D01*
X+0Y+819150D01*
X-22860Y+762000D01*
X+0Y+762000D01*
X+2286000Y-2159000D02*
X+2285200Y-2181845D01*
X+2343114Y-2161000D01*
X+2286800Y-2136155D01*
X+2286000Y-2159000D01*
X+127000Y-2540000D02*
X+149860Y-2540000D01*
X+127000Y-2482850D01*
X+104140Y-2540000D01*
X+127000Y-2540000D01*
X+127000Y+2095500D02*
X+104140Y+2095500D01*
X+127000Y+2038350D01*
X+149860Y+2095500D01*
X+127000Y+2095500D01*
X-1016000Y+2095500D02*
X-993140Y+2095500D01*
X-1016000Y+2152650D01*
X-1038860Y+2095500D01*
X-1016000Y+2095500D01*
X+2222500Y-1524000D02*
X+2206336Y-1540164D01*
X+2262911Y-1564411D01*
X+2238664Y-1507836D01*
X+2222500Y-1524000D01*
X+2159000Y-635000D02*
X+2181860Y-635000D01*
X+2159000Y-577850D01*
X+2136140Y-635000D01*
X+2159000Y-635000D01*
X+2159000Y+1143000D02*
X+2136140Y+1143000D01*
X+2159000Y+1085850D01*
X+2181860Y+1143000D01*
X+2159000Y+1143000D01*
X+1905000Y+1143000D02*
X+1921164Y+1159164D01*
X+1864589Y+1183411D01*
X+1888836Y+1126836D01*
X+1905000Y+1143000D01*
X+1841500Y+7429500D02*
X+1818640Y+7429500D01*
X+1841500Y+7372350D01*
X+1864360Y+7429500D01*
X+1841500Y+7429500D01*
X-1143000Y+6731000D02*
X-1126836Y+6747164D01*
X-1183411Y+6771411D01*
X-1159164Y+6714836D01*
X-1143000Y+6731000D01*
X-762000Y+6667500D02*
X-784860Y+6667500D01*
X-762000Y+6610350D01*
X-739140Y+6667500D01*
X-762000Y+6667500D01*
X-762000Y+5397500D02*
X-739140Y+5397500D01*
X-762000Y+5454650D01*
X-784860Y+5397500D01*
X-762000Y+5397500D01*
X+4572000Y+5207000D02*
X+4572000Y+5184140D01*
X+4629150Y+5207000D01*
X+4572000Y+5229860D01*
X+4572000Y+5207000D01*
X+4953000Y-1587500D02*
X+4930140Y-1587500D01*
X+4953000Y-1644650D01*
X+4975860Y-1587500D01*
X+4953000Y-1587500D01*
X+4969164Y-1603664D01*
X+4993411Y-1547089D01*
X+4936836Y-1571336D01*
X+4953000Y-1587500D01*
X+2032000Y+2603500D02*
X+2009140Y+2603500D01*
X+2032000Y+2546350D01*
X+2054860Y+2603500D01*
X+2032000Y+2603500D01*
X+254000Y+2603500D02*
X+276860Y+2603500D01*
X+254000Y+2660650D01*
X+231140Y+2603500D01*
X+254000Y+2603500D01*
X+2413000Y+2857500D02*
X+2390140Y+2857500D01*
X+2413000Y+2800350D01*
X+2435860Y+2857500D01*
X+2413000Y+2857500D01*
X-254000Y+2857500D02*
X-231140Y+2857500D01*
X-254000Y+2914650D01*
X-276860Y+2857500D01*
X-254000Y+2857500D01*
X+4064000Y-4000500D02*
X+4041140Y-4000500D01*
X+4064000Y-4057650D01*
X+4086860Y-4000500D01*
X+4064000Y-4000500D01*
X+3429000Y-4000500D02*
X+3451860Y-4000500D01*
X+3429000Y-3943350D01*
X+3406140Y-4000500D01*
X+3429000Y-4000500D01*
X+4064000Y-4953000D02*
X+4066800Y-4975687D01*
X+4120719Y-4946000D01*
X+4061200Y-4930313D01*
X+4064000Y-4953000D01*
X+3683000Y-4953000D02*
X+3705860Y-4953000D01*
X+3683000Y-4895850D01*
X+3660140Y-4953000D01*
X+3683000Y-4953000D01*
X+3683000Y-952500D02*
X+3660140Y-952500D01*
X+3683000Y-1009650D01*
X+3705860Y-952500D01*
X+3683000Y-952500D01*
X-698500Y+7493000D02*
X-680882Y+7507566D01*
X-730000Y+7531100D01*
X-716118Y+7478434D01*
X-698500Y+7493000D01*
X-1143000Y+7493000D02*
X-1165860Y+7493000D01*
X-1143000Y+7435850D01*
X-1120140Y+7493000D01*
X-1143000Y+7493000D01*
X-444500Y+2730500D02*
X-421640Y+2730500D01*
X-444500Y+2787650D01*
X-467360Y+2730500D01*
X-444500Y+2730500D01*
X+2540000Y+2730500D02*
X+2517140Y+2730500D01*
X+2540000Y+2673350D01*
X+2562860Y+2730500D01*
X+2540000Y+2730500D01*
X+3937000Y-3746500D02*
X+3914140Y-3746500D01*
X+3937000Y-3803650D01*
X+3959860Y-3746500D01*
X+3937000Y-3746500D01*
X+3556000Y-3746500D02*
X+3578860Y-3746500D01*
X+3556000Y-3689350D01*
X+3533140Y-3746500D01*
X+3556000Y-3746500D01*
X+0Y+3810000D02*
X+22860Y+3810000D01*
X+0Y+3867150D01*
X-22860Y+3810000D01*
X+0Y+3810000D01*
X+2286000Y+3810000D02*
X+2263140Y+3810000D01*
X+2286000Y+3752850D01*
X+2308860Y+3810000D01*
X+2286000Y+3810000D01*
X+2857500Y-1270000D02*
X+2873664Y-1253836D01*
X+2817089Y-1229589D01*
X+2841336Y-1286164D01*
X+2857500Y-1270000D01*
X+2286000Y+7112000D02*
X+2286000Y+7089140D01*
X+2343150Y+7112000D01*
X+2286000Y+7134860D01*
X+2286000Y+7112000D01*
X+381000Y+5778500D02*
X+358140Y+5778500D01*
X+381000Y+5721350D01*
X+403860Y+5778500D01*
X+381000Y+5778500D01*
X+381000Y-889000D02*
X+403860Y-889000D01*
X+381000Y-831850D01*
X+358140Y-889000D01*
X+381000Y-889000D01*
X+358140Y-889000D01*
X+381000Y-946150D01*
X+403860Y-889000D01*
X+381000Y-889000D01*
X-952500Y-6159500D02*
X-929640Y-6159500D01*
X-952500Y-6102350D01*
X-975360Y-6159500D01*
X-952500Y-6159500D01*
X-508000Y-1397000D02*
X-530860Y-1397000D01*
X-508000Y-1454150D01*
X-485140Y-1397000D01*
X-508000Y-1397000D01*
X-485140Y-1397000D01*
X-508000Y-1339850D01*
X-530860Y-1397000D01*
X-508000Y-1397000D01*
X-3937000Y+6858000D02*
X-3914426Y+6861600D01*
X-3946000Y+6914436D01*
X-3959574Y+6854400D01*
X-3937000Y+6858000D01*
X-889000Y+6858000D02*
X-911860Y+6858000D01*
X-889000Y+6800850D01*
X-866140Y+6858000D01*
X-889000Y+6858000D01*
X-127000Y-6159500D02*
X-104155Y-6160300D01*
X-125000Y-6102386D01*
X-149845Y-6158700D01*
X-127000Y-6159500D01*
X-825500Y-6286500D02*
X-825500Y-6263640D01*
X-882650Y-6286500D01*
X-825500Y-6309360D01*
X-825500Y-6286500D01*
X-762000Y-1651000D02*
X-762000Y-1628140D01*
X-819150Y-1651000D01*
X-762000Y-1673860D01*
X-762000Y-1651000D01*
X-784860Y-1651000D01*
X-762000Y-1708150D01*
X-739140Y-1651000D01*
X-762000Y-1651000D01*
X+825500Y+7239000D02*
X+802640Y+7239000D01*
X+825500Y+7181850D01*
X+848360Y+7239000D01*
X+825500Y+7239000D01*
X-3429000Y+7239000D02*
X-3406426Y+7242600D01*
X-3438000Y+7295436D01*
X-3451574Y+7235400D01*
X-3429000Y+7239000D01*
X+825500Y-1651000D02*
X+824700Y-1673845D01*
X+882614Y-1653000D01*
X+826300Y-1628155D01*
X+825500Y-1651000D01*
X+848360Y-1651000D01*
X+825500Y-1593850D01*
X+802640Y-1651000D01*
X+825500Y-1651000D01*
X+1270000Y-1905000D02*
X+1247140Y-1905000D01*
X+1270000Y-1962150D01*
X+1292860Y-1905000D01*
X+1270000Y-1905000D01*
X+317500Y+7112000D02*
X+294640Y+7112000D01*
X+317500Y+7054850D01*
X+340360Y+7112000D01*
X+317500Y+7112000D01*
X-3175000Y+7112000D02*
X-3152426Y+7115600D01*
X-3184000Y+7168436D01*
X-3197574Y+7108400D01*
X-3175000Y+7112000D01*
X+1143000Y-5397500D02*
X+1165860Y-5397500D01*
X+1143000Y-5340350D01*
X+1120140Y-5397500D01*
X+1143000Y-5397500D01*
X+381000Y-5397500D02*
X+358155Y-5398300D01*
X+383000Y-5454614D01*
X+403845Y-5396700D01*
X+381000Y-5397500D01*
X+317500Y+6540500D02*
X+340360Y+6540500D01*
X+317500Y+6597650D01*
X+294640Y+6540500D01*
X+317500Y+6540500D01*
X+301336Y+6524336D01*
X+357911Y+6500089D01*
X+333664Y+6556664D01*
X+317500Y+6540500D01*
X+0Y-1778000D02*
X-22860Y-1778000D01*
X+0Y-1835150D01*
X+22860Y-1778000D01*
X+0Y-1778000D01*
X+0Y-1755140D01*
X-57150Y-1778000D01*
X+0Y-1800860D01*
X+0Y-1778000D01*
X-2921000Y+6477000D02*
X-2898426Y+6480600D01*
X-2930000Y+6533436D01*
X-2943574Y+6473400D01*
X-2921000Y+6477000D01*
X-190500Y+5905500D02*
X-213360Y+5905500D01*
X-190500Y+5848350D01*
X-167640Y+5905500D01*
X-190500Y+5905500D01*
X+1587500Y-4254500D02*
X+1609806Y-4259500D01*
X+1600000Y-4198734D01*
X+1565194Y-4249500D01*
X+1587500Y-4254500D01*
X+1460500Y+5778500D02*
X+1437640Y+5778500D01*
X+1460500Y+5721350D01*
X+1483360Y+5778500D01*
X+1460500Y+5778500D01*
X+1483360Y+5778500D01*
X+1460500Y+5835650D01*
X+1437640Y+5778500D01*
X+1460500Y+5778500D01*
X+3111500Y-5270500D02*
X+3134360Y-5270500D01*
X+3111500Y-5213350D01*
X+3088640Y-5270500D01*
X+3111500Y-5270500D01*
X-381000Y-5270500D02*
X-403845Y-5271300D01*
X-379000Y-5327614D01*
X-358155Y-5269700D01*
X-381000Y-5270500D01*
X+1460500Y+3238500D02*
X+1483360Y+3238500D01*
X+1460500Y+3295650D01*
X+1437640Y+3238500D01*
X+1460500Y+3238500D01*
X+4826000Y+3238500D02*
X+4803140Y+3238500D01*
X+4826000Y+3181350D01*
X+4848860Y+3238500D01*
X+4826000Y+3238500D01*
X+4381500Y-3175000D02*
X+4397664Y-3191164D01*
X+4421911Y-3134589D01*
X+4365336Y-3158836D01*
X+4381500Y-3175000D01*
X+3111500Y-3175000D02*
X+3133806Y-3180000D01*
X+3124000Y-3119234D01*
X+3089194Y-3170000D01*
X+3111500Y-3175000D01*
X+3088640Y-3175000D01*
X+3111500Y-3232150D01*
X+3134360Y-3175000D01*
X+3111500Y-3175000D01*
X+1460500Y+7366000D02*
X+1437640Y+7366000D01*
X+1460500Y+7308850D01*
X+1483360Y+7366000D01*
X+1460500Y+7366000D01*
X-1651000Y+2413000D02*
X-1673860Y+2413000D01*
X-1651000Y+2355850D01*
X-1628140Y+2413000D01*
X-1651000Y+2413000D01*
X-1905000Y+2286000D02*
X-1888836Y+2302164D01*
X-1945411Y+2326411D01*
X-1921164Y+2269836D01*
X-1905000Y+2286000D01*
X-1927860Y+2286000D01*
X-1905000Y+2228850D01*
X-1882140Y+2286000D01*
X-1905000Y+2286000D01*
X-2286000Y+952500D02*
X-2286000Y+929640D01*
X-2228850Y+952500D01*
X-2286000Y+975360D01*
X-2286000Y+952500D01*
X-1651000Y+5905500D02*
X-1651000Y+5928360D01*
X-1708150Y+5905500D01*
X-1651000Y+5882640D01*
X-1651000Y+5905500D01*
X-2667000Y+2476500D02*
X-2644140Y+2476500D01*
X-2667000Y+2533650D01*
X-2689860Y+2476500D01*
X-2667000Y+2476500D01*
X-1079500Y-1016000D02*
X-1056640Y-1016000D01*
X-1079500Y-958850D01*
X-1102360Y-1016000D01*
X-1079500Y-1016000D01*
X-1079500Y+254000D02*
X-1102360Y+254000D01*
X-1079500Y+196850D01*
X-1056640Y+254000D01*
X-1079500Y+254000D01*
X-4064000Y+2095500D02*
X-4086860Y+2095500D01*
X-4064000Y+2038350D01*
X-4041140Y+2095500D01*
X-4064000Y+2095500D01*
X-3810000Y-508000D02*
X-3810000Y-485140D01*
X-3867150Y-508000D01*
X-3810000Y-530860D01*
X-3810000Y-508000D01*
X-254000Y-4191000D02*
X-254000Y-4168140D01*
X-311150Y-4191000D01*
X-254000Y-4213860D01*
X-254000Y-4191000D01*
X-270164Y-4207164D01*
X-213589Y-4231411D01*
X-237836Y-4174836D01*
X-254000Y-4191000D01*
X-740000Y+5090000D02*
X-756164Y+5073836D01*
X-699589Y+5049589D01*
X-723836Y+5106164D01*
X-740000Y+5090000D01*
X-1143000Y+4953000D02*
X-1120140Y+4953000D01*
X-1143000Y+5010150D01*
X-1165860Y+4953000D01*
X-1143000Y+4953000D01*
D15*
X+254000Y+635000D03*
X+254000Y+190500D03*
X-4318000Y+2286000D03*
X-4318000Y+1714500D03*
X-4000500Y+4635500D03*
X-4191000Y+4191000D03*
X-3873500Y+4953000D03*
X-3619500Y+4064000D03*
X-3873500Y+4191000D03*
X-3873500Y+4762500D03*
X-3937000Y+3492500D03*
X-4064000Y+2794000D03*
X-3492500Y+2540000D03*
X-3937000Y+3619500D03*
X-4318000Y+3175000D03*
X-3492500Y+2667000D03*
X-3746500Y+3365500D03*
X-3365500Y+3492500D03*
X+254000Y-3429000D03*
X+254000Y-3937000D03*
X+508000Y-4572000D03*
X-1524000Y-2476500D03*
X-1016000Y-3175000D03*
X-1016000Y-4254500D03*
X-1143000Y-1968500D03*
X-1143000Y-2921000D03*
X-1016000Y-2159000D03*
X-889000Y-2730500D03*
X+2032000Y-3492500D03*
X+635000Y-4762500D03*
X+635000Y-3238500D03*
X-254000Y-2349500D03*
X-4572000Y+4318000D03*
X-4572000Y-1968500D03*
X-254000Y-1524000D03*
X+254000Y-2984500D03*
X+1524000Y-4445000D03*
X+1524000Y-5016500D03*
X+0Y-5016500D03*
X+0Y-2476500D03*
X-2794000Y+1079500D03*
X-2540000Y+3619500D03*
X-1270000Y+5270500D03*
X-2857500Y+1270000D03*
X-3619500Y+825500D03*
X-3492500Y+825500D03*
X-3810000Y+190500D03*
X+4000500Y+5334000D03*
X-3937000Y-2413000D03*
X-3302000Y+0D03*
X-4762500Y+6032500D03*
X-3238500Y+3048000D03*
X-3238500Y+1587500D03*
X-2794000Y+2921000D03*
X+825500Y-5524500D03*
X+2984500Y-5588000D03*
X+825500Y-2794000D03*
X+825500Y-3556000D03*
X+3365500Y+508000D03*
X+4191000Y+3810000D03*
X-1968500Y+5016500D03*
X+4572000Y+7429500D03*
X-2794000Y+4064000D03*
X+4191000Y+2032000D03*
X-2794000Y+5778500D03*
X+4381500Y+3810000D03*
X-2095500Y-3365500D03*
X-2349500Y-1206500D03*
X-1841500Y-5778500D03*
X-1778000Y-381000D03*
X-1968500Y-889000D03*
X-2095500Y-2476500D03*
X-1651000Y-3048000D03*
X-1397000Y-4191000D03*
X-635000Y-1778000D03*
X-635000Y-3619500D03*
X-1206500Y-3746500D03*
X+2540000Y+5080000D03*
X+3746500Y+5080000D03*
X+3746500Y+1206500D03*
X-4318000Y+698500D03*
X-4953000Y+635000D03*
X-4699000Y-254000D03*
X-4318000Y-254000D03*
X+2730500Y-6223000D03*
X-2413000Y+508000D03*
X-762000Y+2921000D03*
X-3429000Y-1016000D03*
X-2540000Y-190500D03*
X-2413000Y+1841500D03*
X+1079500Y-762000D03*
X-762000Y+4127500D03*
X-2286000Y-3683000D03*
X-2857500Y-1016000D03*
X-2667000Y-2730500D03*
X-5080000Y-2032000D03*
X-3492500Y+4381500D03*
X+2286000Y+5080000D03*
X-2730500Y+2286000D03*
X-2730500Y+1460500D03*
X-762000Y+4889500D03*
X+317500Y-2794000D03*
X+254000Y-1460500D03*
X+1079500Y-1270000D03*
X-2667000Y-3746500D03*
X+1079500Y+508000D03*
X+762000Y-5143500D03*
X+762000Y-4127500D03*
X-2095500Y-4318000D03*
X-3365500Y+3365500D03*
X+3111500Y+6985000D03*
X+3238500Y+7112000D03*
X+3365500Y+4953000D03*
X+4699000Y+2159000D03*
X+5143500Y+4889500D03*
X+4699000Y+7239000D03*
X+3492500Y+6477000D03*
X+2921000Y+6223000D03*
X+2921000Y+7239000D03*
X+3619500Y+5905500D03*
X+3746500Y+5778500D03*
X+190500Y+6794500D03*
X+1587500Y+6032500D03*
X+1333500Y+3365500D03*
X+444500Y+7112000D03*
X+1333500Y+6286500D03*
X+698500Y+1905000D03*
X+698500Y+3492500D03*
X+952500Y+6985000D03*
X+952500Y+1651000D03*
X+952500Y+3365500D03*
X+2159000Y+1397000D03*
X+2159000Y+3111500D03*
X+4381500Y+3111500D03*
X+4699000Y+1524000D03*
X+1397000Y-2032000D03*
X+1397000Y-1524000D03*
X+1079500Y+7239000D03*
X+1333500Y+7239000D03*
X+1079500Y+2984500D03*
X+4508500Y+2984500D03*
X+4508500Y+1651000D03*
X+2857500Y-2921000D03*
X+4191000Y-2921000D03*
X+4191000Y-444500D03*
X+2032000Y-1587500D03*
X+2413000Y-3048000D03*
X+4318000Y-3048000D03*
X+4318000Y-317500D03*
X+1968500Y+3111500D03*
X+0Y+3111500D03*
X+0Y+762000D03*
X+2286000Y-2159000D03*
X+127000Y-2540000D03*
X+127000Y+2095500D03*
X-1016000Y+2095500D03*
X+2222500Y-1524000D03*
X+2159000Y-635000D03*
X+2159000Y+1143000D03*
X+1905000Y+1143000D03*
X+1841500Y+7429500D03*
X-1143000Y+6731000D03*
X-762000Y+6667500D03*
X-762000Y+5397500D03*
X+4572000Y+5207000D03*
X+4953000Y-1587500D03*
X+2032000Y+2603500D03*
X+254000Y+2603500D03*
X+2413000Y+2857500D03*
X-254000Y+2857500D03*
X+4064000Y-4000500D03*
X+3429000Y-4000500D03*
X+4064000Y-4953000D03*
X+3683000Y-4953000D03*
X+3683000Y-952500D03*
X-698500Y+7493000D03*
X-1143000Y+7493000D03*
X-444500Y+2730500D03*
X+2540000Y+2730500D03*
X+3937000Y-3746500D03*
X+3556000Y-3746500D03*
X+0Y+3810000D03*
X+2286000Y+3810000D03*
X+2857500Y-1270000D03*
X+2286000Y+7112000D03*
X+381000Y+5778500D03*
X+381000Y-889000D03*
X-952500Y-6159500D03*
X-508000Y-1397000D03*
X-3937000Y+6858000D03*
X-889000Y+6858000D03*
X-127000Y-6159500D03*
X-825500Y-6286500D03*
X-762000Y-1651000D03*
X+825500Y+7239000D03*
X-3429000Y+7239000D03*
X+825500Y-1651000D03*
X+1270000Y-1905000D03*
X+317500Y+7112000D03*
X-3175000Y+7112000D03*
X+1143000Y-5397500D03*
X+381000Y-5397500D03*
X+317500Y+6540500D03*
X+0Y-1778000D03*
X-2921000Y+6477000D03*
X-190500Y+5905500D03*
X+1587500Y-4254500D03*
X+1460500Y+5778500D03*
X+3111500Y-5270500D03*
X-381000Y-5270500D03*
X+1460500Y+3238500D03*
X+4826000Y+3238500D03*
X+4381500Y-3175000D03*
X+3111500Y-3175000D03*
X+1460500Y+7366000D03*
X-1651000Y+2413000D03*
X-1905000Y+2286000D03*
X-2286000Y+952500D03*
X-1651000Y+5905500D03*
X-2667000Y+2476500D03*
X-1079500Y-1016000D03*
X-1079500Y+254000D03*
X-2857500Y-3175000D03*
X-3238500Y-1714500D03*
X-3746500Y-1587500D03*
X-2857500Y-2222500D03*
X-4064000Y+2095500D03*
X-3810000Y-508000D03*
X-254000Y-4191000D03*
X-740000Y+5090000D03*
X-1143000Y+4953000D03*
D11*
X+5393320Y-6893320D02*
X+2832399Y-6893320D01*
X+2832399Y-6851599D01*
X+3047293Y-6851599D01*
X+3326599Y-6572293D01*
X+3326599Y-5967201D01*
X+3380937Y-6021539D01*
X+4620063Y-6021539D01*
X+4815038Y-5826564D01*
X+4815038Y-5405935D01*
X+4747064Y-5337961D01*
X+4663265Y-5337961D01*
X+4642038Y-5326237D01*
X+4689699Y-5278576D01*
X+4689699Y-5193657D01*
X+4697500Y-5166602D01*
X+5069039Y-4795063D01*
X+5069039Y-1667894D01*
X+5091899Y-1645034D01*
X+5091899Y-1612703D01*
X+5386539Y-1318063D01*
X+5386539Y+5128063D01*
X+5191563Y+5323039D01*
X+4652394Y+5323039D01*
X+4629534Y+5345899D01*
X+4622174Y+5345899D01*
X+4689699Y+5413424D01*
X+4689699Y+5570576D01*
X+4641274Y+5618999D01*
X+4689699Y+5667424D01*
X+4689699Y+5752343D01*
X+4697500Y+5779398D01*
X+4815039Y+5896937D01*
X+4815039Y+7158606D01*
X+4837899Y+7181466D01*
X+4837899Y+7196260D01*
X+4863558Y+7170601D01*
X+5136442Y+7170601D01*
X+5329399Y+7363558D01*
X+5329399Y+7636442D01*
X+5136442Y+7829399D01*
X+4863558Y+7829399D01*
X+4815039Y+7780880D01*
X+4815039Y+7831623D01*
X+4753342Y+7893320D01*
X+5393320Y+7893320D01*
X+5393320Y-6893320D01*
X+4670601Y-6636442D02*
X+4670601Y-6363558D01*
X+4863558Y-6170601D01*
X+5136442Y-6170601D01*
X+5329399Y-6363558D01*
X+5329399Y-6636442D01*
X+5136442Y-6829399D01*
X+4863558Y-6829399D01*
X+4670601Y-6636442D01*
X-4561038Y+7635436D02*
X-4561038Y+6873436D01*
X-3227539Y+5539937D01*
X-3227539Y+3550972D01*
X-3249461Y+3572893D01*
X-3249461Y+5248063D01*
X-3317437Y+5316039D01*
X-3511261Y+5316039D01*
X-3511261Y+5331279D01*
X-3868739Y+5331279D01*
X-3868739Y+5316039D01*
X-3921563Y+5316039D01*
X-4116539Y+5121063D01*
X-4116539Y+4715894D01*
X-4139399Y+4693034D01*
X-4139399Y+4577966D01*
X-4058034Y+4496601D01*
X-4049501Y+4496601D01*
X-4216203Y+4329899D01*
X-4248534Y+4329899D01*
X-4329899Y+4248534D01*
X-4329899Y+4133466D01*
X-4307039Y+4110606D01*
X-4307039Y+4015937D01*
X-4112063Y+3820961D01*
X-3698437Y+3820961D01*
X-3594297Y+3925101D01*
X-3561966Y+3925101D01*
X-3481539Y+4005528D01*
X-3481539Y+3572894D01*
X-3504399Y+3550034D01*
X-3504399Y+3434966D01*
X-3498433Y+3429000D01*
X-3504399Y+3423034D01*
X-3504399Y+3307966D01*
X-3481539Y+3285106D01*
X-3481539Y+2820141D01*
X-3630461Y+2969063D01*
X-3630461Y+3285106D01*
X-3607601Y+3307966D01*
X-3607601Y+3423034D01*
X-3688966Y+3504399D01*
X-3798101Y+3504399D01*
X-3798101Y+3550034D01*
X-3804067Y+3556000D01*
X-3798101Y+3561966D01*
X-3798101Y+3677034D01*
X-3879466Y+3758399D01*
X-3994534Y+3758399D01*
X-4017394Y+3735539D01*
X-4239063Y+3735539D01*
X-4434039Y+3540563D01*
X-4434039Y+3255394D01*
X-4455961Y+3233472D01*
X-4455961Y+4237606D01*
X-4433101Y+4260466D01*
X-4433101Y+4375534D01*
X-4514466Y+4456899D01*
X-4629534Y+4456899D01*
X-4710899Y+4375534D01*
X-4710899Y+4260466D01*
X-4688039Y+4237606D01*
X-4688039Y+1253799D01*
X-5059799Y+1253799D01*
X-5059799Y+952201D01*
X-5039549Y+952201D01*
X-5039549Y+904096D01*
X-4961904Y+826451D01*
X-4852096Y+826451D01*
X-4774451Y+904096D01*
X-4774451Y+952201D01*
X-4688039Y+952201D01*
X-4688039Y+534140D01*
X-4814101Y+660202D01*
X-4814101Y+692534D01*
X-4895466Y+773899D01*
X-5010534Y+773899D01*
X-5091899Y+692534D01*
X-5091899Y+577466D01*
X-5010534Y+496101D01*
X-4979352Y+496101D01*
X-5039549Y+435904D01*
X-5039549Y+387799D01*
X-5059799Y+387799D01*
X-5059799Y+86201D01*
X-4815039Y+86201D01*
X-4815039Y-173606D01*
X-4837899Y-196466D01*
X-4837899Y-311534D01*
X-4756534Y-392899D01*
X-4688039Y-392899D01*
X-4688039Y-1888106D01*
X-4710899Y-1910966D01*
X-4710899Y-2026034D01*
X-4629534Y-2107399D01*
X-4514466Y-2107399D01*
X-4433101Y-2026034D01*
X-4433101Y-1910966D01*
X-4455961Y-1888106D01*
X-4455961Y-534141D01*
X-4366063Y-624039D01*
X-3890394Y-624039D01*
X-3867534Y-646899D01*
X-3859001Y-646899D01*
X-4180039Y-967937D01*
X-4180039Y-4239063D01*
X-3985063Y-4434039D01*
X-2175894Y-4434039D01*
X-2153034Y-4456899D01*
X-2037966Y-4456899D01*
X-1993099Y-4412032D01*
X-1993099Y-5841294D01*
X-1904294Y-5930099D01*
X-1778706Y-5930099D01*
X-1689901Y-5841294D01*
X-1689901Y-3921991D01*
X-1523293Y-4088599D01*
X-1508991Y-4088599D01*
X-1548598Y-4128206D01*
X-1548598Y-4253794D01*
X-1459794Y-4342598D01*
X-1334206Y-4342598D01*
X-1132039Y-4140431D01*
X-1132039Y-4174106D01*
X-1154899Y-4196966D01*
X-1154899Y-4312034D01*
X-1073534Y-4393399D01*
X-958466Y-4393399D01*
X-878039Y-4312972D01*
X-878039Y-4460437D01*
X-1195539Y-4777937D01*
X-1195539Y-6334563D01*
X-1127563Y-6402539D01*
X-905894Y-6402539D01*
X-883034Y-6425399D01*
X-767966Y-6425399D01*
X-686601Y-6344034D01*
X-686601Y-6228966D01*
X-767966Y-6147601D01*
X-813601Y-6147601D01*
X-813601Y-6101966D01*
X-836461Y-6079106D01*
X-836461Y-5382063D01*
X-391961Y-4937563D01*
X-391961Y-4307039D01*
X-334394Y-4307039D01*
X-311534Y-4329899D01*
X-279204Y-4329899D01*
X-241039Y-4368064D01*
X-241039Y-5582735D01*
X-252000Y-5602578D01*
X-262961Y-5582735D01*
X-262961Y-5348894D01*
X-242101Y-5328034D01*
X-242101Y-5212966D01*
X-323466Y-5131601D01*
X-438534Y-5131601D01*
X-519899Y-5212966D01*
X-519899Y-5328034D01*
X-495039Y-5352894D01*
X-495039Y-5582735D01*
X-506764Y-5603962D01*
X-554424Y-5556301D01*
X-711576Y-5556301D01*
X-822699Y-5667424D01*
X-822699Y-5824576D01*
X-774275Y-5873000D01*
X-822699Y-5921424D01*
X-822699Y-6078576D01*
X-711576Y-6189699D01*
X-554424Y-6189699D01*
X-506765Y-6142040D01*
X-495039Y-6163266D01*
X-495039Y-6209563D01*
X-238563Y-6466039D01*
X+1191063Y-6466039D01*
X+1280961Y-6376141D01*
X+1280961Y-6842563D01*
X+1331718Y-6893320D01*
X-5393320Y-6893320D01*
X-5393320Y+91201D01*
X-5086213Y+91201D01*
X-5086213Y+382799D01*
X-5393320Y+382799D01*
X-5393320Y+957201D01*
X-5086213Y+957201D01*
X-5086213Y+1248799D01*
X-5393320Y+1248799D01*
X-5393320Y+5189601D01*
X-4997601Y+5189601D01*
X-4997601Y+6238209D01*
X-4914099Y+6154707D01*
X-4914099Y+5969706D01*
X-4825294Y+5880901D01*
X-4699706Y+5880901D01*
X-4610901Y+5969706D01*
X-4610901Y+6280293D01*
X-4890207Y+6559599D01*
X-4997601Y+6559599D01*
X-4997601Y+6864399D01*
X-5083961Y+6864399D01*
X-5083961Y+6899063D01*
X-5217961Y+7033063D01*
X-5217961Y+7252120D01*
X-5136442Y+7170601D01*
X-4863558Y+7170601D01*
X-4670601Y+7363558D01*
X-4670601Y+7636442D01*
X-4728620Y+7694461D01*
X-4620063Y+7694461D01*
X-4561038Y+7635436D01*
X-3874201Y-5180799D02*
X-4074201Y-5180799D01*
X-4074201Y-5513299D01*
X-4725799Y-5513299D01*
X-4725799Y-5155799D01*
X-4913299Y-5155799D01*
X-4913299Y-4504201D01*
X-4486701Y-4504201D01*
X-4486701Y-5086701D01*
X-4325799Y-5086701D01*
X-4325799Y-4479201D01*
X-3874201Y-4479201D01*
X-3874201Y-5180799D01*
X-4310301Y-3001424D02*
X-4310301Y-3158576D01*
X-4421424Y-3269699D01*
X-4578576Y-3269699D01*
X-4600000Y-3248275D01*
X-4621424Y-3269699D01*
X-4778576Y-3269699D01*
X-4816614Y-3231662D01*
X-4831156Y-3246204D01*
X-4968844Y-3246204D01*
X-5066204Y-3148844D01*
X-5066204Y-3011156D01*
X-4968844Y-2913796D01*
X-4831156Y-2913796D01*
X-4816614Y-2928339D01*
X-4778576Y-2890301D01*
X-4621424Y-2890301D01*
X-4600000Y-2911725D01*
X-4578576Y-2890301D01*
X-4421424Y-2890301D01*
X-4310301Y-3001424D01*
X-4333796Y-3511156D02*
X-4333796Y-3648844D01*
X-4431156Y-3746204D01*
X-4568844Y-3746204D01*
X-4600000Y-3715048D01*
X-4631156Y-3746204D01*
X-4768844Y-3746204D01*
X-4800000Y-3715048D01*
X-4831156Y-3746204D01*
X-4968844Y-3746204D01*
X-5066204Y-3648844D01*
X-5066204Y-3511156D01*
X-4968844Y-3413796D01*
X-4831156Y-3413796D01*
X-4800000Y-3444952D01*
X-4768844Y-3413796D01*
X-4631156Y-3413796D01*
X-4600000Y-3444952D01*
X-4568844Y-3413796D01*
X-4431156Y-3413796D01*
X-4333796Y-3511156D01*
X-5329399Y-6636442D02*
X-5329399Y-6363558D01*
X-5136442Y-6170601D01*
X-4863558Y-6170601D01*
X-4670601Y-6363558D01*
X-4670601Y-6636442D01*
X-4863558Y-6829399D01*
X-5136442Y-6829399D01*
X-5329399Y-6636442D01*
X-5149850Y-2060933D02*
X-5149850Y-2003067D01*
X-5108933Y-1962150D01*
X-5051067Y-1962150D01*
X-5010150Y-2003067D01*
X-5010150Y-2060933D01*
X-5051067Y-2101850D01*
X-5108933Y-2101850D01*
X-5149850Y-2060933D01*
X+2223001Y+7472201D02*
X+2791961Y+7472201D01*
X+2791961Y+7444937D01*
X+2861232Y+7375665D01*
X+2782101Y+7296534D01*
X+2782101Y+7181466D01*
X+2804961Y+7158606D01*
X+2804961Y+7138141D01*
X+2715064Y+7228038D01*
X+2366395Y+7228038D01*
X+2343534Y+7250899D01*
X+2228466Y+7250899D01*
X+2147101Y+7169534D01*
X+2147101Y+7054466D01*
X+2228466Y+6973101D01*
X+2343534Y+6973101D01*
X+2366394Y+6995961D01*
X+2618936Y+6995961D01*
X+2677961Y+6936936D01*
X+2677961Y+6773814D01*
X+2588576Y+6863199D01*
X+2431424Y+6863199D01*
X+2382999Y+6814774D01*
X+2334576Y+6863199D01*
X+2177424Y+6863199D01*
X+2066301Y+6752076D01*
X+2066301Y+6594924D01*
X+2177424Y+6483801D01*
X+2334576Y+6483801D01*
X+2383000Y+6532225D01*
X+2431424Y+6483801D01*
X+2516341Y+6483801D01*
X+2543398Y+6475999D01*
X+2550961Y+6468437D01*
X+2550961Y+6101199D01*
X+2431424Y+6101199D01*
X+2382999Y+6052774D01*
X+2334576Y+6101199D01*
X+2177424Y+6101199D01*
X+2066301Y+5990076D01*
X+2066301Y+5832924D01*
X+2177424Y+5721801D01*
X+2334576Y+5721801D01*
X+2382235Y+5769460D01*
X+2393961Y+5748234D01*
X+2393961Y+5061937D01*
X+2401101Y+5054796D01*
X+2401101Y+5022466D01*
X+2482466Y+4941101D01*
X+2550961Y+4941101D01*
X+2550961Y+4655063D01*
X+2408297Y+4512399D01*
X+2286164Y+4512399D01*
X+2167601Y+4393836D01*
X+2167601Y+4258399D01*
X+2049448Y+4258399D01*
X+2049448Y+7127437D01*
X+2094039Y+7172028D01*
X+2094039Y+7472201D01*
X+2154999Y+7472201D01*
X+2154999Y+7893320D01*
X+2223001Y+7893320D01*
X+2223001Y+7472201D01*
X+2216150Y+5051067D02*
X+2216150Y+5108933D01*
X+2257067Y+5149850D01*
X+2314933Y+5149850D01*
X+2355850Y+5108933D01*
X+2355850Y+5051067D01*
X+2314933Y+5010150D01*
X+2257067Y+5010150D01*
X+2216150Y+5051067D01*
X+4421424Y+5302301D02*
X+4470868Y+5302301D01*
X+4433101Y+5264534D01*
X+4433101Y+5149466D01*
X+4514466Y+5068101D01*
X+4629534Y+5068101D01*
X+4652394Y+5090961D01*
X+5095437Y+5090961D01*
X+5154461Y+5031937D01*
X+5154461Y+5028399D01*
X+5085966Y+5028399D01*
X+5004601Y+4947034D01*
X+5004601Y+4914703D01*
X+4582961Y+4493063D01*
X+4582961Y+3106472D01*
X+4566034Y+3123399D01*
X+4520399Y+3123399D01*
X+4520399Y+3169034D01*
X+4439034Y+3250399D01*
X+4342599Y+3250399D01*
X+4342599Y+3658401D01*
X+4444294Y+3658401D01*
X+4533099Y+3747206D01*
X+4533099Y+3872794D01*
X+4444294Y+3961599D01*
X+4152099Y+3961599D01*
X+4152099Y+5317626D01*
X+4167424Y+5302301D01*
X+4324576Y+5302301D01*
X+4373000Y+5350725D01*
X+4421424Y+5302301D01*
X-3481539Y+4451350D02*
X-3511261Y+4451350D01*
X-3511261Y+5083961D01*
X-3481539Y+5083961D01*
X-3481539Y+4451350D01*
X-751039Y+4197350D02*
X-772961Y+4197350D01*
X-772961Y+4819650D01*
X-751039Y+4819650D01*
X-751039Y+4197350D01*
X-3481539Y+4122472D02*
X-3511261Y+4152194D01*
X-3511261Y+4311650D01*
X-3481539Y+4311650D01*
X-3481539Y+4122472D01*
X+2147101Y+3752466D02*
X+2169961Y+3729605D01*
X+2169961Y+3250399D01*
X+2101466Y+3250399D01*
X+2084539Y+3233472D01*
X+2084539Y+3731063D01*
X+2049448Y+3766154D01*
X+2049448Y+3853601D01*
X+2147101Y+3853601D01*
X+2147101Y+3752466D01*
X-1200534Y+4814101D02*
X-1132039Y+4814101D01*
X-1132039Y+3172141D01*
X-1240501Y+3280602D01*
X-1248301Y+3307656D01*
X-1248301Y+3392576D01*
X-1296725Y+3441000D01*
X-1248301Y+3489424D01*
X-1248301Y+3646576D01*
X-1296725Y+3695000D01*
X-1248301Y+3743424D01*
X-1248301Y+3900576D01*
X-1296725Y+3949000D01*
X-1248301Y+3997424D01*
X-1248301Y+4154576D01*
X-1296725Y+4203000D01*
X-1248301Y+4251424D01*
X-1248301Y+4408576D01*
X-1296725Y+4457000D01*
X-1248301Y+4505424D01*
X-1248301Y+4662576D01*
X-1296725Y+4711000D01*
X-1248301Y+4759424D01*
X-1248301Y+4861868D01*
X-1200534Y+4814101D01*
X-751039Y+2990850D02*
X-772961Y+2990850D01*
X-772961Y+4057650D01*
X-751039Y+4057650D01*
X-751039Y+2990850D01*
X+2421601Y+3972164D02*
X+2540164Y+3853601D01*
X+2677961Y+3853601D01*
X+2677961Y+2788972D01*
X+2597534Y+2869399D01*
X+2551899Y+2869399D01*
X+2551899Y+2915034D01*
X+2470534Y+2996399D01*
X+2402038Y+2996399D01*
X+2402038Y+3729605D01*
X+2424899Y+3752466D01*
X+2424899Y+3867534D01*
X+2343534Y+3948899D01*
X+2295134Y+3948899D01*
X+2318399Y+3972164D01*
X+2318399Y+4107601D01*
X+2421601Y+4107601D01*
X+2421601Y+3972164D01*
X-2856794Y+2769401D02*
X-2783039Y+2769401D01*
X-2783039Y+2556894D01*
X-2805899Y+2534034D01*
X-2805899Y+2418966D01*
X-2742783Y+2355850D01*
X-2759433Y+2355850D01*
X-2800350Y+2314933D01*
X-2800350Y+2257067D01*
X-2759433Y+2216150D01*
X-2701567Y+2216150D01*
X-2660650Y+2257067D01*
X-2660650Y+2314933D01*
X-2683318Y+2337601D01*
X-2609466Y+2337601D01*
X-2529039Y+2418028D01*
X-2529039Y+1983937D01*
X-2449193Y+1904090D01*
X-2482850Y+1870433D01*
X-2482850Y+1812567D01*
X-2441933Y+1771650D01*
X-2402039Y+1771650D01*
X-2402039Y+1445063D01*
X-2461063Y+1386039D01*
X-2777106Y+1386039D01*
X-2799966Y+1408899D01*
X-2868462Y+1408899D01*
X-2868462Y+2781069D01*
X-2856794Y+2769401D01*
X-2800350Y+1431567D02*
X-2800350Y+1489433D01*
X-2759433Y+1530350D01*
X-2701567Y+1530350D01*
X-2660650Y+1489433D01*
X-2660650Y+1431567D01*
X-2701567Y+1390650D01*
X-2759433Y+1390650D01*
X-2800350Y+1431567D01*
X-751039Y+2603500D02*
X-751039Y+2555437D01*
X-497039Y+2301437D01*
X-497039Y+1041314D01*
X-537424Y+1081699D01*
X-694576Y+1081699D01*
X-772961Y+1003314D01*
X-772961Y+2851150D01*
X-751039Y+2851150D01*
X-751039Y+2603500D01*
X+2926499Y+1174398D02*
X+2934301Y+1147343D01*
X+2934301Y+1062424D01*
X+2982724Y+1013999D01*
X+2934301Y+965576D01*
X+2934301Y+808424D01*
X+2982725Y+760000D01*
X+2934301Y+711576D01*
X+2934301Y+554424D01*
X+2982725Y+506000D01*
X+2934301Y+457576D01*
X+2934301Y+300424D01*
X+2982725Y+252000D01*
X+2934301Y+203576D01*
X+2934301Y+46424D01*
X+2982725Y-2000D01*
X+2944913Y-39812D01*
X+2910039Y-4938D01*
X+2910039Y+1190859D01*
X+2926499Y+1174398D01*
X+264961Y-969394D02*
X+264961Y-1390650D01*
X+243039Y-1390650D01*
X+243039Y-947472D01*
X+264961Y-969394D01*
X+1126449Y+1058949D02*
X+1160437Y+1024961D01*
X+1436734Y+1024961D01*
X+1457960Y+1013235D01*
X+1410301Y+965576D01*
X+1410301Y+808424D01*
X+1458725Y+760000D01*
X+1410301Y+711576D01*
X+1410301Y+554424D01*
X+1458725Y+506000D01*
X+1410301Y+457576D01*
X+1410301Y+300424D01*
X+1458725Y+252000D01*
X+1410301Y+203576D01*
X+1410301Y+46424D01*
X+1458725Y-2000D01*
X+1410301Y-50424D01*
X+1410301Y-207576D01*
X+1458725Y-256000D01*
X+1410301Y-304424D01*
X+1410301Y-461576D01*
X+1458725Y-510000D01*
X+1410301Y-558424D01*
X+1410301Y-715576D01*
X+1458725Y-764000D01*
X+1410301Y-812424D01*
X+1410301Y-969576D01*
X+1458725Y-1018000D01*
X+1410301Y-1066424D01*
X+1410301Y-1223576D01*
X+1458725Y-1272000D01*
X+1410301Y-1320424D01*
X+1410301Y-1385101D01*
X+1339466Y-1385101D01*
X+1316606Y-1407961D01*
X+1127563Y-1407961D01*
X+1068539Y-1348937D01*
X+1068539Y-1339850D01*
X+1108433Y-1339850D01*
X+1149350Y-1298933D01*
X+1149350Y-1241067D01*
X+1108433Y-1200150D01*
X+1068539Y-1200150D01*
X+1068539Y-831850D01*
X+1108433Y-831850D01*
X+1149350Y-790933D01*
X+1149350Y-733067D01*
X+1108433Y-692150D01*
X+1068539Y-692150D01*
X+1068539Y+438150D01*
X+1108433Y+438150D01*
X+1149350Y+479067D01*
X+1149350Y+536933D01*
X+1108433Y+577850D01*
X+1068539Y+577850D01*
X+1068539Y+1094937D01*
X+1079500Y+1105898D01*
X+1126449Y+1058949D01*
X-2939551Y+552949D02*
X-2905563Y+518961D01*
X-2482850Y+518961D01*
X-2482850Y+479067D01*
X-2441933Y+438150D01*
X-2384067Y+438150D01*
X-2350410Y+471807D01*
X-2338539Y+459937D01*
X-2338539Y-1054901D01*
X-2412294Y-1054901D01*
X-2501099Y-1143706D01*
X-2501099Y-2539293D01*
X-2247099Y-2793293D01*
X-2247099Y-3623118D01*
X-2257067Y-3613150D01*
X-2314933Y-3613150D01*
X-2355850Y-3654067D01*
X-2355850Y-3711933D01*
X-2314933Y-3752850D01*
X-2257067Y-3752850D01*
X-2247099Y-3742882D01*
X-2247099Y-3745794D01*
X-2158294Y-3834599D01*
X-1993099Y-3834599D01*
X-1993099Y-4223968D01*
X-2037966Y-4179101D01*
X-2153034Y-4179101D01*
X-2175894Y-4201961D01*
X-3888937Y-4201961D01*
X-3947961Y-4142937D01*
X-3947961Y-2551899D01*
X-3879466Y-2551899D01*
X-3798101Y-2470534D01*
X-3798101Y-2355466D01*
X-3820962Y-2332605D01*
X-3820962Y-1709471D01*
X-3804034Y-1726399D01*
X-3688966Y-1726399D01*
X-3625466Y-1662899D01*
X-3390099Y-1662899D01*
X-3390099Y-2285293D01*
X-3110793Y-2564599D01*
X-3009099Y-2564599D01*
X-3009099Y-3237794D01*
X-2920294Y-3326599D01*
X-2794706Y-3326599D01*
X-2705901Y-3237794D01*
X-2705901Y-2790382D01*
X-2695933Y-2800350D01*
X-2638067Y-2800350D01*
X-2597150Y-2759433D01*
X-2597150Y-2701567D01*
X-2638067Y-2660650D01*
X-2695933Y-2660650D01*
X-2705901Y-2670618D01*
X-2705901Y-2159706D01*
X-2794706Y-2070901D01*
X-2920294Y-2070901D01*
X-3009099Y-2159706D01*
X-3009099Y-2237509D01*
X-3086901Y-2159707D01*
X-3086901Y-1853399D01*
X-2990467Y-1853399D01*
X-2909101Y-1772033D01*
X-2909101Y-1466467D01*
X-2990467Y-1385101D01*
X-3740533Y-1385101D01*
X-3820962Y-1465529D01*
X-3820962Y-1254564D01*
X-3312961Y-746563D01*
X-3312961Y-138899D01*
X-3244466Y-138899D01*
X-3163101Y-57534D01*
X-3163101Y-25203D01*
X-2995461Y+142437D01*
X-2995461Y+608859D01*
X-2939551Y+552949D01*
X-3498850Y-1044933D02*
X-3498850Y-987067D01*
X-3457933Y-946150D01*
X-3400067Y-946150D01*
X-3359150Y-987067D01*
X-3359150Y-1044933D01*
X-3400067Y-1085850D01*
X-3457933Y-1085850D01*
X-3498850Y-1044933D01*
X-2609850Y-219433D02*
X-2609850Y-161567D01*
X-2568933Y-120650D01*
X-2511067Y-120650D01*
X-2470150Y-161567D01*
X-2470150Y-219433D01*
X-2511067Y-260350D01*
X-2568933Y-260350D01*
X-2609850Y-219433D01*
X-2927350Y-1044933D02*
X-2927350Y-987067D01*
X-2886433Y-946150D01*
X-2828567Y-946150D01*
X-2787650Y-987067D01*
X-2787650Y-1044933D01*
X-2828567Y-1085850D01*
X-2886433Y-1085850D01*
X-2927350Y-1044933D01*
X-2736850Y-3775433D02*
X-2736850Y-3717567D01*
X-2695933Y-3676650D01*
X-2638067Y-3676650D01*
X-2597150Y-3717567D01*
X-2597150Y-3775433D01*
X-2638067Y-3816350D01*
X-2695933Y-3816350D01*
X-2736850Y-3775433D01*
X+4641466Y+1385101D02*
X+4709961Y+1385101D01*
X+4709961Y-2682437D01*
X+4434038Y-2958360D01*
X+4434038Y-397895D01*
X+4456899Y-375034D01*
X+4456899Y-297699D01*
X+4578576Y-297699D01*
X+4689699Y-186576D01*
X+4689699Y-29424D01*
X+4641275Y+19000D01*
X+4689699Y+67424D01*
X+4689699Y+224576D01*
X+4641275Y+273000D01*
X+4689699Y+321424D01*
X+4689699Y+478576D01*
X+4641275Y+527000D01*
X+4689699Y+575424D01*
X+4689699Y+732576D01*
X+4641275Y+781000D01*
X+4689699Y+829424D01*
X+4689699Y+986576D01*
X+4641275Y+1035000D01*
X+4689699Y+1083424D01*
X+4689699Y+1240576D01*
X+4666761Y+1263513D01*
X+4651599Y+1316581D01*
X+4651599Y+1370893D01*
X+4614531Y+1407961D01*
X+4618606Y+1407961D01*
X+4641466Y+1385101D01*
X+264961Y-1905000D02*
X+264961Y-1953063D01*
X+836461Y-2524563D01*
X+836461Y-2642401D01*
X+762706Y-2642401D01*
X+673901Y-2731206D01*
X+673901Y-3099601D01*
X+577466Y-3099601D01*
X+496101Y-3180966D01*
X+496101Y-3296034D01*
X+518961Y-3318894D01*
X+518961Y-3820961D01*
X+370039Y-3820961D01*
X+370039Y-3509394D01*
X+392899Y-3486534D01*
X+392899Y-3371466D01*
X+311534Y-3290101D01*
X+196466Y-3290101D01*
X+174334Y-3312233D01*
X-10961Y-3126937D01*
X-10961Y-2883642D01*
X+115101Y-3009704D01*
X+115101Y-3042034D01*
X+196466Y-3123399D01*
X+311534Y-3123399D01*
X+392899Y-3042034D01*
X+392899Y-2926966D01*
X+329783Y-2863850D01*
X+346433Y-2863850D01*
X+387350Y-2822933D01*
X+387350Y-2765067D01*
X+346433Y-2724150D01*
X+288567Y-2724150D01*
X+247650Y-2765067D01*
X+247650Y-2814049D01*
X+116039Y-2682438D01*
X+116039Y-2678899D01*
X+184534Y-2678899D01*
X+265899Y-2597534D01*
X+265899Y-2482466D01*
X+243039Y-2459606D01*
X+243039Y-1530350D01*
X+264961Y-1530350D01*
X+264961Y-1905000D01*
X+2263961Y-3888563D02*
X+2263961Y-4019804D01*
X+2177601Y-4106164D01*
X+2177601Y-4241601D01*
X+2042164Y-4241601D01*
X+2021039Y-4262726D01*
X+2021039Y-3645641D01*
X+2263961Y-3888563D01*
X+2431601Y-4527836D02*
X+2550164Y-4646399D01*
X+2717836Y-4646399D01*
X+2741461Y-4622774D01*
X+2741461Y-6153150D01*
X+2701567Y-6153150D01*
X+2660650Y-6194067D01*
X+2660650Y-6243601D01*
X+2492039Y-6243601D01*
X+2492039Y-5756937D01*
X+2021039Y-5285937D01*
X+2021039Y-4625274D01*
X+2042164Y-4646399D01*
X+2209836Y-4646399D01*
X+2328399Y-4527836D01*
X+2328399Y-4392399D01*
X+2431601Y-4392399D01*
X+2431601Y-4527836D01*
X+3566961Y-4872606D02*
X+3544101Y-4895466D01*
X+3544101Y-5010534D01*
X+3625466Y-5091899D01*
X+3693961Y-5091899D01*
X+3693961Y-5375063D01*
X+3888937Y-5570039D01*
X+4082734Y-5570039D01*
X+4103960Y-5581765D01*
X+4056301Y-5629424D01*
X+4056301Y-5786576D01*
X+4059186Y-5789461D01*
X+3477063Y-5789461D01*
X+3410318Y-5722716D01*
X+3410318Y-4139399D01*
X+3486534Y-4139399D01*
X+3566961Y-4058972D01*
X+3566961Y-4872606D01*
X+1661961Y-6150063D02*
X+1919601Y-6407703D01*
X+1919601Y-6805461D01*
X+1572063Y-6805461D01*
X+1513039Y-6746437D01*
X+1513039Y-5155399D01*
X+1581534Y-5155399D01*
X+1661961Y-5074972D01*
X+1661961Y-6150063D01*
D14*
X-5008999Y+1103000D02*
X-4859000Y+1103000D01*
X-5008999Y+1103000D02*
X-4859000Y+1103000D01*
X-4859000Y+1202999D02*
X-4859000Y+1103000D01*
X-5008999Y+237000D02*
X-4859000Y+237000D01*
X-5008999Y+237000D02*
X-4859000Y+237000D01*
X-4859000Y+137001D02*
X-4859000Y+237000D01*
X-5277012Y+1197999D02*
X-5277012Y+1103000D01*
X-5277012Y+1008001D02*
X-5277012Y+1103000D01*
X-5277012Y+331999D02*
X-5277012Y+237000D01*
X-5277012Y+142001D02*
X-5277012Y+237000D01*
X+4246000Y+5353101D02*
X+4246000Y+5492000D01*
X+4638899Y+5492000D02*
X+4500000Y+5492000D01*
X-4537501Y-4830000D02*
X-4700000Y-4830000D01*
X-4862499Y-4830000D02*
X-4700000Y-4830000D01*
X-4700000Y-4555001D02*
X-4700000Y-4830000D01*
X-4125001Y-5300000D02*
X-4400000Y-5300000D01*
X-4674999Y-5300000D02*
X-4400000Y-5300000D01*
X-4400000Y-5137501D02*
X-4400000Y-5300000D01*
X-4400000Y-5462499D02*
X-4400000Y-5300000D01*
X+4638899Y-108000D02*
X+4500000Y-108000D01*
X+4500000Y-246899D02*
X+4500000Y-108000D01*
X+4107101Y-5708000D02*
X+4246000Y-5708000D01*
X-633000Y-5607101D02*
X-633000Y-5746000D01*
X-771899Y-5746000D02*
X-633000Y-5746000D01*
X-633000Y-6138899D02*
X-633000Y-6000000D01*
X-771899Y-6000000D02*
X-633000Y-6000000D01*
X+1970401Y-6700000D02*
X+2122000Y-6700000D01*
X+1461101Y-129000D02*
X+1600000Y-129000D01*
X+2985101Y+125000D02*
X+3124000Y+125000D01*
X-1299101Y+4076000D02*
X-1438000Y+4076000D01*
X+2117101Y+6673500D02*
X+2256000Y+6673500D01*
X+2256000Y+6534601D02*
X+2256000Y+6673500D01*
X+2256000Y+6812399D02*
X+2256000Y+6673500D01*
X+2267599Y+4056000D02*
X+2116000Y+4056000D01*
X+2116000Y+4207599D02*
X+2116000Y+4056000D01*
X+2116000Y+3904401D02*
X+2116000Y+4056000D01*
X+2277599Y-4444000D02*
X+2126000Y-4444000D01*
X+2126000Y-4292401D02*
X+2126000Y-4444000D01*
X+2126000Y-4595599D02*
X+2126000Y-4444000D01*
X-3562061Y+4200000D02*
X-3640000Y+4200000D01*
X-3562061Y+4600000D02*
X-3640000Y+4600000D01*
X-4721401Y+7500000D02*
X-5000000Y+7500000D01*
X-5000000Y+7221401D02*
X-5000000Y+7500000D01*
X+5278599Y+7500000D02*
X+5000000Y+7500000D01*
X+5000000Y+7221401D02*
X+5000000Y+7500000D01*
X+5000000Y+7778599D02*
X+5000000Y+7500000D01*
X-5278599Y-6500000D02*
X-5000000Y-6500000D01*
X-4721401Y-6500000D02*
X-5000000Y-6500000D01*
X-5000000Y-6778599D02*
X-5000000Y-6500000D01*
X-5000000Y-6221401D02*
X-5000000Y-6500000D01*
X+4721401Y-6500000D02*
X+5000000Y-6500000D01*
X+5278599Y-6500000D02*
X+5000000Y-6500000D01*
X+5000000Y-6778599D02*
X+5000000Y-6500000D01*
X+5000000Y-6221401D02*
X+5000000Y-6500000D01*
D17*
X-4907000Y+959000D03*
X-4907000Y+381000D03*
D18*
X-4859000Y+1103000D03*
X-4859000Y+237000D03*
D19*
X-5277012Y+1103000D03*
X-5277012Y+237000D03*
D70*
X+2400000Y+7700000D03*
X+2654000Y+7700000D03*
X+2908000Y+7700000D03*
X+3162000Y+7700000D03*
X+3416000Y+7700000D03*
X+3670000Y+7700000D03*
X+3924000Y+7700000D03*
X+4178000Y+7700000D03*
X+200000Y+7700000D03*
X+454000Y+7700000D03*
X+708000Y+7700000D03*
X+962000Y+7700000D03*
X+1216000Y+7700000D03*
X+1470000Y+7700000D03*
X+1724000Y+7700000D03*
X+1978000Y+7700000D03*
X-2000000Y+7700000D03*
X-1746000Y+7700000D03*
X-1492000Y+7700000D03*
X-1238000Y+7700000D03*
X-984000Y+7700000D03*
X-730000Y+7700000D03*
X-476000Y+7700000D03*
X-222000Y+7700000D03*
X-4200000Y+7700000D03*
X-3946000Y+7700000D03*
X-3692000Y+7700000D03*
X-3438000Y+7700000D03*
X-3184000Y+7700000D03*
X-2930000Y+7700000D03*
X-2676000Y+7700000D03*
X-2422000Y+7700000D03*
D71*
X+4246000Y+6762000D03*
X+4500000Y+6762000D03*
X+4246000Y+6508000D03*
X+4500000Y+6508000D03*
X+4246000Y+6254000D03*
X+4500000Y+6254000D03*
X+4246000Y+6000000D03*
X+4500000Y+6000000D03*
X+4246000Y+5746000D03*
X+4500000Y+5746000D03*
X+4246000Y+5492000D03*
X+4500000Y+5492000D03*
D20*
X-4100000Y-4830000D03*
D21*
X-4700000Y-4830000D03*
D22*
X-4400000Y-5300000D03*
D71*
X+4246000Y+1162000D03*
X+4500000Y+1162000D03*
X+4246000Y+908000D03*
X+4500000Y+908000D03*
X+4246000Y+654000D03*
X+4500000Y+654000D03*
X+4246000Y+400000D03*
X+4500000Y+400000D03*
X+4246000Y+146000D03*
X+4500000Y+146000D03*
X+4246000Y-108000D03*
X+4500000Y-108000D03*
X+4246000Y-4438000D03*
X+4500000Y-4438000D03*
X+4246000Y-4692000D03*
X+4500000Y-4692000D03*
X+4246000Y-4946000D03*
X+4500000Y-4946000D03*
X+4246000Y-5200000D03*
X+4500000Y-5200000D03*
X+4246000Y-5454000D03*
X+4500000Y-5454000D03*
X+4246000Y-5708000D03*
X+4500000Y-5708000D03*
X+637000Y-5746000D03*
X+637000Y-6000000D03*
X+383000Y-5746000D03*
X+383000Y-6000000D03*
X+129000Y-5746000D03*
X+129000Y-6000000D03*
X-125000Y-5746000D03*
X-125000Y-6000000D03*
X-379000Y-5746000D03*
X-379000Y-6000000D03*
X-633000Y-5746000D03*
X-633000Y-6000000D03*
D25*
X-4900000Y-3080000D03*
D26*
X-4700000Y-3080000D03*
X-4500000Y-3080000D03*
D25*
X-4900000Y-3580000D03*
X-4700000Y-3580000D03*
X-4500000Y-3580000D03*
D27*
X-5200000Y+6662000D03*
X-5200000Y+6408000D03*
X-5200000Y+6154000D03*
X-5200000Y+5900000D03*
X-5200000Y+5646000D03*
X-5200000Y+5392000D03*
X+2630000Y-6700000D03*
X+2376000Y-6700000D03*
X+2122000Y-6700000D03*
X+2630000Y-6446000D03*
X+2376000Y-6446000D03*
X+2122000Y-6446000D03*
D26*
X+1600000Y+2411000D03*
X+1600000Y+2157000D03*
X+1600000Y+1903000D03*
X+1600000Y+1649000D03*
X+1600000Y+1395000D03*
X+1600000Y+1141000D03*
X+1600000Y+887000D03*
X+1600000Y+633000D03*
X+1600000Y+379000D03*
X+1600000Y+125000D03*
X+1600000Y-129000D03*
X+1600000Y-383000D03*
X+1600000Y-637000D03*
X+1600000Y-891000D03*
X+1600000Y-1145000D03*
X+1600000Y-1399000D03*
X+1600000Y-1653000D03*
X+1600000Y-1907000D03*
X+1600000Y-2161000D03*
X+1600000Y-2415000D03*
X+3124000Y-2415000D03*
X+3124000Y-2161000D03*
X+3124000Y-1907000D03*
X+3124000Y-1653000D03*
X+3124000Y-1399000D03*
X+3124000Y-1145000D03*
X+3124000Y-891000D03*
X+3124000Y-637000D03*
X+3124000Y-383000D03*
X+3124000Y-129000D03*
X+3124000Y+125000D03*
X+3124000Y+379000D03*
X+3124000Y+633000D03*
X+3124000Y+887000D03*
X+3124000Y+1141000D03*
X+3124000Y+1395000D03*
X+3124000Y+1649000D03*
X+3124000Y+1903000D03*
X+3124000Y+2157000D03*
X+3124000Y+2411000D03*
D28*
X-2200000Y+5600000D03*
D26*
X-2200000Y+5346000D03*
X-2200000Y+5092000D03*
X-2200000Y+4838000D03*
X-2200000Y+4584000D03*
X-2200000Y+4330000D03*
X-2200000Y+4076000D03*
X-2200000Y+3822000D03*
X-2200000Y+3568000D03*
X-2200000Y+3314000D03*
X-2200000Y+3060000D03*
X-2200000Y+2806000D03*
X-2200000Y+2552000D03*
X-2200000Y+2298000D03*
X-1438000Y+2298000D03*
X-1438000Y+2552000D03*
X-1438000Y+2806000D03*
X-1438000Y+3060000D03*
X-1438000Y+3314000D03*
X-1438000Y+3568000D03*
X-1438000Y+3822000D03*
X-1438000Y+4076000D03*
X-1438000Y+4330000D03*
X-1438000Y+4584000D03*
X-1438000Y+4838000D03*
X-1438000Y+5092000D03*
X-1438000Y+5346000D03*
X-1438000Y+5598000D03*
X+2510000Y+6673500D03*
X+2510000Y+5911500D03*
X+2256000Y+6673500D03*
X+2256000Y+5911500D03*
D72*
X+2624000Y+4056000D03*
X+2116000Y+4056000D03*
X+2370000Y+4310000D03*
D26*
X-1378000Y+892000D03*
X-1378000Y+638000D03*
X-1378000Y+384000D03*
X-1378000Y+130000D03*
X-616000Y+130000D03*
X-616000Y+384000D03*
X-616000Y+638000D03*
X-616000Y+892000D03*
D72*
X+2634000Y-4444000D03*
X+2126000Y-4444000D03*
X+2380000Y-4190000D03*
D49*
X-3740000Y+4800000D03*
X-3640000Y+4800000D03*
X-3740000Y+5000000D03*
X-3640000Y+5000000D03*
X-3740000Y+5200000D03*
X-3640000Y+5200000D03*
X-3740000Y+4200000D03*
X-3640000Y+4200000D03*
X-3740000Y+4400000D03*
X-3640000Y+4400000D03*
X-3740000Y+4600000D03*
X-3640000Y+4600000D03*
X-3900000Y+1000000D03*
X-3800000Y+1000000D03*
X-3900000Y+766666D03*
X-3800000Y+766666D03*
X-3900000Y+533333D03*
X-3800000Y+533333D03*
X-3900000Y+300000D03*
X-3800000Y+300000D03*
D46*
X-5000000Y+7500000D03*
X+5000000Y+7500000D03*
X-5000000Y-6500000D03*
X+5000000Y-6500000D03*
D47*
X+5500000Y-6900000D02*
X+5498010Y-6920447D01*
X+5492285Y-6939355D01*
X+5471094Y-6971094D01*
X+5439356Y-6992285D01*
X+5420447Y-6998010D01*
X+5400000Y-7000000D01*
X-5500000Y-6900000D02*
X-5498010Y-6920447D01*
X-5492285Y-6939355D01*
X-5471094Y-6971094D01*
X-5439356Y-6992285D01*
X-5420447Y-6998010D01*
X-5400000Y-7000000D01*
X+5400000Y+8000000D02*
X+5420447Y+7998010D01*
X+5439356Y+7992285D01*
X+5471094Y+7971094D01*
X+5492285Y+7939355D01*
X+5498010Y+7920447D01*
X+5500000Y+7900000D01*
X-5400000Y+8000000D02*
X-5420447Y+7998010D01*
X-5439356Y+7992285D01*
X-5471094Y+7971094D01*
X-5492285Y+7939355D01*
X-5498010Y+7920447D01*
X-5500000Y+7900000D01*
X-5400000Y+8000000D02*
X+5400000Y+8000000D01*
X+5500000Y+7900000D02*
X+5500000Y-6900000D01*
X+5400000Y-7000000D02*
X-5400000Y-7000000D01*
X-5500000Y-6900000D02*
X-5500000Y+7900000D01*
M02*
