G04 PROTEUS GERBER X2 FILE*
%TF.GenerationSoftware,Labcenter,Proteus,8.15-SP0-Build33980*%
%TF.CreationDate,2023-03-15T16:04:22+00:00*%
%TF.FileFunction,Legend,Top*%
%TF.FilePolarity,Positive*%
%TF.Part,Single*%
%TF.SameCoordinates,{4545a914-5e6f-4f91-a9de-dead5439e7db}*%
%FSLAX45Y45*%
%MOMM*%
G01*
%TA.AperFunction,Material*%
%ADD50C,0.127000*%
%ADD51C,0.200000*%
%ADD52C,0.101600*%
%TA.AperFunction,Profile*%
%ADD47C,0.101600*%
%TA.AperFunction,Material*%
%ADD53C,0.508000*%
%ADD54C,0.152400*%
%ADD55C,0.400000*%
%ADD56C,0.250000*%
%TD.AperFunction*%
D50*
X-5486000Y+1117000D02*
X-5400000Y+1117000D01*
X-5486000Y+223000D02*
X-5400000Y+223000D01*
X-5486000Y+1117000D02*
X-5486000Y+223000D01*
X-4991008Y+1117000D02*
X-5155000Y+1117000D01*
X-4991008Y+223000D02*
X-5155000Y+223000D01*
D51*
X-4789500Y+1227500D02*
X-4789536Y+1228373D01*
X-4789832Y+1230120D01*
X-4790451Y+1231867D01*
X-4791464Y+1233614D01*
X-4793012Y+1235337D01*
X-4794759Y+1236598D01*
X-4796506Y+1237402D01*
X-4798253Y+1237854D01*
X-4800000Y+1238000D01*
X-4810500Y+1227500D02*
X-4810464Y+1228373D01*
X-4810168Y+1230120D01*
X-4809549Y+1231867D01*
X-4808536Y+1233614D01*
X-4806988Y+1235337D01*
X-4805241Y+1236598D01*
X-4803494Y+1237402D01*
X-4801747Y+1237854D01*
X-4800000Y+1238000D01*
X-4810500Y+1227500D02*
X-4810464Y+1226627D01*
X-4810168Y+1224880D01*
X-4809549Y+1223133D01*
X-4808536Y+1221386D01*
X-4806988Y+1219663D01*
X-4805241Y+1218402D01*
X-4803494Y+1217598D01*
X-4801747Y+1217146D01*
X-4800000Y+1217000D01*
X-4789500Y+1227500D02*
X-4789536Y+1226627D01*
X-4789832Y+1224880D01*
X-4790451Y+1223133D01*
X-4791464Y+1221386D01*
X-4793012Y+1219663D01*
X-4794759Y+1218402D01*
X-4796506Y+1217598D01*
X-4798253Y+1217146D01*
X-4800000Y+1217000D01*
D52*
X-4703300Y+597324D02*
X-4690600Y+597324D01*
X-4677900Y+610659D01*
X-4677900Y+663999D01*
X-4690600Y+677334D01*
X-4754100Y+677334D01*
X-4728700Y+730674D02*
X-4754100Y+757344D01*
X-4677900Y+757344D01*
X+2273000Y+7509500D02*
X+4305000Y+7509500D01*
X+4305000Y+7890500D01*
X+2273000Y+7890500D01*
X+2273000Y+7509500D01*
X+3182320Y+7946380D02*
X+3182320Y+7933680D01*
X+3195655Y+7920980D01*
X+3248995Y+7920980D01*
X+3262330Y+7933680D01*
X+3262330Y+7997180D01*
X+3302335Y+7997180D02*
X+3369010Y+7997180D01*
X+3369010Y+7984480D01*
X+3302335Y+7920980D01*
X+73000Y+7509500D02*
X+2105000Y+7509500D01*
X+2105000Y+7890500D01*
X+73000Y+7890500D01*
X+73000Y+7509500D01*
X+982320Y+7946380D02*
X+982320Y+7933680D01*
X+995655Y+7920980D01*
X+1048995Y+7920980D01*
X+1062330Y+7933680D01*
X+1062330Y+7997180D01*
X+1115670Y+7959080D02*
X+1102335Y+7971780D01*
X+1102335Y+7984480D01*
X+1115670Y+7997180D01*
X+1155675Y+7997180D01*
X+1169010Y+7984480D01*
X+1169010Y+7971780D01*
X+1155675Y+7959080D01*
X+1115670Y+7959080D01*
X+1102335Y+7946380D01*
X+1102335Y+7933680D01*
X+1115670Y+7920980D01*
X+1155675Y+7920980D01*
X+1169010Y+7933680D01*
X+1169010Y+7946380D01*
X+1155675Y+7959080D01*
X-2127000Y+7509500D02*
X-95000Y+7509500D01*
X-95000Y+7890500D01*
X-2127000Y+7890500D01*
X-2127000Y+7509500D01*
X-1217680Y+7946380D02*
X-1217680Y+7933680D01*
X-1204345Y+7920980D01*
X-1151005Y+7920980D01*
X-1137670Y+7933680D01*
X-1137670Y+7997180D01*
X-1030990Y+7971780D02*
X-1044325Y+7959080D01*
X-1084330Y+7959080D01*
X-1097665Y+7971780D01*
X-1097665Y+7984480D01*
X-1084330Y+7997180D01*
X-1044325Y+7997180D01*
X-1030990Y+7984480D01*
X-1030990Y+7933680D01*
X-1044325Y+7920980D01*
X-1084330Y+7920980D01*
X-4327000Y+7509500D02*
X-2295000Y+7509500D01*
X-2295000Y+7890500D01*
X-4327000Y+7890500D01*
X-4327000Y+7509500D01*
X-3471020Y+7946380D02*
X-3471020Y+7933680D01*
X-3457685Y+7920980D01*
X-3404345Y+7920980D01*
X-3391010Y+7933680D01*
X-3391010Y+7997180D01*
X-3337670Y+7971780D02*
X-3311000Y+7997180D01*
X-3311000Y+7920980D01*
X-3257660Y+7933680D02*
X-3257660Y+7984480D01*
X-3244325Y+7997180D01*
X-3190985Y+7997180D01*
X-3177650Y+7984480D01*
X-3177650Y+7933680D01*
X-3190985Y+7920980D01*
X-3244325Y+7920980D01*
X-3257660Y+7933680D01*
X-3257660Y+7920980D02*
X-3177650Y+7997180D01*
D47*
X+5500000Y-6900000D02*
X+5498010Y-6920447D01*
X+5492285Y-6939355D01*
X+5471094Y-6971094D01*
X+5439356Y-6992285D01*
X+5420447Y-6998010D01*
X+5400000Y-7000000D01*
X-5500000Y-6900000D02*
X-5498010Y-6920447D01*
X-5492285Y-6939355D01*
X-5471094Y-6971094D01*
X-5439356Y-6992285D01*
X-5420447Y-6998010D01*
X-5400000Y-7000000D01*
X+5400000Y+8000000D02*
X+5420447Y+7998010D01*
X+5439356Y+7992285D01*
X+5471094Y+7971094D01*
X+5492285Y+7939355D01*
X+5498010Y+7920447D01*
X+5500000Y+7900000D01*
X-5400000Y+8000000D02*
X-5420447Y+7998010D01*
X-5439356Y+7992285D01*
X-5471094Y+7971094D01*
X-5492285Y+7939355D01*
X-5498010Y+7920447D01*
X-5500000Y+7900000D01*
X-5400000Y+8000000D02*
X+5400000Y+8000000D01*
X+5500000Y+7900000D02*
X+5500000Y-6900000D01*
X+5400000Y-7000000D02*
X-5400000Y-7000000D01*
X-5500000Y-6900000D02*
X-5500000Y+7900000D01*
D53*
X+4093600Y+6762000D02*
X+4093469Y+6765158D01*
X+4092403Y+6771476D01*
X+4090172Y+6777794D01*
X+4086527Y+6784112D01*
X+4080952Y+6790351D01*
X+4074634Y+6794947D01*
X+4068316Y+6797880D01*
X+4061998Y+6799542D01*
X+4055680Y+6800100D01*
X+4055500Y+6800100D01*
X+4017400Y+6762000D02*
X+4017531Y+6765158D01*
X+4018597Y+6771476D01*
X+4020828Y+6777794D01*
X+4024473Y+6784112D01*
X+4030048Y+6790351D01*
X+4036366Y+6794947D01*
X+4042684Y+6797880D01*
X+4049002Y+6799542D01*
X+4055320Y+6800100D01*
X+4055500Y+6800100D01*
X+4017400Y+6762000D02*
X+4017531Y+6758842D01*
X+4018597Y+6752524D01*
X+4020828Y+6746206D01*
X+4024473Y+6739888D01*
X+4030048Y+6733649D01*
X+4036366Y+6729053D01*
X+4042684Y+6726120D01*
X+4049002Y+6724458D01*
X+4055320Y+6723900D01*
X+4055500Y+6723900D01*
X+4093600Y+6762000D02*
X+4093469Y+6758842D01*
X+4092403Y+6752524D01*
X+4090172Y+6746206D01*
X+4086527Y+6739888D01*
X+4080952Y+6733649D01*
X+4074634Y+6729053D01*
X+4068316Y+6726120D01*
X+4061998Y+6724458D01*
X+4055680Y+6723900D01*
X+4055500Y+6723900D01*
D54*
X+4042800Y+7244600D02*
X+4042800Y+5001400D01*
X+4703200Y+5001400D01*
X+4703200Y+7244600D01*
X+4042800Y+7244600D01*
D52*
X+4787020Y+6021320D02*
X+4799720Y+6021320D01*
X+4812420Y+6034655D01*
X+4812420Y+6087995D01*
X+4799720Y+6101330D01*
X+4736220Y+6101330D01*
X+4748920Y+6141335D02*
X+4736220Y+6154670D01*
X+4736220Y+6194675D01*
X+4748920Y+6208010D01*
X+4761620Y+6208010D01*
X+4774320Y+6194675D01*
X+4774320Y+6154670D01*
X+4787020Y+6141335D01*
X+4812420Y+6141335D01*
X+4812420Y+6208010D01*
D50*
X-5470000Y-5280000D02*
X-5470000Y-4380000D01*
X-4030000Y-4380000D01*
X-4030000Y-5280000D02*
X-4145000Y-5280000D01*
X-4030000Y-4380000D02*
X-4030000Y-4565000D01*
X-4654990Y-5280000D02*
X-5470000Y-5280000D01*
X-4030000Y-5085000D02*
X-4030000Y-5280000D01*
D55*
X-3880000Y-4830000D02*
X-3880069Y-4828339D01*
X-3880631Y-4825015D01*
X-3881808Y-4821691D01*
X-3883731Y-4818367D01*
X-3886673Y-4815087D01*
X-3889997Y-4812681D01*
X-3893321Y-4811148D01*
X-3896645Y-4810283D01*
X-3899969Y-4810000D01*
X-3900000Y-4810000D01*
X-3920000Y-4830000D02*
X-3919931Y-4828339D01*
X-3919369Y-4825015D01*
X-3918192Y-4821691D01*
X-3916269Y-4818367D01*
X-3913327Y-4815087D01*
X-3910003Y-4812681D01*
X-3906679Y-4811148D01*
X-3903355Y-4810283D01*
X-3900031Y-4810000D01*
X-3900000Y-4810000D01*
X-3920000Y-4830000D02*
X-3919931Y-4831661D01*
X-3919369Y-4834985D01*
X-3918192Y-4838309D01*
X-3916269Y-4841633D01*
X-3913327Y-4844913D01*
X-3910003Y-4847319D01*
X-3906679Y-4848852D01*
X-3903355Y-4849717D01*
X-3900031Y-4850000D01*
X-3900000Y-4850000D01*
X-3880000Y-4830000D02*
X-3880069Y-4831661D01*
X-3880631Y-4834985D01*
X-3881808Y-4838309D01*
X-3883731Y-4841633D01*
X-3886673Y-4844913D01*
X-3889997Y-4847319D01*
X-3893321Y-4848852D01*
X-3896645Y-4849717D01*
X-3899969Y-4850000D01*
X-3900000Y-4850000D01*
D52*
X-5527150Y-5004180D02*
X-5514450Y-5004180D01*
X-5501750Y-4990845D01*
X-5501750Y-4937505D01*
X-5514450Y-4924170D01*
X-5577950Y-4924170D01*
X-5565250Y-4884165D02*
X-5577950Y-4870830D01*
X-5577950Y-4830825D01*
X-5565250Y-4817490D01*
X-5552550Y-4817490D01*
X-5539850Y-4830825D01*
X-5527150Y-4817490D01*
X-5514450Y-4817490D01*
X-5501750Y-4830825D01*
X-5501750Y-4870830D01*
X-5514450Y-4884165D01*
X-5539850Y-4857495D02*
X-5539850Y-4830825D01*
D53*
X+4093600Y+1162000D02*
X+4093469Y+1165158D01*
X+4092403Y+1171476D01*
X+4090172Y+1177794D01*
X+4086527Y+1184112D01*
X+4080952Y+1190351D01*
X+4074634Y+1194947D01*
X+4068316Y+1197880D01*
X+4061998Y+1199542D01*
X+4055680Y+1200100D01*
X+4055500Y+1200100D01*
X+4017400Y+1162000D02*
X+4017531Y+1165158D01*
X+4018597Y+1171476D01*
X+4020828Y+1177794D01*
X+4024473Y+1184112D01*
X+4030048Y+1190351D01*
X+4036366Y+1194947D01*
X+4042684Y+1197880D01*
X+4049002Y+1199542D01*
X+4055320Y+1200100D01*
X+4055500Y+1200100D01*
X+4017400Y+1162000D02*
X+4017531Y+1158842D01*
X+4018597Y+1152524D01*
X+4020828Y+1146206D01*
X+4024473Y+1139888D01*
X+4030048Y+1133649D01*
X+4036366Y+1129053D01*
X+4042684Y+1126120D01*
X+4049002Y+1124458D01*
X+4055320Y+1123900D01*
X+4055500Y+1123900D01*
X+4093600Y+1162000D02*
X+4093469Y+1158842D01*
X+4092403Y+1152524D01*
X+4090172Y+1146206D01*
X+4086527Y+1139888D01*
X+4080952Y+1133649D01*
X+4074634Y+1129053D01*
X+4068316Y+1126120D01*
X+4061998Y+1124458D01*
X+4055680Y+1123900D01*
X+4055500Y+1123900D01*
D54*
X+4042800Y+1644600D02*
X+4042800Y-598600D01*
X+4703200Y-598600D01*
X+4703200Y+1644600D01*
X+4042800Y+1644600D01*
D52*
X+4787020Y+421320D02*
X+4799720Y+421320D01*
X+4812420Y+434655D01*
X+4812420Y+487995D01*
X+4799720Y+501330D01*
X+4736220Y+501330D01*
X+4787020Y+608010D02*
X+4787020Y+528000D01*
X+4736220Y+581340D01*
X+4812420Y+581340D01*
D53*
X+4093600Y-4438000D02*
X+4093469Y-4434842D01*
X+4092403Y-4428524D01*
X+4090172Y-4422206D01*
X+4086527Y-4415888D01*
X+4080952Y-4409649D01*
X+4074634Y-4405053D01*
X+4068316Y-4402120D01*
X+4061998Y-4400458D01*
X+4055680Y-4399900D01*
X+4055500Y-4399900D01*
X+4017400Y-4438000D02*
X+4017531Y-4434842D01*
X+4018597Y-4428524D01*
X+4020828Y-4422206D01*
X+4024473Y-4415888D01*
X+4030048Y-4409649D01*
X+4036366Y-4405053D01*
X+4042684Y-4402120D01*
X+4049002Y-4400458D01*
X+4055320Y-4399900D01*
X+4055500Y-4399900D01*
X+4017400Y-4438000D02*
X+4017531Y-4441158D01*
X+4018597Y-4447476D01*
X+4020828Y-4453794D01*
X+4024473Y-4460112D01*
X+4030048Y-4466351D01*
X+4036366Y-4470947D01*
X+4042684Y-4473880D01*
X+4049002Y-4475542D01*
X+4055320Y-4476100D01*
X+4055500Y-4476100D01*
X+4093600Y-4438000D02*
X+4093469Y-4441158D01*
X+4092403Y-4447476D01*
X+4090172Y-4453794D01*
X+4086527Y-4460112D01*
X+4080952Y-4466351D01*
X+4074634Y-4470947D01*
X+4068316Y-4473880D01*
X+4061998Y-4475542D01*
X+4055680Y-4476100D01*
X+4055500Y-4476100D01*
D54*
X+4042800Y-3955400D02*
X+4042800Y-6198600D01*
X+4703200Y-6198600D01*
X+4703200Y-3955400D01*
X+4042800Y-3955400D01*
D52*
X+4787020Y-5178680D02*
X+4799720Y-5178680D01*
X+4812420Y-5165345D01*
X+4812420Y-5112005D01*
X+4799720Y-5098670D01*
X+4736220Y-5098670D01*
X+4736220Y-4991990D02*
X+4736220Y-5058665D01*
X+4761620Y-5058665D01*
X+4761620Y-5005325D01*
X+4774320Y-4991990D01*
X+4799720Y-4991990D01*
X+4812420Y-5005325D01*
X+4812420Y-5045330D01*
X+4799720Y-5058665D01*
D53*
X+675100Y-5555500D02*
X+674969Y-5552342D01*
X+673903Y-5546024D01*
X+671672Y-5539706D01*
X+668027Y-5533388D01*
X+662452Y-5527149D01*
X+656134Y-5522553D01*
X+649816Y-5519620D01*
X+643498Y-5517958D01*
X+637180Y-5517400D01*
X+637000Y-5517400D01*
X+598900Y-5555500D02*
X+599031Y-5552342D01*
X+600097Y-5546024D01*
X+602328Y-5539706D01*
X+605973Y-5533388D01*
X+611548Y-5527149D01*
X+617866Y-5522553D01*
X+624184Y-5519620D01*
X+630502Y-5517958D01*
X+636820Y-5517400D01*
X+637000Y-5517400D01*
X+598900Y-5555500D02*
X+599031Y-5558658D01*
X+600097Y-5564976D01*
X+602328Y-5571294D01*
X+605973Y-5577612D01*
X+611548Y-5583851D01*
X+617866Y-5588447D01*
X+624184Y-5591380D01*
X+630502Y-5593042D01*
X+636820Y-5593600D01*
X+637000Y-5593600D01*
X+675100Y-5555500D02*
X+674969Y-5558658D01*
X+673903Y-5564976D01*
X+671672Y-5571294D01*
X+668027Y-5577612D01*
X+662452Y-5583851D01*
X+656134Y-5588447D01*
X+649816Y-5591380D01*
X+643498Y-5593042D01*
X+637180Y-5593600D01*
X+637000Y-5593600D01*
D54*
X+1119600Y-5542800D02*
X-1123600Y-5542800D01*
X-1123600Y-6203200D01*
X+1119600Y-6203200D01*
X+1119600Y-5542800D01*
D52*
X-103680Y-6287020D02*
X-103680Y-6299720D01*
X-90345Y-6312420D01*
X-37005Y-6312420D01*
X-23670Y-6299720D01*
X-23670Y-6236220D01*
X+83010Y-6248920D02*
X+69675Y-6236220D01*
X+29670Y-6236220D01*
X+16335Y-6248920D01*
X+16335Y-6299720D01*
X+29670Y-6312420D01*
X+69675Y-6312420D01*
X+83010Y-6299720D01*
X+83010Y-6287020D01*
X+69675Y-6274320D01*
X+16335Y-6274320D01*
D51*
X-5045000Y+3375000D02*
X-5045035Y+3375831D01*
X-5045316Y+3377495D01*
X-5045906Y+3379159D01*
X-5046870Y+3380823D01*
X-5048345Y+3382464D01*
X-5050009Y+3383665D01*
X-5051673Y+3384430D01*
X-5053337Y+3384860D01*
X-5054999Y+3384999D01*
X-5064998Y+3375000D02*
X-5064963Y+3375831D01*
X-5064682Y+3377495D01*
X-5064092Y+3379159D01*
X-5063128Y+3380823D01*
X-5061653Y+3382464D01*
X-5059989Y+3383665D01*
X-5058325Y+3384430D01*
X-5056661Y+3384860D01*
X-5054999Y+3384999D01*
X-5064998Y+3375000D02*
X-5064963Y+3374169D01*
X-5064682Y+3372505D01*
X-5064092Y+3370841D01*
X-5063128Y+3369177D01*
X-5061653Y+3367536D01*
X-5059989Y+3366335D01*
X-5058325Y+3365570D01*
X-5056661Y+3365140D01*
X-5054999Y+3365001D01*
X-5045000Y+3375000D02*
X-5045035Y+3374169D01*
X-5045316Y+3372505D01*
X-5045906Y+3370841D01*
X-5046870Y+3369177D01*
X-5048345Y+3367536D01*
X-5050009Y+3366335D01*
X-5051673Y+3365570D01*
X-5053337Y+3365140D01*
X-5054999Y+3365001D01*
D50*
X-4950000Y+3427000D02*
X-4450000Y+3427000D01*
X-4450000Y+2913000D02*
X-4950000Y+2913000D01*
D52*
X-4835429Y+3458750D02*
X-4835429Y+3534950D01*
X-4782089Y+3534950D01*
X-4755419Y+3509550D01*
X-4755419Y+3484150D01*
X-4782089Y+3458750D01*
X-4835429Y+3458750D01*
X-4715414Y+3534950D02*
X-4648739Y+3534950D01*
X-4648739Y+3522250D01*
X-4715414Y+3458750D01*
D51*
X-5045000Y+2375000D02*
X-5045035Y+2375831D01*
X-5045316Y+2377495D01*
X-5045906Y+2379159D01*
X-5046870Y+2380823D01*
X-5048345Y+2382464D01*
X-5050009Y+2383665D01*
X-5051673Y+2384430D01*
X-5053337Y+2384860D01*
X-5054999Y+2384999D01*
X-5064998Y+2375000D02*
X-5064963Y+2375831D01*
X-5064682Y+2377495D01*
X-5064092Y+2379159D01*
X-5063128Y+2380823D01*
X-5061653Y+2382464D01*
X-5059989Y+2383665D01*
X-5058325Y+2384430D01*
X-5056661Y+2384860D01*
X-5054999Y+2384999D01*
X-5064998Y+2375000D02*
X-5064963Y+2374169D01*
X-5064682Y+2372505D01*
X-5064092Y+2370841D01*
X-5063128Y+2369177D01*
X-5061653Y+2367536D01*
X-5059989Y+2366335D01*
X-5058325Y+2365570D01*
X-5056661Y+2365140D01*
X-5054999Y+2365001D01*
X-5045000Y+2375000D02*
X-5045035Y+2374169D01*
X-5045316Y+2372505D01*
X-5045906Y+2370841D01*
X-5046870Y+2369177D01*
X-5048345Y+2367536D01*
X-5050009Y+2366335D01*
X-5051673Y+2365570D01*
X-5053337Y+2365140D01*
X-5054999Y+2365001D01*
D50*
X-4950000Y+2427000D02*
X-4450000Y+2427000D01*
X-4450000Y+1913000D02*
X-4950000Y+1913000D01*
D52*
X-4835429Y+2458750D02*
X-4835429Y+2534950D01*
X-4782089Y+2534950D01*
X-4755419Y+2509550D01*
X-4755419Y+2484150D01*
X-4782089Y+2458750D01*
X-4835429Y+2458750D01*
X-4648739Y+2534950D02*
X-4715414Y+2534950D01*
X-4715414Y+2509550D01*
X-4662074Y+2509550D01*
X-4648739Y+2496850D01*
X-4648739Y+2471450D01*
X-4662074Y+2458750D01*
X-4702079Y+2458750D01*
X-4715414Y+2471450D01*
X-4810020Y-1903400D02*
X-4810020Y-1966900D01*
X-4796685Y-1979600D01*
X-4743345Y-1979600D01*
X-4730010Y-1966900D01*
X-4730010Y-1903400D01*
X-4676670Y-1928800D02*
X-4650000Y-1903400D01*
X-4650000Y-1979600D01*
X-4569990Y-1928800D02*
X-4543320Y-1903400D01*
X-4543320Y-1979600D01*
D50*
X-4349988Y-2979988D02*
X-4349988Y-3680012D01*
X-5050012Y-3680012D02*
X-5050012Y-2979988D01*
D51*
X-4894000Y-2930000D02*
X-4894035Y-2929169D01*
X-4894316Y-2927505D01*
X-4894906Y-2925841D01*
X-4895870Y-2924177D01*
X-4897345Y-2922536D01*
X-4899009Y-2921335D01*
X-4900673Y-2920570D01*
X-4902337Y-2920139D01*
X-4904000Y-2920000D01*
X-4914000Y-2930000D02*
X-4913965Y-2929169D01*
X-4913684Y-2927505D01*
X-4913094Y-2925841D01*
X-4912130Y-2924177D01*
X-4910655Y-2922536D01*
X-4908991Y-2921335D01*
X-4907327Y-2920570D01*
X-4905663Y-2920139D01*
X-4904000Y-2920000D01*
X-4914000Y-2930000D02*
X-4913965Y-2930831D01*
X-4913684Y-2932495D01*
X-4913094Y-2934159D01*
X-4912130Y-2935823D01*
X-4910655Y-2937464D01*
X-4908991Y-2938665D01*
X-4907327Y-2939430D01*
X-4905663Y-2939861D01*
X-4904000Y-2940000D01*
X-4894000Y-2930000D02*
X-4894035Y-2930831D01*
X-4894316Y-2932495D01*
X-4894906Y-2934159D01*
X-4895870Y-2935823D01*
X-4897345Y-2937464D01*
X-4899009Y-2938665D01*
X-4900673Y-2939430D01*
X-4902337Y-2939861D01*
X-4904000Y-2940000D01*
D50*
X-5050012Y-2979988D02*
X-5000000Y-2979988D01*
X-4400000Y-2979988D02*
X-4349988Y-2979988D01*
X-5050012Y-3680012D02*
X-5000000Y-3680012D01*
X-4400000Y-3680012D02*
X-4349988Y-3680012D01*
D52*
X-4860020Y-2808400D02*
X-4860020Y-2871900D01*
X-4846685Y-2884600D01*
X-4793345Y-2884600D01*
X-4780010Y-2871900D01*
X-4780010Y-2808400D01*
X-4726670Y-2833800D02*
X-4700000Y-2808400D01*
X-4700000Y-2884600D01*
X-4633325Y-2821100D02*
X-4619990Y-2808400D01*
X-4579985Y-2808400D01*
X-4566650Y-2821100D01*
X-4566650Y-2833800D01*
X-4579985Y-2846500D01*
X-4619990Y-2846500D01*
X-4633325Y-2859200D01*
X-4633325Y-2884600D01*
X-4566650Y-2884600D01*
X-5327000Y+5265000D02*
X-5073000Y+5265000D01*
X-5073000Y+6789000D01*
X-5327000Y+6789000D01*
X-5327000Y+5265000D01*
X-4991720Y+5866980D02*
X-4979020Y+5866980D01*
X-4966320Y+5880315D01*
X-4966320Y+5933655D01*
X-4979020Y+5946990D01*
X-5042520Y+5946990D01*
X-5017120Y+6000330D02*
X-5042520Y+6027000D01*
X-4966320Y+6027000D01*
X-5017120Y+6107010D02*
X-5042520Y+6133680D01*
X-4966320Y+6133680D01*
X+1986000Y-6830000D02*
X+2766000Y-6830000D01*
X+2766000Y-6310000D01*
X+1986000Y-6310000D01*
X+1986000Y-6830000D01*
X+2215980Y-6911280D02*
X+2215980Y-6923980D01*
X+2229315Y-6936680D01*
X+2282655Y-6936680D01*
X+2295990Y-6923980D01*
X+2295990Y-6860480D01*
X+2349330Y-6885880D02*
X+2376000Y-6860480D01*
X+2376000Y-6936680D01*
X+2442675Y-6873180D02*
X+2456010Y-6860480D01*
X+2496015Y-6860480D01*
X+2509350Y-6873180D01*
X+2509350Y-6885880D01*
X+2496015Y-6898580D01*
X+2456010Y-6898580D01*
X+2442675Y-6911280D01*
X+2442675Y-6936680D01*
X+2509350Y-6936680D01*
X+2362000Y+2284000D02*
X+2413752Y+2289080D01*
X+2461695Y+2303685D01*
X+2504875Y+2326862D01*
X+2542340Y+2357660D01*
X+2573138Y+2395125D01*
X+2596315Y+2438305D01*
X+2610920Y+2486248D01*
X+2616000Y+2538000D01*
X+2362000Y+2284000D02*
X+2309518Y+2289080D01*
X+2261234Y+2303685D01*
X+2218009Y+2326862D01*
X+2180708Y+2357660D01*
X+2150193Y+2395125D01*
X+2127328Y+2438305D01*
X+2112976Y+2486248D01*
X+2108000Y+2538000D01*
X+2616000Y+2538000D02*
X+2997000Y+2538000D01*
X+2997000Y-2542000D02*
X+1727000Y-2542000D01*
X+1727000Y+2538000D02*
X+2108000Y+2538000D01*
X+2997000Y+2538000D02*
X+2997000Y-2542000D01*
X+1727000Y+2538000D02*
X+1727000Y-2542000D01*
X+2255320Y+2644680D02*
X+2255320Y+2581180D01*
X+2268655Y+2568480D01*
X+2321995Y+2568480D01*
X+2335330Y+2581180D01*
X+2335330Y+2644680D01*
X+2375335Y+2631980D02*
X+2388670Y+2644680D01*
X+2428675Y+2644680D01*
X+2442010Y+2631980D01*
X+2442010Y+2619280D01*
X+2428675Y+2606580D01*
X+2388670Y+2606580D01*
X+2375335Y+2593880D01*
X+2375335Y+2568480D01*
X+2442010Y+2568480D01*
X-2073000Y+5661500D02*
X-2073000Y+2232500D01*
X-1565000Y+2232500D01*
X-1565000Y+5661500D01*
X-2073000Y+5661500D02*
X-1946000Y+5661500D01*
X-1565000Y+5661500D02*
X-1692000Y+5661500D01*
X-1946000Y+5661500D02*
X-1943473Y+5635532D01*
X-1936202Y+5611518D01*
X-1924652Y+5589923D01*
X-1909289Y+5571211D01*
X-1890577Y+5555847D01*
X-1868981Y+5544298D01*
X-1844967Y+5537027D01*
X-1819000Y+5534500D01*
X-1692000Y+5661500D02*
X-1694527Y+5635532D01*
X-1701798Y+5611518D01*
X-1713348Y+5589923D01*
X-1728711Y+5571211D01*
X-1747423Y+5555847D01*
X-1769018Y+5544298D01*
X-1793032Y+5537027D01*
X-1819000Y+5534500D01*
X-2025176Y+5610700D02*
X-2025201Y+5611297D01*
X-2025403Y+5612493D01*
X-2025827Y+5613689D01*
X-2026521Y+5614885D01*
X-2027581Y+5616064D01*
X-2028777Y+5616927D01*
X-2029973Y+5617476D01*
X-2031169Y+5617785D01*
X-2032360Y+5617884D01*
X-2039544Y+5610700D02*
X-2039519Y+5611297D01*
X-2039317Y+5612493D01*
X-2038893Y+5613689D01*
X-2038199Y+5614885D01*
X-2037139Y+5616064D01*
X-2035943Y+5616927D01*
X-2034747Y+5617476D01*
X-2033551Y+5617785D01*
X-2032360Y+5617884D01*
X-2039544Y+5610700D02*
X-2039519Y+5610103D01*
X-2039317Y+5608907D01*
X-2038893Y+5607711D01*
X-2038199Y+5606515D01*
X-2037139Y+5605336D01*
X-2035943Y+5604473D01*
X-2034747Y+5603924D01*
X-2033551Y+5603615D01*
X-2032360Y+5603516D01*
X-2025176Y+5610700D02*
X-2025201Y+5610103D01*
X-2025403Y+5608907D01*
X-2025827Y+5607711D01*
X-2026521Y+5606515D01*
X-2027581Y+5605336D01*
X-2028777Y+5604473D01*
X-2029973Y+5603924D01*
X-2031169Y+5603615D01*
X-2032360Y+5603516D01*
X-1925680Y+5768180D02*
X-1925680Y+5704680D01*
X-1912345Y+5691980D01*
X-1859005Y+5691980D01*
X-1845670Y+5704680D01*
X-1845670Y+5768180D01*
X-1792330Y+5742780D02*
X-1765660Y+5768180D01*
X-1765660Y+5691980D01*
X-537306Y+6571000D02*
X-537306Y+6616720D01*
X-456026Y+6571000D02*
X-456026Y+6616720D01*
X-567786Y+6487180D02*
X-643986Y+6487180D01*
X-643986Y+6540520D01*
X-618586Y+6567190D01*
X-593186Y+6567190D01*
X-567786Y+6540520D01*
X-567786Y+6487180D01*
X-605886Y+6620530D02*
X-618586Y+6607195D01*
X-631286Y+6607195D01*
X-643986Y+6620530D01*
X-643986Y+6660535D01*
X-631286Y+6673870D01*
X-618586Y+6673870D01*
X-605886Y+6660535D01*
X-605886Y+6620530D01*
X-593186Y+6607195D01*
X-580486Y+6607195D01*
X-567786Y+6620530D01*
X-567786Y+6660535D01*
X-580486Y+6673870D01*
X-593186Y+6673870D01*
X-605886Y+6660535D01*
X-203973Y+6571000D02*
X-203973Y+6616720D01*
X-122693Y+6571000D02*
X-122693Y+6616720D01*
X-234453Y+6487180D02*
X-310653Y+6487180D01*
X-310653Y+6540520D01*
X-285253Y+6567190D01*
X-259853Y+6567190D01*
X-234453Y+6540520D01*
X-234453Y+6487180D01*
X-285253Y+6673870D02*
X-272553Y+6660535D01*
X-272553Y+6620530D01*
X-285253Y+6607195D01*
X-297953Y+6607195D01*
X-310653Y+6620530D01*
X-310653Y+6660535D01*
X-297953Y+6673870D01*
X-247153Y+6673870D01*
X-234453Y+6660535D01*
X-234453Y+6620530D01*
X+129360Y+6571000D02*
X+129360Y+6616720D01*
X+210640Y+6571000D02*
X+210640Y+6616720D01*
X+98880Y+6433840D02*
X+22680Y+6433840D01*
X+22680Y+6487180D01*
X+48080Y+6513850D01*
X+73480Y+6513850D01*
X+98880Y+6487180D01*
X+98880Y+6433840D01*
X+48080Y+6567190D02*
X+22680Y+6593860D01*
X+98880Y+6593860D01*
X+86180Y+6647200D02*
X+35380Y+6647200D01*
X+22680Y+6660535D01*
X+22680Y+6713875D01*
X+35380Y+6727210D01*
X+86180Y+6727210D01*
X+98880Y+6713875D01*
X+98880Y+6660535D01*
X+86180Y+6647200D01*
X+98880Y+6647200D02*
X+22680Y+6727210D01*
X+462694Y+6571000D02*
X+462694Y+6616720D01*
X+543974Y+6571000D02*
X+543974Y+6616720D01*
X+432214Y+6433840D02*
X+356014Y+6433840D01*
X+356014Y+6487180D01*
X+381414Y+6513850D01*
X+406814Y+6513850D01*
X+432214Y+6487180D01*
X+432214Y+6433840D01*
X+381414Y+6567190D02*
X+356014Y+6593860D01*
X+432214Y+6593860D01*
X+381414Y+6673870D02*
X+356014Y+6700540D01*
X+432214Y+6700540D01*
X+2878000Y+4500500D02*
X+1862000Y+4500500D01*
X+2878000Y+3484500D02*
X+1862000Y+3484500D01*
X+1862000Y+4500500D01*
X+2878000Y+3484500D02*
X+2878000Y+4500500D01*
X+2209980Y+3377820D02*
X+2209980Y+3454020D01*
X+2276655Y+3454020D01*
X+2289990Y+3441320D01*
X+2289990Y+3428620D01*
X+2276655Y+3415920D01*
X+2209980Y+3415920D01*
X+2276655Y+3415920D02*
X+2289990Y+3403220D01*
X+2289990Y+3377820D01*
X+2316660Y+3454020D02*
X+2316660Y+3415920D01*
X+2356665Y+3377820D01*
X+2396670Y+3415920D01*
X+2396670Y+3454020D01*
X+2436675Y+3441320D02*
X+2450010Y+3454020D01*
X+2490015Y+3454020D01*
X+2503350Y+3441320D01*
X+2503350Y+3428620D01*
X+2490015Y+3415920D01*
X+2450010Y+3415920D01*
X+2436675Y+3403220D01*
X+2436675Y+3377820D01*
X+2503350Y+3377820D01*
D50*
X-4809000Y-1128000D02*
X-4809000Y-672000D01*
X-5191000Y-672000D02*
X-5191000Y-1128000D01*
D52*
X-4701050Y-1006680D02*
X-4777250Y-1006680D01*
X-4777250Y-926670D01*
X-4739150Y-1006680D02*
X-4739150Y-953340D01*
X-4751850Y-873330D02*
X-4777250Y-846660D01*
X-4701050Y-846660D01*
X-870000Y+1019000D02*
X-743000Y+1019000D01*
X-743000Y+3000D01*
X-1251000Y+3000D01*
X-1251000Y+1019000D01*
X-1124000Y+1019000D01*
X-997000Y+892000D02*
X-971124Y+894436D01*
X-947152Y+901485D01*
X-925562Y+912762D01*
X-906830Y+927878D01*
X-891431Y+946446D01*
X-879842Y+968081D01*
X-872540Y+992394D01*
X-870000Y+1019000D01*
X-997000Y+892000D02*
X-1023606Y+894436D01*
X-1047919Y+901485D01*
X-1069554Y+912762D01*
X-1088122Y+927878D01*
X-1103238Y+946446D01*
X-1114515Y+968081D01*
X-1121564Y+992394D01*
X-1124000Y+1019000D01*
X-1157020Y+1062180D02*
X-1143685Y+1049480D01*
X-1090345Y+1049480D01*
X-1077010Y+1062180D01*
X-1077010Y+1074880D01*
X-1090345Y+1087580D01*
X-1143685Y+1087580D01*
X-1157020Y+1100280D01*
X-1157020Y+1112980D01*
X-1143685Y+1125680D01*
X-1090345Y+1125680D01*
X-1077010Y+1112980D01*
X-1050340Y+1125680D02*
X-1050340Y+1049480D01*
X-1010335Y+1087580D01*
X-970330Y+1049480D01*
X-970330Y+1125680D01*
X-916990Y+1100280D02*
X-890320Y+1125680D01*
X-890320Y+1049480D01*
X-248540Y+4289180D02*
X-248540Y+3730380D01*
X-756540Y+4289180D02*
X-756540Y+3730380D01*
X-629540Y+4507620D02*
X-657604Y+4489691D01*
X-682602Y+4468488D01*
X-704326Y+4444309D01*
X-722568Y+4417450D01*
X-737118Y+4388210D01*
X-747769Y+4356887D01*
X-754313Y+4323778D01*
X-756540Y+4289180D01*
X-375540Y+4484760D02*
X-347476Y+4468855D01*
X-322478Y+4449914D01*
X-300754Y+4428235D01*
X-282512Y+4404115D01*
X-267962Y+4377852D01*
X-257311Y+4349743D01*
X-250767Y+4320087D01*
X-248540Y+4289180D01*
X-375540Y+3511940D02*
X-347476Y+3529869D01*
X-322478Y+3551072D01*
X-300754Y+3575251D01*
X-282512Y+3602110D01*
X-267962Y+3631350D01*
X-257311Y+3662673D01*
X-250767Y+3695782D01*
X-248540Y+3730380D01*
X-629540Y+3511940D02*
X-657604Y+3529869D01*
X-682602Y+3551072D01*
X-704326Y+3575251D01*
X-722568Y+3602110D01*
X-737118Y+3631350D01*
X-747769Y+3662673D01*
X-754313Y+3695782D01*
X-756540Y+3730380D01*
X-224600Y+4393320D02*
X-161100Y+4393320D01*
X-148400Y+4406655D01*
X-148400Y+4459995D01*
X-161100Y+4473330D01*
X-224600Y+4473330D01*
X-173800Y+4580010D02*
X-173800Y+4500000D01*
X-224600Y+4553340D01*
X-148400Y+4553340D01*
D50*
X-2624740Y-3825000D02*
X-2975260Y-3825000D01*
X-2975260Y-3175000D01*
X-2624740Y-3175000D01*
X-2624740Y-3825000D01*
D51*
X-2460000Y-3899000D02*
X-2460035Y-3898169D01*
X-2460316Y-3896505D01*
X-2460906Y-3894841D01*
X-2461870Y-3893177D01*
X-2463345Y-3891536D01*
X-2465009Y-3890335D01*
X-2466673Y-3889570D01*
X-2468337Y-3889139D01*
X-2470000Y-3889000D01*
X-2480000Y-3899000D02*
X-2479965Y-3898169D01*
X-2479684Y-3896505D01*
X-2479094Y-3894841D01*
X-2478130Y-3893177D01*
X-2476655Y-3891536D01*
X-2474991Y-3890335D01*
X-2473327Y-3889570D01*
X-2471663Y-3889139D01*
X-2470000Y-3889000D01*
X-2480000Y-3899000D02*
X-2479965Y-3899831D01*
X-2479684Y-3901495D01*
X-2479094Y-3903159D01*
X-2478130Y-3904823D01*
X-2476655Y-3906464D01*
X-2474991Y-3907665D01*
X-2473327Y-3908430D01*
X-2471663Y-3908861D01*
X-2470000Y-3909000D01*
X-2460000Y-3899000D02*
X-2460035Y-3899831D01*
X-2460316Y-3901495D01*
X-2460906Y-3903159D01*
X-2461870Y-3904823D01*
X-2463345Y-3906464D01*
X-2465009Y-3907665D01*
X-2466673Y-3908430D01*
X-2468337Y-3908861D01*
X-2470000Y-3909000D01*
D52*
X-2906680Y-3944400D02*
X-2906680Y-4007900D01*
X-2893345Y-4020600D01*
X-2840005Y-4020600D01*
X-2826670Y-4007900D01*
X-2826670Y-3944400D01*
X-2719990Y-3957100D02*
X-2733325Y-3944400D01*
X-2773330Y-3944400D01*
X-2786665Y-3957100D01*
X-2786665Y-4007900D01*
X-2773330Y-4020600D01*
X-2733325Y-4020600D01*
X-2719990Y-4007900D01*
X-2719990Y-3995200D01*
X-2733325Y-3982500D01*
X-2786665Y-3982500D01*
D50*
X-4400000Y+4224994D02*
X-4400000Y+4575006D01*
X-5000000Y+4575006D01*
X-5000000Y+4224994D01*
X-4400000Y+4224994D01*
X-4550000Y+4325000D02*
X-4550000Y+4475000D01*
X-4850000Y+4475000D01*
X-4850000Y+4325000D01*
X-4550000Y+4325000D01*
D51*
X-4065000Y+4400000D02*
X-4065035Y+4400831D01*
X-4065316Y+4402495D01*
X-4065906Y+4404159D01*
X-4066870Y+4405823D01*
X-4068345Y+4407464D01*
X-4070009Y+4408665D01*
X-4071673Y+4409430D01*
X-4073337Y+4409861D01*
X-4075000Y+4410000D01*
X-4085000Y+4400000D02*
X-4084965Y+4400831D01*
X-4084684Y+4402495D01*
X-4084094Y+4404159D01*
X-4083130Y+4405823D01*
X-4081655Y+4407464D01*
X-4079991Y+4408665D01*
X-4078327Y+4409430D01*
X-4076663Y+4409861D01*
X-4075000Y+4410000D01*
X-4085000Y+4400000D02*
X-4084965Y+4399169D01*
X-4084684Y+4397505D01*
X-4084094Y+4395841D01*
X-4083130Y+4394177D01*
X-4081655Y+4392536D01*
X-4079991Y+4391335D01*
X-4078327Y+4390570D01*
X-4076663Y+4390139D01*
X-4075000Y+4390000D01*
X-4065000Y+4400000D02*
X-4065035Y+4399169D01*
X-4065316Y+4397505D01*
X-4065906Y+4395841D01*
X-4066870Y+4394177D01*
X-4068345Y+4392536D01*
X-4070009Y+4391335D01*
X-4071673Y+4390570D01*
X-4073337Y+4390139D01*
X-4075000Y+4390000D01*
D52*
X-4781930Y+4193244D02*
X-4781930Y+4129744D01*
X-4768595Y+4117044D01*
X-4715255Y+4117044D01*
X-4701920Y+4129744D01*
X-4701920Y+4193244D01*
X-4661915Y+4193244D02*
X-4595240Y+4193244D01*
X-4595240Y+4180544D01*
X-4661915Y+4117044D01*
D50*
X-2624740Y-2825000D02*
X-2975260Y-2825000D01*
X-2975260Y-2175000D01*
X-2624740Y-2175000D01*
X-2624740Y-2825000D01*
D51*
X-2460000Y-2899000D02*
X-2460035Y-2898169D01*
X-2460316Y-2896505D01*
X-2460906Y-2894841D01*
X-2461870Y-2893177D01*
X-2463345Y-2891536D01*
X-2465009Y-2890335D01*
X-2466673Y-2889570D01*
X-2468337Y-2889139D01*
X-2470000Y-2889000D01*
X-2480000Y-2899000D02*
X-2479965Y-2898169D01*
X-2479684Y-2896505D01*
X-2479094Y-2894841D01*
X-2478130Y-2893177D01*
X-2476655Y-2891536D01*
X-2474991Y-2890335D01*
X-2473327Y-2889570D01*
X-2471663Y-2889139D01*
X-2470000Y-2889000D01*
X-2480000Y-2899000D02*
X-2479965Y-2899831D01*
X-2479684Y-2901495D01*
X-2479094Y-2903159D01*
X-2478130Y-2904823D01*
X-2476655Y-2906464D01*
X-2474991Y-2907665D01*
X-2473327Y-2908430D01*
X-2471663Y-2908861D01*
X-2470000Y-2909000D01*
X-2460000Y-2899000D02*
X-2460035Y-2899831D01*
X-2460316Y-2901495D01*
X-2460906Y-2903159D01*
X-2461870Y-2904823D01*
X-2463345Y-2906464D01*
X-2465009Y-2907665D01*
X-2466673Y-2908430D01*
X-2468337Y-2908861D01*
X-2470000Y-2909000D01*
D52*
X-2960020Y-2944400D02*
X-2960020Y-3007900D01*
X-2946685Y-3020600D01*
X-2893345Y-3020600D01*
X-2880010Y-3007900D01*
X-2880010Y-2944400D01*
X-2826670Y-2969800D02*
X-2800000Y-2944400D01*
X-2800000Y-3020600D01*
X-2746660Y-3007900D02*
X-2746660Y-2957100D01*
X-2733325Y-2944400D01*
X-2679985Y-2944400D01*
X-2666650Y-2957100D01*
X-2666650Y-3007900D01*
X-2679985Y-3020600D01*
X-2733325Y-3020600D01*
X-2746660Y-3007900D01*
X-2746660Y-3020600D02*
X-2666650Y-2944400D01*
D50*
X-2624740Y-4825000D02*
X-2975260Y-4825000D01*
X-2975260Y-4175000D01*
X-2624740Y-4175000D01*
X-2624740Y-4825000D01*
D51*
X-2460000Y-4899000D02*
X-2460035Y-4898169D01*
X-2460316Y-4896505D01*
X-2460906Y-4894841D01*
X-2461870Y-4893177D01*
X-2463345Y-4891536D01*
X-2465009Y-4890335D01*
X-2466673Y-4889570D01*
X-2468337Y-4889139D01*
X-2470000Y-4889000D01*
X-2480000Y-4899000D02*
X-2479965Y-4898169D01*
X-2479684Y-4896505D01*
X-2479094Y-4894841D01*
X-2478130Y-4893177D01*
X-2476655Y-4891536D01*
X-2474991Y-4890335D01*
X-2473327Y-4889570D01*
X-2471663Y-4889139D01*
X-2470000Y-4889000D01*
X-2480000Y-4899000D02*
X-2479965Y-4899831D01*
X-2479684Y-4901495D01*
X-2479094Y-4903159D01*
X-2478130Y-4904823D01*
X-2476655Y-4906464D01*
X-2474991Y-4907665D01*
X-2473327Y-4908430D01*
X-2471663Y-4908861D01*
X-2470000Y-4909000D01*
X-2460000Y-4899000D02*
X-2460035Y-4899831D01*
X-2460316Y-4901495D01*
X-2460906Y-4903159D01*
X-2461870Y-4904823D01*
X-2463345Y-4906464D01*
X-2465009Y-4907665D01*
X-2466673Y-4908430D01*
X-2468337Y-4908861D01*
X-2470000Y-4909000D01*
D52*
X-2906680Y-4944400D02*
X-2906680Y-5007900D01*
X-2893345Y-5020600D01*
X-2840005Y-5020600D01*
X-2826670Y-5007900D01*
X-2826670Y-4944400D01*
X-2773330Y-4982500D02*
X-2786665Y-4969800D01*
X-2786665Y-4957100D01*
X-2773330Y-4944400D01*
X-2733325Y-4944400D01*
X-2719990Y-4957100D01*
X-2719990Y-4969800D01*
X-2733325Y-4982500D01*
X-2773330Y-4982500D01*
X-2786665Y-4995200D01*
X-2786665Y-5007900D01*
X-2773330Y-5020600D01*
X-2733325Y-5020600D01*
X-2719990Y-5007900D01*
X-2719990Y-4995200D01*
X-2733325Y-4982500D01*
X-2907950Y-576480D02*
X-2826988Y-576480D01*
X-2824906Y-587101D01*
X-2819186Y-595667D01*
X-2810621Y-601386D01*
X-2800000Y-603468D01*
X-2773012Y-576480D02*
X-2775094Y-587101D01*
X-2780814Y-595667D01*
X-2789379Y-601386D01*
X-2800000Y-603468D01*
X-2773012Y-576480D02*
X-2692050Y-576480D01*
X-2831750Y-1023520D02*
X-2768250Y-1023520D01*
X-2907950Y-609500D02*
X-2907950Y-990500D01*
X-2692050Y-609500D02*
X-2692050Y-990500D01*
X-2907950Y-609500D02*
X-2907950Y-576480D01*
X-2692050Y-576480D02*
X-2692050Y-609500D01*
X-2768250Y-1023520D02*
X-2692050Y-1023520D01*
X-2692050Y-990500D01*
X-2907950Y-990500D02*
X-2907950Y-1023520D01*
X-2831750Y-1023520D01*
X-2862230Y-625756D02*
X-2862265Y-624911D01*
X-2862552Y-623220D01*
X-2863151Y-621529D01*
X-2864131Y-619838D01*
X-2865631Y-618170D01*
X-2867322Y-616950D01*
X-2869013Y-616174D01*
X-2870704Y-615737D01*
X-2872390Y-615596D01*
X-2882550Y-625756D02*
X-2882515Y-624911D01*
X-2882228Y-623220D01*
X-2881629Y-621529D01*
X-2880649Y-619838D01*
X-2879149Y-618170D01*
X-2877458Y-616950D01*
X-2875767Y-616174D01*
X-2874076Y-615737D01*
X-2872390Y-615596D01*
X-2882550Y-625756D02*
X-2882515Y-626601D01*
X-2882228Y-628292D01*
X-2881629Y-629983D01*
X-2880649Y-631674D01*
X-2879149Y-633342D01*
X-2877458Y-634562D01*
X-2875767Y-635338D01*
X-2874076Y-635775D01*
X-2872390Y-635916D01*
X-2862230Y-625756D02*
X-2862265Y-626601D01*
X-2862552Y-628292D01*
X-2863151Y-629983D01*
X-2864131Y-631674D01*
X-2865631Y-633342D01*
X-2867322Y-634562D01*
X-2869013Y-635338D01*
X-2870704Y-635775D01*
X-2872390Y-635916D01*
X-2906680Y-266600D02*
X-2906680Y-330100D01*
X-2893345Y-342800D01*
X-2840005Y-342800D01*
X-2826670Y-330100D01*
X-2826670Y-266600D01*
X-2719990Y-292000D02*
X-2733325Y-304700D01*
X-2773330Y-304700D01*
X-2786665Y-292000D01*
X-2786665Y-279300D01*
X-2773330Y-266600D01*
X-2733325Y-266600D01*
X-2719990Y-279300D01*
X-2719990Y-330100D01*
X-2733325Y-342800D01*
X-2773330Y-342800D01*
D51*
X-2535000Y-1566000D02*
X-3128000Y-1566000D01*
X-3065000Y-1834000D02*
X-2535000Y-1834000D01*
D52*
X-2906680Y-1530600D02*
X-2906680Y-1454400D01*
X-2853340Y-1454400D01*
X-2826670Y-1479800D01*
X-2826670Y-1505200D01*
X-2853340Y-1530600D01*
X-2906680Y-1530600D01*
X-2786665Y-1467100D02*
X-2773330Y-1454400D01*
X-2733325Y-1454400D01*
X-2719990Y-1467100D01*
X-2719990Y-1479800D01*
X-2733325Y-1492500D01*
X-2773330Y-1492500D01*
X-2786665Y-1505200D01*
X-2786665Y-1530600D01*
X-2719990Y-1530600D01*
D51*
X-4945000Y-5934000D02*
X-4352000Y-5934000D01*
X-4415000Y-5666000D02*
X-4945000Y-5666000D01*
D52*
X-4786680Y-6045600D02*
X-4786680Y-5969400D01*
X-4733340Y-5969400D01*
X-4706670Y-5994800D01*
X-4706670Y-6020200D01*
X-4733340Y-6045600D01*
X-4786680Y-6045600D01*
X-4599990Y-5982100D02*
X-4613325Y-5969400D01*
X-4653330Y-5969400D01*
X-4666665Y-5982100D01*
X-4666665Y-6032900D01*
X-4653330Y-6045600D01*
X-4613325Y-6045600D01*
X-4599990Y-6032900D01*
X-4599990Y-6020200D01*
X-4613325Y-6007500D01*
X-4666665Y-6007500D01*
X+2888000Y-3999500D02*
X+1872000Y-3999500D01*
X+2888000Y-5015500D02*
X+1872000Y-5015500D01*
X+1872000Y-3999500D01*
X+2888000Y-5015500D02*
X+2888000Y-3999500D01*
X+2219980Y-5122180D02*
X+2219980Y-5045980D01*
X+2286655Y-5045980D01*
X+2299990Y-5058680D01*
X+2299990Y-5071380D01*
X+2286655Y-5084080D01*
X+2219980Y-5084080D01*
X+2286655Y-5084080D02*
X+2299990Y-5096780D01*
X+2299990Y-5122180D01*
X+2326660Y-5045980D02*
X+2326660Y-5084080D01*
X+2366665Y-5122180D01*
X+2406670Y-5084080D01*
X+2406670Y-5045980D01*
X+2460010Y-5071380D02*
X+2486680Y-5045980D01*
X+2486680Y-5122180D01*
D51*
X+650000Y+15000D02*
X+350000Y+15000D01*
D52*
X+685400Y-91680D02*
X+748900Y-91680D01*
X+761600Y-78345D01*
X+761600Y-25005D01*
X+748900Y-11670D01*
X+685400Y-11670D01*
X+698100Y+28335D02*
X+685400Y+41670D01*
X+685400Y+81675D01*
X+698100Y+95010D01*
X+710800Y+95010D01*
X+723500Y+81675D01*
X+736200Y+95010D01*
X+748900Y+95010D01*
X+761600Y+81675D01*
X+761600Y+41670D01*
X+748900Y+28335D01*
X+723500Y+55005D02*
X+723500Y+81675D01*
X-1207950Y-1776480D02*
X-1126988Y-1776480D01*
X-1124906Y-1787101D01*
X-1119186Y-1795667D01*
X-1110621Y-1801386D01*
X-1100000Y-1803468D01*
X-1073012Y-1776480D02*
X-1075094Y-1787101D01*
X-1080814Y-1795667D01*
X-1089379Y-1801386D01*
X-1100000Y-1803468D01*
X-1073012Y-1776480D02*
X-992050Y-1776480D01*
X-1131750Y-2223520D02*
X-1068250Y-2223520D01*
X-1207950Y-1809500D02*
X-1207950Y-2190500D01*
X-992050Y-1809500D02*
X-992050Y-2190500D01*
X-1207950Y-1809500D02*
X-1207950Y-1776480D01*
X-992050Y-1776480D02*
X-992050Y-1809500D01*
X-1068250Y-2223520D02*
X-992050Y-2223520D01*
X-992050Y-2190500D01*
X-1207950Y-2190500D02*
X-1207950Y-2223520D01*
X-1131750Y-2223520D01*
X-1162230Y-1825756D02*
X-1162265Y-1824911D01*
X-1162552Y-1823220D01*
X-1163151Y-1821529D01*
X-1164131Y-1819838D01*
X-1165631Y-1818170D01*
X-1167322Y-1816950D01*
X-1169013Y-1816174D01*
X-1170704Y-1815737D01*
X-1172390Y-1815596D01*
X-1182550Y-1825756D02*
X-1182515Y-1824911D01*
X-1182228Y-1823220D01*
X-1181629Y-1821529D01*
X-1180649Y-1819838D01*
X-1179149Y-1818170D01*
X-1177458Y-1816950D01*
X-1175767Y-1816174D01*
X-1174076Y-1815737D01*
X-1172390Y-1815596D01*
X-1182550Y-1825756D02*
X-1182515Y-1826601D01*
X-1182228Y-1828292D01*
X-1181629Y-1829983D01*
X-1180649Y-1831674D01*
X-1179149Y-1833342D01*
X-1177458Y-1834562D01*
X-1175767Y-1835338D01*
X-1174076Y-1835775D01*
X-1172390Y-1835916D01*
X-1162230Y-1825756D02*
X-1162265Y-1826601D01*
X-1162552Y-1828292D01*
X-1163151Y-1829983D01*
X-1164131Y-1831674D01*
X-1165631Y-1833342D01*
X-1167322Y-1834562D01*
X-1169013Y-1835338D01*
X-1170704Y-1835775D01*
X-1172390Y-1835916D01*
X-1206680Y-1466600D02*
X-1206680Y-1530100D01*
X-1193345Y-1542800D01*
X-1140005Y-1542800D01*
X-1126670Y-1530100D01*
X-1126670Y-1466600D01*
X-1019990Y-1466600D02*
X-1086665Y-1466600D01*
X-1086665Y-1492000D01*
X-1033325Y-1492000D01*
X-1019990Y-1504700D01*
X-1019990Y-1530100D01*
X-1033325Y-1542800D01*
X-1073330Y-1542800D01*
X-1086665Y-1530100D01*
D51*
X-1270000Y-3600000D02*
X-1270000Y-4010000D01*
X-930000Y-3600000D02*
X-930000Y-4010000D01*
D52*
X-818400Y-3911680D02*
X-894600Y-3911680D01*
X-894600Y-3845005D01*
X-881900Y-3831670D01*
X-869200Y-3831670D01*
X-856500Y-3845005D01*
X-856500Y-3911680D01*
X-856500Y-3845005D02*
X-843800Y-3831670D01*
X-818400Y-3831670D01*
X-894600Y-3724990D02*
X-894600Y-3791665D01*
X-869200Y-3791665D01*
X-869200Y-3738325D01*
X-856500Y-3724990D01*
X-831100Y-3724990D01*
X-818400Y-3738325D01*
X-818400Y-3778330D01*
X-831100Y-3791665D01*
D51*
X-3690000Y+3460000D02*
X-3690000Y+3540000D01*
D52*
X-3850020Y+3348400D02*
X-3850020Y+3424600D01*
X-3783345Y+3424600D01*
X-3770010Y+3411900D01*
X-3770010Y+3399200D01*
X-3783345Y+3386500D01*
X-3850020Y+3386500D01*
X-3783345Y+3386500D02*
X-3770010Y+3373800D01*
X-3770010Y+3348400D01*
X-3663330Y+3373800D02*
X-3743340Y+3373800D01*
X-3690000Y+3424600D01*
X-3690000Y+3348400D01*
X-3609990Y+3399200D02*
X-3583320Y+3424600D01*
X-3583320Y+3348400D01*
D51*
X-3690000Y+3660000D02*
X-3690000Y+3740000D01*
D52*
X-3850020Y+3548400D02*
X-3850020Y+3624600D01*
X-3783345Y+3624600D01*
X-3770010Y+3611900D01*
X-3770010Y+3599200D01*
X-3783345Y+3586500D01*
X-3850020Y+3586500D01*
X-3783345Y+3586500D02*
X-3770010Y+3573800D01*
X-3770010Y+3548400D01*
X-3663330Y+3573800D02*
X-3743340Y+3573800D01*
X-3690000Y+3624600D01*
X-3690000Y+3548400D01*
X-3623325Y+3611900D02*
X-3609990Y+3624600D01*
X-3569985Y+3624600D01*
X-3556650Y+3611900D01*
X-3556650Y+3599200D01*
X-3569985Y+3586500D01*
X-3609990Y+3586500D01*
X-3623325Y+3573800D01*
X-3623325Y+3548400D01*
X-3556650Y+3548400D01*
D51*
X-3690000Y+3860000D02*
X-3690000Y+3940000D01*
D52*
X-3850020Y+3748400D02*
X-3850020Y+3824600D01*
X-3783345Y+3824600D01*
X-3770010Y+3811900D01*
X-3770010Y+3799200D01*
X-3783345Y+3786500D01*
X-3850020Y+3786500D01*
X-3783345Y+3786500D02*
X-3770010Y+3773800D01*
X-3770010Y+3748400D01*
X-3663330Y+3773800D02*
X-3743340Y+3773800D01*
X-3690000Y+3824600D01*
X-3690000Y+3748400D01*
X-3623325Y+3811900D02*
X-3609990Y+3824600D01*
X-3569985Y+3824600D01*
X-3556650Y+3811900D01*
X-3556650Y+3799200D01*
X-3569985Y+3786500D01*
X-3556650Y+3773800D01*
X-3556650Y+3761100D01*
X-3569985Y+3748400D01*
X-3609990Y+3748400D01*
X-3623325Y+3761100D01*
X-3596655Y+3786500D02*
X-3569985Y+3786500D01*
D51*
X-3690000Y+2760000D02*
X-3690000Y+2840000D01*
D52*
X-3850020Y+2648400D02*
X-3850020Y+2724600D01*
X-3783345Y+2724600D01*
X-3770010Y+2711900D01*
X-3770010Y+2699200D01*
X-3783345Y+2686500D01*
X-3850020Y+2686500D01*
X-3783345Y+2686500D02*
X-3770010Y+2673800D01*
X-3770010Y+2648400D01*
X-3730005Y+2711900D02*
X-3716670Y+2724600D01*
X-3676665Y+2724600D01*
X-3663330Y+2711900D01*
X-3663330Y+2699200D01*
X-3676665Y+2686500D01*
X-3663330Y+2673800D01*
X-3663330Y+2661100D01*
X-3676665Y+2648400D01*
X-3716670Y+2648400D01*
X-3730005Y+2661100D01*
X-3703335Y+2686500D02*
X-3676665Y+2686500D01*
X-3623325Y+2724600D02*
X-3556650Y+2724600D01*
X-3556650Y+2711900D01*
X-3623325Y+2648400D01*
D51*
X-3690000Y+2960000D02*
X-3690000Y+3040000D01*
D52*
X-3850020Y+2848400D02*
X-3850020Y+2924600D01*
X-3783345Y+2924600D01*
X-3770010Y+2911900D01*
X-3770010Y+2899200D01*
X-3783345Y+2886500D01*
X-3850020Y+2886500D01*
X-3783345Y+2886500D02*
X-3770010Y+2873800D01*
X-3770010Y+2848400D01*
X-3730005Y+2911900D02*
X-3716670Y+2924600D01*
X-3676665Y+2924600D01*
X-3663330Y+2911900D01*
X-3663330Y+2899200D01*
X-3676665Y+2886500D01*
X-3663330Y+2873800D01*
X-3663330Y+2861100D01*
X-3676665Y+2848400D01*
X-3716670Y+2848400D01*
X-3730005Y+2861100D01*
X-3703335Y+2886500D02*
X-3676665Y+2886500D01*
X-3609990Y+2886500D02*
X-3623325Y+2899200D01*
X-3623325Y+2911900D01*
X-3609990Y+2924600D01*
X-3569985Y+2924600D01*
X-3556650Y+2911900D01*
X-3556650Y+2899200D01*
X-3569985Y+2886500D01*
X-3609990Y+2886500D01*
X-3623325Y+2873800D01*
X-3623325Y+2861100D01*
X-3609990Y+2848400D01*
X-3569985Y+2848400D01*
X-3556650Y+2861100D01*
X-3556650Y+2873800D01*
X-3569985Y+2886500D01*
D51*
X-3690000Y+3160000D02*
X-3690000Y+3240000D01*
D52*
X-3850020Y+3048400D02*
X-3850020Y+3124600D01*
X-3783345Y+3124600D01*
X-3770010Y+3111900D01*
X-3770010Y+3099200D01*
X-3783345Y+3086500D01*
X-3850020Y+3086500D01*
X-3783345Y+3086500D02*
X-3770010Y+3073800D01*
X-3770010Y+3048400D01*
X-3730005Y+3111900D02*
X-3716670Y+3124600D01*
X-3676665Y+3124600D01*
X-3663330Y+3111900D01*
X-3663330Y+3099200D01*
X-3676665Y+3086500D01*
X-3663330Y+3073800D01*
X-3663330Y+3061100D01*
X-3676665Y+3048400D01*
X-3716670Y+3048400D01*
X-3730005Y+3061100D01*
X-3703335Y+3086500D02*
X-3676665Y+3086500D01*
X-3556650Y+3099200D02*
X-3569985Y+3086500D01*
X-3609990Y+3086500D01*
X-3623325Y+3099200D01*
X-3623325Y+3111900D01*
X-3609990Y+3124600D01*
X-3569985Y+3124600D01*
X-3556650Y+3111900D01*
X-3556650Y+3061100D01*
X-3569985Y+3048400D01*
X-3609990Y+3048400D01*
D51*
X-3690000Y+2540000D02*
X-3690000Y+2460000D01*
D52*
X-3850020Y+2575400D02*
X-3850020Y+2651600D01*
X-3783345Y+2651600D01*
X-3770010Y+2638900D01*
X-3770010Y+2626200D01*
X-3783345Y+2613500D01*
X-3850020Y+2613500D01*
X-3783345Y+2613500D02*
X-3770010Y+2600800D01*
X-3770010Y+2575400D01*
X-3663330Y+2600800D02*
X-3743340Y+2600800D01*
X-3690000Y+2651600D01*
X-3690000Y+2575400D01*
X-3556650Y+2600800D02*
X-3636660Y+2600800D01*
X-3583320Y+2651600D01*
X-3583320Y+2575400D01*
D51*
X-3690000Y+2340000D02*
X-3690000Y+2260000D01*
D52*
X-3850020Y+2375400D02*
X-3850020Y+2451600D01*
X-3783345Y+2451600D01*
X-3770010Y+2438900D01*
X-3770010Y+2426200D01*
X-3783345Y+2413500D01*
X-3850020Y+2413500D01*
X-3783345Y+2413500D02*
X-3770010Y+2400800D01*
X-3770010Y+2375400D01*
X-3663330Y+2400800D02*
X-3743340Y+2400800D01*
X-3690000Y+2451600D01*
X-3690000Y+2375400D01*
X-3556650Y+2451600D02*
X-3623325Y+2451600D01*
X-3623325Y+2426200D01*
X-3569985Y+2426200D01*
X-3556650Y+2413500D01*
X-3556650Y+2388100D01*
X-3569985Y+2375400D01*
X-3609990Y+2375400D01*
X-3623325Y+2388100D01*
D51*
X-3690000Y+2140000D02*
X-3690000Y+2060000D01*
D52*
X-3850020Y+2175400D02*
X-3850020Y+2251600D01*
X-3783345Y+2251600D01*
X-3770010Y+2238900D01*
X-3770010Y+2226200D01*
X-3783345Y+2213500D01*
X-3850020Y+2213500D01*
X-3783345Y+2213500D02*
X-3770010Y+2200800D01*
X-3770010Y+2175400D01*
X-3663330Y+2200800D02*
X-3743340Y+2200800D01*
X-3690000Y+2251600D01*
X-3690000Y+2175400D01*
X-3609990Y+2213500D02*
X-3623325Y+2226200D01*
X-3623325Y+2238900D01*
X-3609990Y+2251600D01*
X-3569985Y+2251600D01*
X-3556650Y+2238900D01*
X-3556650Y+2226200D01*
X-3569985Y+2213500D01*
X-3609990Y+2213500D01*
X-3623325Y+2200800D01*
X-3623325Y+2188100D01*
X-3609990Y+2175400D01*
X-3569985Y+2175400D01*
X-3556650Y+2188100D01*
X-3556650Y+2200800D01*
X-3569985Y+2213500D01*
D51*
X-3690000Y+1360000D02*
X-3690000Y+1440000D01*
D52*
X-3850020Y+1248400D02*
X-3850020Y+1324600D01*
X-3783345Y+1324600D01*
X-3770010Y+1311900D01*
X-3770010Y+1299200D01*
X-3783345Y+1286500D01*
X-3850020Y+1286500D01*
X-3783345Y+1286500D02*
X-3770010Y+1273800D01*
X-3770010Y+1248400D01*
X-3730005Y+1311900D02*
X-3716670Y+1324600D01*
X-3676665Y+1324600D01*
X-3663330Y+1311900D01*
X-3663330Y+1299200D01*
X-3676665Y+1286500D01*
X-3663330Y+1273800D01*
X-3663330Y+1261100D01*
X-3676665Y+1248400D01*
X-3716670Y+1248400D01*
X-3730005Y+1261100D01*
X-3703335Y+1286500D02*
X-3676665Y+1286500D01*
X-3556650Y+1273800D02*
X-3636660Y+1273800D01*
X-3583320Y+1324600D01*
X-3583320Y+1248400D01*
D51*
X-3690000Y+1560000D02*
X-3690000Y+1640000D01*
D52*
X-3850020Y+1448400D02*
X-3850020Y+1524600D01*
X-3783345Y+1524600D01*
X-3770010Y+1511900D01*
X-3770010Y+1499200D01*
X-3783345Y+1486500D01*
X-3850020Y+1486500D01*
X-3783345Y+1486500D02*
X-3770010Y+1473800D01*
X-3770010Y+1448400D01*
X-3730005Y+1511900D02*
X-3716670Y+1524600D01*
X-3676665Y+1524600D01*
X-3663330Y+1511900D01*
X-3663330Y+1499200D01*
X-3676665Y+1486500D01*
X-3663330Y+1473800D01*
X-3663330Y+1461100D01*
X-3676665Y+1448400D01*
X-3716670Y+1448400D01*
X-3730005Y+1461100D01*
X-3703335Y+1486500D02*
X-3676665Y+1486500D01*
X-3556650Y+1524600D02*
X-3623325Y+1524600D01*
X-3623325Y+1499200D01*
X-3569985Y+1499200D01*
X-3556650Y+1486500D01*
X-3556650Y+1461100D01*
X-3569985Y+1448400D01*
X-3609990Y+1448400D01*
X-3623325Y+1461100D01*
D51*
X-3690000Y+1760000D02*
X-3690000Y+1840000D01*
D52*
X-3850020Y+1648400D02*
X-3850020Y+1724600D01*
X-3783345Y+1724600D01*
X-3770010Y+1711900D01*
X-3770010Y+1699200D01*
X-3783345Y+1686500D01*
X-3850020Y+1686500D01*
X-3783345Y+1686500D02*
X-3770010Y+1673800D01*
X-3770010Y+1648400D01*
X-3730005Y+1711900D02*
X-3716670Y+1724600D01*
X-3676665Y+1724600D01*
X-3663330Y+1711900D01*
X-3663330Y+1699200D01*
X-3676665Y+1686500D01*
X-3663330Y+1673800D01*
X-3663330Y+1661100D01*
X-3676665Y+1648400D01*
X-3716670Y+1648400D01*
X-3730005Y+1661100D01*
X-3703335Y+1686500D02*
X-3676665Y+1686500D01*
X-3556650Y+1711900D02*
X-3569985Y+1724600D01*
X-3609990Y+1724600D01*
X-3623325Y+1711900D01*
X-3623325Y+1661100D01*
X-3609990Y+1648400D01*
X-3569985Y+1648400D01*
X-3556650Y+1661100D01*
X-3556650Y+1673800D01*
X-3569985Y+1686500D01*
X-3623325Y+1686500D01*
D51*
X+480000Y-545000D02*
X+480000Y-625000D01*
D52*
X+399990Y-496900D02*
X+386655Y-509600D01*
X+346650Y-509600D01*
X+319980Y-484200D01*
X+319980Y-458800D01*
X+346650Y-433400D01*
X+386655Y-433400D01*
X+399990Y-446100D01*
X+453330Y-458800D02*
X+480000Y-433400D01*
X+480000Y-509600D01*
X+533340Y-496900D02*
X+533340Y-446100D01*
X+546675Y-433400D01*
X+600015Y-433400D01*
X+613350Y-446100D01*
X+613350Y-496900D01*
X+600015Y-509600D01*
X+546675Y-509600D01*
X+533340Y-496900D01*
X+533340Y-509600D02*
X+613350Y-433400D01*
D51*
X+480000Y+655000D02*
X+480000Y+575000D01*
D52*
X+399990Y+703100D02*
X+386655Y+690400D01*
X+346650Y+690400D01*
X+319980Y+715800D01*
X+319980Y+741200D01*
X+346650Y+766600D01*
X+386655Y+766600D01*
X+399990Y+753900D01*
X+453330Y+741200D02*
X+480000Y+766600D01*
X+480000Y+690400D01*
X+560010Y+741200D02*
X+586680Y+766600D01*
X+586680Y+690400D01*
D51*
X-1080000Y-4640000D02*
X-1080000Y-4560000D01*
D52*
X-1186680Y-4751600D02*
X-1186680Y-4675400D01*
X-1120005Y-4675400D01*
X-1106670Y-4688100D01*
X-1106670Y-4700800D01*
X-1120005Y-4713500D01*
X-1186680Y-4713500D01*
X-1120005Y-4713500D02*
X-1106670Y-4726200D01*
X-1106670Y-4751600D01*
X-999990Y-4688100D02*
X-1013325Y-4675400D01*
X-1053330Y-4675400D01*
X-1066665Y-4688100D01*
X-1066665Y-4738900D01*
X-1053330Y-4751600D01*
X-1013325Y-4751600D01*
X-999990Y-4738900D01*
X-999990Y-4726200D01*
X-1013325Y-4713500D01*
X-1066665Y-4713500D01*
D51*
X-1340000Y-3040000D02*
X-1340000Y-2960000D01*
D52*
X-1446680Y-3151600D02*
X-1446680Y-3075400D01*
X-1380005Y-3075400D01*
X-1366670Y-3088100D01*
X-1366670Y-3100800D01*
X-1380005Y-3113500D01*
X-1446680Y-3113500D01*
X-1380005Y-3113500D02*
X-1366670Y-3126200D01*
X-1366670Y-3151600D01*
X-1326665Y-3075400D02*
X-1259990Y-3075400D01*
X-1259990Y-3088100D01*
X-1326665Y-3151600D01*
X-2701600Y+423800D02*
X-2854000Y+423800D01*
X-2854000Y+576200D02*
X-2701600Y+576200D01*
X-2841300Y+576200D02*
X-2841300Y+423800D01*
X-2815900Y+423800D02*
X-2815900Y+576200D01*
X-2887020Y+317120D02*
X-2887020Y+393320D01*
X-2833680Y+393320D01*
X-2807010Y+367920D01*
X-2807010Y+342520D01*
X-2833680Y+317120D01*
X-2887020Y+317120D01*
X-2767005Y+380620D02*
X-2753670Y+393320D01*
X-2713665Y+393320D01*
X-2700330Y+380620D01*
X-2700330Y+367920D01*
X-2713665Y+355220D01*
X-2700330Y+342520D01*
X-2700330Y+329820D01*
X-2713665Y+317120D01*
X-2753670Y+317120D01*
X-2767005Y+329820D01*
X-2740335Y+355220D02*
X-2713665Y+355220D01*
X-2701600Y+723800D02*
X-2854000Y+723800D01*
X-2854000Y+876200D02*
X-2701600Y+876200D01*
X-2841300Y+876200D02*
X-2841300Y+723800D01*
X-2815900Y+723800D02*
X-2815900Y+876200D01*
X-2887020Y+617120D02*
X-2887020Y+693320D01*
X-2833680Y+693320D01*
X-2807010Y+667920D01*
X-2807010Y+642520D01*
X-2833680Y+617120D01*
X-2887020Y+617120D01*
X-2700330Y+642520D02*
X-2780340Y+642520D01*
X-2727000Y+693320D01*
X-2727000Y+617120D01*
D51*
X-4540000Y-750000D02*
X-4460000Y-750000D01*
D52*
X-4575400Y-856680D02*
X-4651600Y-856680D01*
X-4651600Y-790005D01*
X-4638900Y-776670D01*
X-4626200Y-776670D01*
X-4613500Y-790005D01*
X-4613500Y-856680D01*
X-4613500Y-790005D02*
X-4600800Y-776670D01*
X-4575400Y-776670D01*
X-4600800Y-669990D02*
X-4600800Y-750000D01*
X-4651600Y-696660D01*
X-4575400Y-696660D01*
X-4459360Y-1060780D02*
X-4459360Y-1106500D01*
X-4540640Y-1060780D02*
X-4540640Y-1106500D01*
X-4352680Y-1190320D02*
X-4428880Y-1190320D01*
X-4428880Y-1136980D01*
X-4403480Y-1110310D01*
X-4378080Y-1110310D01*
X-4352680Y-1136980D01*
X-4352680Y-1190320D01*
X-4403480Y-1056970D02*
X-4428880Y-1030300D01*
X-4352680Y-1030300D01*
D56*
X-3697500Y-5855000D02*
X-3697543Y-5853961D01*
X-3697895Y-5851882D01*
X-3698632Y-5849803D01*
X-3699836Y-5847724D01*
X-3701677Y-5845674D01*
X-3703756Y-5844171D01*
X-3705835Y-5843214D01*
X-3707914Y-5842675D01*
X-3709993Y-5842500D01*
X-3710000Y-5842500D01*
X-3722500Y-5855000D02*
X-3722457Y-5853961D01*
X-3722105Y-5851882D01*
X-3721368Y-5849803D01*
X-3720164Y-5847724D01*
X-3718323Y-5845674D01*
X-3716244Y-5844171D01*
X-3714165Y-5843214D01*
X-3712086Y-5842675D01*
X-3710007Y-5842500D01*
X-3710000Y-5842500D01*
X-3722500Y-5855000D02*
X-3722457Y-5856039D01*
X-3722105Y-5858118D01*
X-3721368Y-5860197D01*
X-3720164Y-5862276D01*
X-3718323Y-5864326D01*
X-3716244Y-5865829D01*
X-3714165Y-5866786D01*
X-3712086Y-5867325D01*
X-3710007Y-5867500D01*
X-3710000Y-5867500D01*
X-3697500Y-5855000D02*
X-3697543Y-5856039D01*
X-3697895Y-5858118D01*
X-3698632Y-5860197D01*
X-3699836Y-5862276D01*
X-3701677Y-5864326D01*
X-3703756Y-5865829D01*
X-3705835Y-5866786D01*
X-3707914Y-5867325D01*
X-3709993Y-5867500D01*
X-3710000Y-5867500D01*
D51*
X-3645000Y-5870000D02*
X-3645000Y-5792500D01*
X-3437500Y-5585000D01*
X-2815000Y-5585000D01*
X-2815000Y-5870000D01*
X-3645000Y-6130000D02*
X-3645000Y-6207500D01*
X-3437500Y-6415000D01*
X-2815000Y-6415000D01*
X-2815000Y-6130000D01*
D52*
X-3256670Y-5536900D02*
X-3270005Y-5549600D01*
X-3310010Y-5549600D01*
X-3336680Y-5524200D01*
X-3336680Y-5498800D01*
X-3310010Y-5473400D01*
X-3270005Y-5473400D01*
X-3256670Y-5486100D01*
X-3149990Y-5486100D02*
X-3163325Y-5473400D01*
X-3203330Y-5473400D01*
X-3216665Y-5486100D01*
X-3216665Y-5536900D01*
X-3203330Y-5549600D01*
X-3163325Y-5549600D01*
X-3149990Y-5536900D01*
X-3149990Y-5524200D01*
X-3163325Y-5511500D01*
X-3216665Y-5511500D01*
D56*
X-2152500Y-5865000D02*
X-2152543Y-5863961D01*
X-2152895Y-5861882D01*
X-2153632Y-5859803D01*
X-2154836Y-5857724D01*
X-2156677Y-5855674D01*
X-2158756Y-5854171D01*
X-2160835Y-5853214D01*
X-2162914Y-5852675D01*
X-2164993Y-5852500D01*
X-2165000Y-5852500D01*
X-2177500Y-5865000D02*
X-2177457Y-5863961D01*
X-2177105Y-5861882D01*
X-2176368Y-5859803D01*
X-2175164Y-5857724D01*
X-2173323Y-5855674D01*
X-2171244Y-5854171D01*
X-2169165Y-5853214D01*
X-2167086Y-5852675D01*
X-2165007Y-5852500D01*
X-2165000Y-5852500D01*
X-2177500Y-5865000D02*
X-2177457Y-5866039D01*
X-2177105Y-5868118D01*
X-2176368Y-5870197D01*
X-2175164Y-5872276D01*
X-2173323Y-5874326D01*
X-2171244Y-5875829D01*
X-2169165Y-5876786D01*
X-2167086Y-5877325D01*
X-2165007Y-5877500D01*
X-2165000Y-5877500D01*
X-2152500Y-5865000D02*
X-2152543Y-5866039D01*
X-2152895Y-5868118D01*
X-2153632Y-5870197D01*
X-2154836Y-5872276D01*
X-2156677Y-5874326D01*
X-2158756Y-5875829D01*
X-2160835Y-5876786D01*
X-2162914Y-5877325D01*
X-2164993Y-5877500D01*
X-2165000Y-5877500D01*
D51*
X-2100000Y-5880000D02*
X-2100000Y-5792500D01*
X-1892500Y-5585000D01*
X-1270000Y-5585000D01*
X-1270000Y-5880000D01*
X-2100000Y-6120000D02*
X-2100000Y-6207500D01*
X-1892500Y-6415000D01*
X-1270000Y-6415000D01*
X-1270000Y-6120000D01*
D52*
X-1711670Y-5536900D02*
X-1725005Y-5549600D01*
X-1765010Y-5549600D01*
X-1791680Y-5524200D01*
X-1791680Y-5498800D01*
X-1765010Y-5473400D01*
X-1725005Y-5473400D01*
X-1711670Y-5486100D01*
X-1671665Y-5473400D02*
X-1604990Y-5473400D01*
X-1604990Y-5486100D01*
X-1671665Y-5549600D01*
D56*
X-3882500Y+6140000D02*
X-3882543Y+6141039D01*
X-3882895Y+6143118D01*
X-3883632Y+6145197D01*
X-3884836Y+6147276D01*
X-3886677Y+6149326D01*
X-3888756Y+6150829D01*
X-3890835Y+6151786D01*
X-3892914Y+6152325D01*
X-3894993Y+6152500D01*
X-3895000Y+6152500D01*
X-3907500Y+6140000D02*
X-3907457Y+6141039D01*
X-3907105Y+6143118D01*
X-3906368Y+6145197D01*
X-3905164Y+6147276D01*
X-3903323Y+6149326D01*
X-3901244Y+6150829D01*
X-3899165Y+6151786D01*
X-3897086Y+6152325D01*
X-3895007Y+6152500D01*
X-3895000Y+6152500D01*
X-3907500Y+6140000D02*
X-3907457Y+6138961D01*
X-3907105Y+6136882D01*
X-3906368Y+6134803D01*
X-3905164Y+6132724D01*
X-3903323Y+6130674D01*
X-3901244Y+6129171D01*
X-3899165Y+6128214D01*
X-3897086Y+6127675D01*
X-3895007Y+6127500D01*
X-3895000Y+6127500D01*
X-3882500Y+6140000D02*
X-3882543Y+6138961D01*
X-3882895Y+6136882D01*
X-3883632Y+6134803D01*
X-3884836Y+6132724D01*
X-3886677Y+6130674D01*
X-3888756Y+6129171D01*
X-3890835Y+6128214D01*
X-3892914Y+6127675D01*
X-3894993Y+6127500D01*
X-3895000Y+6127500D01*
D51*
X-3830000Y+6122500D02*
X-3830000Y+6165000D01*
X-3665000Y+6330000D01*
X-3170000Y+6330000D01*
X-3170000Y+6122500D01*
X-3830000Y+5877500D02*
X-3830000Y+5835000D01*
X-3665000Y+5670000D01*
X-3170000Y+5670000D01*
X-3170000Y+5877500D01*
D52*
X-3526670Y+6378100D02*
X-3540005Y+6365400D01*
X-3580010Y+6365400D01*
X-3606680Y+6390800D01*
X-3606680Y+6416200D01*
X-3580010Y+6441600D01*
X-3540005Y+6441600D01*
X-3526670Y+6428900D01*
X-3419990Y+6416200D02*
X-3433325Y+6403500D01*
X-3473330Y+6403500D01*
X-3486665Y+6416200D01*
X-3486665Y+6428900D01*
X-3473330Y+6441600D01*
X-3433325Y+6441600D01*
X-3419990Y+6428900D01*
X-3419990Y+6378100D01*
X-3433325Y+6365400D01*
X-3473330Y+6365400D01*
D56*
X-2837500Y+2015000D02*
X-2837543Y+2016039D01*
X-2837895Y+2018118D01*
X-2838632Y+2020197D01*
X-2839836Y+2022276D01*
X-2841677Y+2024326D01*
X-2843756Y+2025829D01*
X-2845835Y+2026786D01*
X-2847914Y+2027325D01*
X-2849993Y+2027500D01*
X-2850000Y+2027500D01*
X-2862500Y+2015000D02*
X-2862457Y+2016039D01*
X-2862105Y+2018118D01*
X-2861368Y+2020197D01*
X-2860164Y+2022276D01*
X-2858323Y+2024326D01*
X-2856244Y+2025829D01*
X-2854165Y+2026786D01*
X-2852086Y+2027325D01*
X-2850007Y+2027500D01*
X-2850000Y+2027500D01*
X-2862500Y+2015000D02*
X-2862457Y+2013961D01*
X-2862105Y+2011882D01*
X-2861368Y+2009803D01*
X-2860164Y+2007724D01*
X-2858323Y+2005674D01*
X-2856244Y+2004171D01*
X-2854165Y+2003214D01*
X-2852086Y+2002675D01*
X-2850007Y+2002500D01*
X-2850000Y+2002500D01*
X-2837500Y+2015000D02*
X-2837543Y+2013961D01*
X-2837895Y+2011882D01*
X-2838632Y+2009803D01*
X-2839836Y+2007724D01*
X-2841677Y+2005674D01*
X-2843756Y+2004171D01*
X-2845835Y+2003214D01*
X-2847914Y+2002675D01*
X-2849993Y+2002500D01*
X-2850000Y+2002500D01*
D51*
X-2955000Y+2350000D02*
X-3015000Y+2350000D01*
X-3015000Y+2050000D01*
X-2955000Y+2050000D01*
X-2955000Y+2350000D01*
D52*
X-3091680Y+1939200D02*
X-3065010Y+1964600D01*
X-3038340Y+1964600D01*
X-3011670Y+1939200D01*
X-3011670Y+1913800D01*
X-3038340Y+1888400D01*
X-3065010Y+1888400D01*
X-3091680Y+1913800D01*
X-3091680Y+1939200D01*
X-3038340Y+1913800D02*
X-3011670Y+1888400D01*
X-2904990Y+1951900D02*
X-2918325Y+1964600D01*
X-2958330Y+1964600D01*
X-2971665Y+1951900D01*
X-2971665Y+1901100D01*
X-2958330Y+1888400D01*
X-2918325Y+1888400D01*
X-2904990Y+1901100D01*
X-2904990Y+1913800D01*
X-2918325Y+1926500D01*
X-2971665Y+1926500D01*
D56*
X-2867500Y+3015000D02*
X-2867543Y+3016039D01*
X-2867895Y+3018118D01*
X-2868632Y+3020197D01*
X-2869836Y+3022276D01*
X-2871677Y+3024326D01*
X-2873756Y+3025829D01*
X-2875835Y+3026786D01*
X-2877914Y+3027325D01*
X-2879993Y+3027500D01*
X-2880000Y+3027500D01*
X-2892500Y+3015000D02*
X-2892457Y+3016039D01*
X-2892105Y+3018118D01*
X-2891368Y+3020197D01*
X-2890164Y+3022276D01*
X-2888323Y+3024326D01*
X-2886244Y+3025829D01*
X-2884165Y+3026786D01*
X-2882086Y+3027325D01*
X-2880007Y+3027500D01*
X-2880000Y+3027500D01*
X-2892500Y+3015000D02*
X-2892457Y+3013961D01*
X-2892105Y+3011882D01*
X-2891368Y+3009803D01*
X-2890164Y+3007724D01*
X-2888323Y+3005674D01*
X-2886244Y+3004171D01*
X-2884165Y+3003214D01*
X-2882086Y+3002675D01*
X-2880007Y+3002500D01*
X-2880000Y+3002500D01*
X-2867500Y+3015000D02*
X-2867543Y+3013961D01*
X-2867895Y+3011882D01*
X-2868632Y+3009803D01*
X-2869836Y+3007724D01*
X-2871677Y+3005674D01*
X-2873756Y+3004171D01*
X-2875835Y+3003214D01*
X-2877914Y+3002675D01*
X-2879993Y+3002500D01*
X-2880000Y+3002500D01*
D51*
X-2985000Y+3350000D02*
X-3045000Y+3350000D01*
X-3045000Y+3050000D01*
X-2985000Y+3050000D01*
X-2985000Y+3350000D01*
D52*
X-3121680Y+2939200D02*
X-3095010Y+2964600D01*
X-3068340Y+2964600D01*
X-3041670Y+2939200D01*
X-3041670Y+2913800D01*
X-3068340Y+2888400D01*
X-3095010Y+2888400D01*
X-3121680Y+2913800D01*
X-3121680Y+2939200D01*
X-3068340Y+2913800D02*
X-3041670Y+2888400D01*
X-3001665Y+2964600D02*
X-2934990Y+2964600D01*
X-2934990Y+2951900D01*
X-3001665Y+2888400D01*
D51*
X-2980000Y+1760000D02*
X-2980000Y+1840000D01*
D52*
X-3086680Y+1648400D02*
X-3086680Y+1724600D01*
X-3020005Y+1724600D01*
X-3006670Y+1711900D01*
X-3006670Y+1699200D01*
X-3020005Y+1686500D01*
X-3086680Y+1686500D01*
X-3020005Y+1686500D02*
X-3006670Y+1673800D01*
X-3006670Y+1648400D01*
X-2953330Y+1699200D02*
X-2926660Y+1724600D01*
X-2926660Y+1648400D01*
D51*
X-2980000Y+1560000D02*
X-2980000Y+1640000D01*
D52*
X-3086680Y+1448400D02*
X-3086680Y+1524600D01*
X-3020005Y+1524600D01*
X-3006670Y+1511900D01*
X-3006670Y+1499200D01*
X-3020005Y+1486500D01*
X-3086680Y+1486500D01*
X-3020005Y+1486500D02*
X-3006670Y+1473800D01*
X-3006670Y+1448400D01*
X-2966665Y+1511900D02*
X-2953330Y+1524600D01*
X-2913325Y+1524600D01*
X-2899990Y+1511900D01*
X-2899990Y+1499200D01*
X-2913325Y+1486500D01*
X-2953330Y+1486500D01*
X-2966665Y+1473800D01*
X-2966665Y+1448400D01*
X-2899990Y+1448400D01*
D51*
X-2980000Y+1360000D02*
X-2980000Y+1440000D01*
D52*
X-3086680Y+1248400D02*
X-3086680Y+1324600D01*
X-3020005Y+1324600D01*
X-3006670Y+1311900D01*
X-3006670Y+1299200D01*
X-3020005Y+1286500D01*
X-3086680Y+1286500D01*
X-3020005Y+1286500D02*
X-3006670Y+1273800D01*
X-3006670Y+1248400D01*
X-2966665Y+1311900D02*
X-2953330Y+1324600D01*
X-2913325Y+1324600D01*
X-2899990Y+1311900D01*
X-2899990Y+1299200D01*
X-2913325Y+1286500D01*
X-2899990Y+1273800D01*
X-2899990Y+1261100D01*
X-2913325Y+1248400D01*
X-2953330Y+1248400D01*
X-2966665Y+1261100D01*
X-2939995Y+1286500D02*
X-2913325Y+1286500D01*
D51*
X-920000Y-2960000D02*
X-920000Y-3040000D01*
D52*
X-1026680Y-2924600D02*
X-1026680Y-2848400D01*
X-960005Y-2848400D01*
X-946670Y-2861100D01*
X-946670Y-2873800D01*
X-960005Y-2886500D01*
X-1026680Y-2886500D01*
X-960005Y-2886500D02*
X-946670Y-2899200D01*
X-946670Y-2924600D01*
X-893330Y-2886500D02*
X-906665Y-2873800D01*
X-906665Y-2861100D01*
X-893330Y-2848400D01*
X-853325Y-2848400D01*
X-839990Y-2861100D01*
X-839990Y-2873800D01*
X-853325Y-2886500D01*
X-893330Y-2886500D01*
X-906665Y-2899200D01*
X-906665Y-2911900D01*
X-893330Y-2924600D01*
X-853325Y-2924600D01*
X-839990Y-2911900D01*
X-839990Y-2899200D01*
X-853325Y-2886500D01*
D56*
X+162500Y-4185000D02*
X+162457Y-4183961D01*
X+162105Y-4181882D01*
X+161368Y-4179803D01*
X+160164Y-4177724D01*
X+158323Y-4175674D01*
X+156244Y-4174171D01*
X+154165Y-4173214D01*
X+152086Y-4172675D01*
X+150007Y-4172500D01*
X+150000Y-4172500D01*
X+137500Y-4185000D02*
X+137543Y-4183961D01*
X+137895Y-4181882D01*
X+138632Y-4179803D01*
X+139836Y-4177724D01*
X+141677Y-4175674D01*
X+143756Y-4174171D01*
X+145835Y-4173214D01*
X+147914Y-4172675D01*
X+149993Y-4172500D01*
X+150000Y-4172500D01*
X+137500Y-4185000D02*
X+137543Y-4186039D01*
X+137895Y-4188118D01*
X+138632Y-4190197D01*
X+139836Y-4192276D01*
X+141677Y-4194326D01*
X+143756Y-4195829D01*
X+145835Y-4196786D01*
X+147914Y-4197325D01*
X+149993Y-4197500D01*
X+150000Y-4197500D01*
X+162500Y-4185000D02*
X+162457Y-4186039D01*
X+162105Y-4188118D01*
X+161368Y-4190197D01*
X+160164Y-4192276D01*
X+158323Y-4194326D01*
X+156244Y-4195829D01*
X+154165Y-4196786D01*
X+152086Y-4197325D01*
X+150007Y-4197500D01*
X+150000Y-4197500D01*
D51*
X+45000Y-3850000D02*
X-15000Y-3850000D01*
X-15000Y-4150000D01*
X+45000Y-4150000D01*
X+45000Y-3850000D01*
D52*
X-91680Y-4260800D02*
X-65010Y-4235400D01*
X-38340Y-4235400D01*
X-11670Y-4260800D01*
X-11670Y-4286200D01*
X-38340Y-4311600D01*
X-65010Y-4311600D01*
X-91680Y-4286200D01*
X-91680Y-4260800D01*
X-38340Y-4286200D02*
X-11670Y-4311600D01*
X+41670Y-4260800D02*
X+68340Y-4235400D01*
X+68340Y-4311600D01*
D56*
X+702500Y-4880000D02*
X+702457Y-4878961D01*
X+702105Y-4876882D01*
X+701368Y-4874803D01*
X+700164Y-4872724D01*
X+698323Y-4870674D01*
X+696244Y-4869171D01*
X+694165Y-4868214D01*
X+692086Y-4867675D01*
X+690007Y-4867500D01*
X+690000Y-4867500D01*
X+677500Y-4880000D02*
X+677543Y-4878961D01*
X+677895Y-4876882D01*
X+678632Y-4874803D01*
X+679836Y-4872724D01*
X+681677Y-4870674D01*
X+683756Y-4869171D01*
X+685835Y-4868214D01*
X+687914Y-4867675D01*
X+689993Y-4867500D01*
X+690000Y-4867500D01*
X+677500Y-4880000D02*
X+677543Y-4881039D01*
X+677895Y-4883118D01*
X+678632Y-4885197D01*
X+679836Y-4887276D01*
X+681677Y-4889326D01*
X+683756Y-4890829D01*
X+685835Y-4891786D01*
X+687914Y-4892325D01*
X+689993Y-4892500D01*
X+690000Y-4892500D01*
X+702500Y-4880000D02*
X+702457Y-4881039D01*
X+702105Y-4883118D01*
X+701368Y-4885197D01*
X+700164Y-4887276D01*
X+698323Y-4889326D01*
X+696244Y-4890829D01*
X+694165Y-4891786D01*
X+692086Y-4892325D01*
X+690007Y-4892500D01*
X+690000Y-4892500D01*
D51*
X+355000Y-4985000D02*
X+355000Y-5045000D01*
X+655000Y-5045000D01*
X+655000Y-4985000D01*
X+355000Y-4985000D01*
D52*
X+765800Y-5121680D02*
X+740400Y-5095010D01*
X+740400Y-5068340D01*
X+765800Y-5041670D01*
X+791200Y-5041670D01*
X+816600Y-5068340D01*
X+816600Y-5095010D01*
X+791200Y-5121680D01*
X+765800Y-5121680D01*
X+791200Y-5068340D02*
X+816600Y-5041670D01*
X+753100Y-5001665D02*
X+740400Y-4988330D01*
X+740400Y-4948325D01*
X+753100Y-4934990D01*
X+765800Y-4934990D01*
X+778500Y-4948325D01*
X+778500Y-4988330D01*
X+791200Y-5001665D01*
X+816600Y-5001665D01*
X+816600Y-4934990D01*
D56*
X+132500Y-3185000D02*
X+132457Y-3183961D01*
X+132105Y-3181882D01*
X+131368Y-3179803D01*
X+130164Y-3177724D01*
X+128323Y-3175674D01*
X+126244Y-3174171D01*
X+124165Y-3173214D01*
X+122086Y-3172675D01*
X+120007Y-3172500D01*
X+120000Y-3172500D01*
X+107500Y-3185000D02*
X+107543Y-3183961D01*
X+107895Y-3181882D01*
X+108632Y-3179803D01*
X+109836Y-3177724D01*
X+111677Y-3175674D01*
X+113756Y-3174171D01*
X+115835Y-3173214D01*
X+117914Y-3172675D01*
X+119993Y-3172500D01*
X+120000Y-3172500D01*
X+107500Y-3185000D02*
X+107543Y-3186039D01*
X+107895Y-3188118D01*
X+108632Y-3190197D01*
X+109836Y-3192276D01*
X+111677Y-3194326D01*
X+113756Y-3195829D01*
X+115835Y-3196786D01*
X+117914Y-3197325D01*
X+119993Y-3197500D01*
X+120000Y-3197500D01*
X+132500Y-3185000D02*
X+132457Y-3186039D01*
X+132105Y-3188118D01*
X+131368Y-3190197D01*
X+130164Y-3192276D01*
X+128323Y-3194326D01*
X+126244Y-3195829D01*
X+124165Y-3196786D01*
X+122086Y-3197325D01*
X+120007Y-3197500D01*
X+120000Y-3197500D01*
D51*
X+15000Y-2850000D02*
X-45000Y-2850000D01*
X-45000Y-3150000D01*
X+15000Y-3150000D01*
X+15000Y-2850000D01*
D52*
X-121680Y-3260800D02*
X-95010Y-3235400D01*
X-68340Y-3235400D01*
X-41670Y-3260800D01*
X-41670Y-3286200D01*
X-68340Y-3311600D01*
X-95010Y-3311600D01*
X-121680Y-3286200D01*
X-121680Y-3260800D01*
X-68340Y-3286200D02*
X-41670Y-3311600D01*
X-1665Y-3248100D02*
X+11670Y-3235400D01*
X+51675Y-3235400D01*
X+65010Y-3248100D01*
X+65010Y-3260800D01*
X+51675Y-3273500D01*
X+65010Y-3286200D01*
X+65010Y-3298900D01*
X+51675Y-3311600D01*
X+11670Y-3311600D01*
X-1665Y-3298900D01*
X+25005Y-3273500D02*
X+51675Y-3273500D01*
D56*
X-1367500Y-1180000D02*
X-1367543Y-1178961D01*
X-1367895Y-1176882D01*
X-1368632Y-1174803D01*
X-1369836Y-1172724D01*
X-1371677Y-1170674D01*
X-1373756Y-1169171D01*
X-1375835Y-1168214D01*
X-1377914Y-1167675D01*
X-1379993Y-1167500D01*
X-1380000Y-1167500D01*
X-1392500Y-1180000D02*
X-1392457Y-1178961D01*
X-1392105Y-1176882D01*
X-1391368Y-1174803D01*
X-1390164Y-1172724D01*
X-1388323Y-1170674D01*
X-1386244Y-1169171D01*
X-1384165Y-1168214D01*
X-1382086Y-1167675D01*
X-1380007Y-1167500D01*
X-1380000Y-1167500D01*
X-1392500Y-1180000D02*
X-1392457Y-1181039D01*
X-1392105Y-1183118D01*
X-1391368Y-1185197D01*
X-1390164Y-1187276D01*
X-1388323Y-1189326D01*
X-1386244Y-1190829D01*
X-1384165Y-1191786D01*
X-1382086Y-1192325D01*
X-1380007Y-1192500D01*
X-1380000Y-1192500D01*
X-1367500Y-1180000D02*
X-1367543Y-1181039D01*
X-1367895Y-1183118D01*
X-1368632Y-1185197D01*
X-1369836Y-1187276D01*
X-1371677Y-1189326D01*
X-1373756Y-1190829D01*
X-1375835Y-1191786D01*
X-1377914Y-1192325D01*
X-1379993Y-1192500D01*
X-1380000Y-1192500D01*
D51*
X-1485000Y-845000D02*
X-1545000Y-845000D01*
X-1545000Y-1145000D01*
X-1485000Y-1145000D01*
X-1485000Y-845000D01*
D52*
X-1621680Y-1255800D02*
X-1595010Y-1230400D01*
X-1568340Y-1230400D01*
X-1541670Y-1255800D01*
X-1541670Y-1281200D01*
X-1568340Y-1306600D01*
X-1595010Y-1306600D01*
X-1621680Y-1281200D01*
X-1621680Y-1255800D01*
X-1568340Y-1281200D02*
X-1541670Y-1306600D01*
X-1434990Y-1281200D02*
X-1515000Y-1281200D01*
X-1461660Y-1230400D01*
X-1461660Y-1306600D01*
D56*
X-467500Y-1180000D02*
X-467543Y-1178961D01*
X-467895Y-1176882D01*
X-468632Y-1174803D01*
X-469836Y-1172724D01*
X-471677Y-1170674D01*
X-473756Y-1169171D01*
X-475835Y-1168214D01*
X-477914Y-1167675D01*
X-479993Y-1167500D01*
X-480000Y-1167500D01*
X-492500Y-1180000D02*
X-492457Y-1178961D01*
X-492105Y-1176882D01*
X-491368Y-1174803D01*
X-490164Y-1172724D01*
X-488323Y-1170674D01*
X-486244Y-1169171D01*
X-484165Y-1168214D01*
X-482086Y-1167675D01*
X-480007Y-1167500D01*
X-480000Y-1167500D01*
X-492500Y-1180000D02*
X-492457Y-1181039D01*
X-492105Y-1183118D01*
X-491368Y-1185197D01*
X-490164Y-1187276D01*
X-488323Y-1189326D01*
X-486244Y-1190829D01*
X-484165Y-1191786D01*
X-482086Y-1192325D01*
X-480007Y-1192500D01*
X-480000Y-1192500D01*
X-467500Y-1180000D02*
X-467543Y-1181039D01*
X-467895Y-1183118D01*
X-468632Y-1185197D01*
X-469836Y-1187276D01*
X-471677Y-1189326D01*
X-473756Y-1190829D01*
X-475835Y-1191786D01*
X-477914Y-1192325D01*
X-479993Y-1192500D01*
X-480000Y-1192500D01*
D51*
X-585000Y-845000D02*
X-645000Y-845000D01*
X-645000Y-1145000D01*
X-585000Y-1145000D01*
X-585000Y-845000D01*
D52*
X-721680Y-1255800D02*
X-695010Y-1230400D01*
X-668340Y-1230400D01*
X-641670Y-1255800D01*
X-641670Y-1281200D01*
X-668340Y-1306600D01*
X-695010Y-1306600D01*
X-721680Y-1281200D01*
X-721680Y-1255800D01*
X-668340Y-1281200D02*
X-641670Y-1306600D01*
X-534990Y-1230400D02*
X-601665Y-1230400D01*
X-601665Y-1255800D01*
X-548325Y-1255800D01*
X-534990Y-1268500D01*
X-534990Y-1293900D01*
X-548325Y-1306600D01*
X-588330Y-1306600D01*
X-601665Y-1293900D01*
D51*
X-3020000Y+40000D02*
X-3020000Y-40000D01*
D52*
X-3180020Y+75400D02*
X-3180020Y+151600D01*
X-3113345Y+151600D01*
X-3100010Y+138900D01*
X-3100010Y+126200D01*
X-3113345Y+113500D01*
X-3180020Y+113500D01*
X-3113345Y+113500D02*
X-3100010Y+100800D01*
X-3100010Y+75400D01*
X-2993330Y+100800D02*
X-3073340Y+100800D01*
X-3020000Y+151600D01*
X-3020000Y+75400D01*
X-2886650Y+138900D02*
X-2899985Y+151600D01*
X-2939990Y+151600D01*
X-2953325Y+138900D01*
X-2953325Y+88100D01*
X-2939990Y+75400D01*
X-2899985Y+75400D01*
X-2886650Y+88100D01*
X-2886650Y+100800D01*
X-2899985Y+113500D01*
X-2953325Y+113500D01*
D51*
X-2560000Y-40000D02*
X-2560000Y+40000D01*
D52*
X-2720020Y-151600D02*
X-2720020Y-75400D01*
X-2653345Y-75400D01*
X-2640010Y-88100D01*
X-2640010Y-100800D01*
X-2653345Y-113500D01*
X-2720020Y-113500D01*
X-2653345Y-113500D02*
X-2640010Y-126200D01*
X-2640010Y-151600D01*
X-2533330Y-126200D02*
X-2613340Y-126200D01*
X-2560000Y-75400D01*
X-2560000Y-151600D01*
X-2493325Y-75400D02*
X-2426650Y-75400D01*
X-2426650Y-88100D01*
X-2493325Y-151600D01*
D51*
X-3680000Y-1440000D02*
X-3680000Y-1360000D01*
D52*
X-3840020Y-1551600D02*
X-3840020Y-1475400D01*
X-3773345Y-1475400D01*
X-3760010Y-1488100D01*
X-3760010Y-1500800D01*
X-3773345Y-1513500D01*
X-3840020Y-1513500D01*
X-3773345Y-1513500D02*
X-3760010Y-1526200D01*
X-3760010Y-1551600D01*
X-3706670Y-1500800D02*
X-3680000Y-1475400D01*
X-3680000Y-1551600D01*
X-3546650Y-1475400D02*
X-3613325Y-1475400D01*
X-3613325Y-1500800D01*
X-3559985Y-1500800D01*
X-3546650Y-1513500D01*
X-3546650Y-1538900D01*
X-3559985Y-1551600D01*
X-3599990Y-1551600D01*
X-3613325Y-1538900D01*
D51*
X-3680000Y-1240000D02*
X-3680000Y-1160000D01*
D52*
X-3840020Y-1351600D02*
X-3840020Y-1275400D01*
X-3773345Y-1275400D01*
X-3760010Y-1288100D01*
X-3760010Y-1300800D01*
X-3773345Y-1313500D01*
X-3840020Y-1313500D01*
X-3773345Y-1313500D02*
X-3760010Y-1326200D01*
X-3760010Y-1351600D01*
X-3706670Y-1300800D02*
X-3680000Y-1275400D01*
X-3680000Y-1351600D01*
X-3546650Y-1288100D02*
X-3559985Y-1275400D01*
X-3599990Y-1275400D01*
X-3613325Y-1288100D01*
X-3613325Y-1338900D01*
X-3599990Y-1351600D01*
X-3559985Y-1351600D01*
X-3546650Y-1338900D01*
X-3546650Y-1326200D01*
X-3559985Y-1313500D01*
X-3613325Y-1313500D01*
D51*
X-480000Y+5060000D02*
X-480000Y+5140000D01*
D52*
X-506670Y+4961100D02*
X-520005Y+4948400D01*
X-560010Y+4948400D01*
X-586680Y+4973800D01*
X-586680Y+4999200D01*
X-560010Y+5024600D01*
X-520005Y+5024600D01*
X-506670Y+5011900D01*
X-466665Y+5011900D02*
X-453330Y+5024600D01*
X-413325Y+5024600D01*
X-399990Y+5011900D01*
X-399990Y+4999200D01*
X-413325Y+4986500D01*
X-453330Y+4986500D01*
X-466665Y+4973800D01*
X-466665Y+4948400D01*
X-399990Y+4948400D01*
D51*
X-480000Y+2860000D02*
X-480000Y+2940000D01*
D52*
X-506670Y+2761100D02*
X-520005Y+2748400D01*
X-560010Y+2748400D01*
X-586680Y+2773800D01*
X-586680Y+2799200D01*
X-560010Y+2824600D01*
X-520005Y+2824600D01*
X-506670Y+2811900D01*
X-466665Y+2811900D02*
X-453330Y+2824600D01*
X-413325Y+2824600D01*
X-399990Y+2811900D01*
X-399990Y+2799200D01*
X-413325Y+2786500D01*
X-399990Y+2773800D01*
X-399990Y+2761100D01*
X-413325Y+2748400D01*
X-453330Y+2748400D01*
X-466665Y+2761100D01*
X-439995Y+2786500D02*
X-413325Y+2786500D01*
D51*
X-3700000Y+910000D02*
X-3700000Y+990000D01*
D52*
X-3860020Y+798400D02*
X-3860020Y+874600D01*
X-3793345Y+874600D01*
X-3780010Y+861900D01*
X-3780010Y+849200D01*
X-3793345Y+836500D01*
X-3860020Y+836500D01*
X-3793345Y+836500D02*
X-3780010Y+823800D01*
X-3780010Y+798400D01*
X-3740005Y+861900D02*
X-3726670Y+874600D01*
X-3686665Y+874600D01*
X-3673330Y+861900D01*
X-3673330Y+849200D01*
X-3686665Y+836500D01*
X-3726670Y+836500D01*
X-3740005Y+823800D01*
X-3740005Y+798400D01*
X-3673330Y+798400D01*
X-3633325Y+861900D02*
X-3619990Y+874600D01*
X-3579985Y+874600D01*
X-3566650Y+861900D01*
X-3566650Y+849200D01*
X-3579985Y+836500D01*
X-3619990Y+836500D01*
X-3633325Y+823800D01*
X-3633325Y+798400D01*
X-3566650Y+798400D01*
D51*
X-3700000Y+610000D02*
X-3700000Y+690000D01*
D52*
X-3860020Y+498400D02*
X-3860020Y+574600D01*
X-3793345Y+574600D01*
X-3780010Y+561900D01*
X-3780010Y+549200D01*
X-3793345Y+536500D01*
X-3860020Y+536500D01*
X-3793345Y+536500D02*
X-3780010Y+523800D01*
X-3780010Y+498400D01*
X-3740005Y+561900D02*
X-3726670Y+574600D01*
X-3686665Y+574600D01*
X-3673330Y+561900D01*
X-3673330Y+549200D01*
X-3686665Y+536500D01*
X-3726670Y+536500D01*
X-3740005Y+523800D01*
X-3740005Y+498400D01*
X-3673330Y+498400D01*
X-3633325Y+561900D02*
X-3619990Y+574600D01*
X-3579985Y+574600D01*
X-3566650Y+561900D01*
X-3566650Y+549200D01*
X-3579985Y+536500D01*
X-3566650Y+523800D01*
X-3566650Y+511100D01*
X-3579985Y+498400D01*
X-3619990Y+498400D01*
X-3633325Y+511100D01*
X-3606655Y+536500D02*
X-3579985Y+536500D01*
D51*
X-3700000Y+310000D02*
X-3700000Y+390000D01*
D52*
X-3860020Y+198400D02*
X-3860020Y+274600D01*
X-3793345Y+274600D01*
X-3780010Y+261900D01*
X-3780010Y+249200D01*
X-3793345Y+236500D01*
X-3860020Y+236500D01*
X-3793345Y+236500D02*
X-3780010Y+223800D01*
X-3780010Y+198400D01*
X-3740005Y+261900D02*
X-3726670Y+274600D01*
X-3686665Y+274600D01*
X-3673330Y+261900D01*
X-3673330Y+249200D01*
X-3686665Y+236500D01*
X-3726670Y+236500D01*
X-3740005Y+223800D01*
X-3740005Y+198400D01*
X-3673330Y+198400D01*
X-3566650Y+223800D02*
X-3646660Y+223800D01*
X-3593320Y+274600D01*
X-3593320Y+198400D01*
D51*
X-2040000Y-4620000D02*
X-1960000Y-4620000D01*
D52*
X-2088100Y-4646670D02*
X-2075400Y-4660005D01*
X-2075400Y-4700010D01*
X-2100800Y-4726680D01*
X-2126200Y-4726680D01*
X-2151600Y-4700010D01*
X-2151600Y-4660005D01*
X-2138900Y-4646670D01*
X-2151600Y-4539990D02*
X-2151600Y-4606665D01*
X-2126200Y-4606665D01*
X-2126200Y-4553325D01*
X-2113500Y-4539990D01*
X-2088100Y-4539990D01*
X-2075400Y-4553325D01*
X-2075400Y-4593330D01*
X-2088100Y-4606665D01*
D51*
X-1960000Y-3620000D02*
X-2040000Y-3620000D01*
D52*
X-1861100Y-3646670D02*
X-1848400Y-3660005D01*
X-1848400Y-3700010D01*
X-1873800Y-3726680D01*
X-1899200Y-3726680D01*
X-1924600Y-3700010D01*
X-1924600Y-3660005D01*
X-1911900Y-3646670D01*
X-1886500Y-3593330D02*
X-1899200Y-3606665D01*
X-1911900Y-3606665D01*
X-1924600Y-3593330D01*
X-1924600Y-3553325D01*
X-1911900Y-3539990D01*
X-1899200Y-3539990D01*
X-1886500Y-3553325D01*
X-1886500Y-3593330D01*
X-1873800Y-3606665D01*
X-1861100Y-3606665D01*
X-1848400Y-3593330D01*
X-1848400Y-3553325D01*
X-1861100Y-3539990D01*
X-1873800Y-3539990D01*
X-1886500Y-3553325D01*
D51*
X+3660000Y+280000D02*
X+3740000Y+280000D01*
D52*
X+3611900Y+199990D02*
X+3624600Y+186655D01*
X+3624600Y+146650D01*
X+3599200Y+119980D01*
X+3573800Y+119980D01*
X+3548400Y+146650D01*
X+3548400Y+186655D01*
X+3561100Y+199990D01*
X+3573800Y+253330D02*
X+3548400Y+280000D01*
X+3624600Y+280000D01*
X+3561100Y+346675D02*
X+3548400Y+360010D01*
X+3548400Y+400015D01*
X+3561100Y+413350D01*
X+3573800Y+413350D01*
X+3586500Y+400015D01*
X+3586500Y+360010D01*
X+3599200Y+346675D01*
X+3624600Y+346675D01*
X+3624600Y+413350D01*
D51*
X+960000Y-4020000D02*
X+1040000Y-4020000D01*
D52*
X+924600Y-4126680D02*
X+848400Y-4126680D01*
X+848400Y-4060005D01*
X+861100Y-4046670D01*
X+873800Y-4046670D01*
X+886500Y-4060005D01*
X+886500Y-4126680D01*
X+886500Y-4060005D02*
X+899200Y-4046670D01*
X+924600Y-4046670D01*
X+873800Y-3939990D02*
X+886500Y-3953325D01*
X+886500Y-3993330D01*
X+873800Y-4006665D01*
X+861100Y-4006665D01*
X+848400Y-3993330D01*
X+848400Y-3953325D01*
X+861100Y-3939990D01*
X+911900Y-3939990D01*
X+924600Y-3953325D01*
X+924600Y-3993330D01*
D51*
X+960000Y-3020000D02*
X+1040000Y-3020000D01*
D52*
X+924600Y-3180020D02*
X+848400Y-3180020D01*
X+848400Y-3113345D01*
X+861100Y-3100010D01*
X+873800Y-3100010D01*
X+886500Y-3113345D01*
X+886500Y-3180020D01*
X+886500Y-3113345D02*
X+899200Y-3100010D01*
X+924600Y-3100010D01*
X+873800Y-3046670D02*
X+848400Y-3020000D01*
X+924600Y-3020000D01*
X+911900Y-2966660D02*
X+861100Y-2966660D01*
X+848400Y-2953325D01*
X+848400Y-2899985D01*
X+861100Y-2886650D01*
X+911900Y-2886650D01*
X+924600Y-2899985D01*
X+924600Y-2953325D01*
X+911900Y-2966660D01*
X+924600Y-2966660D02*
X+848400Y-2886650D01*
D51*
X+1040000Y-3520000D02*
X+960000Y-3520000D01*
D52*
X+1151600Y-3680020D02*
X+1075400Y-3680020D01*
X+1075400Y-3613345D01*
X+1088100Y-3600010D01*
X+1100800Y-3600010D01*
X+1113500Y-3613345D01*
X+1113500Y-3680020D01*
X+1113500Y-3613345D02*
X+1126200Y-3600010D01*
X+1151600Y-3600010D01*
X+1100800Y-3546670D02*
X+1075400Y-3520000D01*
X+1151600Y-3520000D01*
X+1100800Y-3439990D02*
X+1075400Y-3413320D01*
X+1151600Y-3413320D01*
D51*
X+40000Y-2280000D02*
X-40000Y-2280000D01*
D52*
X+151600Y-2440020D02*
X+75400Y-2440020D01*
X+75400Y-2373345D01*
X+88100Y-2360010D01*
X+100800Y-2360010D01*
X+113500Y-2373345D01*
X+113500Y-2440020D01*
X+113500Y-2373345D02*
X+126200Y-2360010D01*
X+151600Y-2360010D01*
X+100800Y-2306670D02*
X+75400Y-2280000D01*
X+151600Y-2280000D01*
X+88100Y-2213325D02*
X+75400Y-2199990D01*
X+75400Y-2159985D01*
X+88100Y-2146650D01*
X+100800Y-2146650D01*
X+113500Y-2159985D01*
X+126200Y-2146650D01*
X+138900Y-2146650D01*
X+151600Y-2159985D01*
X+151600Y-2199990D01*
X+138900Y-2213325D01*
X+113500Y-2186655D02*
X+113500Y-2159985D01*
D51*
X-1120000Y-2760000D02*
X-1120000Y-2840000D01*
D52*
X-1280020Y-2724600D02*
X-1280020Y-2648400D01*
X-1213345Y-2648400D01*
X-1200010Y-2661100D01*
X-1200010Y-2673800D01*
X-1213345Y-2686500D01*
X-1280020Y-2686500D01*
X-1213345Y-2686500D02*
X-1200010Y-2699200D01*
X-1200010Y-2724600D01*
X-1146670Y-2673800D02*
X-1120000Y-2648400D01*
X-1120000Y-2724600D01*
X-986650Y-2699200D02*
X-1066660Y-2699200D01*
X-1013320Y-2648400D01*
X-1013320Y-2724600D01*
D51*
X-456666Y+6160000D02*
X-536666Y+6160000D01*
D52*
X-345066Y+5999980D02*
X-421266Y+5999980D01*
X-421266Y+6066655D01*
X-408566Y+6079990D01*
X-395866Y+6079990D01*
X-383166Y+6066655D01*
X-383166Y+5999980D01*
X-383166Y+6066655D02*
X-370466Y+6079990D01*
X-345066Y+6079990D01*
X-408566Y+6119995D02*
X-421266Y+6133330D01*
X-421266Y+6173335D01*
X-408566Y+6186670D01*
X-395866Y+6186670D01*
X-383166Y+6173335D01*
X-370466Y+6186670D01*
X-357766Y+6186670D01*
X-345066Y+6173335D01*
X-345066Y+6133330D01*
X-357766Y+6119995D01*
X-383166Y+6146665D02*
X-383166Y+6173335D01*
X-357766Y+6213340D02*
X-408566Y+6213340D01*
X-421266Y+6226675D01*
X-421266Y+6280015D01*
X-408566Y+6293350D01*
X-357766Y+6293350D01*
X-345066Y+6280015D01*
X-345066Y+6226675D01*
X-357766Y+6213340D01*
X-345066Y+6213340D02*
X-421266Y+6293350D01*
D51*
X-123333Y+6160000D02*
X-203333Y+6160000D01*
D52*
X-11733Y+5999980D02*
X-87933Y+5999980D01*
X-87933Y+6066655D01*
X-75233Y+6079990D01*
X-62533Y+6079990D01*
X-49833Y+6066655D01*
X-49833Y+5999980D01*
X-49833Y+6066655D02*
X-37133Y+6079990D01*
X-11733Y+6079990D01*
X-75233Y+6119995D02*
X-87933Y+6133330D01*
X-87933Y+6173335D01*
X-75233Y+6186670D01*
X-62533Y+6186670D01*
X-49833Y+6173335D01*
X-37133Y+6186670D01*
X-24433Y+6186670D01*
X-11733Y+6173335D01*
X-11733Y+6133330D01*
X-24433Y+6119995D01*
X-49833Y+6146665D02*
X-49833Y+6173335D01*
X-62533Y+6240010D02*
X-87933Y+6266680D01*
X-11733Y+6266680D01*
D51*
X+210000Y+6160000D02*
X+130000Y+6160000D01*
D52*
X+321600Y+5999980D02*
X+245400Y+5999980D01*
X+245400Y+6066655D01*
X+258100Y+6079990D01*
X+270800Y+6079990D01*
X+283500Y+6066655D01*
X+283500Y+5999980D01*
X+283500Y+6066655D02*
X+296200Y+6079990D01*
X+321600Y+6079990D01*
X+258100Y+6119995D02*
X+245400Y+6133330D01*
X+245400Y+6173335D01*
X+258100Y+6186670D01*
X+270800Y+6186670D01*
X+283500Y+6173335D01*
X+296200Y+6186670D01*
X+308900Y+6186670D01*
X+321600Y+6173335D01*
X+321600Y+6133330D01*
X+308900Y+6119995D01*
X+283500Y+6146665D02*
X+283500Y+6173335D01*
X+258100Y+6226675D02*
X+245400Y+6240010D01*
X+245400Y+6280015D01*
X+258100Y+6293350D01*
X+270800Y+6293350D01*
X+283500Y+6280015D01*
X+283500Y+6240010D01*
X+296200Y+6226675D01*
X+321600Y+6226675D01*
X+321600Y+6293350D01*
D51*
X+543334Y+6160000D02*
X+463334Y+6160000D01*
D52*
X+654934Y+5999980D02*
X+578734Y+5999980D01*
X+578734Y+6066655D01*
X+591434Y+6079990D01*
X+604134Y+6079990D01*
X+616834Y+6066655D01*
X+616834Y+5999980D01*
X+616834Y+6066655D02*
X+629534Y+6079990D01*
X+654934Y+6079990D01*
X+591434Y+6119995D02*
X+578734Y+6133330D01*
X+578734Y+6173335D01*
X+591434Y+6186670D01*
X+604134Y+6186670D01*
X+616834Y+6173335D01*
X+629534Y+6186670D01*
X+642234Y+6186670D01*
X+654934Y+6173335D01*
X+654934Y+6133330D01*
X+642234Y+6119995D01*
X+616834Y+6146665D02*
X+616834Y+6173335D01*
X+591434Y+6226675D02*
X+578734Y+6240010D01*
X+578734Y+6280015D01*
X+591434Y+6293350D01*
X+604134Y+6293350D01*
X+616834Y+6280015D01*
X+629534Y+6293350D01*
X+642234Y+6293350D01*
X+654934Y+6280015D01*
X+654934Y+6240010D01*
X+642234Y+6226675D01*
X+616834Y+6253345D02*
X+616834Y+6280015D01*
D51*
X+2380000Y+4970000D02*
X+2380000Y+4890000D01*
D52*
X+2219980Y+5005400D02*
X+2219980Y+5081600D01*
X+2286655Y+5081600D01*
X+2299990Y+5068900D01*
X+2299990Y+5056200D01*
X+2286655Y+5043500D01*
X+2219980Y+5043500D01*
X+2286655Y+5043500D02*
X+2299990Y+5030800D01*
X+2299990Y+5005400D01*
X+2406670Y+5030800D02*
X+2326660Y+5030800D01*
X+2380000Y+5081600D01*
X+2380000Y+5005400D01*
X+2433340Y+5018100D02*
X+2433340Y+5068900D01*
X+2446675Y+5081600D01*
X+2500015Y+5081600D01*
X+2513350Y+5068900D01*
X+2513350Y+5018100D01*
X+2500015Y+5005400D01*
X+2446675Y+5005400D01*
X+2433340Y+5018100D01*
X+2433340Y+5005400D02*
X+2513350Y+5081600D01*
M02*
