G04 PROTEUS GERBER X2 FILE*
%TF.GenerationSoftware,Labcenter,Proteus,8.15-SP0-Build33980*%
%TF.CreationDate,2023-03-15T16:04:22+00:00*%
%TF.FileFunction,AssemblyDrawing,Bot*%
%TF.FilePolarity,Positive*%
%TF.Part,Single*%
%TF.SameCoordinates,{4545a914-5e6f-4f91-a9de-dead5439e7db}*%
%FSLAX45Y45*%
%MOMM*%
G01*
%TA.AperFunction,Profile*%
%ADD47C,0.101600*%
%TA.AperFunction,Material*%
%ADD52C,0.101600*%
%ADD125C,0.711200*%
%ADD172C,0.180790*%
%ADD120C,0.050000*%
%ADD173C,0.243840*%
%ADD174C,0.041710*%
%TD.AperFunction*%
D47*
X+5500000Y-6900000D02*
X+5498010Y-6920447D01*
X+5492285Y-6939355D01*
X+5471094Y-6971094D01*
X+5439356Y-6992285D01*
X+5420447Y-6998010D01*
X+5400000Y-7000000D01*
X-5500000Y-6900000D02*
X-5498010Y-6920447D01*
X-5492285Y-6939355D01*
X-5471094Y-6971094D01*
X-5439356Y-6992285D01*
X-5420447Y-6998010D01*
X-5400000Y-7000000D01*
X+5400000Y+8000000D02*
X+5420447Y+7998010D01*
X+5439356Y+7992285D01*
X+5471094Y+7971094D01*
X+5492285Y+7939355D01*
X+5498010Y+7920447D01*
X+5500000Y+7900000D01*
X-5400000Y+8000000D02*
X-5420447Y+7998010D01*
X-5439356Y+7992285D01*
X-5471094Y+7971094D01*
X-5492285Y+7939355D01*
X-5498010Y+7920447D01*
X-5500000Y+7900000D01*
X-5400000Y+8000000D02*
X+5400000Y+8000000D01*
X+5500000Y+7900000D02*
X+5500000Y-6900000D01*
X+5400000Y-7000000D02*
X-5400000Y-7000000D01*
X-5500000Y-6900000D02*
X-5500000Y+7900000D01*
D52*
X+2136920Y+5822600D02*
X+2647080Y+5822600D01*
X+2647080Y+6762400D01*
X+2136920Y+6762400D01*
X+2136920Y+5822600D01*
D125*
X+2510000Y+6673500D02*
X+2510000Y+6673500D01*
D172*
X+2446238Y+6555700D02*
X+2337761Y+6555700D01*
X+2337761Y+6474343D01*
X+2373920Y+6433664D01*
X+2410079Y+6433664D01*
X+2446238Y+6474343D01*
X+2446238Y+6555700D01*
X+2428159Y+6392985D02*
X+2446238Y+6372646D01*
X+2446238Y+6291289D01*
X+2428159Y+6270949D01*
X+2410079Y+6270949D01*
X+2392000Y+6291289D01*
X+2392000Y+6372646D01*
X+2373920Y+6392985D01*
X+2355841Y+6392985D01*
X+2337761Y+6372646D01*
X+2337761Y+6291289D01*
X+2355841Y+6270949D01*
X+2337761Y+6230270D02*
X+2446238Y+6230270D01*
X+2392000Y+6169252D01*
X+2446238Y+6108234D01*
X+2337761Y+6108234D01*
X+2373920Y+6026877D02*
X+2337761Y+5986198D01*
X+2446238Y+5986198D01*
D120*
X-3785000Y+4845000D02*
X-3595000Y+4845000D01*
X-3595000Y+4755000D01*
X-3785000Y+4755000D01*
X-3785000Y+4845000D01*
X-3690000Y+4775000D02*
X-3690000Y+4825000D01*
X-3665000Y+4800000D02*
X-3715000Y+4800000D01*
D173*
X-3740000Y+4800000D02*
X-3740000Y+4800000D01*
D174*
X-3603838Y+4787485D02*
X-3603838Y+4812514D01*
X-3627303Y+4812514D01*
X-3631996Y+4808343D01*
X-3631996Y+4804171D01*
X-3627303Y+4800000D01*
X-3603838Y+4800000D01*
X-3627303Y+4800000D02*
X-3631996Y+4795828D01*
X-3631996Y+4787485D01*
X-3646075Y+4808343D02*
X-3650768Y+4812514D01*
X-3664847Y+4812514D01*
X-3669540Y+4808343D01*
X-3669540Y+4804171D01*
X-3664847Y+4800000D01*
X-3650768Y+4800000D01*
X-3646075Y+4795828D01*
X-3646075Y+4787485D01*
X-3669540Y+4787485D01*
X-3683619Y+4812514D02*
X-3707084Y+4812514D01*
X-3707084Y+4808343D01*
X-3683619Y+4787485D01*
D120*
X-3785000Y+5045000D02*
X-3595000Y+5045000D01*
X-3595000Y+4955000D01*
X-3785000Y+4955000D01*
X-3785000Y+5045000D01*
X-3690000Y+4975000D02*
X-3690000Y+5025000D01*
X-3665000Y+5000000D02*
X-3715000Y+5000000D01*
D173*
X-3740000Y+5000000D02*
X-3740000Y+5000000D01*
D174*
X-3603838Y+4987485D02*
X-3603838Y+5012514D01*
X-3627303Y+5012514D01*
X-3631996Y+5008343D01*
X-3631996Y+5004171D01*
X-3627303Y+5000000D01*
X-3603838Y+5000000D01*
X-3627303Y+5000000D02*
X-3631996Y+4995828D01*
X-3631996Y+4987485D01*
X-3646075Y+5008343D02*
X-3650768Y+5012514D01*
X-3664847Y+5012514D01*
X-3669540Y+5008343D01*
X-3669540Y+5004171D01*
X-3664847Y+5000000D01*
X-3650768Y+5000000D01*
X-3646075Y+4995828D01*
X-3646075Y+4987485D01*
X-3669540Y+4987485D01*
X-3688312Y+5000000D02*
X-3683619Y+5004171D01*
X-3683619Y+5008343D01*
X-3688312Y+5012514D01*
X-3702391Y+5012514D01*
X-3707084Y+5008343D01*
X-3707084Y+5004171D01*
X-3702391Y+5000000D01*
X-3688312Y+5000000D01*
X-3683619Y+4995828D01*
X-3683619Y+4991656D01*
X-3688312Y+4987485D01*
X-3702391Y+4987485D01*
X-3707084Y+4991656D01*
X-3707084Y+4995828D01*
X-3702391Y+5000000D01*
D120*
X-3785000Y+5245000D02*
X-3595000Y+5245000D01*
X-3595000Y+5155000D01*
X-3785000Y+5155000D01*
X-3785000Y+5245000D01*
X-3690000Y+5175000D02*
X-3690000Y+5225000D01*
X-3665000Y+5200000D02*
X-3715000Y+5200000D01*
D173*
X-3740000Y+5200000D02*
X-3740000Y+5200000D01*
D174*
X-3603838Y+5187485D02*
X-3603838Y+5212514D01*
X-3627303Y+5212514D01*
X-3631996Y+5208343D01*
X-3631996Y+5204171D01*
X-3627303Y+5200000D01*
X-3603838Y+5200000D01*
X-3627303Y+5200000D02*
X-3631996Y+5195828D01*
X-3631996Y+5187485D01*
X-3646075Y+5208343D02*
X-3650768Y+5212514D01*
X-3664847Y+5212514D01*
X-3669540Y+5208343D01*
X-3669540Y+5204171D01*
X-3664847Y+5200000D01*
X-3650768Y+5200000D01*
X-3646075Y+5195828D01*
X-3646075Y+5187485D01*
X-3669540Y+5187485D01*
X-3707084Y+5204171D02*
X-3702391Y+5200000D01*
X-3688312Y+5200000D01*
X-3683619Y+5204171D01*
X-3683619Y+5208343D01*
X-3688312Y+5212514D01*
X-3702391Y+5212514D01*
X-3707084Y+5208343D01*
X-3707084Y+5191656D01*
X-3702391Y+5187485D01*
X-3688312Y+5187485D01*
D120*
X-3785000Y+4245000D02*
X-3595000Y+4245000D01*
X-3595000Y+4155000D01*
X-3785000Y+4155000D01*
X-3785000Y+4245000D01*
X-3690000Y+4175000D02*
X-3690000Y+4225000D01*
X-3665000Y+4200000D02*
X-3715000Y+4200000D01*
D173*
X-3740000Y+4200000D02*
X-3740000Y+4200000D01*
D174*
X-3603838Y+4187485D02*
X-3603838Y+4212514D01*
X-3627303Y+4212514D01*
X-3631996Y+4208343D01*
X-3631996Y+4204171D01*
X-3627303Y+4200000D01*
X-3603838Y+4200000D01*
X-3627303Y+4200000D02*
X-3631996Y+4195828D01*
X-3631996Y+4187485D01*
X-3669540Y+4195828D02*
X-3641382Y+4195828D01*
X-3660154Y+4212514D01*
X-3660154Y+4187485D01*
X-3707084Y+4204171D02*
X-3702391Y+4200000D01*
X-3688312Y+4200000D01*
X-3683619Y+4204171D01*
X-3683619Y+4208343D01*
X-3688312Y+4212514D01*
X-3702391Y+4212514D01*
X-3707084Y+4208343D01*
X-3707084Y+4191656D01*
X-3702391Y+4187485D01*
X-3688312Y+4187485D01*
D120*
X-3785000Y+4445000D02*
X-3595000Y+4445000D01*
X-3595000Y+4355000D01*
X-3785000Y+4355000D01*
X-3785000Y+4445000D01*
X-3690000Y+4375000D02*
X-3690000Y+4425000D01*
X-3665000Y+4400000D02*
X-3715000Y+4400000D01*
D173*
X-3740000Y+4400000D02*
X-3740000Y+4400000D01*
D174*
X-3603838Y+4387485D02*
X-3603838Y+4412514D01*
X-3627303Y+4412514D01*
X-3631996Y+4408343D01*
X-3631996Y+4404171D01*
X-3627303Y+4400000D01*
X-3603838Y+4400000D01*
X-3627303Y+4400000D02*
X-3631996Y+4395828D01*
X-3631996Y+4387485D01*
X-3669540Y+4412514D02*
X-3646075Y+4412514D01*
X-3646075Y+4404171D01*
X-3664847Y+4404171D01*
X-3669540Y+4400000D01*
X-3669540Y+4391656D01*
X-3664847Y+4387485D01*
X-3650768Y+4387485D01*
X-3646075Y+4391656D01*
X-3678926Y+4391656D02*
X-3678926Y+4408343D01*
X-3683619Y+4412514D01*
X-3702391Y+4412514D01*
X-3707084Y+4408343D01*
X-3707084Y+4391656D01*
X-3702391Y+4387485D01*
X-3683619Y+4387485D01*
X-3678926Y+4391656D01*
X-3678926Y+4387485D02*
X-3707084Y+4412514D01*
D120*
X-3785000Y+4645000D02*
X-3595000Y+4645000D01*
X-3595000Y+4555000D01*
X-3785000Y+4555000D01*
X-3785000Y+4645000D01*
X-3690000Y+4575000D02*
X-3690000Y+4625000D01*
X-3665000Y+4600000D02*
X-3715000Y+4600000D01*
D173*
X-3740000Y+4600000D02*
X-3740000Y+4600000D01*
D174*
X-3603838Y+4587485D02*
X-3603838Y+4612514D01*
X-3627303Y+4612514D01*
X-3631996Y+4608343D01*
X-3631996Y+4604171D01*
X-3627303Y+4600000D01*
X-3603838Y+4600000D01*
X-3627303Y+4600000D02*
X-3631996Y+4595828D01*
X-3631996Y+4587485D01*
X-3669540Y+4612514D02*
X-3646075Y+4612514D01*
X-3646075Y+4604171D01*
X-3664847Y+4604171D01*
X-3669540Y+4600000D01*
X-3669540Y+4591656D01*
X-3664847Y+4587485D01*
X-3650768Y+4587485D01*
X-3646075Y+4591656D01*
X-3688312Y+4604171D02*
X-3697698Y+4612514D01*
X-3697698Y+4587485D01*
D120*
X-3945000Y+1045000D02*
X-3755000Y+1045000D01*
X-3755000Y+955000D01*
X-3945000Y+955000D01*
X-3945000Y+1045000D01*
X-3850000Y+975000D02*
X-3850000Y+1025000D01*
X-3825000Y+1000000D02*
X-3875000Y+1000000D01*
D173*
X-3900000Y+1000000D02*
X-3900000Y+1000000D01*
D174*
X-3763838Y+987485D02*
X-3763838Y+1012514D01*
X-3787303Y+1012514D01*
X-3791996Y+1008343D01*
X-3791996Y+1004171D01*
X-3787303Y+1000000D01*
X-3763838Y+1000000D01*
X-3787303Y+1000000D02*
X-3791996Y+995828D01*
X-3791996Y+987485D01*
X-3810768Y+1004171D02*
X-3820154Y+1012514D01*
X-3820154Y+987485D01*
X-3843619Y+1008343D02*
X-3848312Y+1012514D01*
X-3862391Y+1012514D01*
X-3867084Y+1008343D01*
X-3867084Y+1004171D01*
X-3862391Y+1000000D01*
X-3848312Y+1000000D01*
X-3843619Y+995828D01*
X-3843619Y+987485D01*
X-3867084Y+987485D01*
D120*
X-3945000Y+811666D02*
X-3755000Y+811666D01*
X-3755000Y+721666D01*
X-3945000Y+721666D01*
X-3945000Y+811666D01*
X-3850000Y+741666D02*
X-3850000Y+791666D01*
X-3825000Y+766666D02*
X-3875000Y+766666D01*
D173*
X-3900000Y+766666D02*
X-3900000Y+766666D01*
D174*
X-3763838Y+754151D02*
X-3763838Y+779180D01*
X-3787303Y+779180D01*
X-3791996Y+775009D01*
X-3791996Y+770837D01*
X-3787303Y+766666D01*
X-3763838Y+766666D01*
X-3787303Y+766666D02*
X-3791996Y+762494D01*
X-3791996Y+754151D01*
X-3810768Y+770837D02*
X-3820154Y+779180D01*
X-3820154Y+754151D01*
X-3843619Y+779180D02*
X-3867084Y+779180D01*
X-3867084Y+775009D01*
X-3843619Y+754151D01*
D120*
X-3945000Y+578333D02*
X-3755000Y+578333D01*
X-3755000Y+488333D01*
X-3945000Y+488333D01*
X-3945000Y+578333D01*
X-3850000Y+508333D02*
X-3850000Y+558333D01*
X-3825000Y+533333D02*
X-3875000Y+533333D01*
D173*
X-3900000Y+533333D02*
X-3900000Y+533333D01*
D174*
X-3763838Y+520818D02*
X-3763838Y+545847D01*
X-3787303Y+545847D01*
X-3791996Y+541676D01*
X-3791996Y+537504D01*
X-3787303Y+533333D01*
X-3763838Y+533333D01*
X-3787303Y+533333D02*
X-3791996Y+529161D01*
X-3791996Y+520818D01*
X-3810768Y+537504D02*
X-3820154Y+545847D01*
X-3820154Y+520818D01*
X-3848312Y+533333D02*
X-3843619Y+537504D01*
X-3843619Y+541676D01*
X-3848312Y+545847D01*
X-3862391Y+545847D01*
X-3867084Y+541676D01*
X-3867084Y+537504D01*
X-3862391Y+533333D01*
X-3848312Y+533333D01*
X-3843619Y+529161D01*
X-3843619Y+524989D01*
X-3848312Y+520818D01*
X-3862391Y+520818D01*
X-3867084Y+524989D01*
X-3867084Y+529161D01*
X-3862391Y+533333D01*
D120*
X-3945000Y+345000D02*
X-3755000Y+345000D01*
X-3755000Y+255000D01*
X-3945000Y+255000D01*
X-3945000Y+345000D01*
X-3850000Y+275000D02*
X-3850000Y+325000D01*
X-3825000Y+300000D02*
X-3875000Y+300000D01*
D173*
X-3900000Y+300000D02*
X-3900000Y+300000D01*
D174*
X-3763838Y+287485D02*
X-3763838Y+312514D01*
X-3787303Y+312514D01*
X-3791996Y+308343D01*
X-3791996Y+304171D01*
X-3787303Y+300000D01*
X-3763838Y+300000D01*
X-3787303Y+300000D02*
X-3791996Y+295828D01*
X-3791996Y+287485D01*
X-3810768Y+304171D02*
X-3820154Y+312514D01*
X-3820154Y+287485D01*
X-3867084Y+304171D02*
X-3862391Y+300000D01*
X-3848312Y+300000D01*
X-3843619Y+304171D01*
X-3843619Y+308343D01*
X-3848312Y+312514D01*
X-3862391Y+312514D01*
X-3867084Y+308343D01*
X-3867084Y+291656D01*
X-3862391Y+287485D01*
X-3848312Y+287485D01*
M02*
